<svg xmlns="http://www.w3.org/2000/svg" viewBox="0 0 801.81 864"><defs><style>.cls-1{fill:#11a5d3;}.cls-2{fill:#87cf3f;}</style></defs><g id="Layer_2" data-name="Layer 2"><g id="Logo_PtX_TONES" data-name="Logo PtX TONES"><g id="Favicon_PtX_TONES" data-name="Favicon PtX TONES"><path class="cls-1" d="M109.49,235.51a125,125,0,0,1-69-20.68A3.17,3.17,0,0,0,39,217.07a3.4,3.4,0,0,0-.5,2.58c0,.21,0,.41,0,.58-2.21,2.59-1,4.53-.32,5.29a6.93,6.93,0,0,1,.82,1.25,10.85,10.85,0,0,0,1,1.6,40.45,40.45,0,0,0,.35,4.7,26.3,26.3,0,0,1,.23,5.78,10.72,10.72,0,0,0-1.1,4.62,2.34,2.34,0,0,0-.52,1.74v.09a19.73,19.73,0,0,0-2.53,5,1.82,1.82,0,0,0-.67,1.19,2,2,0,0,0-.58,1.28,4.27,4.27,0,0,0-1,2,2.26,2.26,0,0,0-.61,1.71,2.25,2.25,0,0,0-.52,1.77,5.18,5.18,0,0,0-1.1,3C31.34,268,27.88,273,21.38,276.37c-.06,0-.12,0-.18.06a2,2,0,0,0-1.71,2.27,2.67,2.67,0,0,0,.93,1.94,2.26,2.26,0,0,0,1.77.5c.49-.06.7,0,1.07,1.24a14.7,14.7,0,0,0,1.43,3.05c.9,1.6,1.68,3,1.36,4.68l-.23,1.16,1.16.26a.22.22,0,0,1,.15,0c0,.12,0,.29,0,.41a3.2,3.2,0,0,0,.09,1.48,1.91,1.91,0,0,0-1.52.49,1.78,1.78,0,0,0-.46,1.17v.05a3.52,3.52,0,0,0-.29,1.19v.21a49.08,49.08,0,0,1-.49,7.11c-.3,1.89-1.11,6.89,3.95,8.86a3,3,0,0,1,0,.44v.29A4.67,4.67,0,0,0,30,316.63a4.3,4.3,0,0,0-1.59.52A2.3,2.3,0,0,0,27,318.86a2.26,2.26,0,0,0,.23,1.25A1.81,1.81,0,0,0,26,321.88c-.06.93.26,2.07,2.09,2.24h.18a1.36,1.36,0,0,0,.55.44,2.84,2.84,0,0,0,.75,2.2c1,.9,2.3.61,3.34.38l.44-.09a5.6,5.6,0,0,0,2-1,2.81,2.81,0,0,1,1.57-.7,2.54,2.54,0,0,0,1.69-.9,5.62,5.62,0,0,0,2.2,3c.76.61,1.4,1.13,1.54,1.89a1.57,1.57,0,0,0,1.08,1.16,2.35,2.35,0,0,0,2.15-.78.48.48,0,0,1,.11-.15,9.41,9.41,0,0,1,.53,3.37,1.22,1.22,0,0,0,.55,1.16,17.59,17.59,0,0,1,1.45,1.77,9.61,9.61,0,0,0,3.89,3.63,11.71,11.71,0,0,1,3,2.41c.47.47.93.93,1.4,1.37,0,0,0,0,.06,0a0,0,0,0,0,0,0,1.91,1.91,0,0,0-1.4.81,2.12,2.12,0,0,0-.2,1.74l.26,1.22,1.22-.29c2.06-.52,2.44.2,3.37,2.62.15.34.29.72.44,1.07a7.23,7.23,0,0,1,.34,2.76,9.06,9.06,0,0,0,.44,3.37,1.81,1.81,0,0,0-.76.72,2.1,2.1,0,0,0,.53,2.47c.43.38.58.61-.15,2.21l-1.19,2.58,2.7-.92a6.09,6.09,0,0,1,2.18-.53,4.38,4.38,0,0,1-.26,1.28,2.08,2.08,0,0,0,.17,1.69,3.59,3.59,0,0,0-1.16.31l-.9.41.29,1.28c.18.75.5,2.35,2.12,2.5a9.68,9.68,0,0,1,3.87,1.59c.72.41,1.5.85,2.32,1.22s1.42.56,2.15.85c2.52.95,4.9,1.85,6.53,3.89a21.19,21.19,0,0,0,7.76,6.13c-.09,1.88,1.13,3.1,3.63,3.6,1.74.35,2.9,1.42,4.27,2.7A20.45,20.45,0,0,0,96.66,392a35.64,35.64,0,0,1,4.26,4.33,32.19,32.19,0,0,0,5.93,5.63,74.54,74.54,0,0,0,10.57,5.67c2,.93,4,1.86,6,2.9a5.57,5.57,0,0,0,5-.17c.67-.32,1.34-.67,2-1a47.56,47.56,0,0,1,7.09-3,31.55,31.55,0,0,0,4.24-1.71,23.44,23.44,0,0,1,4.74-1.75,93.23,93.23,0,0,1,11.35-1.33c1.89-.15,3.84-.29,5.72-.47,3.75-.4,7.29.35,11.07,1.16l2.87.61,2.12.35c2.36.32,4.56.64,6.25,2.12a4.59,4.59,0,0,0,4.44.85l.47-.09a7.87,7.87,0,0,0,3.34-1.69,5.81,5.81,0,0,1,2.44-1.3c3.68-.73,7.9-1.54,11.58-3.63l.41-.24c4.33-2.44,8.39-4.76,13.36-4.12,3.14.41,4.12-1.45,4.39-3.08.08-.61.46-1.1.66-1.13a21.16,21.16,0,0,0,4.3-.9,23.42,23.42,0,0,1,3.43-.76l1.48-.11c7.38-.73,15-1.46,22.51-1,3.08.17,5.57.76,7.72,3.08,3.69,4,5.78,8.54,7.82,14.17,1.54,4.3,4.53,7.06,8.22,7.55a29.58,29.58,0,0,0,8.83-.52,37.89,37.89,0,0,1,5.69-.67,15.16,15.16,0,0,0,3.89-.75,12.38,12.38,0,0,1,3.57-.67l.84.06a5.87,5.87,0,0,0,3.93-.73,2.82,2.82,0,0,0,1,1,3.46,3.46,0,0,0,3.08,0s0,.06.06.08a7.34,7.34,0,0,1,.4,1.4,4.88,4.88,0,0,0,2.15,3.63c1.43.78,3.31,1.89,5.49,1.62a5.72,5.72,0,0,0,2,4.91,3.81,3.81,0,0,1,1.39,4.19,42.34,42.34,0,0,0-1.31,10.86,4,4,0,0,1-.52,2.38c-.46.73-1,1.45-1.48,2.18-.67,1-1.4,2-2,3.08l-.18.26c-.55.87-1.31,2.06-.75,3.25a3,3,0,0,0,2.2,1.39,4.63,4.63,0,0,0,.21,1.92c-.85,0-2.41.12-2.76,1.92a5.15,5.15,0,0,0,.35,3.48l-.5.06v1.08c0,.34,0,.72,0,1.07,0,.73,0,1.42,0,2.09-.23,2.82-.87,4.56-1.91,5.26-.76.49-1.86.49-3.4,0l-1.11-.35-.4,1.1a5,5,0,0,0,.78,4.62,43.07,43.07,0,0,1,4.71,8.89c1.39,4.24,4,7.32,6.56,10.28l.67.75a33.84,33.84,0,0,0,4.88,4.54,42.91,42.91,0,0,1,4,3.6c1.81,1.94,3.55,3.89,5.32,5.83,2.32,2.59,4.71,5.26,7.14,7.82a14.46,14.46,0,0,1,2.27,3.57,20.31,20.31,0,0,0,2.18,3.63,7.32,7.32,0,0,1,1.62,3.11,3.57,3.57,0,0,1-.29.46,2.12,2.12,0,0,0,0,3.05c1.28,1.19,1.6,2.76,1.92,4.53a19.4,19.4,0,0,0,.67,2.73,13.1,13.1,0,0,0,2.56,4,10.79,10.79,0,0,1,2.06,3.08l.61,1.77c1.71,4.91,3.48,10,6.42,14.55a3.86,3.86,0,0,1,.2,2.27c-1.51,1.13-3.49,2.9-3.83,5.28a6.7,6.7,0,0,0,1.45,4.88v.06c.75,4.47,3,8.36,5.14,11.59,1.92,2.93,3,5.37,2.47,8.48a8.22,8.22,0,0,0-.15.84,15.9,15.9,0,0,0-.4,3.34c.17,5.49-.88,7.41-5.47,10.4-3.1,2-3,3.31-3,3.74.05,1.49-.7,2.15-2,3.23a13.18,13.18,0,0,0-1.6,1.48.72.72,0,0,1-.23.17,2.15,2.15,0,0,0-1.19,2.1,7.27,7.27,0,0,1-.7,3.42,9.65,9.65,0,0,0-.75,3.34c0,3.17-.87,6.07-1.8,9.15a41.4,41.4,0,0,0-1.77,7.46l0,.18c-.06.55-.15,1.45-.5,1.6-3.08,1.13-2.67,3.39-2.38,4.93,0,.24.09.47.12.73a10.75,10.75,0,0,0,.41,1.6,8.59,8.59,0,0,1,.37,1.86c-2.73,1.42-1.77,3.42-1.36,4.29l.11.21a10.63,10.63,0,0,1,.32,6.85,8,8,0,0,0-.14,3.43c1,4.59,2.58,9.76,7.11,13.47a7.6,7.6,0,0,1,1.17,1.43l.08.14a121.82,121.82,0,0,1,7.73,14.23c1.8,3.75,3.69,7.61,5.84,11.27l1.22,2.06a50.63,50.63,0,0,0,5.28,8l.55.67c2.76,3.22,5.14,6,3.14,10.19a3.31,3.31,0,0,0,0,2.36c0,.17.06.31.09.46.08.58.23,1.16.35,1.74.37,1.72.78,3.49.34,4.74-1.22,3.66.29,6.65,1.49,9,.2.38.37.75.55,1.13,1,2.09,1.91,4.07,1.91,6.36a35.23,35.23,0,0,0,3.43,15c.09.17.09.17.09.26-.35,3.69,1.28,6.91,2.7,9.73l.41.78a40.2,40.2,0,0,0,12.57,15,1.37,1.37,0,0,1,.41.46c2.87,4.39,4.62,9.18,6.45,14.24l.69,1.94a46.52,46.52,0,0,0,8.34,14.81c2.87,3.34,3.31,7.18,3.34,10.49,0,1.07-.23,1.39-.35,1.48a1.36,1.36,0,0,1-1,.06,2.68,2.68,0,0,0-2.23.38,3.51,3.51,0,0,0-1.14,2.73c0,.2,0,.37-.05.55a4.58,4.58,0,0,0,1.48,3.8c.84,1,1.13,1.45.87,2.21a1.32,1.32,0,0,0,.14,1.19,1.8,1.8,0,0,0,1.6.67c.09,0,.15,0,.18,0a1.83,1.83,0,0,1,1.39,1.13,1.73,1.73,0,0,1,0,1.68c-1.51,2.3-.61,4.45.14,6.16a2.9,2.9,0,0,0,1.57,1.71,2.12,2.12,0,0,0,1.69-.08,2.24,2.24,0,0,0,1.33-1.43.94.94,0,0,0,.06-.29,4.63,4.63,0,0,0,3.11,1.75l.38.08c.49.12.75.47,1.22,1.17a4.92,4.92,0,0,0,1.56,1.68c2.39,1.42,4.22,2.12,5.93,2.12,1.92,0,3.72-.9,5.95-2.73.76-.55,5.67-1.57,7.18-1.74a20.48,20.48,0,0,1,2.38-.06c2.41.06,5.4.14,7.61-2.73a4.28,4.28,0,0,1,3.22-1.48,13.46,13.46,0,0,1,3.75.35,15.92,15.92,0,0,0,3.6.43,6.13,6.13,0,0,0,2.61-.75c.73-.38,1.13-.55,1.57-.44,1,.29,2.09.47,3.11.67a16.67,16.67,0,0,1,5.46,1.65,5.43,5.43,0,0,0,3.83.44,1.71,1.71,0,0,0,1.19-1c.88-1.86,1.6-2,4.1-.9a3.88,3.88,0,0,0,2.18.21,5.78,5.78,0,0,1,.72,0,2.09,2.09,0,0,0,1.54-.56,2.13,2.13,0,0,0,.61-1.62,2,2,0,0,1,.61-1.69,1.14,1.14,0,0,1,1.05.06c4.64,2.09,8.36,0,11.64-1.86l.9-.52a68,68,0,0,0,9.09-6.3c1.22-1,2.47-1.92,3.75-2.85l.17-.11c3.23-2.39,6.57-4.83,9.15-8.22a11.84,11.84,0,0,1,3.58-3.29c6.21-3.6,10.13-9.32,13.91-14.84l1.3-1.91c.85-1.25,1.6-2.53,2.3-3.81,1.42-2.5,2.73-4.88,4.91-6.65.37-.32.75-.67,1.13-1a16.91,16.91,0,0,1,4.33-3c3.66-1.57,6.3-5.11,7.26-9.67a48,48,0,0,1,2.23-6.85c1.34-3.37,2.68-6.89,2.79-10.78a17.47,17.47,0,0,1,.35-2.55,12.67,12.67,0,0,0,0-6.19l-.52-1.8a9.62,9.62,0,0,1,2.93-2.06c5.14-2.79,10.86-4.42,16.41-6l.58-.17a15.25,15.25,0,0,0,7.9-5.9,9.36,9.36,0,0,1,.73-.81c1-1,2.32-2.5,1.68-4.91-1-3.71.29-7.11,1.8-10.25.15-.29.82-1.8-.09-2.67s-.72-1.42-.17-3a12.45,12.45,0,0,0,.41-1.22c.35-1.19,1-3.69-2.09-4.59a.3.3,0,0,1,0-.23c2.7-.73,2.46-2.91,2.32-4a4.19,4.19,0,0,1,0-.84,1.35,1.35,0,0,1,.06-.35c.32-1.77-.15-2.82-1.45-3.11a1.85,1.85,0,0,0-2.12.81c-1-1.42-1.51-2.32-1-3.86.84-2.27,0-5.23-1.74-6.36-1.6-1-1.57-1.51-1.11-3.69l0-.23c.47-2.21.61-2.93,2.73-3.75,2.64-1,4.65-3.54,6.42-5.81l.46-.64c1.31-1.62,2.76-2.67,3.4-2.67,3.28-.14,4.77-1.86,6.3-3.69.21-.26.44-.52.67-.78l.7-.78c3.63-4.1,7.35-8.34,12.29-10.89.69-.35,1.36-.76,2-1.17a16.11,16.11,0,0,1,4.06-1.91l1.46-.32c3.95-.87,7.66-1.69,11.44-4a52.54,52.54,0,0,0,9.7-8.39l.84-.85c3.52-3.6,7.15-7.29,8.25-12.75a12.14,12.14,0,0,1,.52-1.54,8.79,8.79,0,0,0,.79-2.55c.32-2.47-.55-4.47-1.4-6.39a10.23,10.23,0,0,1-1.24-4.94,13.26,13.26,0,0,1,.2-1.65,15.76,15.76,0,0,0,.26-3.75,8.33,8.33,0,0,0-.84-3.22c1.54-.76,1.83-2.3,1.89-3.81a31.73,31.73,0,0,0-.7-7,26.82,26.82,0,0,1-.58-7.58,4.08,4.08,0,0,0,.06-.58c0-.06,0-.14,0-.23h.27a2.26,2.26,0,0,0,1.94-.5,2,2,0,0,0,.52-1.62c0-.09,0-.35,0-.5.12-.63.41-2.52-1.54-2.93,0,0-.11,0-.14,0s0-.23,0-.32l.06-.32c.64-5.51-.38-7.37-5.23-9.46-1.37-.61-2-1.37-2.7-3.2a24.54,24.54,0,0,1-1.11-5c-.4-2.62-.81-5.35-2.44-7.9-1.45-2.24-1.54-4.07-.32-5.81,1.05-1.48.85-4.39,0-5.78-1.17-1.77-.56-2.85,1-4.68a4.31,4.31,0,0,0,.93-4.15,3.55,3.55,0,0,0-2.7-2.27c-.2-.06-.26-.06-.38-.75a4.87,4.87,0,0,0-3-3.72c-1.22-.49-1.45-.78-1.45-1.92a11,11,0,0,0-.14-1.48,2.94,2.94,0,0,1,.08-2l.59-1.1a33.62,33.62,0,0,0,3.19-7.53c.52-2.17,1.1-4.12,2.82-5.57a11.31,11.31,0,0,0,2.44-3.46l.29-.58c.78-1.48,1.42-3.05,2.06-4.56a46.22,46.22,0,0,1,2.26-4.91l.15-.26c1.51-2.61,2.93-5.08,2.7-8.48,0-.58.7-1.05,1.45-1.22,4.79-1,5.9-2.09,6.6-6.53a1.7,1.7,0,0,1,.11-.5c3.63.76,5.4-1.65,6.68-3.43a14,14,0,0,1,1-1.24,33.16,33.16,0,0,0,3.43-5.12c.63-1.07,1.22-2.09,1.88-3.07a50.47,50.47,0,0,1,5.14-5.75c.76-.73,1.48-1.46,2.21-2.21q1.88-2,3.75-4a137.6,137.6,0,0,1,11.47-11.44l.75-.67c4.1-3.52,8-6.86,12.61-9.38l.93-.5c3.28-1.77,6.68-3.63,9.41-6.5q1.6-1.67,3.16-3.31c8.05-8.37,16.38-17,22.28-27.56.84-1.51,1.77-3,2.67-4.48,2.67-4.3,5.46-8.77,6.39-14.2.64-3.72,2.82-6.82,4.88-9.35a11.53,11.53,0,0,0,2.06-4.91c.47-1.92.9-3.75,2.59-5.14,1.88-1.6,2.73-4,3.51-6.27a18.86,18.86,0,0,1,2.27-4.94c2.35-3.14,2.38-7,2.38-10.66,0-1.16,0-2.29.09-3.37.05-.9.14-.93.9-1.25a4.49,4.49,0,0,1,.64,0c.31,0,.63,0,.92,0,.06,0,.15,0,.21,0a2.2,2.2,0,0,0,1.68-.4,1.89,1.89,0,0,0,.64-1.43l0-.17a2.47,2.47,0,0,0-.46-1.95,2.1,2.1,0,0,0-1.66-.66c-.17,0-.38-.21-.41-.21-.11-1.13-.35-2.23-.55-3.28-.52-2.53-1-4.91,0-7.29.44-1.1,1.48-3.63-.81-5.26a7.1,7.1,0,0,0-5.63-1.25,7.3,7.3,0,0,0-4.74,3.46c0,.06-.14.2-.58.44a20.23,20.23,0,0,1-5.69,2.12,24.55,24.55,0,0,0-6,2.15c-1.68.92-3.8,1.1-6.56.49-2.18-.47-4,.52-5.55,1.36-2.67,1.46-4.41,1.72-6.07.85a3.56,3.56,0,0,0-3.92.14c-.9.58-1.77,1.16-2.64,1.77-1.42,1-2.91,2-4.39,2.85s-2.29,1.28-3.89.52c-2.76-1.3-5.25-1.51-7.2-.67a39.22,39.22,0,0,0-4.94,2.82l-.43.26c-2.67,1.72-5,2.73-7.61,2.24-3.87-.76-6.94-3.08-9.38-7.15-.24-.4-.47-.78-.67-1.19-1-1.8-2.12-3.83-4.79-4.9a5.23,5.23,0,0,0-1.43-.35,5,5,0,0,1,1.69-1A3.07,3.07,0,0,0,710.1,318c.09-3.77-4.44-10.92-7.87-12.37a2.76,2.76,0,0,0-.64-.26c-2.82-.58-4.41-1.89-5.2-4.19a5.34,5.34,0,0,0-1.51-2.12c-.2-.2-.43-.4-.61-.61a13.09,13.09,0,0,0-3.95-3c-1.54-.87-3-1.71-3.86-3.28-1-2-2.44-4.64-5.4-5.2a13.55,13.55,0,0,1-4.62-2.17,25.06,25.06,0,0,0-3.51-1.92c-.09,0-.12,0-.32-.44-.06-.17-.15-.35-.23-.52-1.28-2.29-4-4.27-6.48-3.46a1.81,1.81,0,0,1-2.18-.63,10.47,10.47,0,0,0-2.06-3.84,6.88,6.88,0,0,1-1.72-3.25,45.38,45.38,0,0,0-3.1-11.21l-.09-.18c-1.89-5.08-4-9.87-9.12-12.78l-.35-.17a4.63,4.63,0,0,1-2.41-2.24c-.87-2.09-3.31-3.31-5.28-3.77-1.34-.32-1.78-.84-2-1.57s-.43-1.19-.67-1.77a22.18,22.18,0,0,1-1.59-5.69c-.18-2.15-.53-4.3-.85-6.36a44.54,44.54,0,0,1-.87-10.46,3.65,3.65,0,0,0-.93-2.53c-1.86-2.35-3.74-4.76-3.42-7.93a3.15,3.15,0,0,0-1.92-3.16,16.1,16.1,0,0,1-3.86-2.85c-1.86-1.65-3.75-3.34-6.48-3.95-.06-.05-.09-.11-.15-.17a2,2,0,0,0-.55-.64,10.27,10.27,0,0,1-2.44-4,20.39,20.39,0,0,0-.87-1.94v-2.7a2,2,0,0,0,2.3.17c.78-.49,1.51-1.48.43-3.28l-.08-.15a4.76,4.76,0,0,0-1.6-1.8,17.9,17.9,0,0,1-6.77-7.08c-.26-.53-.49-1.08-.72-1.63a11.48,11.48,0,0,0-3.49-5.14c-1.22-3.78-3.63-6.71-6-9.56l-.53-.64a31,31,0,0,0-1.65-3.48,20.53,20.53,0,0,1-2.32-5.84,6.34,6.34,0,0,0-2.07-3.95c-.08-.09-.26-.23-.4-.35.08-.14.14-.29.23-.43l.12-.24a3.05,3.05,0,0,0,.11-2.41,4.93,4.93,0,0,0,4.68.12c.78-.46,2.06-1.68,1.91-4.47-.17-3.81.87-7.5,1.89-11.07l.38-1.25c1.51-5.37.49-10.1-3.31-15.3-.55-3.34-2.24-6.13-3.75-8.6v-.09a2.3,2.3,0,0,0-.64-1.83,2.14,2.14,0,0,0-1.77-.52h-.38a6,6,0,0,0-3,.73c-2.09,1.3-3.66,1.45-5.2.52-2.23-1.36-4.09-.46-5.43.47a7.38,7.38,0,0,0-1,.87c-.52.49-.75.72-1,.75a9.06,9.06,0,0,0-3.78-2.76,6.25,6.25,0,0,1-2.9-2.06,1.75,1.75,0,0,0-1.4-.78,2.67,2.67,0,0,0-2,.49c-.9.84-1.51.67-3.08-.06-.41-.17-.81-.38-1.22-.52a6.58,6.58,0,0,0-4-.23c-4.38,1.48-9,3.16-13.07,6.27-.35.29-.7.55-1,.87-1.81,1.45-3.37,2.76-5.61,2.09-1.74-2-4.21-2.18-6-2.32a10.28,10.28,0,0,0-1.69.06A3.94,3.94,0,0,1,526,100a12,12,0,0,0-3.69-1.43,12.54,12.54,0,0,1-3.11-1.13c-2.5-1.42-5.54-1.63-8.51-1.83-1.1-.09-2.29-.15-3.37-.29a10.9,10.9,0,0,0-8.16.26c-1.25.47-1.33.41-1.8-.7-2-5-3.51-5.34-8.54-4.5-1.62.26-2.81.29-3.69-.43a8.4,8.4,0,0,0-5.75-1.72c-1.77.09-2.52-.61-2.67-2.26v-.32c0-.64-.08-2.35-1.77-2.62a17.08,17.08,0,0,1-3.6-1.1,18.58,18.58,0,0,0-3.89-1.22,24.06,24.06,0,0,0-11.62.73,35.94,35.94,0,0,0-11.38,5.4c-4.48,3.43-5.78,9.21-3,13.42,1.43,2.17,1,3.42-.55,5.22-4.62,5.64-7.4,6.28-11.91,2.82l-.2-.14a32.5,32.5,0,0,0-6.59-4.27c-4.42-2-9.41-4.19-15.07-4.27-6.54-.15-9.33-2.67-10.26-9.33-.23-1.65-.75-5.05-4.79-4.82a6.42,6.42,0,0,1-2-.4,9.79,9.79,0,0,0-1.22-.35,12.12,12.12,0,0,1-3.34-1.63A11.53,11.53,0,0,0,380.17,81a13.16,13.16,0,0,1-3-.67c-2.09-.64-4.44-1.33-7.08-.11-2.07.93-4.16.58-6.8-1.16a15.7,15.7,0,0,0-5.37-2.36c-.27,0-.56-.08-.85-.14-1.48-.29-2.73-.58-2.84-1.34a22.11,22.11,0,0,0-.64-2.58,16.43,16.43,0,0,1-.61-2.67c-.18-1.89-1.1-2.85-2.76-2.85H350a2.36,2.36,0,0,0-2.82,2.32.61.61,0,0,1-.17.26.6.6,0,0,1-.44.12c-1.16-.17-2-1-2.73-2.76-.12-.32-.46-1.16,1-1.83a19.51,19.51,0,0,0,8.42-7.14,8.64,8.64,0,0,0,1.48-7c-.38-2.33-1-4.51-3.92-5.84a2.34,2.34,0,0,1-.9-1.77,2,2,0,0,1,.15-1.34,9.16,9.16,0,0,0,4.09-3.31,14.36,14.36,0,0,1,1.22-1.42,4.2,4.2,0,0,0,1.16-4.59,3.4,3.4,0,0,0-2.7-2.32,3.1,3.1,0,0,1-1-.41,1.5,1.5,0,0,0-2.2,0,1.86,1.86,0,0,0-.26,2.58s0,0-.06,0a3.11,3.11,0,0,0-1.83.64l-.18-.61a3.48,3.48,0,0,1-.23-1.19V31.4a2.53,2.53,0,0,0-1.77-3c-3.31-1.07-8.19-2.15-12.26,1-1.91,1.48-4.12,1.63-6.45,1.8a24.22,24.22,0,0,0-4.15.58,2.3,2.3,0,0,0-.93-.9,6.38,6.38,0,0,0-2.41-1.19,8.08,8.08,0,0,1-.9-.32,4.36,4.36,0,0,0-3.19-.2,2,2,0,0,0-1.11,1.34,1.65,1.65,0,0,1-.08.26l-.35-.09-.29-.09-1.08-.17a7.87,7.87,0,0,1-.93-.15A3.1,3.1,0,0,0,308,28.69l-.14-.4-1.34,1.07-.26.15A2.58,2.58,0,0,0,305,30.73c-.52.08-1.05.2-1.54.29a7.6,7.6,0,0,1-2.85.29,2.24,2.24,0,0,0-2.49,1.54,2.75,2.75,0,0,1-.76-.06c-.08,0-.17,0-.26-.06a1.63,1.63,0,0,0-.84-1.16,1.75,1.75,0,0,0-1.22-.78,2.2,2.2,0,0,0-1.69-.59,39.93,39.93,0,0,0-12.19-.75,1.18,1.18,0,0,0-.85.49,5.77,5.77,0,0,1-4.06.18c-1.54-.55-3.37-.87-4.91,1.1l-.23.26a2.61,2.61,0,0,1-.29.12,1.73,1.73,0,0,1-.32.14,22.89,22.89,0,0,0-7.61,0,26.85,26.85,0,0,1-5.64.17l-.32-.06a3.66,3.66,0,0,0-3.1.61,2.13,2.13,0,0,0-1.28.73,5.25,5.25,0,0,1-.73.14,4.46,4.46,0,0,0-2.44.93l-.55.12a4.71,4.71,0,0,0-2,.78,2.24,2.24,0,0,0-1.17.55,2.32,2.32,0,0,0-1.5,1,2.49,2.49,0,0,0-1,1.57l-.15.17a2.41,2.41,0,0,1-.81.58,3.43,3.43,0,0,0-2.5-1.3,4.17,4.17,0,0,0-2.76,1.51c-.17.17-.55.2-1.16.2h-.49a3.36,3.36,0,0,1-.55,0,3,3,0,0,0-3,1.08l-.06,0a2.3,2.3,0,0,0-1.57,1A2.49,2.49,0,0,0,229,43.13l-.29.29-.08.17a2.51,2.51,0,0,1-.61.12,3.11,3.11,0,0,0-2.33,1.1l-.06.06a2.11,2.11,0,0,0-1.3.76,7,7,0,0,1-3.34-.21,13.48,13.48,0,0,0-2.79-.35h-.49A125.94,125.94,0,0,1,109.49,235.51Z"/><path class="cls-2" d="M219,109.52A109.51,109.51,0,1,1,109.49,0,109.64,109.64,0,0,1,219,109.52Z"/></g></g></g></svg>