<svg xmlns="http://www.w3.org/2000/svg" viewBox="0 0 706.4 864"><defs><style>.cls-1{fill:#fff;}</style></defs><g id="Layer_2" data-name="Layer 2"><g id="Logo_PtX_MONO" data-name="Logo PtX MONO"><path id="Favicon_PtX_MONO" data-name="Favicon PtX MONO" class="cls-1" d="M706,333.11a1.72,1.72,0,0,0-1.46-.66c-.15,0-.32-.2-.34-.2-.11-1.13-.3-2.23-.5-3.3-.45-2.5-.88-4.88,0-7.27.41-1.09,1.31-3.65-.71-5.26a5.57,5.57,0,0,0-4.94-1.25,6.45,6.45,0,0,0-4.17,3.46,2,2,0,0,1-.52.45,16.85,16.85,0,0,1-5,2.11,19.08,19.08,0,0,0-5.27,2.15c-1.46.94-3.35,1.09-5.76.49-1.93-.47-3.52.52-4.92,1.38-2.34,1.46-3.89,1.69-5.33.81a2.84,2.84,0,0,0-3.46.15c-.79.58-1.57,1.18-2.34,1.79-1.25,1-2.54,2-3.85,2.83s-2,1.27-3.41.54c-2.45-1.31-4.65-1.53-6.36-.69a35,35,0,0,0-4.37,2.82l-.36.28c-2.35,1.7-4.39,2.73-6.71,2.21-3.39-.73-6.1-3.07-8.27-7.13-.22-.39-.41-.8-.6-1.19-.86-1.8-1.85-3.84-4.21-4.92a4,4,0,0,0-1.25-.32,4.54,4.54,0,0,1,1.48-1c2-.56,2.28-1.93,2.3-3.35.09-3.78-3.91-10.94-6.92-12.38a3,3,0,0,0-.58-.26,5.63,5.63,0,0,1-4.55-4.21,5.66,5.66,0,0,0-1.36-2.11,6.23,6.23,0,0,1-.51-.62,12.15,12.15,0,0,0-3.48-3,8,8,0,0,1-3.4-3.31c-.92-1.95-2.17-4.64-4.77-5.17a11.54,11.54,0,0,1-4.08-2.17,19,19,0,0,0-3.1-1.92c-.08,0-.11,0-.26-.45-.06-.17-.15-.34-.23-.51-1.12-2.3-3.48-4.28-5.7-3.46a1.52,1.52,0,0,1-1.91-.65,10.61,10.61,0,0,0-1.83-3.82,7.14,7.14,0,0,1-1.5-3.27,51,51,0,0,0-2.75-11.2l0-.19c-1.67-5.07-3.54-9.86-8.05-12.77l-.28-.17a4.23,4.23,0,0,1-2.15-2.25,6.77,6.77,0,0,0-4.67-3.79,2.11,2.11,0,0,1-1.78-1.54c-.17-.6-.37-1.19-.58-1.79a24.2,24.2,0,0,1-1.4-5.67c-.15-2.15-.47-4.3-.75-6.38a52.45,52.45,0,0,1-.79-10.45,3.68,3.68,0,0,0-.82-2.51c-1.61-2.34-3.29-4.77-3-7.93a3.16,3.16,0,0,0-1.68-3.16,15.28,15.28,0,0,1-3.41-2.88c-1.61-1.63-3.29-3.33-5.7-3.93a1.09,1.09,0,0,0-.13-.17,2.51,2.51,0,0,0-.47-.65,10.17,10.17,0,0,1-2.17-4c-.21-.64-.47-1.29-.75-1.93v-.82c0-.62,0-1.26,0-1.89a1.58,1.58,0,0,0,2,.15c.69-.49,1.31-1.46.39-3.26l-.09-.13a4.68,4.68,0,0,0-1.4-1.83,17.13,17.13,0,0,1-6-7.09c-.24-.52-.43-1.05-.65-1.61a11.27,11.27,0,0,0-3.07-5.14c-1-3.78-3.18-6.7-5.24-9.56l-.48-.63c-.43-1.22-.94-2.38-1.46-3.5a23.38,23.38,0,0,1-2.06-5.82,6.49,6.49,0,0,0-1.81-4l-.34-.34c0-.13.13-.28.19-.43l.09-.22a3.27,3.27,0,0,0,.11-2.42,3.86,3.86,0,0,0,4.12.12c.69-.47,1.83-1.67,1.7-4.47-.17-3.8.78-7.49,1.68-11.08l.3-1.25c1.33-5.37.43-10.1-2.9-15.3a26,26,0,0,0-3.31-8.58v-.08a2.61,2.61,0,0,0-.54-1.85,1.93,1.93,0,0,0-1.57-.54l-.32,0a4.69,4.69,0,0,0-2.66.74c-1.83,1.31-3.21,1.46-4.58.51-2-1.35-3.59-.47-4.79.47a6.19,6.19,0,0,0-.84.86c-.45.52-.67.71-.88.76a7.74,7.74,0,0,0-3.31-2.76,5.59,5.59,0,0,1-2.56-2.06,1.54,1.54,0,0,0-1.23-.77,2,2,0,0,0-1.76.47c-.79.84-1.35.67-2.73-.06-.36-.18-.71-.37-1.05-.5a5,5,0,0,0-3.48-.23c-3.87,1.46-7.93,3.15-11.52,6.27-.3.26-.62.56-.95.84-1.56,1.48-3,2.77-4.92,2.13-1.54-2-3.69-2.17-5.28-2.32a10.74,10.74,0,0,0-1.51,0,2.75,2.75,0,0,1-1.95-.24,10.59,10.59,0,0,0-3.27-1.42,9.71,9.71,0,0,1-2.73-1.12c-2.19-1.43-4.88-1.63-7.48-1.82-1-.09-2-.15-3-.3a8.64,8.64,0,0,0-7.18.26c-1.1.47-1.18.43-1.59-.69-1.79-5-3.1-5.35-7.52-4.52-1.44.28-2.47.31-3.25-.4a6.82,6.82,0,0,0-5.09-1.72c-1.53.08-2.19-.6-2.32-2.28a1.77,1.77,0,0,1,0-.32c0-.65-.09-2.35-1.55-2.6a14.73,14.73,0,0,1-3.18-1.12,15.29,15.29,0,0,0-3.44-1.23,18.5,18.5,0,0,0-10.21.76,29.74,29.74,0,0,0-10.06,5.37c-3.93,3.44-5.07,9.22-2.62,13.43,1.25,2.17.84,3.42-.49,5.24-4.06,5.61-6.51,6.28-10.49,2.8l-.17-.13A28.26,28.26,0,0,0,372,103.9c-3.89-2-8.28-4.19-13.26-4.29-5.76-.13-8.21-2.67-9.05-9.33-.19-1.63-.64-5-4.21-4.81a4.72,4.72,0,0,1-1.76-.41,11.3,11.3,0,0,0-1.08-.35,10.37,10.37,0,0,1-3-1.63A9.29,9.29,0,0,0,334.92,81a11.44,11.44,0,0,1-2.62-.66c-1.83-.63-3.91-1.36-6.23-.13-1.81.94-3.66.58-6-1.16a13.41,13.41,0,0,0-4.75-2.34l-.73-.18c-1.31-.28-2.41-.55-2.51-1.33a24.43,24.43,0,0,0-.56-2.58A14.75,14.75,0,0,1,311,70c-.15-1.89-1-2.86-2.43-2.86l-.23,0c-.63,0-2.28-.09-2.48,2.34a.4.4,0,0,1-.17.26.33.33,0,0,1-.36.11c-1-.15-1.72-1-2.41-2.75-.11-.33-.43-1.14.88-1.81a18.22,18.22,0,0,0,7.44-7.15,9.79,9.79,0,0,0,1.31-7c-.33-2.32-.84-4.51-3.46-5.84a2.45,2.45,0,0,1-.8-1.77,2.24,2.24,0,0,1,.13-1.33A8.22,8.22,0,0,0,312,38.81a16.22,16.22,0,0,1,1.1-1.4,4.68,4.68,0,0,0,1-4.59,3,3,0,0,0-2.39-2.3,2.36,2.36,0,0,1-.86-.43,1.22,1.22,0,0,0-1.95,0,2,2,0,0,0-.24,2.57s0,0,0,0a2.55,2.55,0,0,0-1.61.66c-.07-.21-.11-.43-.18-.62a5,5,0,0,1-.19-1.2V31.4a2.61,2.61,0,0,0-1.57-3c-2.92-1.07-7.22-2.15-10.79.94-1.69,1.49-3.63,1.64-5.67,1.81a18.92,18.92,0,0,0-3.67.58,2,2,0,0,0-.82-.88,5.08,5.08,0,0,0-2.11-1.2,6.48,6.48,0,0,1-.79-.33,3.54,3.54,0,0,0-2.84-.21,2,2,0,0,0-1,1.33,1.37,1.37,0,0,1-.08.26l-.28-.07-.26-.08a8.46,8.46,0,0,0-1-.17c-.23-.05-.62-.09-.81-.15-1.1-2.2-2.58-2-3.68-1.55l-.15-.41L270,29.35a.84.84,0,0,1-.24.16,2.44,2.44,0,0,0-1.11,1.22c-.47.09-.93.19-1.36.3a5.89,5.89,0,0,1-2.49.28c-.47-.09-1.57-.11-2.21,1.53a2,2,0,0,1-.67-.05.79.79,0,0,0-.23,0,1.5,1.5,0,0,0-.74-1.16,1.47,1.47,0,0,0-1.07-.8,1.76,1.76,0,0,0-1.48-.58,30.62,30.62,0,0,0-10.75-.77,1,1,0,0,0-.75.5,4.46,4.46,0,0,1-3.57.17c-1.37-.56-3-.86-4.34,1.11l-.21.26-.24.13a1.94,1.94,0,0,1-.3.13,17.89,17.89,0,0,0-6.68-.06,20,20,0,0,1-5,.17l-.26,0a2.88,2.88,0,0,0-2.73.6,1.88,1.88,0,0,0-1.14.75l-.64.13a3.63,3.63,0,0,0-2.15.9c-.17.06-.32.09-.47.13a3.89,3.89,0,0,0-1.76.79,1.77,1.77,0,0,0-1,.54,2.18,2.18,0,0,0-1.34,1,2.42,2.42,0,0,0-.92,1.57l-.15.15a1.67,1.67,0,0,1-.69.58,3,3,0,0,0-2.21-1.27,3.39,3.39,0,0,0-2.41,1.49c-.15.19-.49.19-1,.21h-.45a1.85,1.85,0,0,1-.47,0,2.54,2.54,0,0,0-2.67,1.08l0,.06a2.14,2.14,0,0,0-1.4,1,2.35,2.35,0,0,0-.9,1.57l-.26.3-.09.17a1.86,1.86,0,0,1-.53.11,2.44,2.44,0,0,0-2,1.12l0,0a2.05,2.05,0,0,0-1.18.73,5.45,5.45,0,0,1-2.92-.17,9.62,9.62,0,0,0-2.45-.37,2.25,2.25,0,0,1-.45,0,138.12,138.12,0,0,1,15.66,64.47c0,69.46-49.79,126-111,126-22.44,0-43.33-7.63-60.82-20.68a3.23,3.23,0,0,0-1.31,2.24,4,4,0,0,0-.45,2.58c0,.21,0,.41,0,.58-1.93,2.58-.86,4.53-.28,5.28a6.26,6.26,0,0,1,.71,1.25,9.82,9.82,0,0,0,.93,1.61,42.83,42.83,0,0,0,.3,4.71,31.13,31.13,0,0,1,.21,5.76,11.73,11.73,0,0,0-1,4.62,2.52,2.52,0,0,0-.45,1.76v.07a20.19,20.19,0,0,0-2.23,5,1.84,1.84,0,0,0-.6,1.21,2.18,2.18,0,0,0-.52,1.26,4.55,4.55,0,0,0-.9,2,2.27,2.27,0,0,0-.54,1.72,2.37,2.37,0,0,0-.47,1.76,5.41,5.41,0,0,0-1,3,18.26,18.26,0,0,1-9.3,15.15l-.18.06a2,2,0,0,0-1.5,2.28,2.89,2.89,0,0,0,.82,2,1.88,1.88,0,0,0,1.57.47c.43,0,.6,0,.94,1.25a15.75,15.75,0,0,0,1.25,3.05c.79,1.59,1.48,3,1.2,4.68l-.19,1.16,1,.24.11,0c0,.11,0,.28,0,.41a4,4,0,0,0,.07,1.48,1.56,1.56,0,0,0-1.31.5,1.75,1.75,0,0,0-.41,1.18l0,0a3.86,3.86,0,0,0-.24,1.18l0,.22a50.58,50.58,0,0,1-.41,7.11c-.28,1.87-1,6.88,3.46,8.86A1.24,1.24,0,0,1,25,313v.26a4.8,4.8,0,0,0,1.37,3.37,3.89,3.89,0,0,0-1.4.54,2.21,2.21,0,0,0-1.18,1.72,2.08,2.08,0,0,0,.22,1.22,2.14,2.14,0,0,0,.73,4,.32.32,0,0,1,.13,0,1.4,1.4,0,0,0,.51.41,3.08,3.08,0,0,0,.65,2.21c.84.91,2,.6,3,.37l.37-.09a4.61,4.61,0,0,0,1.8-1c.56-.43.91-.71,1.36-.71a2,2,0,0,0,1.48-.9,5.48,5.48,0,0,0,2,3,3.79,3.79,0,0,1,1.35,1.91,1.41,1.41,0,0,0,1,1.14,1.82,1.82,0,0,0,1.87-.77.57.57,0,0,0,.1-.13,9.59,9.59,0,0,1,.48,3.37,1.24,1.24,0,0,0,.49,1.14,17.54,17.54,0,0,1,1.27,1.79A9,9,0,0,0,46,339.52a10,10,0,0,1,2.6,2.41c.41.47.81.94,1.24,1.35a.07.07,0,0,0,0,0l0,0a1.73,1.73,0,0,0-1.22.82,2.46,2.46,0,0,0-.17,1.74l.23,1.23,1.06-.31c1.82-.51,2.17.22,3,2.63.13.36.24.73.39,1.07a8.1,8.1,0,0,1,.3,2.75,10.67,10.67,0,0,0,.37,3.38,1.82,1.82,0,0,0-.65.7,2.35,2.35,0,0,0,.45,2.5c.39.38.52.62-.13,2.19l-1,2.6,2.37-.92a4.82,4.82,0,0,1,1.91-.54,4.94,4.94,0,0,1-.22,1.29,2.21,2.21,0,0,0,.15,1.67,2.84,2.84,0,0,0-1,.33l-.79.4.26,1.27c.13.78.41,2.35,1.87,2.52a8.53,8.53,0,0,1,3.39,1.57,15.94,15.94,0,0,0,2,1.22c.6.3,1.25.58,1.89.84,2.22,1,4.32,1.87,5.76,3.89a19.2,19.2,0,0,0,6.82,6.14c-.07,1.9,1,3.1,3.2,3.59,1.55.37,2.58,1.44,3.76,2.71.45.47.88.93,1.35,1.38a33.77,33.77,0,0,1,3.76,4.32A31.35,31.35,0,0,0,94.15,402a61.44,61.44,0,0,0,9.3,5.63c1.74.94,3.55,1.89,5.27,2.94a4.45,4.45,0,0,0,4.38-.21c.58-.3,1.16-.65,1.74-1a38.56,38.56,0,0,1,6.26-3,29.41,29.41,0,0,0,3.71-1.67,18.61,18.61,0,0,1,4.17-1.77,71.57,71.57,0,0,1,10-1.33c1.65-.13,3.35-.28,5.05-.47,3.26-.41,6.4.36,9.73,1.18.84.19,1.68.41,2.54.58.6.15,1.22.24,1.85.34,2.08.35,4,.67,5.52,2.13a3.59,3.59,0,0,0,3.91.84l.41-.09a6.68,6.68,0,0,0,2.94-1.67,5.26,5.26,0,0,1,2.15-1.31c3.25-.71,6.94-1.53,10.19-3.61l.38-.24c3.81-2.45,7.4-4.77,11.78-4.13,2.75.41,3.61-1.44,3.85-3.09.08-.6.41-1.1.58-1.12a17.71,17.71,0,0,0,3.8-.88,15,15,0,0,1,3-.77l1.29-.13c6.51-.73,13.22-1.46,19.84-1,2.7.17,4.92.77,6.81,3.09,3.24,4,5.09,8.51,6.87,14.16,1.36,4.3,4,7.05,7.23,7.55a23.68,23.68,0,0,0,7.8-.52,30.31,30.31,0,0,1,5-.66A12.86,12.86,0,0,0,265,411a10.21,10.21,0,0,1,3.14-.66c.24,0,.49,0,.75,0a4.61,4.61,0,0,0,3.44-.73,2.75,2.75,0,0,0,.9,1,2.65,2.65,0,0,0,2.71,0s0,.07,0,.09a7.05,7.05,0,0,1,.37,1.4,4.94,4.94,0,0,0,1.89,3.63c1.25.79,2.92,1.87,4.86,1.63a6,6,0,0,0,1.76,4.9,4,4,0,0,1,1.22,4.19,48.8,48.8,0,0,0-1.14,10.87,4.49,4.49,0,0,1-.45,2.37c-.43.73-.86,1.46-1.31,2.17-.6,1-1.22,2-1.8,3.07l-.15.28c-.48.86-1.14,2.06-.65,3.25a2.5,2.5,0,0,0,1.94,1.37,5.47,5.47,0,0,0,.17,1.94,2.19,2.19,0,0,0-2.43,1.91,6,6,0,0,0,.3,3.5l-.41,0v2.17a18.06,18.06,0,0,1,0,2.09c-.19,2.79-.77,4.55-1.68,5.24-.66.5-1.63.52-3,0l-1-.36-.35,1.09a5.55,5.55,0,0,0,.67,4.63,42.63,42.63,0,0,1,4.15,8.89c1.24,4.24,3.57,7.31,5.8,10.27l.56.78a33.65,33.65,0,0,0,4.32,4.51,36.44,36.44,0,0,1,3.54,3.61c1.6,1.93,3.14,3.89,4.69,5.85,2,2.57,4.17,5.24,6.32,7.8a15.16,15.16,0,0,1,2,3.56,22.25,22.25,0,0,0,1.92,3.64,8.07,8.07,0,0,1,1.44,3.11,4.05,4.05,0,0,1-.26.47,2.35,2.35,0,0,0,0,3.06c1.14,1.18,1.39,2.73,1.7,4.53a18.09,18.09,0,0,0,.6,2.71,13.34,13.34,0,0,0,2.23,4,10.26,10.26,0,0,1,1.81,3.07l.56,1.76c1.5,4.9,3.07,10,5.65,14.55a4.31,4.31,0,0,1,.15,2.28c-1.31,1.14-3.05,2.9-3.35,5.28a7.29,7.29,0,0,0,1.26,4.88v0a32.94,32.94,0,0,0,4.54,11.61c1.7,2.92,2.64,5.35,2.17,8.47,0,.28-.09.56-.13.83a16.79,16.79,0,0,0-.34,3.36c.12,5.48-.78,7.41-4.82,10.38-2.73,2-2.68,3.33-2.66,3.76,0,1.48-.63,2.15-1.79,3.22a11.89,11.89,0,0,0-1.44,1.48c0,.07-.13.11-.19.18a2.19,2.19,0,0,0-1,2.1,8.59,8.59,0,0,1-.6,3.42,10.09,10.09,0,0,0-.69,3.33,33.62,33.62,0,0,1-1.59,9.15,43.65,43.65,0,0,0-1.55,7.46l0,.19c0,.54-.13,1.44-.45,1.57-2.71,1.14-2.34,3.42-2.09,4.95,0,.23.07.49.11.73a12.61,12.61,0,0,0,.35,1.61,8.56,8.56,0,0,1,.32,1.85,3,3,0,0,0-1.18,4.27l.08.24a11.92,11.92,0,0,1,.28,6.83,9.77,9.77,0,0,0-.13,3.42c.86,4.6,2.3,9.8,6.28,13.5a6,6,0,0,1,1,1.44l.08.12a126.31,126.31,0,0,1,6.82,14.23c1.59,3.74,3.24,7.61,5.15,11.28.35.67.71,1.36,1.06,2.07a54.34,54.34,0,0,0,4.66,8l.49.67c2.43,3.2,4.52,6,2.75,10.21a3.82,3.82,0,0,0,0,2.34c0,.15.07.3.09.45.08.58.19,1.16.3,1.74.34,1.72.69,3.48.3,4.75-1.05,3.65.26,6.64,1.31,9,.17.39.35.76.5,1.12a16.45,16.45,0,0,1,1.67,6.38,39.66,39.66,0,0,0,3,15,.7.7,0,0,1,.07.28c-.3,3.7,1.14,6.9,2.38,9.74l.37.77a39.85,39.85,0,0,0,11.06,15,1.41,1.41,0,0,1,.37.47c2.54,4.38,4.06,9.15,5.67,14.23l.63,1.93a49,49,0,0,0,7.32,14.83c2.56,3.33,2.93,7.18,2.95,10.48,0,1.08-.22,1.4-.3,1.49s-.45.15-.86.06a2.16,2.16,0,0,0-2,.37,3.81,3.81,0,0,0-1,2.73,5.46,5.46,0,0,1,0,.56,5,5,0,0,0,1.31,3.78c.73,1,1,1.46.77,2.21a1.46,1.46,0,0,0,.13,1.2,1.51,1.51,0,0,0,1.42.67.39.39,0,0,1,.15,0,1.67,1.67,0,0,1,1.2,1.14,1.91,1.91,0,0,1,0,1.68c-1.33,2.3-.51,4.45.13,6.16a2.9,2.9,0,0,0,1.38,1.72,1.72,1.72,0,0,0,1.5-.08,2.15,2.15,0,0,0,1.16-1.44c0-.09.05-.2.07-.3A4,4,0,0,0,381,859l.32.09c.45.1.69.47,1.07,1.16a4.87,4.87,0,0,0,1.4,1.67c2.11,1.42,3.72,2.13,5.22,2.13,1.7,0,3.27-.88,5.25-2.71.66-.56,5-1.59,6.31-1.76a13.27,13.27,0,0,1,2.11,0c2.13,0,4.77.13,6.7-2.75a3.65,3.65,0,0,1,2.82-1.47,10.07,10.07,0,0,1,3.33.35,13.85,13.85,0,0,0,3.16.43,4.59,4.59,0,0,0,2.3-.78c.64-.34,1-.53,1.4-.42.9.27,1.82.47,2.73.66a13.58,13.58,0,0,1,4.79,1.66,4.33,4.33,0,0,0,3.39.45,1.71,1.71,0,0,0,1.06-1c.75-1.87,1.39-2,3.61-.88a3.11,3.11,0,0,0,1.91.19c.21,0,.43,0,.62,0a1.72,1.72,0,0,0,1.38-.54,2.5,2.5,0,0,0,.54-1.63,2.26,2.26,0,0,1,.53-1.7,1,1,0,0,1,.93.07c4.1,2.1,7.37,0,10.25-1.85l.79-.52a63.47,63.47,0,0,0,8-6.29c1.09-1,2.19-1.94,3.31-2.86l.15-.13c2.85-2.37,5.8-4.79,8.05-8.21a11.75,11.75,0,0,1,3.16-3.29c5.48-3.59,8.92-9.3,12.25-14.85.39-.62.78-1.27,1.16-1.91.76-1.23,1.4-2.54,2-3.8,1.25-2.5,2.41-4.86,4.32-6.64.35-.33.67-.67,1-1a14.38,14.38,0,0,1,3.81-3c3.22-1.55,5.54-5.09,6.4-9.67a46.5,46.5,0,0,1,2-6.84A35.22,35.22,0,0,0,513,770.5a22.49,22.49,0,0,1,.3-2.58,13.9,13.9,0,0,0,0-6.17l-.47-1.8a8.23,8.23,0,0,1,2.6-2.07c4.51-2.79,9.56-4.42,14.44-6l.53-.17c3.27-1.06,5.35-3.57,7-5.91.19-.26.4-.54.62-.8a5.19,5.19,0,0,0,1.5-4.9c-.88-3.72.24-7.13,1.59-10.27.13-.28.71-1.78-.06-2.64s-.67-1.44-.15-3c.11-.39.23-.8.34-1.23.28-1.18.88-3.67-1.85-4.6a.37.37,0,0,1,0-.21c2.39-.73,2.17-2.9,2-4a5.7,5.7,0,0,1,0-.86c0-.11,0-.21.07-.34.3-1.79-.13-2.82-1.27-3.1a1.51,1.51,0,0,0-1.87.82c-.92-1.44-1.33-2.34-.84-3.89.73-2.26,0-5.2-1.55-6.34-1.39-1-1.37-1.53-1-3.7l0-.23c.41-2.19.54-3,2.41-3.74,2.32-1,4.08-3.55,5.65-5.83l.43-.62c1.14-1.65,2.4-2.66,3-2.68,2.9-.15,4.19-1.87,5.57-3.68l.6-.79.6-.8c3.18-4.08,6.49-8.32,10.83-10.87.6-.37,1.19-.76,1.76-1.16a12.48,12.48,0,0,1,3.59-1.92l1.27-.32c3.46-.86,6.75-1.68,10.06-4a48.32,48.32,0,0,0,8.57-8.38l.73-.86c3.1-3.59,6.3-7.28,7.29-12.74a9.4,9.4,0,0,1,.45-1.53,10.15,10.15,0,0,0,.69-2.55,12.62,12.62,0,0,0-1.23-6.41,11.2,11.2,0,0,1-1.11-4.92c0-.56.1-1.12.19-1.68a17.28,17.28,0,0,0,.21-3.71,8.56,8.56,0,0,0-.73-3.25c1.36-.73,1.62-2.28,1.68-3.8a37.46,37.46,0,0,0-.62-7,29.89,29.89,0,0,1-.5-7.56c0-.22,0-.41,0-.58a1,1,0,0,1,0-.24h.23a1.82,1.82,0,0,0,1.7-.49,2.1,2.1,0,0,0,.45-1.62c0-.1,0-.34,0-.51.09-.62.35-2.54-1.35-2.92-.06,0-.11,0-.15-.05a1.47,1.47,0,0,0,0-.32l0-.3c.58-5.52-.33-7.37-4.6-9.5-1.21-.58-1.76-1.33-2.39-3.18a27.74,27.74,0,0,1-1-5,20.87,20.87,0,0,0-2.15-7.91c-1.27-2.24-1.36-4.08-.28-5.8a6.86,6.86,0,0,0-.07-5.81c-1-1.78-.47-2.83.88-4.68a4.75,4.75,0,0,0,.82-4.13,3.25,3.25,0,0,0-2.38-2.27c-.18,0-.22-.07-.33-.76a4.9,4.9,0,0,0-2.66-3.74c-1.08-.47-1.27-.77-1.27-1.91a10.91,10.91,0,0,0-.15-1.46,3.43,3.43,0,0,1,.09-2l.51-1.12a36.63,36.63,0,0,0,2.82-7.52c.47-2.19,1-4.12,2.47-5.59a10.85,10.85,0,0,0,2.15-3.46l.25-.58c.71-1.48,1.27-3.05,1.83-4.55a42.08,42.08,0,0,1,2-4.9l.13-.26c1.33-2.62,2.58-5.09,2.36-8.49,0-.6.63-1.05,1.27-1.22,4.23-1,5.22-2.09,5.82-6.54a1.79,1.79,0,0,1,.11-.47c3.2.73,4.75-1.67,5.89-3.44.28-.43.58-.88.88-1.27a29.85,29.85,0,0,0,3-5.09c.56-1.07,1.08-2.1,1.68-3.07a41.42,41.42,0,0,1,4.53-5.76c.65-.73,1.29-1.46,1.91-2.21,1.12-1.31,2.22-2.65,3.31-4A137.09,137.09,0,0,1,635,449.55l.67-.65c3.61-3.54,7-6.88,11.11-9.39l.82-.52c2.9-1.76,5.88-3.58,8.31-6.49.93-1.09,1.85-2.21,2.78-3.3,7.09-8.36,14.42-17,19.62-27.55.73-1.51,1.54-3,2.36-4.47,2.36-4.32,4.81-8.79,5.63-14.23a21.59,21.59,0,0,1,4.3-9.35,12.49,12.49,0,0,0,1.8-4.92c.41-1.91.82-3.72,2.28-5.14,1.68-1.59,2.41-4,3.1-6.25a19.72,19.72,0,0,1,2-4.94c2.09-3.16,2.09-7,2.09-10.66,0-1.16,0-2.28.09-3.38.06-.9.15-.92.79-1.22a2.48,2.48,0,0,1,.56,0,5.61,5.61,0,0,0,.82,0,.6.6,0,0,1,.19,0,1.73,1.73,0,0,0,1.48-.41,2,2,0,0,0,.56-1.42l0-.19A2.59,2.59,0,0,0,706,333.11ZM96.47,219.05c53.21,0,96.49-49.13,96.49-109.52,0-29.48-10.34-56.26-27.08-76C148.32,12.89,123.72,0,96.47,0,43.28,0,0,49.13,0,109.53c0,32.69,12.7,62,32.77,82.14C49.77,208.69,72.08,219.05,96.47,219.05Z"/></g></g></svg>