<svg xmlns="http://www.w3.org/2000/svg" xmlns:xlink="http://www.w3.org/1999/xlink" viewBox="0 0 543.5 195.74"><defs><style>.cls-1{fill:url(#linear-gradient);}.cls-2{fill:url(#radial-gradient);}.cls-3{fill:url(#radial-gradient-2);}.cls-4{fill:#fff;}.cls-5{fill:#5cc4e3;}.cls-6{fill:#4fa5d8;}</style><linearGradient id="linear-gradient" x1="52.53" y1="68.17" x2="97.53" y2="68.17" gradientUnits="userSpaceOnUse"><stop offset="0.17" stop-color="#89e9fd"/><stop offset="1" stop-color="#68aeff"/></linearGradient><radialGradient id="radial-gradient" cx="119.53" cy="89.17" r="45" gradientUnits="userSpaceOnUse"><stop offset="0" stop-color="#68aeff"/><stop offset="0.11" stop-color="#66a8fc"/><stop offset="1" stop-color="#4051ce"/></radialGradient><radialGradient id="radial-gradient-2" cx="67.08" cy="83.49" r="36.08" gradientUnits="userSpaceOnUse"><stop offset="0" stop-color="#fff"/><stop offset="1" stop-color="#89e9fd"/></radialGradient></defs><g id="Layer_2" data-name="Layer 2"><g id="Gradient_-_Dark_Background" data-name="Gradient - Dark Background"><g id="Gradient_-_Dark_Background-2" data-name="Gradient - Dark Background"><path id="Under_Ciel" data-name="Under Ciel" class="cls-1" d="M97.53,45.67a45,45,0,0,0-45,45h45Z"/><path class="cls-2" d="M97.53,45.67v45h-45q0,1.13.06,2.25H97.53v2.25H52.76c.07.75.17,1.5.28,2.25H97.53v2.25H53.44q.23,1.13.51,2.25H97.53v2.25H54.6c.24.76.5,1.51.77,2.25H97.53v2.25H56.29c.33.76.69,1.51,1.06,2.25H97.53v2.25h-39c.44.76.9,1.51,1.39,2.25H97.53v2.25h-36c.58.77,1.19,1.51,1.82,2.25H97.53v2.25H65.41c.76.78,1.56,1.52,2.37,2.25H97.53v2.25h-27c1.07.8,2.17,1.54,3.3,2.25h23.7v2.25H77.9a45.16,45.16,0,0,0,5.58,2.25h14v2.25a45,45,0,0,0,0-90Z"/><path class="cls-3" d="M57.35,70.42H97.53V68.17h-39C58.14,68.9,57.74,69.65,57.35,70.42Z"/><path class="cls-3" d="M67.78,56.92H97.53V54.67h-27C69.58,55.38,68.67,56.13,67.78,56.92Z"/><path class="cls-3" d="M54,79.42H97.53V77.17H54.6C54.36,77.91,54.15,78.66,54,79.42Z"/><path class="cls-3" d="M55.37,74.92H97.53V72.67H56.29C56,73.41,55.66,74.16,55.37,74.92Z"/><path class="cls-3" d="M60,65.92H97.53V63.67h-36C61,64.4,60.46,65.15,60,65.92Z"/><path class="cls-3" d="M63.35,61.42H97.53V59.17H65.41C64.7,59.89,64,60.64,63.35,61.42Z"/><path class="cls-3" d="M73.83,52.42h23.7V50.17H77.9A44.74,44.74,0,0,0,73.83,52.42Z"/><path class="cls-3" d="M53,83.92H97.53V81.67H53.44C53.28,82.41,53.15,83.16,53,83.92Z"/><path class="cls-3" d="M83.48,47.92h14V45.67A44.7,44.7,0,0,0,83.48,47.92Z"/><path class="cls-3" d="M52.59,88.42H97.53V86.17H52.76C52.68,86.91,52.63,87.66,52.59,88.42Z"/><path class="cls-4" d="M0,85.86s51.92,89.77,97.53,89.77C147,175.63,177.7,53,256.2,0c-77.5,74-96.3,187.46-155.33,187.46C43.85,187.46,0,85.86,0,85.86Z"/><path class="cls-5" d="M27.12,107.46s42.74,71.67,81.75,71.67c33.66,0,70.66-105.29,125-143.17-61.38,67.76-67.12,154-117.59,154C67.52,190,27.12,107.46,27.12,107.46Z"/><path class="cls-6" d="M46.2,119.46s35.5,65,69.5,65,54.5-88,107-129C169.2,116,164.2,193,120.2,193,77.7,193,46.2,119.46,46.2,119.46Z"/><path class="cls-4" d="M217.67,151.21V71h8.7v80.17Z"/><path class="cls-4" d="M241.84,151.21V71H271q8.79,0,13.37,2.16a15.87,15.87,0,0,1,7.31,7.62,26.71,26.71,0,0,1,2.73,12.09,22.77,22.77,0,0,1-4.53,14.38q-4.53,5.85-14,7.44a22.75,22.75,0,0,1,5.25,4,54.27,54.27,0,0,1,7.22,10.67l11.44,21.82H288.83l-8.7-16.68q-3.81-7.23-6.28-11a22.26,22.26,0,0,0-4.41-5.36,12.05,12.05,0,0,0-4-2.13,21.29,21.29,0,0,0-4.84-.38H250.54v35.6Zm8.7-44.79h18.7a23.22,23.22,0,0,0,9.32-1.51,10.45,10.45,0,0,0,5.12-4.81,15.19,15.19,0,0,0,1.74-7.19A13.22,13.22,0,0,0,282,83.56q-3.39-3.66-10.7-3.67h-20.8Z"/><path class="cls-4" d="M308.2,151.21V71h47.54V80.5H316.91v24.55h36.36v9.41H316.91v27.29h40.35v9.46Z"/><path class="cls-4" d="M366.32,125.45l8.21-.88a25.6,25.6,0,0,0,2.71,9.88,15.71,15.71,0,0,0,6.62,6.23A21.14,21.14,0,0,0,394,143.06a20.21,20.21,0,0,0,8.79-1.81,12.59,12.59,0,0,0,5.67-4.95,13.21,13.21,0,0,0,1.86-6.86,12.07,12.07,0,0,0-1.79-6.59,13.51,13.51,0,0,0-5.92-4.73,100.61,100.61,0,0,0-11.71-3.91q-9.06-2.65-12.69-5a19.54,19.54,0,0,1-7-7.47,21.36,21.36,0,0,1-2.31-10,23.76,23.76,0,0,1,2.83-11.35,18.68,18.68,0,0,1,8.25-8A26.47,26.47,0,0,1,392,69.67a27.89,27.89,0,0,1,12.9,2.87A19.83,19.83,0,0,1,413.45,81a28.07,28.07,0,0,1,3.23,12.63l-8.34.77q-.68-7.61-4.55-11.49T392.33,79q-7.89,0-11.5,3.53a11.43,11.43,0,0,0-3.61,8.5,10.09,10.09,0,0,0,2.56,7.11q2.5,2.79,13.11,5.72T407.44,109a21.24,21.24,0,0,1,8.48,8.17,23.23,23.23,0,0,1,2.74,11.41,25.36,25.36,0,0,1-3,12.05,21.35,21.35,0,0,1-8.63,8.81,25.49,25.49,0,0,1-12.67,3.14q-8.93,0-15-3.17a22.47,22.47,0,0,1-9.47-9.54A31.52,31.52,0,0,1,366.32,125.45Z"/><path class="cls-4" d="M430.72,151.21V71h47.53V80.5H439.42v24.55h36.37v9.41H439.42v27.29h40.36v9.46Z"/><path class="cls-4" d="M491.71,151.21V71h8.92L535.16,134V71h8.34v80.17h-8.92l-34.53-63v63Z"/><path class="cls-4" d="M219.1,171.32v-15h3v15Z"/><path class="cls-4" d="M234.91,171.32H232v-5.55a8.88,8.88,0,0,0-.18-2.29,1.69,1.69,0,0,0-.6-.8,1.73,1.73,0,0,0-1-.29,2.36,2.36,0,0,0-1.35.41,2.15,2.15,0,0,0-.81,1.09,9.23,9.23,0,0,0-.22,2.5v4.93H225V160.43h2.67V162a4.36,4.36,0,0,1,3.59-1.84,4.25,4.25,0,0,1,1.74.34,2.89,2.89,0,0,1,1.2.88,3.06,3.06,0,0,1,.56,1.21,8.69,8.69,0,0,1,.16,1.94Z"/><path class="cls-4" d="M236.82,168.22l2.89-.44a2.07,2.07,0,0,0,.75,1.27,2.54,2.54,0,0,0,1.58.44,2.89,2.89,0,0,0,1.68-.41.93.93,0,0,0,.38-.77.77.77,0,0,0-.21-.55,2.28,2.28,0,0,0-1-.37,15.56,15.56,0,0,1-4.42-1.41,2.8,2.8,0,0,1-1.29-2.45,3,3,0,0,1,1.12-2.38,5.22,5.22,0,0,1,3.46-1,6.14,6.14,0,0,1,3.33.72,3.75,3.75,0,0,1,1.49,2.16l-2.71.5a1.67,1.67,0,0,0-.67-1,2.36,2.36,0,0,0-1.39-.34,3.17,3.17,0,0,0-1.63.32.69.69,0,0,0-.32.58.62.62,0,0,0,.28.52,10.11,10.11,0,0,0,2.69.81,8,8,0,0,1,3.22,1.29,2.65,2.65,0,0,1,.9,2.14,3.29,3.29,0,0,1-1.25,2.57,5.52,5.52,0,0,1-3.7,1.08,6.08,6.08,0,0,1-3.52-.9A4.15,4.15,0,0,1,236.82,168.22Z"/><path class="cls-4" d="M254.51,160.43v2.3h-2v4.39a10.12,10.12,0,0,0,.06,1.55.62.62,0,0,0,.25.37.88.88,0,0,0,.49.14,3.61,3.61,0,0,0,1.16-.28l.24,2.24a5.67,5.67,0,0,1-2.27.43,3.73,3.73,0,0,1-1.41-.26,2.15,2.15,0,0,1-.92-.68,2.68,2.68,0,0,1-.4-1.12,14.35,14.35,0,0,1-.09-2v-4.75h-1.33v-2.3h1.33v-2.16l2.89-1.68v3.84Z"/><path class="cls-4" d="M256.51,159v-2.67h2.88V159Zm0,12.36V160.43h2.88v10.89Z"/><path class="cls-4" d="M267.34,160.43v2.3h-2v4.39a12.87,12.87,0,0,0,.05,1.55.68.68,0,0,0,.26.37.84.84,0,0,0,.49.14,3.57,3.57,0,0,0,1.15-.28l.25,2.24a5.69,5.69,0,0,1-2.28.43,3.71,3.71,0,0,1-1.4-.26,2.09,2.09,0,0,1-.92-.68,2.68,2.68,0,0,1-.4-1.12,13.85,13.85,0,0,1-.1-2v-4.75h-1.32v-2.3h1.32v-2.16l2.9-1.68v3.84Z"/><path class="cls-4" d="M276.5,171.32v-1.63a4.25,4.25,0,0,1-1.56,1.38,4.46,4.46,0,0,1-2.05.5,4,4,0,0,1-2-.48,2.82,2.82,0,0,1-1.26-1.36,6,6,0,0,1-.39-2.41v-6.89h2.88v5a14.24,14.24,0,0,0,.16,2.81,1.53,1.53,0,0,0,.58.82,1.8,1.8,0,0,0,1.07.3,2.26,2.26,0,0,0,1.32-.4,2,2,0,0,0,.8-1,11.13,11.13,0,0,0,.22-2.93v-4.6h2.88v10.89Z"/><path class="cls-4" d="M287.16,160.43v2.3h-2v4.39a12.87,12.87,0,0,0,.05,1.55.68.68,0,0,0,.26.37.86.86,0,0,0,.49.14,3.67,3.67,0,0,0,1.16-.28l.24,2.24a5.67,5.67,0,0,1-2.27.43,3.73,3.73,0,0,1-1.41-.26,2.09,2.09,0,0,1-.92-.68,2.68,2.68,0,0,1-.4-1.12,14.35,14.35,0,0,1-.09-2v-4.75H281v-2.3h1.33v-2.16l2.89-1.68v3.84Z"/><path class="cls-4" d="M304.75,171.32h-2.68v-1.6a4.21,4.21,0,0,1-1.57,1.39,4,4,0,0,1-1.83.46,4.16,4.16,0,0,1-3.22-1.51,6.17,6.17,0,0,1-1.33-4.22,6.06,6.06,0,0,1,1.3-4.21,4.23,4.23,0,0,1,3.29-1.44,4.08,4.08,0,0,1,3.16,1.51v-5.41h2.88Zm-7.69-5.68a5,5,0,0,0,.48,2.52,2.19,2.19,0,0,0,3.64.29,4,4,0,0,0,.7-2.53,4.27,4.27,0,0,0-.68-2.7,2.22,2.22,0,0,0-3.45,0A3.67,3.67,0,0,0,297.06,165.64Z"/><path class="cls-4" d="M313.89,167.86l2.88.48a4.75,4.75,0,0,1-1.75,2.4,5.16,5.16,0,0,1-3,.83,4.87,4.87,0,0,1-4.21-1.86,6.28,6.28,0,0,1-1.07-3.75,6,6,0,0,1,1.41-4.24,4.68,4.68,0,0,1,3.58-1.53,4.85,4.85,0,0,1,3.84,1.6,7.15,7.15,0,0,1,1.34,4.92H309.7a2.87,2.87,0,0,0,.7,2,2.17,2.17,0,0,0,1.66.72,1.81,1.81,0,0,0,1.14-.37A2.32,2.32,0,0,0,313.89,167.86Zm.17-2.91a2.8,2.8,0,0,0-.65-1.91,2.07,2.07,0,0,0-3.05,0,2.65,2.65,0,0,0-.61,1.87Z"/><path class="cls-4" d="M324.9,171.32v-15h6.39a10.84,10.84,0,0,1,3.5.41,3.46,3.46,0,0,1,1.75,1.44,4.3,4.3,0,0,1,.66,2.36,4,4,0,0,1-1,2.8,4.77,4.77,0,0,1-3,1.39,7,7,0,0,1,1.63,1.26,17.51,17.51,0,0,1,1.72,2.44l1.84,2.93h-3.63l-2.2-3.27a20,20,0,0,0-1.6-2.21,2.28,2.28,0,0,0-.91-.62,4.78,4.78,0,0,0-1.53-.17h-.61v6.27Zm3-8.67h2.24a11.08,11.08,0,0,0,2.73-.19,1.6,1.6,0,0,0,.85-.63,1.93,1.93,0,0,0,.31-1.13,1.82,1.82,0,0,0-.4-1.23,1.87,1.87,0,0,0-1.15-.58,21.65,21.65,0,0,0-2.21-.06h-2.37Z"/><path class="cls-4" d="M346.35,167.86l2.87.48a4.75,4.75,0,0,1-1.75,2.4,5.14,5.14,0,0,1-3,.83,4.85,4.85,0,0,1-4.2-1.86A6.21,6.21,0,0,1,339.2,166a6,6,0,0,1,1.41-4.24,4.68,4.68,0,0,1,3.58-1.53,4.85,4.85,0,0,1,3.84,1.6,7.15,7.15,0,0,1,1.34,4.92h-7.22a2.87,2.87,0,0,0,.7,2,2.17,2.17,0,0,0,1.66.72,1.81,1.81,0,0,0,1.14-.37A2.33,2.33,0,0,0,346.35,167.86Zm.16-2.91a2.8,2.8,0,0,0-.65-1.91,2.07,2.07,0,0,0-3.05,0,2.7,2.7,0,0,0-.61,1.87Z"/><path class="cls-4" d="M361.21,163.65l-2.84.52a2,2,0,0,0-.65-1.29,2,2,0,0,0-1.31-.43,2.15,2.15,0,0,0-1.72.75,3.77,3.77,0,0,0-.64,2.48,4.35,4.35,0,0,0,.65,2.74,2.13,2.13,0,0,0,1.75.8,1.91,1.91,0,0,0,1.34-.47,2.82,2.82,0,0,0,.74-1.6l2.83.48a5.11,5.11,0,0,1-1.69,3,5.29,5.29,0,0,1-3.36,1,5,5,0,0,1-3.81-1.51,6.86,6.86,0,0,1,0-8.37,5.05,5.05,0,0,1,3.85-1.5,5.29,5.29,0,0,1,3.17.85A4.73,4.73,0,0,1,361.21,163.65Z"/><path class="cls-4" d="M366.27,156.29v5.53a4.32,4.32,0,0,1,5.13-1.26,2.9,2.9,0,0,1,1.2.94,3.45,3.45,0,0,1,.56,1.27,12.44,12.44,0,0,1,.14,2.16v6.39h-2.88v-5.75a8.49,8.49,0,0,0-.16-2.17,1.42,1.42,0,0,0-.58-.74,1.87,1.87,0,0,0-1-.27,2.39,2.39,0,0,0-1.28.35,2,2,0,0,0-.83,1,6.42,6.42,0,0,0-.26,2.08v5.45h-2.88v-15Z"/><path class="cls-4" d="M382.53,167.86l2.87.48a4.74,4.74,0,0,1-1.74,2.4,5.16,5.16,0,0,1-3,.83,4.87,4.87,0,0,1-4.21-1.86,6.21,6.21,0,0,1-1.07-3.75,6,6,0,0,1,1.41-4.24,4.67,4.67,0,0,1,3.58-1.53,4.81,4.81,0,0,1,3.83,1.6,7.09,7.09,0,0,1,1.35,4.92h-7.22a2.87,2.87,0,0,0,.7,2,2.15,2.15,0,0,0,1.66.72,1.81,1.81,0,0,0,1.14-.37A2.32,2.32,0,0,0,382.53,167.86Zm.17-2.91a2.8,2.8,0,0,0-.65-1.91,2.08,2.08,0,0,0-3.06,0,2.65,2.65,0,0,0-.6,1.87Z"/><path class="cls-4" d="M390.66,171.32h-2.88V160.43h2.68V162a4.58,4.58,0,0,1,1.24-1.44,2.19,2.19,0,0,1,1.24-.35,3.68,3.68,0,0,1,1.9.54l-.89,2.51a2.59,2.59,0,0,0-1.36-.47,1.6,1.6,0,0,0-1,.33,2.33,2.33,0,0,0-.66,1.21,16.3,16.3,0,0,0-.25,3.65Z"/><path class="cls-4" d="M405.57,163.65l-2.84.52a2,2,0,0,0-.65-1.29,2,2,0,0,0-1.32-.43,2.13,2.13,0,0,0-1.71.75,3.77,3.77,0,0,0-.64,2.48,4.35,4.35,0,0,0,.65,2.74,2.13,2.13,0,0,0,1.75.8,1.91,1.91,0,0,0,1.34-.47,2.82,2.82,0,0,0,.74-1.6l2.83.48a5.11,5.11,0,0,1-1.69,3,5.29,5.29,0,0,1-3.36,1,5,5,0,0,1-3.81-1.51,6.86,6.86,0,0,1,0-8.37,5.05,5.05,0,0,1,3.85-1.5,5.29,5.29,0,0,1,3.17.85A4.73,4.73,0,0,1,405.57,163.65Z"/><path class="cls-4" d="M410.63,156.29v5.53a4.32,4.32,0,0,1,5.13-1.26,2.9,2.9,0,0,1,1.2.94,3.28,3.28,0,0,1,.55,1.27,11.32,11.32,0,0,1,.15,2.16v6.39h-2.88v-5.75a8.49,8.49,0,0,0-.16-2.17,1.42,1.42,0,0,0-.58-.74,1.89,1.89,0,0,0-1-.27,2.39,2.39,0,0,0-1.28.35,2,2,0,0,0-.83,1,6.42,6.42,0,0,0-.26,2.08v5.45h-2.88v-15Z"/><path class="cls-4" d="M426.89,167.86l2.87.48a4.74,4.74,0,0,1-1.74,2.4,5.16,5.16,0,0,1-3,.83,4.87,4.87,0,0,1-4.21-1.86,6.21,6.21,0,0,1-1.08-3.75,6,6,0,0,1,1.42-4.24,4.67,4.67,0,0,1,3.58-1.53,4.81,4.81,0,0,1,3.83,1.6,7.09,7.09,0,0,1,1.35,4.92H422.7a2.87,2.87,0,0,0,.7,2,2.15,2.15,0,0,0,1.66.72,1.81,1.81,0,0,0,1.14-.37A2.32,2.32,0,0,0,426.89,167.86Zm.17-2.91a2.8,2.8,0,0,0-.65-1.91,2.08,2.08,0,0,0-3.06,0,2.65,2.65,0,0,0-.6,1.87Z"/><path class="cls-4" d="M444.18,167.86l2.87.48a4.69,4.69,0,0,1-1.75,2.4,5.14,5.14,0,0,1-3,.83,4.87,4.87,0,0,1-4.2-1.86A6.21,6.21,0,0,1,437,166a6,6,0,0,1,1.42-4.24,4.64,4.64,0,0,1,3.57-1.53,4.85,4.85,0,0,1,3.84,1.6,7.15,7.15,0,0,1,1.34,4.92H440a2.92,2.92,0,0,0,.7,2,2.17,2.17,0,0,0,1.66.72,1.81,1.81,0,0,0,1.14-.37A2.33,2.33,0,0,0,444.18,167.86Zm.16-2.91a2.79,2.79,0,0,0-.64-1.91,2,2,0,0,0-1.5-.65,2,2,0,0,0-1.56.69A2.7,2.7,0,0,0,440,165Z"/><path class="cls-4" d="M459.45,171.32h-2.88v-5.55a8.88,8.88,0,0,0-.18-2.29,1.57,1.57,0,0,0-.6-.8,1.73,1.73,0,0,0-1-.29,2.31,2.31,0,0,0-1.34.41,2.11,2.11,0,0,0-.82,1.09,9.23,9.23,0,0,0-.22,2.5v4.93h-2.88V160.43h2.68V162a4.48,4.48,0,0,1,5.33-1.5,2.92,2.92,0,0,1,1.19.88,3.22,3.22,0,0,1,.57,1.21,9.47,9.47,0,0,1,.15,1.94Z"/><path class="cls-4" d="M468,171.32v-15h11.15v2.54H471v3.34h7.55v2.53H471v4.09h8.4v2.53Z"/><path class="cls-4" d="M491.9,171.32H489v-5.55a8.88,8.88,0,0,0-.18-2.29,1.57,1.57,0,0,0-.6-.8,1.73,1.73,0,0,0-1-.29,2.31,2.31,0,0,0-1.34.41,2.11,2.11,0,0,0-.82,1.09,9.23,9.23,0,0,0-.22,2.5v4.93H482V160.43h2.68V162a4.48,4.48,0,0,1,5.33-1.5,2.92,2.92,0,0,1,1.19.88,3.22,3.22,0,0,1,.57,1.21,9.34,9.34,0,0,1,.16,1.94Z"/><path class="cls-4" d="M501.12,167.86l2.87.48a4.68,4.68,0,0,1-1.74,2.4,5.16,5.16,0,0,1-3,.83,4.87,4.87,0,0,1-4.21-1.86A6.28,6.28,0,0,1,494,166a6,6,0,0,1,1.41-4.24,4.68,4.68,0,0,1,3.58-1.53,4.85,4.85,0,0,1,3.84,1.6,7.15,7.15,0,0,1,1.34,4.92h-7.22a2.87,2.87,0,0,0,.7,2,2.15,2.15,0,0,0,1.66.72,1.81,1.81,0,0,0,1.14-.37A2.32,2.32,0,0,0,501.12,167.86Zm.17-2.91a2.8,2.8,0,0,0-.65-1.91,2.07,2.07,0,0,0-3.05,0A2.65,2.65,0,0,0,497,165Z"/><path class="cls-4" d="M509.26,171.32h-2.89V160.43h2.68V162a4.58,4.58,0,0,1,1.24-1.44,2.19,2.19,0,0,1,1.24-.35,3.68,3.68,0,0,1,1.9.54l-.89,2.51a2.59,2.59,0,0,0-1.36-.47,1.6,1.6,0,0,0-1,.33,2.33,2.33,0,0,0-.66,1.21,17.19,17.19,0,0,0-.24,3.65Z"/><path class="cls-4" d="M514.4,172l3.29.4a1.14,1.14,0,0,0,.38.79,2.17,2.17,0,0,0,1.3.31,3.42,3.42,0,0,0,1.69-.34,1.39,1.39,0,0,0,.57-.73,4.27,4.27,0,0,0,.14-1.32v-1.59a3.9,3.9,0,0,1-3.27,1.76,4,4,0,0,1-3.47-1.85,6.33,6.33,0,0,1-1-3.65,6,6,0,0,1,1.32-4.19,4.26,4.26,0,0,1,3.28-1.44A4,4,0,0,1,522,162v-1.53h2.7v9.78a9.82,9.82,0,0,1-.32,2.88,3.57,3.57,0,0,1-.89,1.49,3.86,3.86,0,0,1-1.54.85,7.87,7.87,0,0,1-2.42.31,6.22,6.22,0,0,1-3.93-1,3,3,0,0,1-1.16-2.4C514.39,172.29,514.4,172.18,514.4,172Zm2.58-6.39a3.92,3.92,0,0,0,.67,2.54,2.06,2.06,0,0,0,1.65.8,2.29,2.29,0,0,0,1.79-.82,3.64,3.64,0,0,0,.73-2.45,3.85,3.85,0,0,0-.7-2.51,2.24,2.24,0,0,0-1.76-.82,2.12,2.12,0,0,0-1.71.81A3.73,3.73,0,0,0,517,165.65Z"/><path class="cls-4" d="M527.5,159v-2.67h2.88V159Zm0,12.36V160.43h2.88v10.89Z"/><path class="cls-4" d="M539.64,167.86l2.87.48a4.69,4.69,0,0,1-1.75,2.4,5.14,5.14,0,0,1-3,.83,4.87,4.87,0,0,1-4.2-1.86,6.21,6.21,0,0,1-1.08-3.75,6,6,0,0,1,1.42-4.24,4.64,4.64,0,0,1,3.57-1.53,4.85,4.85,0,0,1,3.84,1.6,7.09,7.09,0,0,1,1.34,4.92h-7.22a2.92,2.92,0,0,0,.7,2,2.17,2.17,0,0,0,1.66.72,1.81,1.81,0,0,0,1.14-.37A2.33,2.33,0,0,0,539.64,167.86Zm.16-2.91a2.79,2.79,0,0,0-.64-1.91,2.08,2.08,0,0,0-3.06,0,2.7,2.7,0,0,0-.61,1.87Z"/><path class="cls-4" d="M218.42,186.43l3-.28a3.59,3.59,0,0,0,1.08,2.18,3.3,3.3,0,0,0,2.2.7,3.41,3.41,0,0,0,2.21-.62,1.88,1.88,0,0,0,.74-1.46,1.35,1.35,0,0,0-.31-.9,2.45,2.45,0,0,0-1.09-.65q-.54-.19-2.43-.66a8.2,8.2,0,0,1-3.43-1.49,3.9,3.9,0,0,1-1.38-3,3.82,3.82,0,0,1,.65-2.15,4,4,0,0,1,1.88-1.52,7.44,7.44,0,0,1,2.95-.53,6.32,6.32,0,0,1,4.26,1.25,4.36,4.36,0,0,1,1.51,3.31l-3,.13a2.63,2.63,0,0,0-.83-1.67,3.13,3.13,0,0,0-1.93-.5,3.49,3.49,0,0,0-2.07.54,1.09,1.09,0,0,0-.48.93,1.17,1.17,0,0,0,.45.92,8,8,0,0,0,2.79,1,15,15,0,0,1,3.28,1.08,4.3,4.3,0,0,1,1.66,1.53,4.46,4.46,0,0,1,.6,2.39,4.39,4.39,0,0,1-.72,2.42,4.26,4.26,0,0,1-2,1.68,8.46,8.46,0,0,1-3.27.55,6.51,6.51,0,0,1-4.38-1.32A5.74,5.74,0,0,1,218.42,186.43Z"/><path class="cls-4" d="M232.51,185.72a5.88,5.88,0,0,1,.71-2.77,4.83,4.83,0,0,1,2-2,5.9,5.9,0,0,1,2.9-.71,5.42,5.42,0,0,1,4,1.6,6,6,0,0,1,0,8.15,5.38,5.38,0,0,1-4,1.63,6.29,6.29,0,0,1-2.85-.68,4.61,4.61,0,0,1-2.07-2A6.63,6.63,0,0,1,232.51,185.72Zm3,.16a3.56,3.56,0,0,0,.77,2.48,2.51,2.51,0,0,0,3.78,0,3.65,3.65,0,0,0,.77-2.5,3.57,3.57,0,0,0-.77-2.46,2.51,2.51,0,0,0-3.78,0A3.56,3.56,0,0,0,235.47,185.88Z"/><path class="cls-4" d="M246,191.32v-15h2.88v15Z"/><path class="cls-4" d="M254,183.76l-2.61-.48A4,4,0,0,1,252.9,181a5.52,5.52,0,0,1,3.2-.76,7,7,0,0,1,2.87.45,2.91,2.91,0,0,1,1.33,1.16,6.07,6.07,0,0,1,.38,2.58l0,3.36a11.83,11.83,0,0,0,.14,2.12,5.73,5.73,0,0,0,.52,1.46h-2.85a8.41,8.41,0,0,1-.28-.85l-.1-.34a5.3,5.3,0,0,1-1.58,1.08,4.52,4.52,0,0,1-1.8.36,3.71,3.71,0,0,1-2.65-.91,3.06,3.06,0,0,1-1-2.31,3.16,3.16,0,0,1,.44-1.65,2.88,2.88,0,0,1,1.24-1.1,9.8,9.8,0,0,1,2.29-.68,15.44,15.44,0,0,0,2.8-.7v-.29a1.49,1.49,0,0,0-.41-1.18,2.42,2.42,0,0,0-1.55-.36,2.09,2.09,0,0,0-1.2.3A2.22,2.22,0,0,0,254,183.76Zm3.86,2.33a15.93,15.93,0,0,1-1.75.44,5.26,5.26,0,0,0-1.57.51,1.18,1.18,0,0,0-.57,1,1.4,1.4,0,0,0,.46,1,1.58,1.58,0,0,0,1.14.44,2.51,2.51,0,0,0,1.49-.51,1.81,1.81,0,0,0,.69-1,5.93,5.93,0,0,0,.11-1.4Z"/><path class="cls-4" d="M263.52,179v-2.67h2.88V179Zm0,12.36V180.43h2.88v10.89Z"/><path class="cls-4" d="M272.11,191.32h-2.88V180.43h2.68V182a4.71,4.71,0,0,1,1.23-1.44,2.25,2.25,0,0,1,1.25-.35,3.68,3.68,0,0,1,1.9.54l-.9,2.51a2.53,2.53,0,0,0-1.35-.47,1.6,1.6,0,0,0-1,.33,2.33,2.33,0,0,0-.67,1.21,17.19,17.19,0,0,0-.24,3.65Z"/><path class="cls-4" d="M283.83,187.86l2.87.48a4.68,4.68,0,0,1-1.74,2.4,5.16,5.16,0,0,1-3,.83,4.87,4.87,0,0,1-4.21-1.86,6.28,6.28,0,0,1-1.07-3.75,6,6,0,0,1,1.41-4.24,4.68,4.68,0,0,1,3.58-1.53,4.85,4.85,0,0,1,3.84,1.6,7.15,7.15,0,0,1,1.34,4.92h-7.22a2.87,2.87,0,0,0,.7,2,2.17,2.17,0,0,0,1.66.72,1.81,1.81,0,0,0,1.14-.37A2.32,2.32,0,0,0,283.83,187.86ZM284,185a2.8,2.8,0,0,0-.65-1.91,2.07,2.07,0,0,0-3.05,0,2.65,2.65,0,0,0-.61,1.87Z"/><path class="cls-4" d="M301.69,187.86l2.87.48a4.69,4.69,0,0,1-1.75,2.4,5.12,5.12,0,0,1-3,.83,4.87,4.87,0,0,1-4.2-1.86,6.21,6.21,0,0,1-1.08-3.75,6,6,0,0,1,1.42-4.24,4.65,4.65,0,0,1,3.58-1.53,4.81,4.81,0,0,1,3.83,1.6,7,7,0,0,1,1.34,4.92H297.5a2.92,2.92,0,0,0,.69,2,2.18,2.18,0,0,0,1.66.72,1.77,1.77,0,0,0,1.14-.37A2.33,2.33,0,0,0,301.69,187.86Zm.16-2.91a2.79,2.79,0,0,0-.64-1.91,2.08,2.08,0,0,0-3.06,0,2.65,2.65,0,0,0-.6,1.87Z"/><path class="cls-4" d="M312.06,180.43v2.3h-2v4.39a12.87,12.87,0,0,0,.05,1.55.68.68,0,0,0,.26.37.86.86,0,0,0,.49.14,3.67,3.67,0,0,0,1.16-.28l.24,2.24a5.67,5.67,0,0,1-2.27.43,3.73,3.73,0,0,1-1.41-.26,2.09,2.09,0,0,1-.92-.68,2.68,2.68,0,0,1-.4-1.12,14.35,14.35,0,0,1-.09-2v-4.75h-1.33v-2.3h1.33v-2.16l2.89-1.68v3.84Z"/><path class="cls-4" d="M326.54,187.86l2.87.48a4.69,4.69,0,0,1-1.75,2.4,5.12,5.12,0,0,1-3,.83,4.87,4.87,0,0,1-4.2-1.86,6.21,6.21,0,0,1-1.08-3.75,6,6,0,0,1,1.42-4.24,4.65,4.65,0,0,1,3.58-1.53,4.82,4.82,0,0,1,3.83,1.6,7,7,0,0,1,1.34,4.92h-7.21a2.92,2.92,0,0,0,.69,2,2.18,2.18,0,0,0,1.66.72,1.79,1.79,0,0,0,1.14-.37A2.33,2.33,0,0,0,326.54,187.86Zm.16-2.91a2.79,2.79,0,0,0-.64-1.91,2.08,2.08,0,0,0-3.06,0,2.65,2.65,0,0,0-.6,1.87Z"/><path class="cls-4" d="M341.82,191.32h-2.88v-5.55a8.29,8.29,0,0,0-.19-2.29,1.57,1.57,0,0,0-.6-.8,1.71,1.71,0,0,0-1-.29,2.33,2.33,0,0,0-1.34.41,2.11,2.11,0,0,0-.82,1.09,9.67,9.67,0,0,0-.22,2.5v4.93h-2.88V180.43h2.68V182a4.48,4.48,0,0,1,5.33-1.5,2.89,2.89,0,0,1,1.2.88,3.2,3.2,0,0,1,.56,1.21,8.69,8.69,0,0,1,.16,1.94Z"/><path class="cls-4" d="M350.94,191.32v-15h11.14v2.54H354v3.34h7.55v2.53H354v4.09h8.4v2.53Z"/><path class="cls-4" d="M374.83,191.32H372v-5.55a8.29,8.29,0,0,0-.19-2.29,1.57,1.57,0,0,0-.6-.8,1.71,1.71,0,0,0-1-.29,2.35,2.35,0,0,0-1.34.41,2,2,0,0,0-.81,1.09,9.23,9.23,0,0,0-.22,2.5v4.93H364.9V180.43h2.68V182a4.36,4.36,0,0,1,3.59-1.84,4.25,4.25,0,0,1,1.74.34,2.89,2.89,0,0,1,1.2.88,3.06,3.06,0,0,1,.56,1.21,8.69,8.69,0,0,1,.16,1.94Z"/><path class="cls-4" d="M384.06,187.86l2.87.48a4.69,4.69,0,0,1-1.75,2.4,5.14,5.14,0,0,1-3,.83,4.87,4.87,0,0,1-4.2-1.86,6.21,6.21,0,0,1-1.08-3.75,6,6,0,0,1,1.42-4.24,4.65,4.65,0,0,1,3.58-1.53,4.82,4.82,0,0,1,3.83,1.6,7.09,7.09,0,0,1,1.34,4.92h-7.22a3,3,0,0,0,.7,2,2.18,2.18,0,0,0,1.66.72,1.81,1.81,0,0,0,1.14-.37A2.33,2.33,0,0,0,384.06,187.86Zm.16-2.91a2.79,2.79,0,0,0-.64-1.91,2.08,2.08,0,0,0-3.06,0,2.65,2.65,0,0,0-.6,1.87Z"/><path class="cls-4" d="M392.19,191.32h-2.88V180.43H392V182a4.57,4.57,0,0,1,1.23-1.44,2.22,2.22,0,0,1,1.25-.35,3.67,3.67,0,0,1,1.89.54l-.89,2.51a2.56,2.56,0,0,0-1.35-.47,1.61,1.61,0,0,0-1,.33,2.33,2.33,0,0,0-.66,1.21,17.19,17.19,0,0,0-.24,3.65Z"/><path class="cls-4" d="M397.34,192l3.29.4a1.1,1.1,0,0,0,.38.79,2.11,2.11,0,0,0,1.29.31,3.4,3.4,0,0,0,1.69-.34,1.4,1.4,0,0,0,.58-.73,4.36,4.36,0,0,0,.13-1.32v-1.59a3.89,3.89,0,0,1-3.26,1.76,4,4,0,0,1-3.48-1.85,6.32,6.32,0,0,1-1-3.65,6,6,0,0,1,1.32-4.19,4.24,4.24,0,0,1,3.27-1.44,4,4,0,0,1,3.33,1.77v-1.53h2.7v9.78a9.82,9.82,0,0,1-.32,2.88,3.57,3.57,0,0,1-.89,1.49,3.75,3.75,0,0,1-1.53.85,7.93,7.93,0,0,1-2.43.31,6.21,6.21,0,0,1-3.92-1,2.94,2.94,0,0,1-1.16-2.4C397.33,192.29,397.33,192.18,397.34,192Zm2.57-6.39a3.92,3.92,0,0,0,.67,2.54,2.07,2.07,0,0,0,1.66.8,2.27,2.27,0,0,0,1.78-.82,3.59,3.59,0,0,0,.73-2.45,3.8,3.8,0,0,0-.7-2.51,2.22,2.22,0,0,0-1.76-.82,2.13,2.13,0,0,0-1.71.81A3.73,3.73,0,0,0,399.91,185.65Z"/><path class="cls-4" d="M410.43,179v-2.67h2.88V179Zm0,12.36V180.43h2.88v10.89Z"/><path class="cls-4" d="M422.57,187.86l2.87.48a4.74,4.74,0,0,1-1.74,2.4,5.16,5.16,0,0,1-3,.83,4.87,4.87,0,0,1-4.21-1.86,6.21,6.21,0,0,1-1.08-3.75,6,6,0,0,1,1.42-4.24,4.67,4.67,0,0,1,3.58-1.53,4.81,4.81,0,0,1,3.83,1.6,7.09,7.09,0,0,1,1.35,4.92h-7.22a2.92,2.92,0,0,0,.69,2,2.19,2.19,0,0,0,1.67.72,1.76,1.76,0,0,0,1.13-.37A2.33,2.33,0,0,0,422.57,187.86Zm.17-2.91a2.8,2.8,0,0,0-.65-1.91,2.08,2.08,0,0,0-3.06,0,2.65,2.65,0,0,0-.6,1.87Z"/><path class="cls-4" d="M426.93,188.22l2.89-.44a2.12,2.12,0,0,0,.75,1.27,2.54,2.54,0,0,0,1.58.44,2.89,2.89,0,0,0,1.68-.41.93.93,0,0,0,.38-.77.81.81,0,0,0-.2-.55,2.4,2.4,0,0,0-1-.37,15.56,15.56,0,0,1-4.42-1.41,2.8,2.8,0,0,1-1.29-2.45,3,3,0,0,1,1.12-2.38,5.22,5.22,0,0,1,3.46-1,6.14,6.14,0,0,1,3.33.72,3.75,3.75,0,0,1,1.49,2.16l-2.71.5a1.67,1.67,0,0,0-.67-1,2.34,2.34,0,0,0-1.38-.34,3.19,3.19,0,0,0-1.64.32.69.69,0,0,0-.32.58.62.62,0,0,0,.28.52,10.1,10.1,0,0,0,2.7.81,8,8,0,0,1,3.21,1.29,2.65,2.65,0,0,1,.9,2.14,3.26,3.26,0,0,1-1.25,2.57,5.52,5.52,0,0,1-3.7,1.08,6.08,6.08,0,0,1-3.52-.9A4.15,4.15,0,0,1,426.93,188.22Z"/><path class="cls-4" d="M445.85,191.32v-15h3l6.15,10v-10h2.82v15h-3l-6.06-9.8v9.8Z"/><path class="cls-4" d="M460.3,185.72A5.88,5.88,0,0,1,461,183a4.83,4.83,0,0,1,2-2,5.88,5.88,0,0,1,2.9-.71,5.42,5.42,0,0,1,4,1.6,6,6,0,0,1,0,8.15,5.36,5.36,0,0,1-4,1.63,6.37,6.37,0,0,1-2.86-.68,4.64,4.64,0,0,1-2.06-2A6.63,6.63,0,0,1,460.3,185.72Zm2.95.16a3.61,3.61,0,0,0,.77,2.48,2.48,2.48,0,0,0,1.9.86,2.44,2.44,0,0,0,1.89-.86,3.65,3.65,0,0,0,.76-2.5,3.57,3.57,0,0,0-.76-2.46,2.41,2.41,0,0,0-1.89-.86,2.44,2.44,0,0,0-1.9.86A3.61,3.61,0,0,0,463.25,185.88Z"/><path class="cls-4" d="M481,191.32v-1.63a4.25,4.25,0,0,1-1.56,1.38,4.46,4.46,0,0,1-2,.5,4,4,0,0,1-2-.48,2.82,2.82,0,0,1-1.26-1.36,6,6,0,0,1-.39-2.41v-6.89h2.89v5a14.6,14.6,0,0,0,.15,2.81,1.53,1.53,0,0,0,.58.82,1.8,1.8,0,0,0,1.07.3,2.26,2.26,0,0,0,1.32-.4,2,2,0,0,0,.8-1,11.13,11.13,0,0,0,.22-2.93v-4.6h2.88v10.89Z"/><path class="cls-4" d="M489.62,191.32l-4.39-10.89h3L490.3,186l.6,1.86c.16-.47.26-.79.3-.94s.19-.61.3-.92l2.07-5.56h3l-4.33,10.89Z"/><path class="cls-4" d="M504.61,187.86l2.87.48a4.69,4.69,0,0,1-1.75,2.4,5.12,5.12,0,0,1-3,.83,4.87,4.87,0,0,1-4.2-1.86,6.21,6.21,0,0,1-1.08-3.75,6,6,0,0,1,1.42-4.24,4.65,4.65,0,0,1,3.58-1.53,4.82,4.82,0,0,1,3.83,1.6,7.09,7.09,0,0,1,1.34,4.92h-7.22a3,3,0,0,0,.7,2,2.18,2.18,0,0,0,1.66.72,1.79,1.79,0,0,0,1.14-.37A2.33,2.33,0,0,0,504.61,187.86Zm.16-2.91a2.79,2.79,0,0,0-.64-1.91,2.08,2.08,0,0,0-3.06,0,2.65,2.65,0,0,0-.6,1.87Z"/><path class="cls-4" d="M510,191.32v-15h2.88v15Z"/><path class="cls-4" d="M515.82,191.32v-15h2.88v15Z"/><path class="cls-4" d="M528,187.86l2.87.48a4.69,4.69,0,0,1-1.75,2.4,5.14,5.14,0,0,1-3,.83,4.87,4.87,0,0,1-4.2-1.86,6.21,6.21,0,0,1-1.08-3.75,6,6,0,0,1,1.42-4.24,4.64,4.64,0,0,1,3.57-1.53,4.85,4.85,0,0,1,3.84,1.6,7.15,7.15,0,0,1,1.34,4.92h-7.22a2.92,2.92,0,0,0,.7,2,2.17,2.17,0,0,0,1.66.72,1.81,1.81,0,0,0,1.14-.37A2.33,2.33,0,0,0,528,187.86Zm.16-2.91a2.79,2.79,0,0,0-.64-1.91,2.08,2.08,0,0,0-3.06,0,2.7,2.7,0,0,0-.61,1.87Z"/><path class="cls-4" d="M532.32,188.22l2.89-.44a2.07,2.07,0,0,0,.75,1.27,2.51,2.51,0,0,0,1.57.44,2.9,2.9,0,0,0,1.69-.41.93.93,0,0,0,.38-.77.77.77,0,0,0-.21-.55,2.28,2.28,0,0,0-1-.37A15.44,15.44,0,0,1,534,186a2.8,2.8,0,0,1-1.29-2.45,3,3,0,0,1,1.11-2.38,5.25,5.25,0,0,1,3.47-1,6.08,6.08,0,0,1,3.32.72,3.76,3.76,0,0,1,1.5,2.16l-2.72.5a1.7,1.7,0,0,0-.66-1,2.4,2.4,0,0,0-1.39-.34,3.15,3.15,0,0,0-1.63.32.67.67,0,0,0-.33.58.63.63,0,0,0,.29.52,10.11,10.11,0,0,0,2.69.81,7.85,7.85,0,0,1,3.21,1.29,2.63,2.63,0,0,1,.91,2.14,3.29,3.29,0,0,1-1.25,2.57,5.55,5.55,0,0,1-3.71,1.08,6.1,6.1,0,0,1-3.52-.9A4.14,4.14,0,0,1,532.32,188.22Z"/></g></g></g></svg>