<svg xmlns="http://www.w3.org/2000/svg" viewBox="0 0 1075 297.49"><defs><style>.cls-1{fill:#fff;}</style></defs><g id="Layer_2" data-name="Layer 2"><g id="Logo_PtX_MONO" data-name="Logo PtX MONO"><path id="Logo_PtX_MONO_-_Short" data-name="Logo PtX MONO - Short" class="cls-1" d="M556.78,16.93c-9.64-11-28.92-12.2-42.3-12.2H473.36V152.29H508V94.84c13-.59,27,1.18,39-4.72,15.74-7.28,19.47-25.18,19.47-41.12C566.42,37,564.85,26,556.78,16.93ZM527.47,64.55c-5.51,4.32-13,3.54-19.48,3.73v-37h3.74c5.51,0,10.23,0,13.57,1.19,5.91,2.75,6.5,11.41,6.5,17.11C531.8,54.71,531,60.61,527.47,64.55Zm47.22.2V42.12h12.39V10.64h31.28V42.12h15V64.75h-15v58c0,6.29,2.76,7.67,6.89,7.67a37.62,37.62,0,0,1,8.07-.4v22a136.46,136.46,0,0,1-20.07,1.77c-16.92,0-26.17-8.66-26.17-25.38V64.75Zm118-15.15h.4L708.86,4.74h34.63l-30.69,74,32.07,73.59H710.24l-16.72-44.07h-.39L673.45,152.3H640.4l32.85-73.59-31.08-74H676.6ZM880,37.71a43.07,43.07,0,0,0-6.12-22.19h.17a4.35,4.35,0,0,1,1,.12,2.4,2.4,0,0,0,1.15.07.73.73,0,0,1,.45-.26l0,0a1.07,1.07,0,0,1,.8-.38.87.87,0,0,0,.21,0l0-.06.1-.1a.84.84,0,0,1,.36-.54.79.79,0,0,1,.54-.35l0,0a1,1,0,0,1,1-.37h.36c.21,0,.34,0,.4-.07a1.44,1.44,0,0,1,1-.52,1.18,1.18,0,0,1,.86.45,1,1,0,0,0,.28-.2l0-.06a.84.84,0,0,1,.36-.54.8.8,0,0,1,.52-.35.74.74,0,0,1,.4-.19,1.64,1.64,0,0,1,.68-.27l.19,0a1.5,1.5,0,0,1,.84-.32l.25-.05a.74.74,0,0,1,.44-.25,1.26,1.26,0,0,1,1.07-.21l.11,0a9.08,9.08,0,0,0,1.94-.06,8,8,0,0,1,2.62,0l.11,0,.1,0,.08-.09a1.33,1.33,0,0,1,1.69-.38,2,2,0,0,0,1.4-.06.39.39,0,0,1,.29-.17,13.65,13.65,0,0,1,4.2.26.75.75,0,0,1,.58.2.61.61,0,0,1,.42.27.56.56,0,0,1,.29.4l.09,0a1,1,0,0,0,.26,0,.78.78,0,0,1,.86-.53,2.56,2.56,0,0,0,1-.1l.53-.1a.9.9,0,0,1,.44-.42l.09-.05.46-.37.05.14a1.06,1.06,0,0,1,1.44.53l.32.05.37.06.1,0,.12,0,0-.09a.68.68,0,0,1,.38-.46,1.49,1.49,0,0,1,1.1.07l.31.11a2.14,2.14,0,0,1,.83.41.79.79,0,0,1,.32.31,7.94,7.94,0,0,1,1.43-.2,3.85,3.85,0,0,0,2.22-.62,4.47,4.47,0,0,1,4.22-.33.87.87,0,0,1,.61,1v0a1.18,1.18,0,0,0,.08.41l.06.21a1.08,1.08,0,0,1,.63-.22h0a.64.64,0,0,1,.09-.89.52.52,0,0,1,.76,0,1,1,0,0,0,.34.14,1.18,1.18,0,0,1,.93.8,1.45,1.45,0,0,1-.4,1.58,5.12,5.12,0,0,0-.42.49,3.16,3.16,0,0,1-1.41,1.14.7.7,0,0,0-.05.46.81.81,0,0,0,.31.61,2.27,2.27,0,0,1,1.35,2,3,3,0,0,1-.51,2.4,6.7,6.7,0,0,1-2.9,2.46c-.51.23-.39.52-.35.63.27.62.54.89.94,1a.2.2,0,0,0,.15,0,.21.21,0,0,0,.06-.09.81.81,0,0,1,1-.8h.09c.57,0,.89.33,1,1a5.5,5.5,0,0,0,.21.92,7.24,7.24,0,0,1,.22.89c0,.26.47.36,1,.46l.29,0a5.42,5.42,0,0,1,1.85.81,2.29,2.29,0,0,0,2.34.4,3.2,3.2,0,0,1,2.44,0,4.46,4.46,0,0,0,1,.23,4,4,0,0,1,1.84.73,4.21,4.21,0,0,0,1.15.56,3.31,3.31,0,0,1,.42.12,2.22,2.22,0,0,0,.69.14c1.39-.08,1.57,1.09,1.65,1.66.32,2.29,1.28,3.16,3.53,3.21a13.36,13.36,0,0,1,5.19,1.47,11.22,11.22,0,0,1,2.27,1.47l.07,0c1.55,1.19,2.51,1,4.1-1a1.26,1.26,0,0,0,.19-1.8,3.45,3.45,0,0,1,1-4.62A12.45,12.45,0,0,1,955.87,28a8.29,8.29,0,0,1,4-.25,6.35,6.35,0,0,1,1.34.42,5.88,5.88,0,0,0,1.24.38c.58.09.6.68.61.9v.11c.05.57.31.81.92.78a2.9,2.9,0,0,1,2,.59,1.53,1.53,0,0,0,1.27.15c1.73-.29,2.24-.18,2.94,1.55.16.38.19.4.62.24a3.75,3.75,0,0,1,2.81-.09c.37,0,.78.07,1.16.1a6.82,6.82,0,0,1,2.93.63,4.27,4.27,0,0,0,1.07.39,4.16,4.16,0,0,1,1.27.49,1.34,1.34,0,0,0,.77.08,3.62,3.62,0,0,1,.58,0,2.86,2.86,0,0,1,2.07.8c.77.23,1.31-.22,1.93-.72l.36-.3a15.13,15.13,0,0,1,4.5-2.16,2.28,2.28,0,0,1,1.36.08l.42.18c.54.25.75.31,1.06,0a.92.92,0,0,1,.69-.17.61.61,0,0,1,.48.27,2.16,2.16,0,0,0,1,.71,3.1,3.1,0,0,1,1.3.95c.08,0,.16-.09.34-.26a2.41,2.41,0,0,1,.33-.3,1.58,1.58,0,0,1,1.87-.16,1.57,1.57,0,0,0,1.79-.18,2.05,2.05,0,0,1,1-.25h.13a.74.74,0,0,1,.61.18.79.79,0,0,1,.22.63v0a8.3,8.3,0,0,1,1.29,3,5.71,5.71,0,0,1,1.14,5.27l-.13.43a12,12,0,0,0-.65,3.81,1.55,1.55,0,0,1-.66,1.54,1.7,1.7,0,0,1-1.61,0,1,1,0,0,1,0,.83l0,.08-.08.15.14.12a2.16,2.16,0,0,1,.71,1.36,7.16,7.16,0,0,0,.8,2,11,11,0,0,1,.57,1.2l.18.22a10.13,10.13,0,0,1,2.06,3.29,4,4,0,0,1,1.2,1.77c.08.19.16.38.25.56a6.13,6.13,0,0,0,2.33,2.44,1.63,1.63,0,0,1,.55.62l0,0c.37.62.12,1-.15,1.13a.7.7,0,0,1-.79-.06v.93c.12.23.21.45.3.67a3.52,3.52,0,0,0,.84,1.38.75.75,0,0,1,.19.22l.05.06a5,5,0,0,1,2.23,1.36,5.56,5.56,0,0,0,1.33,1,1.08,1.08,0,0,1,.66,1.09,3.84,3.84,0,0,0,1.18,2.73,1.26,1.26,0,0,1,.32.87,15.28,15.28,0,0,0,.3,3.6c.11.71.23,1.45.29,2.19a7.63,7.63,0,0,0,.55,2c.08.2.16.4.23.61s.24.43.7.54a2.59,2.59,0,0,1,1.82,1.3,1.6,1.6,0,0,0,.83.77l.12.06c1.76,1,2.49,2.65,3.14,4.4l0,.06a15.65,15.65,0,0,1,1.07,3.86,2.35,2.35,0,0,0,.59,1.12,3.56,3.56,0,0,1,.71,1.32.62.62,0,0,0,.75.22,2.08,2.08,0,0,1,2.23,1.19,1.42,1.42,0,0,1,.08.18c.07.14.08.14.11.15a8.73,8.73,0,0,1,1.21.66,4.63,4.63,0,0,0,1.59.75,2.87,2.87,0,0,1,1.86,1.79,3.06,3.06,0,0,0,1.33,1.13,4.49,4.49,0,0,1,1.36,1c.06.07.14.14.21.21a1.82,1.82,0,0,1,.52.73,2.12,2.12,0,0,0,1.79,1.44,1,1,0,0,1,.22.09,6.13,6.13,0,0,1,2.71,4.26,1.05,1.05,0,0,1-.9,1.16,1.78,1.78,0,0,0-.58.34,1.84,1.84,0,0,1,.49.12,3.25,3.25,0,0,1,1.65,1.69c.07.14.15.27.23.41a4.78,4.78,0,0,0,3.23,2.46,3.55,3.55,0,0,0,2.62-.77l.15-.09a12.89,12.89,0,0,1,1.7-1,3,3,0,0,1,2.48.23c.55.26.84.11,1.34-.18s1-.65,1.51-1l.91-.61a1.23,1.23,0,0,1,1.35,0c.57.3,1.17.21,2.09-.29a2.74,2.74,0,0,1,1.91-.47,3.15,3.15,0,0,0,2.26-.17,8.57,8.57,0,0,1,2.05-.74,6.85,6.85,0,0,0,2-.73c.15-.08.19-.13.2-.15a2.5,2.5,0,0,1,1.63-1.19,2.44,2.44,0,0,1,1.94.43,1.39,1.39,0,0,1,.28,1.81,4.14,4.14,0,0,0,0,2.51c.07.36.15.74.19,1.13,0,0,.08.07.14.07a.72.72,0,0,1,.57.23.85.85,0,0,1,.16.67v.06a.65.65,0,0,1-.22.49.76.76,0,0,1-.58.14s0,0-.07,0h-.32a1.6,1.6,0,0,0-.22,0c-.26.11-.29.12-.31.43s0,.76,0,1.16a5.82,5.82,0,0,1-.82,3.67,6.58,6.58,0,0,0-.78,1.7,4.64,4.64,0,0,1-1.21,2.16,3,3,0,0,0-.89,1.77,4,4,0,0,1-.71,1.69,7.16,7.16,0,0,0-1.68,3.22,13.68,13.68,0,0,1-2.2,4.89c-.31.5-.63,1-.92,1.54a47.6,47.6,0,0,1-7.67,9.49l-1.09,1.14a12.37,12.37,0,0,1-3.24,2.24l-.32.17a25.33,25.33,0,0,0-4.34,3.23l-.26.23a47.38,47.38,0,0,0-3.95,3.94l-1.29,1.37c-.25.26-.5.51-.76.76a17.3,17.3,0,0,0-1.77,2c-.23.34-.43.69-.65,1.06a11.27,11.27,0,0,1-1.18,1.76,5,5,0,0,0-.35.43,2.15,2.15,0,0,1-2.3,1.18.7.7,0,0,0,0,.17c-.24,1.53-.62,1.91-2.27,2.25-.26.06-.51.22-.5.42a4.91,4.91,0,0,1-.93,2.92l0,.09a15.46,15.46,0,0,0-.78,1.69c-.22.52-.44,1.06-.71,1.57l-.1.2a3.86,3.86,0,0,1-.84,1.19,3.31,3.31,0,0,0-1,1.92,11.4,11.4,0,0,1-1.1,2.59l-.2.38a1,1,0,0,0,0,.7,3.83,3.83,0,0,1,.05.51c0,.39.08.49.5.66a1.69,1.69,0,0,1,1,1.28c0,.24.06.24.13.26a1.22,1.22,0,0,1,.93.78,1.49,1.49,0,0,1-.32,1.43c-.53.63-.74,1-.34,1.61a2.1,2.1,0,0,1,0,2,1.63,1.63,0,0,0,.11,2,6.71,6.71,0,0,1,.84,2.72,8.46,8.46,0,0,0,.38,1.72,1.62,1.62,0,0,0,.93,1.1c1.67.72,2,1.36,1.8,3.26l0,.11s0,.07,0,.11h.05c.67.14.57.79.53,1a1.09,1.09,0,0,0,0,.17.68.68,0,0,1-.18.56.78.78,0,0,1-.67.17H1032s0,.06,0,.08a1.5,1.5,0,0,1,0,.2,9.29,9.29,0,0,0,.2,2.61,10.66,10.66,0,0,1,.24,2.41,1.35,1.35,0,0,1-.65,1.31,2.86,2.86,0,0,1,.29,1.11,5.42,5.42,0,0,1-.09,1.29,5.54,5.54,0,0,0-.07.57,3.52,3.52,0,0,0,.43,1.7,4,4,0,0,1,.48,2.2,3,3,0,0,1-.27.88,3.68,3.68,0,0,0-.18.53,8.92,8.92,0,0,1-2.84,4.39l-.29.29a18.09,18.09,0,0,1-3.34,2.89,11.9,11.9,0,0,1-3.94,1.38l-.5.11a5.51,5.51,0,0,0-1.4.66,7.76,7.76,0,0,1-.69.4,15.45,15.45,0,0,0-4.23,3.75l-.24.27-.23.27a2.76,2.76,0,0,1-2.17,1.27,2.37,2.37,0,0,0-1.17.92l-.16.22a5.71,5.71,0,0,1-2.21,2c-.73.28-.78.53-.94,1.29v.08c-.16.75-.17.92.38,1.27a2,2,0,0,1,.6,2.19c-.19.53,0,.84.33,1.33a.64.64,0,0,1,.73-.28c.45.1.61.46.5,1.07a.5.5,0,0,0,0,.12,1.5,1.5,0,0,0,0,.29,1.07,1.07,0,0,1-.8,1.37.11.11,0,0,0,0,.08c1.07.31.84,1.17.72,1.58a4.13,4.13,0,0,1-.14.42c-.19.55-.23.76.06,1s.08.82,0,.92a5,5,0,0,0-.62,3.53,1.67,1.67,0,0,1-.58,1.69,3.33,3.33,0,0,0-.25.28,5.27,5.27,0,0,1-2.72,2l-.2.06a27.32,27.32,0,0,0-5.65,2.06,3.34,3.34,0,0,0-1,.71l.18.62a4.37,4.37,0,0,1,0,2.13,5.78,5.78,0,0,0-.12.88,10.92,10.92,0,0,1-1,3.71,16.67,16.67,0,0,0-.77,2.36,4.49,4.49,0,0,1-2.5,3.33,5.84,5.84,0,0,0-1.49,1l-.39.34a7.62,7.62,0,0,0-1.69,2.29c-.24.44-.5.88-.79,1.31l-.45.66a15.56,15.56,0,0,1-4.79,5.11,4.06,4.06,0,0,0-1.23,1.13,14.75,14.75,0,0,1-3.15,2.83l-.06,0c-.44.32-.87.65-1.29,1a23.56,23.56,0,0,1-3.13,2.17l-.31.18c-1.13.64-2.41,1.36-4,.64a.38.38,0,0,0-.36,0,.68.68,0,0,0-.21.58.74.74,0,0,1-.21.56.72.72,0,0,1-.53.19,2.09,2.09,0,0,0-.25,0,1.32,1.32,0,0,1-.75-.07c-.86-.39-1.11-.33-1.41.31a.6.6,0,0,1-.41.33,1.89,1.89,0,0,1-1.32-.15,5.64,5.64,0,0,0-1.88-.57c-.35-.07-.71-.13-1.07-.23-.15,0-.29,0-.54.15a2.12,2.12,0,0,1-.9.26,5.47,5.47,0,0,1-1.24-.15,4.78,4.78,0,0,0-1.29-.12,1.48,1.48,0,0,0-1.11.51,2.82,2.82,0,0,1-2.62.94,7.3,7.3,0,0,0-.82,0,11.46,11.46,0,0,0-2.47.6,3.27,3.27,0,0,1-2,.94,4.08,4.08,0,0,1-2-.73,1.73,1.73,0,0,1-.54-.58c-.16-.24-.25-.36-.42-.4l-.13,0a1.58,1.58,0,0,1-1.07-.6.36.36,0,0,1,0,.1.78.78,0,0,1-.46.49.73.73,0,0,1-.58,0,1,1,0,0,1-.54-.59,2.05,2.05,0,0,1,0-2.12.6.6,0,0,0,0-.58.64.64,0,0,0-.48-.39h-.06a.62.62,0,0,1-.55-.23.46.46,0,0,1,0-.41c.09-.26,0-.42-.3-.76a1.6,1.6,0,0,1-.51-1.31c0-.06,0-.12,0-.19a1.21,1.21,0,0,1,.39-.94.94.94,0,0,1,.77-.13.45.45,0,0,0,.34,0s.12-.14.12-.51a5.3,5.3,0,0,0-1.15-3.61,16,16,0,0,1-2.87-5.1l-.24-.67a22.89,22.89,0,0,0-2.22-4.9.46.46,0,0,0-.14-.16,13.84,13.84,0,0,1-4.33-5.15l-.14-.27a6.15,6.15,0,0,1-.93-3.35s0,0,0-.09a12,12,0,0,1-1.18-5.16,5.11,5.11,0,0,0-.66-2.19c-.06-.13-.12-.26-.19-.39a3.87,3.87,0,0,1-.51-3.11,3.36,3.36,0,0,0-.12-1.63c0-.2-.09-.4-.12-.6l0-.16a1.13,1.13,0,0,1,0-.81c.69-1.45-.13-2.4-1.08-3.51l-.19-.23a17.77,17.77,0,0,1-1.82-2.76l-.42-.71c-.74-1.26-1.39-2.59-2-3.88a41.52,41.52,0,0,0-2.66-4.9l0-.05a2.57,2.57,0,0,0-.4-.49,7.69,7.69,0,0,1-2.45-4.64,2.74,2.74,0,0,1,.05-1.18,3.69,3.69,0,0,0-.11-2.36l0-.07a1,1,0,0,1,.47-1.48,2.91,2.91,0,0,0-.13-.64,3.7,3.7,0,0,1-.14-.55c0-.09,0-.17,0-.25a1.27,1.27,0,0,1,.82-1.7c.12-.05.15-.36.17-.55v-.06a14.38,14.38,0,0,1,.61-2.57,10.49,10.49,0,0,0,.62-3.15,3.26,3.26,0,0,1,.26-1.15,2.55,2.55,0,0,0,.24-1.18.73.73,0,0,1,.41-.72l.08-.06a4.43,4.43,0,0,1,.55-.51c.46-.37.72-.6.7-1.11,0-.15,0-.6,1-1.29a3.29,3.29,0,0,0,1.88-3.58,5.4,5.4,0,0,1,.14-1.15,2.93,2.93,0,0,1,0-.29,3.89,3.89,0,0,0-.85-2.92,10.62,10.62,0,0,1-1.77-4v0a2.32,2.32,0,0,1-.5-1.68,3,3,0,0,1,1.32-1.82,1.31,1.31,0,0,0-.07-.78,23.39,23.39,0,0,1-2.21-5l-.21-.61a3.65,3.65,0,0,0-.71-1.06,4.55,4.55,0,0,1-.88-1.37,6.44,6.44,0,0,1-.23-.94,2.57,2.57,0,0,0-.66-1.56.73.73,0,0,1,0-1,1.84,1.84,0,0,0,.1-.16,2.54,2.54,0,0,0-.56-1.07,7,7,0,0,1-.75-1.25,5,5,0,0,0-.78-1.23c-.84-.88-1.66-1.8-2.46-2.69-.61-.67-1.21-1.34-1.83-2a15.3,15.3,0,0,0-1.39-1.24,11.81,11.81,0,0,1-1.68-1.56l-.23-.26a10.5,10.5,0,0,1-2.26-3.54,14.72,14.72,0,0,0-1.62-3.06,1.72,1.72,0,0,1-.27-1.59l.14-.38.38.12a1.37,1.37,0,0,0,1.17,0c.36-.24.58-.84.66-1.81,0-.23,0-.47,0-.72s0-.25,0-.37v-.37l.17,0a1.79,1.79,0,0,1-.12-1.2.85.85,0,0,1,.95-.66,1.58,1.58,0,0,1-.07-.66,1,1,0,0,1-.76-.48,1.19,1.19,0,0,1,.26-1.12l.06-.09c.22-.37.47-.72.7-1.06s.35-.5.51-.75a1.37,1.37,0,0,0,.18-.82,14.5,14.5,0,0,1,.45-3.74,1.31,1.31,0,0,0-.48-1.44,2,2,0,0,1-.7-1.69,3.16,3.16,0,0,1-1.89-.56,1.66,1.66,0,0,1-.74-1.25,2.51,2.51,0,0,0-.14-.48l0,0a1.18,1.18,0,0,1-1.06,0,1,1,0,0,1-.35-.35,2,2,0,0,1-1.35.25l-.29,0a4.29,4.29,0,0,0-1.23.23,5.22,5.22,0,0,1-1.34.26,13.09,13.09,0,0,0-2,.23,10.28,10.28,0,0,1-3,.18,3.62,3.62,0,0,1-2.83-2.6,13.42,13.42,0,0,0-2.69-4.88,3.54,3.54,0,0,0-2.66-1.06,50.05,50.05,0,0,0-7.75.35l-.51,0a7.87,7.87,0,0,0-1.18.26,7.07,7.07,0,0,1-1.48.31c-.07,0-.2.18-.23.39a1.19,1.19,0,0,1-1.51,1.06c-1.71-.22-3.11.58-4.6,1.42l-.14.08a13.07,13.07,0,0,1-4,1.25,2,2,0,0,0-.84.45,2.71,2.71,0,0,1-1.15.58l-.16,0a1.59,1.59,0,0,1-1.53-.29,3.88,3.88,0,0,0-2.15-.73l-.73-.12-1-.21a11.82,11.82,0,0,0-3.81-.4l-2,.16a31.84,31.84,0,0,0-3.91.46,8.1,8.1,0,0,0-1.63.6,10.36,10.36,0,0,1-1.46.59,16,16,0,0,0-2.44,1l-.68.34a1.92,1.92,0,0,1-1.71.06c-.67-.36-1.38-.68-2.06-1a25.61,25.61,0,0,1-3.64-1.95,11.11,11.11,0,0,1-2-1.94A12.19,12.19,0,0,0,832.2,135c-.19-.15-.36-.31-.53-.47a3,3,0,0,0-1.47-.93c-.86-.17-1.28-.59-1.25-1.24a7.26,7.26,0,0,1-2.67-2.11,4.88,4.88,0,0,0-2.25-1.34l-.74-.29c-.28-.13-.55-.28-.8-.42a3.34,3.34,0,0,0-1.33-.55c-.56-.05-.67-.6-.73-.86l-.1-.44.31-.14a1.27,1.27,0,0,1,.4-.11.7.7,0,0,1-.06-.58,1.49,1.49,0,0,0,.09-.44,2.11,2.11,0,0,0-.75.18l-.93.32.41-.89c.25-.55.2-.63.05-.76a.72.72,0,0,1-.18-.85.62.62,0,0,1,.26-.25,3.14,3.14,0,0,1-.15-1.16,2.44,2.44,0,0,0-.12-1l-.15-.37c-.32-.83-.45-1.08-1.16-.9l-.42.1-.09-.42a.73.73,0,0,1,.07-.6.67.67,0,0,1,.48-.28,0,0,0,0,1,0,0h0l-.48-.47a4,4,0,0,0-1-.83,3.33,3.33,0,0,1-1.34-1.25,6.27,6.27,0,0,0-.5-.61.43.43,0,0,1-.19-.4,3.19,3.19,0,0,0-.18-1.16l0,0a.8.8,0,0,1-.74.27.54.54,0,0,1-.37-.4c0-.26-.27-.44-.53-.65a1.93,1.93,0,0,1-.76-1,.86.86,0,0,1-.58.31,1,1,0,0,0-.54.24,1.92,1.92,0,0,1-.7.35l-.15,0a1.22,1.22,0,0,1-1.15-.13,1,1,0,0,1-.26-.76.45.45,0,0,1-.19-.15h-.06c-.63-.06-.74-.45-.72-.77a.62.62,0,0,1,.43-.61.77.77,0,0,1-.08-.43.79.79,0,0,1,.46-.59,1.54,1.54,0,0,1,.55-.18,1.6,1.6,0,0,1-.54-1.16v-.1a.71.71,0,0,0,0-.15,2.49,2.49,0,0,1-1.36-3,16.53,16.53,0,0,0,.17-2.45V102a1.23,1.23,0,0,1,.1-.41v0a.6.6,0,0,1,.16-.4.65.65,0,0,1,.52-.17,1.14,1.14,0,0,1,0-.51s0-.1,0-.14h0l-.4-.09.08-.4a2.34,2.34,0,0,0-.47-1.61,5.31,5.31,0,0,1-.49-1c-.13-.43-.2-.45-.37-.43a.78.78,0,0,1-.61-.17.93.93,0,0,1-.32-.67.7.7,0,0,1,.59-.78l.06,0a6.24,6.24,0,0,0,3.64-5.22,1.77,1.77,0,0,1,.38-1,11.47,11.47,0,0,1,.39-1.2,1.45,1.45,0,0,1,.36-.68.67.67,0,0,1,.2-.44.62.62,0,0,1,.23-.41,6.85,6.85,0,0,1,.87-1.73v0a.81.81,0,0,1,.18-.6,3.66,3.66,0,0,1,.38-1.59,8.94,8.94,0,0,0-.08-2,14.36,14.36,0,0,1-.12-1.62,3.45,3.45,0,0,1-.36-.55,2.28,2.28,0,0,0-.28-.43,1.29,1.29,0,0,1,.11-1.82c0-.06,0-.13,0-.2a1.17,1.17,0,0,1,.17-.89,1.09,1.09,0,0,1,.51-.77A43.35,43.35,0,0,0,880,37.71ZM811.27,86.94a.35.35,0,0,1,.09-.12l.09.19ZM997.71,42.38l.76.76a4,4,0,0,0,.16.91l-.07,0a1,1,0,0,0-.35-.74,1.44,1.44,0,0,1-.59-.93ZM798.92,37.71A37.75,37.75,0,1,1,811.71,66,37.75,37.75,0,0,1,798.92,37.71ZM102.31,152.3,82.63,52.15c-2-9.64-3.14-19.47-4.32-35.61h-.4c-1.37,14.17-2.56,25-4.72,35.61L51.75,152.3H31.48L0,4.74H18.1L37.38,106.46c1.77,10,3.15,20.26,4.33,34h.39c1.38-11.41,2.56-22.23,4.73-32.85L68.47,4.74H88.73l19.48,101.72c1.77,9.83,3,19.67,4.33,34h.39c1.38-11.41,2.56-22.23,4.73-32.85L139.1,4.74h18.1L122.57,152.3ZM206.19,40C179.24,40,167,60.81,167,93.86c0,47.22,15.54,61.39,39.15,61.39,24,0,39.15-14,39.15-61.39C245.34,60.81,233.14,40,206.19,40Zm0,102.11c-18.1,0-23-17.51-23-43.28,0-33,7.08-45.65,23-45.65,16.33,0,23,12.6,23,45.65C229.21,124.55,224.68,142.06,206.19,142.06Zm80.47-81.25c6.49-14.36,15.74-20.46,32.07-19.08V57.07c-20.07-3.54-31.88,9.05-31.88,28.92V152.3H271.31V42.91h14.95v17.9ZM335.05,4.74H350.6V152.3H335.05Zm97.39,0V54.12h-.39c-7.28-9.45-14-14.17-25.19-14.17-23.41,0-34,25.38-32.85,57.45.39,9.64-2.36,57.85,32.07,57.85,13.18,0,19.87-4.33,26.56-17.32H433v14.36h15V4.73Zm0,104.67c0,12.4-4.52,32.66-20.66,32.66-21.25,0-22-21.44-22-45,0-33.65,8.46-43.88,21.44-43.88,20.86,0,21.25,27.75,21.25,42.7ZM32.12,286.58c-9.64,0-21.12-2.73-26.73-15.51-2.08-4.83-1.95-12.65-2.08-17.87H14.13c-.52,14.48,2.22,23.6,18.52,23.6,11,0,18.64-5.6,18.64-17.08,0-14.86-6-15-15.9-18.78-5.35-2.08-14-4.82-19.17-7.56C7,228.69,4.61,220.86,4.61,211.21,4.61,195,16,184.48,31.86,184.48c17.87,0,28.82,9.26,27.78,27.64H48.82c.78-10.17-4.7-17.86-15.52-17.86-15.78,0-17.47,9.91-17.47,17.47,0,6.78,3,11,9.25,13.3,5.22,2,10.31,3.92,15.52,5.87,18.52,6.91,21.91,13.43,21.91,26.34C62.51,275.76,50.9,286.58,32.12,286.58ZM186.66,186.44h10.82v74.19c0,17.48-11.61,25.95-29.34,25.95s-29.34-8.47-29.34-25.95V186.44h10.82v70.28c-.13,7.7,1.18,20.08,18.52,20.08s18.65-12.38,18.52-20.08ZM324,284.24H311.06l-20.47-81c-.91-3.39-1.69-6.65-2.87-12h-.26c0,4.17.26,8.48.26,12.65v80.33H276.9v-97.8h19.17l19.17,76.28a87.12,87.12,0,0,1,2.08,14.47h.26a139.46,139.46,0,0,1,2.48-14.6l19.43-76.15h19v97.8H347.71V203.65c0-4.17.26-8.22,0-12.39h-.26c-1.18,5.74-2.09,9.39-3,13.17Zm132.63-97.8,19.17,76.28a87.12,87.12,0,0,1,2.08,14.47h.27a136.86,136.86,0,0,1,2.47-14.6L500,186.44h19v97.8H508.24V203.65c0-4.17.26-8.22,0-12.39H508c-1.18,5.74-2.09,9.39-3,13.17L484.5,284.24H471.6l-20.48-81c-.91-3.39-1.69-6.65-2.87-12H448c0,4.17.26,8.48.26,12.65v80.33H437.43v-97.8Zm144.23,97.8v-97.8h10.82v97.8Zm109.8-88h-25.3v-9.78h61.42v9.78H721.46v88H710.63Z"/></g></g></svg>