<svg xmlns="http://www.w3.org/2000/svg" viewBox="0 0 1095 534.4"><defs><style>.cls-1{fill:#fff;}</style></defs><g id="Layer_2" data-name="Layer 2"><g id="Logo_PtX_MONO" data-name="Logo PtX MONO"><path id="Logo_PtX_MONO_-_Long" data-name="Logo PtX MONO - Long" class="cls-1" d="M483.36,236.29V88.73h41.12c13.38,0,32.66,1.18,42.3,12.2,8.07,9,9.64,20.07,9.64,32.07,0,15.94-3.73,33.84-19.47,41.12-12,5.9-26,4.13-39,4.72v57.45Zm34.63-84c6.49-.2,14,.59,19.48-3.74,3.54-3.93,4.33-9.83,4.33-14.95,0-5.71-.59-14.36-6.5-17.12-3.34-1.18-8.06-1.18-13.57-1.18H518Zm66.7-3.54V126.11h12.39V94.63h31.28v31.48h15v22.63h-15v58c0,6.3,2.76,7.67,6.89,7.67a37.6,37.6,0,0,1,8.07-.39v22a135.12,135.12,0,0,1-20.07,1.78c-16.92,0-26.17-8.66-26.17-25.38V148.74Zm118-15.15h.4l15.73-44.86h34.63l-30.69,74,32.07,73.58H720.24l-16.72-44.07h-.39l-19.68,44.07H650.4l32.85-73.58-31.08-74H686.6ZM12.19,48.07H17.4V5.65H29.59V.94H0V5.65H12.19ZM46.3,24.69c0-2.51.26-4.52,2.27-6.34a7.08,7.08,0,0,1,4.9-2c4,0,5.21,2.45,5.21,6.09V48.07h5v-27c0-6.16-3.4-8.92-8.61-8.92-3.77,0-6.35,1.76-8.61,4.77H46.3V.94h-5V48.07h5ZM88.46,49C95.81,49,99.33,43.29,99,36.44H94.37c.31,4-1,8.36-5.78,8.36-7,0-6.16-9-6.29-13.76h17c-.25-8.17.37-18.85-10.94-18.85-9.23,0-11.18,11-11.18,18.35C77.15,44.61,81.86,49,88.46,49ZM88.4,16.4c5.78,0,5.53,6.47,5.72,10.55H82.3C82.49,22.81,82.62,16.4,88.4,16.4Zm59.81,31.67,6.85-32a110,110,0,0,0,1.5-11.37h.13a86.21,86.21,0,0,0,1.38,11.37l6.29,32h6.47L181.89.94h-5.78L169.26,33.8c-.69,3.4-1.07,6.85-1.51,10.5h-.13c-.44-4.59-.81-7.73-1.38-10.87L160,.94h-6.47L146.64,33.8c-.69,3.4-1.07,6.85-1.51,10.5H145c-.37-4.4-.81-7.67-1.38-10.87L137.46.94h-5.78l10.06,47.13Zm55.6.94c7.67,0,12.5-4.46,12.5-19.6,0-10.56-3.89-17.22-12.5-17.22s-12.5,6.66-12.5,17.22C191.31,44.48,196.27,49,203.81,49Zm0-32.61c5.21,0,7.35,4,7.35,14.58,0,8.23-1.44,13.82-7.35,13.82s-7.35-5.59-7.35-13.82C196.46,20.42,198.72,16.4,203.81,16.4Zm32,10.49c0-6.34,3.77-10.37,10.18-9.23V12.75c-5.22-.44-8.17,1.51-10.24,6.1h-.13V13.13h-4.77V48.07h5Zm21.67,21.18h5V.94h-5Zm29,.94c4.21,0,6.34-1.38,8.48-5.53h.13v4.59h4.77V.94h-5V16.71h-.13c-2.32-3-4.46-4.52-8-4.52-7.48,0-10.87,8.1-10.49,18.35C276.37,33.61,275.49,49,286.49,49Zm1.63-32.61c6.66,0,6.79,8.86,6.79,13.63v4.34c0,4-1.45,10.43-6.6,10.43-6.79,0-7-6.85-7-14.39C281.27,19.67,284,16.4,288.12,16.4Zm55.41,11.69h3.14c3.59,0,8.93,0,12.19-1.39,5.09-2.32,6.66-7.41,6.66-12.63,0-3.77-1-7.41-3.83-10S354.34.94,350.7.94H338.32V48.07h5.21Zm0-22.44h5.41c6.34-.12,11.18.95,11.18,8.55.06,8.11-4.33,9.11-11.5,9.17h-5.09ZM389.84,49c7.66,0,12.5-4.46,12.5-19.6,0-10.56-3.9-17.22-12.5-17.22s-12.51,6.66-12.51,17.22C377.33,44.48,382.3,49,389.84,49Zm0-32.61c5.21,0,7.35,4,7.35,14.58,0,8.23-1.45,13.82-7.35,13.82s-7.35-5.59-7.35-13.82C382.49,20.42,384.75,16.4,389.84,16.4Zm37.32,31.67,5.53-30.73h.12l5.91,30.73h5.15l8.73-34.94h-5.15l-6.09,30.73h-.13l-5.91-30.73h-5.15l-5.53,30.73h-.12l-6.35-30.73H413l9,34.94ZM474,49c7.36,0,10.87-5.72,10.56-12.57h-4.65c.31,4-1,8.36-5.78,8.36-7,0-6.16-9-6.28-13.76h17c-.25-8.17.38-18.85-10.93-18.85-9.24,0-11.19,11-11.19,18.35C462.71,44.61,467.43,49,474,49ZM474,16.4c5.78,0,5.53,6.47,5.72,10.55H467.87C468.05,22.81,468.18,16.4,474,16.4Zm30.28,10.49c0-6.34,3.77-10.37,10.18-9.23V12.75c-5.21-.44-8.17,1.51-10.24,6.1h-.13V13.13h-4.77V48.07h5Zm32.92-1.32H521.9v5.22h15.26Zm14.52,16.78c0,5.28,2.2,5.78,5.15,5.72h5.46V43.86H559c-2.76,0-2.32-1.51-2.32-2.71V17.34h5.78V13.13h-5.84V3.64h-4.9v9.49h-4.84v4.21h4.84ZM585.73,49c7.66,0,12.5-4.46,12.5-19.6,0-10.56-3.89-17.22-12.5-17.22s-12.51,6.66-12.51,17.22C573.22,44.48,578.19,49,585.73,49Zm0-32.61c5.21,0,7.35,4,7.35,14.58,0,8.23-1.45,13.82-7.35,13.82s-7.35-5.59-7.35-13.82C578.38,20.42,580.64,16.4,585.73,16.4Zm40.08,9.17H610.54v5.22h15.27Zm16.4,22.5,10.18-19.73,10,19.73h6.41L655.47,23.88,668.41.94h-6.16l-9.86,18.41L642.52.94h-6.16l13,22.94L636,48.07Zm59.12-15c.06,2.52,0,6.29,1,8.61,2.71,6.16,8.23,7.48,12.88,7.48,9,0,14.64-5.22,14.64-14.14,0-6.22-1.63-9.36-10.55-12.69-2.52-.94-5-1.89-7.48-2.83a6.19,6.19,0,0,1-4.46-6.41c0-3.64.82-8.42,8.42-8.42,5.21,0,7.85,3.71,7.48,8.61h5.21C729,4.46,723.7,0,715.09,0,707.42,0,702,5.09,702,12.88c0,4.65,1.13,8.42,5.59,10.68,2.51,1.32,6.66,2.64,9.23,3.65,4.78,1.82,7.67,1.88,7.67,9,0,5.53-3.71,8.23-9,8.23-7.85,0-9.17-4.39-8.92-11.37ZM752.59,49a9.18,9.18,0,0,0,8.3-5.53H761v4.59h5V13.13h-5V35.56a11.74,11.74,0,0,1-1.44,6.16,7.11,7.11,0,0,1-6,3.08c-3.52,0-4.46-1.57-4.46-4.53V13.13h-5v27C744.18,46.24,747.38,49,752.59,49Zm34.18-24.32c0-2.51.13-4.52,2.14-6.34a7.09,7.09,0,0,1,4.9-2c4,0,5.21,2.45,5.21,6.09V48.07h5V24.69c0-2.51.25-4.52,2.26-6.34a7.17,7.17,0,0,1,4.65-2c4.27,0,5.34,2.2,5.34,6.09V48.07h5V22.81c0-2.2.13-6.1-2.13-8.17a9.42,9.42,0,0,0-6.41-2.45c-4.4,0-6.91,2-9.36,5.53a9.12,9.12,0,0,0-8.3-5.53c-3.64,0-6.66,2.45-8.29,5.4h-.13V13.13h-4.77V48.07h5Zm55.16,0c0-2.51.13-4.52,2.14-6.34a7.09,7.09,0,0,1,4.9-2c4,0,5.22,2.45,5.22,6.09V48.07h5V24.69c0-2.51.25-4.52,2.26-6.34a7.17,7.17,0,0,1,4.65-2c4.27,0,5.34,2.2,5.34,6.09V48.07h5V22.81c0-2.2.12-6.1-2.14-8.17a9.42,9.42,0,0,0-6.41-2.45c-4.4,0-6.91,2-9.36,5.53a9.12,9.12,0,0,0-8.3-5.53c-3.64,0-6.66,2.45-8.29,5.4h-.13V13.13H837V48.07h5ZM896.84.94h-5V7.23h5Zm0,12.19h-5V48.07h5ZM913,42.35c0,5.28,2.2,5.78,5.15,5.72h5.47V43.86h-3.33c-2.77,0-2.33-1.51-2.33-2.71V17.34h5.78V13.13h-5.84V3.64H913v9.49h-4.84v4.21H913ZM970.67,24.5l-9,8.67A16.36,16.36,0,0,0,958,37.89a27.49,27.49,0,0,0-1.88,10.18h25.32V43.35H961.49a8.79,8.79,0,0,1,3.39-6.84l8.49-7.73c4.84-4.4,7.6-7.79,7.6-14.71C981,6.28,976.89.94,968.84.94c-5.28,0-7.91,2.2-9.36,3.71a14.81,14.81,0,0,0-3,9.42V17h5.22c-.13-5,.44-11.31,6.91-11.31,5.34,0,7,3.52,7,8.3C975.57,19.1,974.31,21,970.67,24.5ZM1006.73,49c12.31,0,12.88-13.45,12.88-24.13,0-9,.31-23.94-12.88-23.94-12.25,0-12.82,15.14-12.82,23.94C993.91,33.24,994.16,49,1006.73,49Zm0-43.36c8.17.57,7.47,11.75,7.47,18.41,0,9.05.32,20.24-7.47,20.24-8.67,0-7.42-11.19-7.42-20.24C999.31,19.73,998.43,5.15,1006.73,5.65Zm39.33,18.85-9,8.67a16.53,16.53,0,0,0-3.71,4.72,27.49,27.49,0,0,0-1.88,10.18h25.32V43.35h-19.92a8.77,8.77,0,0,1,3.4-6.84l8.48-7.73c4.84-4.4,7.6-7.79,7.6-14.71,0-7.79-4.08-13.13-12.13-13.13-5.27,0-7.91,2.2-9.36,3.71a14.86,14.86,0,0,0-3,9.42V17h5.21c-.13-5,.44-11.31,6.91-11.31,5.34,0,7,3.52,7,8.3C1051,19.1,1049.7,21,1046.06,24.5ZM1082.12,49c12.31,0,12.88-13.45,12.88-24.13,0-9,.31-23.94-12.88-23.94-12.25,0-12.82,15.14-12.82,23.94C1069.3,33.24,1069.55,49,1082.12,49Zm0-43.36c8.17.57,7.48,11.75,7.48,18.41,0,9.05.31,20.24-7.48,20.24-8.67,0-7.42-11.19-7.42-20.24C1074.7,19.73,1073.82,5.15,1082.12,5.65ZM21.66,517.54h-.11L16.69,493H13.12L8.38,517.54H8.26L3.24,493H0l6.53,30.81H10.1l4.75-24.17H15l4.75,24.17h3.4L29.81,493H26.63Zm59,0H80.5L75.64,493H72.07l-4.75,24.56h-.11l-5-24.56H59l6.53,30.81h3.57l4.75-24.17h.11l4.74,24.17h3.41L88.76,493H85.57Zm58.94,0h-.11L134.58,493H131l-4.74,24.56h-.12l-5-24.56h-3.24l6.53,30.81H128l4.74-24.17h.11l4.75,24.17H141L147.7,493h-3.18Zm38.91,6.25h3.85v-4.91h-3.85Zm58.27-6.25h-.11L231.76,493h-3.57l-4.74,24.56h-.12l-5-24.56h-3.24l6.53,30.81h3.58l4.74-24.17H230l4.75,24.17h3.4l6.7-30.81H241.7Zm49.18-25.34c-8.49,0-9.77,8.54-9.77,15.46,0,7.14.22,16.91,9.6,16.91,8.88,0,9.77-9.32,9.77-16.3C295.51,501.52,294.56,492.2,285.91,492.2Zm-.22,29.53c-6.65,0-6.31-9.44-6.31-14,0-4.24.33-12.67,6.14-12.67,6.64,0,6.75,8.49,6.75,13.29C292.27,513,292.22,521.73,285.69,521.73Zm47.44-25.18H333V493H330v30.81h3.24V503.58c0-4.85,2.23-8.09,7.25-8v-3.4C336.87,492.14,334.75,493.31,333.13,496.55Zm41,27.24h3.24V481.92H374.1Zm53.81-28.3h-.11a8.43,8.43,0,0,0-6.53-3.29c-8.26,0-9,9.88-9,16.07s.56,16.3,8.88,16.3c2.95,0,5.36-1.17,6.64-3.68h.11v2.9h3.24V481.92h-3.24Zm-6,26.24c-6.08,0-6.36-8.49-6.36-12.84,0-4.19.05-13.85,6.2-13.85,5.91,0,6.19,7.82,6.19,12S428.47,521.73,421.88,521.73Zm53.36-29.53a7.33,7.33,0,0,0-6.14,3.57H469V493h-3.24V534.4h3.35V521.28h.12a7,7,0,0,0,6.3,3.29c9,0,9-10.27,9-17S483.67,492.2,475.24,492.2Zm0,29.53c-6.58,0-6.25-8.82-6.25-13.51S468.6,495,475.36,495c5.91,0,5.91,9.44,5.91,13.62S481.33,521.73,475.24,521.73Zm46.89-37.8h-3.24V493H516.1v2.84h2.79v23.06c0,3,.51,4.35,3.35,5.36a11.83,11.83,0,0,0,4.19-.17v-2.68a4.38,4.38,0,0,1-2.68.06c-1.51-.28-1.62-1.84-1.62-2.91V495.82h4.3V493h-4.3ZM576,493h-3.74l-6,11.89L560.42,493h-3.63l7.54,14.68-8.09,16.13h3.51l6.53-13.06,6.59,13.06h3.63l-8.21-16.13Zm38.57,11.66c-2.12-.83-3.74-2.23-3.74-4.69,0-3,1.5-4.91,4.57-4.91,3.41,0,5.2,2.57,5.31,5.81h3.18c0-5.31-3.07-8.65-8.37-8.65-5.64,0-8.43,3.29-7.93,8.87.45,8.32,13.84,6.7,13.84,14.85,0,3.24-1.89,5.81-5.3,5.81-4,0-5.64-2.52-5.92-6.31h-3.29c0,5.86,3,9.15,9,9.15,5.36,0,8.76-3,8.76-8.48C624.67,509.5,620,507.16,614.57,504.64Zm58.11,11.78c-1,2.63-3.35,5.2-5.92,5.31-3.91.28-5.42-1.51-5.42-5.42V493H658.1v22.77c0,4.8,1.18,8.82,6.82,8.82a8.92,8.92,0,0,0,7.76-3.63h.11v2.85h3.12V493h-3.23Zm61.73-24.22a8.58,8.58,0,0,0-7.26,3.46H727c-1.9-3.24-4-3.46-6.47-3.46a7.55,7.55,0,0,0-6.54,3.51h-.11V493h-3.23v30.81h3.23v-23.5c0-2.74,3.41-5.25,6-5.25,4.18,0,4.57,3,4.57,6.48v22.27h3.24v-22.5A5.92,5.92,0,0,1,734,495c3.24,0,4.24,2.62,4.24,5.19v23.61h3.24V500.57C741.5,495.71,739.94,492.2,734.41,492.2Zm65.14,0a8.59,8.59,0,0,0-7.26,3.46h-.11c-1.89-3.24-4-3.46-6.47-3.46a7.54,7.54,0,0,0-6.53,3.51h-.12V493h-3.23v30.81h3.23v-23.5c0-2.74,3.41-5.25,6-5.25,4.18,0,4.58,3,4.58,6.48v22.27h3.23v-22.5a5.92,5.92,0,0,1,6.31-6.3c3.24,0,4.24,2.62,4.24,5.19v23.61h3.24V500.57C806.64,495.71,805.08,492.2,799.55,492.2Zm42.53-5h3.74v-5.31h-3.74Zm.23,36.56h3.23V493h-3.23ZM885,483.93h-3.24V493h-2.79v2.84h2.79v23.06c0,3,.51,4.35,3.35,5.36a11.83,11.83,0,0,0,4.19-.17v-2.68a4.38,4.38,0,0,1-2.68.06c-1.51-.28-1.62-1.84-1.62-2.91V495.82h4.3V493H885Zm37.68,39.86h3.85v-4.91h-3.85Zm47.5-2.06c-6.31,0-6.2-8.66-6.2-13,0-4.81-.27-13.57,5.81-13.74,3.52-.11,5.3,3.3,5.42,7h3.18c0-5.14-2.85-9.88-8.38-9.88-8.54,0-9.26,9.37-9.26,16,0,6.92.33,16.35,9.37,16.35,6.48,0,8.6-5.3,8.55-11h-3.24C975,517.09,974.65,521.73,970.13,521.73Zm50.63-29.53c-8.49,0-9.77,8.54-9.77,15.46,0,7.14.22,16.91,9.6,16.91,8.88,0,9.77-9.32,9.77-16.3C1030.36,501.52,1029.41,492.2,1020.76,492.2Zm-.22,29.53c-6.65,0-6.31-9.44-6.31-14,0-4.24.33-12.67,6.14-12.67,6.64,0,6.75,8.49,6.75,13.29C1027.12,513,1027.07,521.73,1020.54,521.73Zm67.37-29.53a8.58,8.58,0,0,0-7.26,3.46h-.11c-1.9-3.24-4-3.46-6.47-3.46a7.55,7.55,0,0,0-6.54,3.51h-.11V493h-3.24v30.81h3.24v-23.5c0-2.74,3.41-5.25,6-5.25,4.18,0,4.57,3,4.57,6.48v22.27h3.24v-22.5a5.92,5.92,0,0,1,6.31-6.3c3.24,0,4.24,2.62,4.24,5.19v23.61H1095V500.57C1095,495.71,1093.44,492.2,1087.91,492.2ZM846.62,165.08A43.07,43.07,0,0,1,822.85,158a1.09,1.09,0,0,0-.51.77,1.17,1.17,0,0,0-.17.89c0,.07,0,.14,0,.2a1.29,1.29,0,0,0-.11,1.82,2.28,2.28,0,0,1,.28.43,3.45,3.45,0,0,0,.36.55,14.36,14.36,0,0,0,.12,1.62,8.94,8.94,0,0,1,.08,2,3.66,3.66,0,0,0-.38,1.59.81.81,0,0,0-.18.6v0a6.85,6.85,0,0,0-.87,1.73.62.62,0,0,0-.23.41.67.67,0,0,0-.2.44,1.45,1.45,0,0,0-.36.68,11.47,11.47,0,0,0-.39,1.2,1.77,1.77,0,0,0-.38,1,6.24,6.24,0,0,1-3.64,5.22l-.06,0a.7.7,0,0,0-.59.78.93.93,0,0,0,.32.67.78.78,0,0,0,.61.17c.17,0,.24,0,.37.43a5.31,5.31,0,0,0,.49,1.05,2.34,2.34,0,0,1,.47,1.61l-.08.4.4.09h0s0,.1,0,.14a1.14,1.14,0,0,0,0,.51.65.65,0,0,0-.52.17.6.6,0,0,0-.16.4v0a1.23,1.23,0,0,0-.1.41v.07a16.53,16.53,0,0,1-.17,2.45,2.49,2.49,0,0,0,1.36,3,.71.71,0,0,1,0,.15v.1a1.6,1.6,0,0,0,.54,1.16,1.54,1.54,0,0,0-.55.18.79.79,0,0,0-.46.59.77.77,0,0,0,.08.43.62.62,0,0,0-.43.61c0,.32.09.71.72.77h.06a.45.45,0,0,0,.19.15,1,1,0,0,0,.26.76,1.22,1.22,0,0,0,1.15.13l.15,0a1.92,1.92,0,0,0,.7-.35,1,1,0,0,1,.54-.24.86.86,0,0,0,.58-.31,1.93,1.93,0,0,0,.76,1c.26.21.48.39.53.65a.54.54,0,0,0,.37.4.8.8,0,0,0,.74-.27l0-.05a3.19,3.19,0,0,1,.18,1.16.43.43,0,0,0,.19.4,6.27,6.27,0,0,1,.5.61,3.33,3.33,0,0,0,1.34,1.25,4,4,0,0,1,1,.83l.48.47h0a0,0,0,0,0,0,0,.67.67,0,0,0-.48.28.73.73,0,0,0-.07.6l.09.42.42-.1c.71-.18.84.07,1.16.9l.15.37a2.44,2.44,0,0,1,.12.95,3.14,3.14,0,0,0,.15,1.16.62.62,0,0,0-.26.25.72.72,0,0,0,.18.85c.15.13.2.21-.05.76l-.41.89.93-.32a2.11,2.11,0,0,1,.75-.18,1.49,1.49,0,0,1-.09.44.7.7,0,0,0,.06.58,1.27,1.27,0,0,0-.4.11l-.31.14.1.44c.06.26.17.81.73.86a3.34,3.34,0,0,1,1.33.55c.25.14.52.29.8.42l.74.29a4.88,4.88,0,0,1,2.25,1.34,7.26,7.26,0,0,0,2.67,2.11c0,.65.39,1.07,1.25,1.24a3,3,0,0,1,1.47.93c.17.16.34.32.53.47a12.19,12.19,0,0,1,1.47,1.49,11.11,11.11,0,0,0,2,1.94,25.61,25.61,0,0,0,3.64,2c.68.32,1.39.64,2.06,1a1.92,1.92,0,0,0,1.71-.06l.68-.34a16,16,0,0,1,2.44-1,10.36,10.36,0,0,0,1.46-.59,8.1,8.1,0,0,1,1.63-.6,31.84,31.84,0,0,1,3.91-.46l2-.16a11.82,11.82,0,0,1,3.81.4l1,.21.73.12a3.88,3.88,0,0,1,2.15.73,1.59,1.59,0,0,0,1.53.29l.16,0a2.71,2.71,0,0,0,1.15-.58,2,2,0,0,1,.84-.45,13.07,13.07,0,0,0,4-1.25l.14-.08c1.49-.84,2.89-1.64,4.6-1.42a1.19,1.19,0,0,0,1.51-1.06c0-.21.16-.38.23-.39a7.07,7.07,0,0,0,1.48-.31,7.87,7.87,0,0,1,1.18-.26l.51,0a50.05,50.05,0,0,1,7.75-.35,3.54,3.54,0,0,1,2.66,1.06,13.42,13.42,0,0,1,2.69,4.88,3.62,3.62,0,0,0,2.83,2.6,10.28,10.28,0,0,0,3-.18,13.09,13.09,0,0,1,2-.23,5.22,5.22,0,0,0,1.34-.26,4.29,4.29,0,0,1,1.23-.23l.29,0a2,2,0,0,0,1.35-.25,1,1,0,0,0,.35.35,1.18,1.18,0,0,0,1.06,0l0,0a2.51,2.51,0,0,1,.14.48,1.66,1.66,0,0,0,.74,1.25,3.16,3.16,0,0,0,1.89.56,2,2,0,0,0,.7,1.69,1.31,1.31,0,0,1,.48,1.44,14.5,14.5,0,0,0-.45,3.74,1.37,1.37,0,0,1-.18.82q-.24.38-.51.75c-.23.34-.48.69-.7,1.06l-.06.09a1.19,1.19,0,0,0-.26,1.12,1,1,0,0,0,.76.48,1.58,1.58,0,0,0,.07.66.85.85,0,0,0-.95.66,1.79,1.79,0,0,0,.12,1.2l-.17,0v.37c0,.12,0,.25,0,.37s0,.49,0,.72c-.08,1-.3,1.57-.66,1.81a1.37,1.37,0,0,1-1.17,0l-.38-.12-.14.38a1.72,1.72,0,0,0,.27,1.59,14.72,14.72,0,0,1,1.62,3.06,10.5,10.5,0,0,0,2.26,3.54l.23.26a11.81,11.81,0,0,0,1.68,1.56,15.3,15.3,0,0,1,1.39,1.24c.62.67,1.22,1.34,1.83,2,.8.89,1.62,1.81,2.46,2.69a5,5,0,0,1,.78,1.23,7,7,0,0,0,.75,1.25,2.54,2.54,0,0,1,.56,1.07,1.84,1.84,0,0,1-.1.16.73.73,0,0,0,0,1.05,2.57,2.57,0,0,1,.66,1.56,6.44,6.44,0,0,0,.23.94,4.55,4.55,0,0,0,.88,1.37,3.65,3.65,0,0,1,.71,1.06l.21.61a23.39,23.39,0,0,0,2.21,5,1.31,1.31,0,0,1,.07.78,3,3,0,0,0-1.32,1.82,2.32,2.32,0,0,0,.5,1.68v0a10.62,10.62,0,0,0,1.77,4,3.89,3.89,0,0,1,.85,2.92,2.93,2.93,0,0,0,0,.29,5.4,5.4,0,0,0-.14,1.15,3.29,3.29,0,0,1-1.88,3.58c-1.07.69-1.05,1.14-1,1.29,0,.51-.24.74-.7,1.11a4.43,4.43,0,0,0-.55.51l-.08.06a.73.73,0,0,0-.41.72,2.55,2.55,0,0,1-.24,1.18,3.26,3.26,0,0,0-.26,1.15,10.49,10.49,0,0,1-.62,3.15,14.38,14.38,0,0,0-.61,2.57v.06c0,.19-.05.5-.17.55a1.27,1.27,0,0,0-.82,1.7c0,.08,0,.16,0,.25a3.7,3.7,0,0,0,.14.55,2.91,2.91,0,0,1,.13.64,1,1,0,0,0-.47,1.48l0,.07a3.69,3.69,0,0,1,.11,2.36,2.74,2.74,0,0,0-.05,1.18,7.69,7.69,0,0,0,2.45,4.64,2.57,2.57,0,0,1,.4.49l0,.05a41.52,41.52,0,0,1,2.66,4.9c.62,1.29,1.27,2.62,2,3.88l.42.71a17.77,17.77,0,0,0,1.82,2.76l.19.23c1,1.11,1.77,2.06,1.08,3.51a1.13,1.13,0,0,0,0,.81l0,.16c0,.2.08.4.12.6a3.36,3.36,0,0,1,.12,1.63,3.87,3.87,0,0,0,.51,3.11c.07.13.13.26.19.39a5.11,5.11,0,0,1,.66,2.19,12,12,0,0,0,1.18,5.16c0,.06,0,.06,0,.09a6.15,6.15,0,0,0,.93,3.35l.14.27a13.84,13.84,0,0,0,4.33,5.15.46.46,0,0,1,.14.16,22.89,22.89,0,0,1,2.22,4.9l.24.67a16,16,0,0,0,2.87,5.1,5.3,5.3,0,0,1,1.15,3.61c0,.37-.08.48-.12.51a.45.45,0,0,1-.34,0,.94.94,0,0,0-.77.13,1.21,1.21,0,0,0-.39.94c0,.07,0,.13,0,.19a1.6,1.6,0,0,0,.51,1.31c.29.34.39.5.3.76a.46.46,0,0,0,0,.41.62.62,0,0,0,.55.23h.06a.64.64,0,0,1,.48.39.6.6,0,0,1,0,.58,2.05,2.05,0,0,0,0,2.12,1,1,0,0,0,.54.59.73.73,0,0,0,.58,0,.78.78,0,0,0,.46-.49.36.36,0,0,0,0-.1,1.58,1.58,0,0,0,1.07.6l.13,0c.17,0,.26.16.42.4a1.73,1.73,0,0,0,.54.58,4.08,4.08,0,0,0,2,.73,3.27,3.27,0,0,0,2-.94,11.46,11.46,0,0,1,2.47-.6,7.3,7.3,0,0,1,.82,0,2.82,2.82,0,0,0,2.62-.94,1.48,1.48,0,0,1,1.11-.51,4.78,4.78,0,0,1,1.29.12,5.47,5.47,0,0,0,1.24.15,2.12,2.12,0,0,0,.9-.26c.25-.13.39-.19.54-.15.36.1.72.16,1.07.23a5.64,5.64,0,0,1,1.88.57,1.89,1.89,0,0,0,1.32.15.6.6,0,0,0,.41-.33c.3-.64.55-.7,1.41-.31a1.32,1.32,0,0,0,.75.07,2.09,2.09,0,0,1,.25,0,.72.72,0,0,0,.53-.19.74.74,0,0,0,.21-.56.68.68,0,0,1,.21-.58.38.38,0,0,1,.36,0c1.6.72,2.88,0,4-.64l.31-.18a23.56,23.56,0,0,0,3.13-2.17c.42-.33.85-.66,1.29-1l.06,0a14.75,14.75,0,0,0,3.15-2.83,4.06,4.06,0,0,1,1.23-1.13,15.56,15.56,0,0,0,4.79-5.11l.45-.66c.29-.43.55-.87.79-1.31a7.62,7.62,0,0,1,1.69-2.29l.39-.34a5.84,5.84,0,0,1,1.49-1,4.49,4.49,0,0,0,2.5-3.33,16.67,16.67,0,0,1,.77-2.36,10.92,10.92,0,0,0,1-3.71,5.78,5.78,0,0,1,.12-.88,4.37,4.37,0,0,0,0-2.13l-.18-.62a3.34,3.34,0,0,1,1-.71,27.32,27.32,0,0,1,5.65-2.06l.2-.06a5.27,5.27,0,0,0,2.72-2,3.33,3.33,0,0,1,.25-.28,1.67,1.67,0,0,0,.58-1.69,5,5,0,0,1,.62-3.53c.05-.1.28-.62,0-.92s-.25-.49-.06-1a4.13,4.13,0,0,0,.14-.42c.12-.41.35-1.27-.72-1.58a.11.11,0,0,1,0-.08,1.07,1.07,0,0,0,.8-1.37,1.5,1.5,0,0,1,0-.29.5.5,0,0,1,0-.12c.11-.61,0-1-.5-1.07a.64.64,0,0,0-.73.28c-.36-.49-.52-.8-.33-1.33a2,2,0,0,0-.6-2.19c-.55-.35-.54-.52-.38-1.27v-.08c.16-.76.21-1,.94-1.29a5.71,5.71,0,0,0,2.21-2l.16-.22a2.37,2.37,0,0,1,1.17-.92,2.76,2.76,0,0,0,2.17-1.27l.23-.27.24-.27a15.45,15.45,0,0,1,4.23-3.75,7.76,7.76,0,0,0,.69-.4,5.51,5.51,0,0,1,1.4-.66l.5-.11a11.9,11.9,0,0,0,3.94-1.38,18.09,18.09,0,0,0,3.34-2.89l.29-.29a8.92,8.92,0,0,0,2.84-4.39,3.68,3.68,0,0,1,.18-.53,3,3,0,0,0,.27-.88,4,4,0,0,0-.48-2.2,3.52,3.52,0,0,1-.43-1.7,5.54,5.54,0,0,1,.07-.57,5.42,5.42,0,0,0,.09-1.29,2.86,2.86,0,0,0-.29-1.11,1.35,1.35,0,0,0,.65-1.31,10.66,10.66,0,0,0-.24-2.41,9.29,9.29,0,0,1-.2-2.61,1.5,1.5,0,0,0,0-.2s0-.05,0-.08h.09a.78.78,0,0,0,.67-.17.68.68,0,0,0,.18-.56,1.09,1.09,0,0,1,0-.17c0-.22.14-.87-.53-1h-.05s0-.08,0-.11l0-.11c.22-1.9-.13-2.54-1.8-3.26a1.62,1.62,0,0,1-.93-1.1,8.46,8.46,0,0,1-.38-1.72,6.71,6.71,0,0,0-.84-2.72,1.63,1.63,0,0,1-.11-2,2.1,2.1,0,0,0,0-2c-.4-.61-.19-1,.34-1.61a1.49,1.49,0,0,0,.32-1.43,1.22,1.22,0,0,0-.93-.78c-.07,0-.09,0-.13-.26a1.69,1.69,0,0,0-1-1.28c-.42-.17-.5-.27-.5-.66a3.83,3.83,0,0,0-.05-.51,1,1,0,0,1,0-.7l.2-.38a11.4,11.4,0,0,0,1.1-2.59,3.31,3.31,0,0,1,1-1.92,3.86,3.86,0,0,0,.84-1.19l.1-.2c.27-.51.49-1.05.71-1.57a15.46,15.46,0,0,1,.78-1.69l0-.09a4.91,4.91,0,0,0,.93-2.92c0-.2.24-.36.5-.42,1.65-.34,2-.72,2.27-2.25a.7.7,0,0,1,0-.17,2.15,2.15,0,0,0,2.3-1.18,5,5,0,0,1,.35-.43,11.27,11.27,0,0,0,1.18-1.76c.22-.37.42-.72.65-1.06a17.3,17.3,0,0,1,1.77-2l.76-.76,1.29-1.37a47.38,47.38,0,0,1,3.95-3.94l.26-.23a25.33,25.33,0,0,1,4.34-3.23l.32-.17a12.37,12.37,0,0,0,3.24-2.24l1.09-1.14a47.6,47.6,0,0,0,7.67-9.49c.29-.52.61-1,.92-1.54a13.68,13.68,0,0,0,2.2-4.89,7.16,7.16,0,0,1,1.68-3.22,4,4,0,0,0,.71-1.69,3,3,0,0,1,.89-1.77,4.64,4.64,0,0,0,1.21-2.16,6.58,6.58,0,0,1,.78-1.7,5.82,5.82,0,0,0,.82-3.67c0-.4,0-.79,0-1.16s0-.32.31-.43a1.6,1.6,0,0,1,.22,0h.32s.05,0,.07,0a.76.76,0,0,0,.58-.14.65.65,0,0,0,.22-.49v-.06a.85.85,0,0,0-.16-.67.72.72,0,0,0-.57-.23c-.06,0-.13-.07-.14-.07,0-.39-.12-.77-.19-1.13a4.14,4.14,0,0,1,0-2.51,1.39,1.39,0,0,0-.28-1.81,2.44,2.44,0,0,0-1.94-.43,2.5,2.5,0,0,0-1.63,1.19s0,.07-.2.15a6.85,6.85,0,0,1-2,.73,8.57,8.57,0,0,0-2.05.74,3.15,3.15,0,0,1-2.26.17,2.74,2.74,0,0,0-1.91.47c-.92.5-1.52.59-2.09.29a1.23,1.23,0,0,0-1.35.05l-.91.61c-.49.33-1,.68-1.51,1s-.79.44-1.34.18a3,3,0,0,0-2.48-.23,12.89,12.89,0,0,0-1.7,1l-.15.09a3.55,3.55,0,0,1-2.62.77,4.78,4.78,0,0,1-3.23-2.46c-.08-.14-.16-.27-.23-.41a3.25,3.25,0,0,0-1.65-1.69,1.84,1.84,0,0,0-.49-.12,1.78,1.78,0,0,1,.58-.34,1.05,1.05,0,0,0,.9-1.16,6.13,6.13,0,0,0-2.71-4.26,1,1,0,0,0-.22-.09,2.12,2.12,0,0,1-1.79-1.44,1.82,1.82,0,0,0-.52-.73c-.07-.07-.15-.14-.21-.21a4.49,4.49,0,0,0-1.36-1,3.06,3.06,0,0,1-1.33-1.13,2.87,2.87,0,0,0-1.86-1.79,4.63,4.63,0,0,1-1.59-.75,8.73,8.73,0,0,0-1.21-.66s0,0-.11-.15a1.42,1.42,0,0,0-.08-.18,2.08,2.08,0,0,0-2.23-1.19.62.62,0,0,1-.75-.22,3.56,3.56,0,0,0-.71-1.32,2.35,2.35,0,0,1-.59-1.12,15.65,15.65,0,0,0-1.07-3.86l0-.06c-.65-1.75-1.38-3.4-3.14-4.4l-.12-.06a1.6,1.6,0,0,1-.83-.77,2.59,2.59,0,0,0-1.82-1.3c-.46-.11-.61-.29-.7-.54s-.15-.41-.23-.61a7.63,7.63,0,0,1-.55-2c-.06-.74-.18-1.48-.29-2.19a15.28,15.28,0,0,1-.3-3.6,1.26,1.26,0,0,0-.32-.87,3.84,3.84,0,0,1-1.18-2.73,1.08,1.08,0,0,0-.66-1.09,5.56,5.56,0,0,1-1.33-1,5,5,0,0,0-2.23-1.36l-.05-.06a.75.75,0,0,0-.19-.22,3.52,3.52,0,0,1-.84-1.38c-.09-.22-.18-.44-.3-.67v-.93a.7.7,0,0,0,.79.06c.27-.17.52-.51.15-1.13l0-.05a1.63,1.63,0,0,0-.55-.62,6.13,6.13,0,0,1-2.33-2.44c-.09-.18-.17-.37-.25-.56a4,4,0,0,0-1.2-1.77,10.13,10.13,0,0,0-2.06-3.29l-.18-.22a11,11,0,0,0-.57-1.2,7.16,7.16,0,0,1-.8-2,2.16,2.16,0,0,0-.71-1.36l-.14-.12.08-.15,0-.08a1,1,0,0,0,0-.83,1.7,1.7,0,0,0,1.61,0,1.55,1.55,0,0,0,.66-1.54,12,12,0,0,1,.65-3.81l.13-.43a5.71,5.71,0,0,0-1.14-5.27,8.3,8.3,0,0,0-1.29-3v0a.79.79,0,0,0-.22-.63.74.74,0,0,0-.61-.18h-.13a2.05,2.05,0,0,0-1,.25,1.57,1.57,0,0,1-1.79.18,1.58,1.58,0,0,0-1.87.16,2.41,2.41,0,0,0-.33.3c-.18.17-.26.25-.34.26a3.1,3.1,0,0,0-1.3-1,2.16,2.16,0,0,1-1-.71.61.61,0,0,0-.48-.27.92.92,0,0,0-.69.17c-.31.29-.52.23-1.06,0-.14-.06-.28-.13-.42-.18a2.28,2.28,0,0,0-1.36-.08,15.13,15.13,0,0,0-4.5,2.16c-.12.1-.24.19-.36.3-.62.5-1.16,1-1.93.72a2.86,2.86,0,0,0-2.07-.8,3.62,3.62,0,0,0-.58,0,1.34,1.34,0,0,1-.77-.08,4.16,4.16,0,0,0-1.27-.49,4.27,4.27,0,0,1-1.07-.39,6.82,6.82,0,0,0-2.93-.63c-.38,0-.79,0-1.16-.1a3.75,3.75,0,0,0-2.81.09c-.43.16-.46.14-.62-.24-.7-1.73-1.21-1.84-2.94-1.55A1.53,1.53,0,0,1,976,115a2.9,2.9,0,0,0-2-.59c-.61,0-.87-.21-.92-.78v-.11c0-.22,0-.81-.61-.9a5.88,5.88,0,0,1-1.24-.38,6.35,6.35,0,0,0-1.34-.42,8.29,8.29,0,0,0-4,.25,12.45,12.45,0,0,0-3.92,1.86,3.45,3.45,0,0,0-1,4.62,1.26,1.26,0,0,1-.19,1.8c-1.59,1.94-2.55,2.16-4.1,1l-.07,0a11.22,11.22,0,0,0-2.27-1.47,13.36,13.36,0,0,0-5.19-1.47c-2.25-.05-3.21-.92-3.53-3.21-.08-.57-.26-1.74-1.65-1.66a2.22,2.22,0,0,1-.69-.14,3.31,3.31,0,0,0-.42-.12,4.21,4.21,0,0,1-1.15-.56,4,4,0,0,0-1.84-.73,4.46,4.46,0,0,1-1-.23,3.2,3.2,0,0,0-2.44,0,2.29,2.29,0,0,1-2.34-.4,5.42,5.42,0,0,0-1.85-.81l-.29,0c-.51-.1-.94-.2-1-.46a7.24,7.24,0,0,0-.22-.89,5.5,5.5,0,0,1-.21-.92c-.06-.65-.38-1-1-1h-.09a.81.81,0,0,0-1,.8.21.21,0,0,1-.06.09.2.2,0,0,1-.15,0c-.4-.06-.67-.33-.94-1,0-.11-.16-.4.35-.63a6.7,6.7,0,0,0,2.9-2.46,3,3,0,0,0,.51-2.4,2.27,2.27,0,0,0-1.35-2,.81.81,0,0,1-.31-.61.7.7,0,0,1,.05-.46,3.16,3.16,0,0,0,1.41-1.14,5.12,5.12,0,0,1,.42-.49,1.45,1.45,0,0,0,.4-1.58,1.18,1.18,0,0,0-.93-.8,1,1,0,0,1-.34-.14.52.52,0,0,0-.76,0,.64.64,0,0,0-.09.89h0a1.08,1.08,0,0,0-.63.22l-.06-.21a1.18,1.18,0,0,1-.08-.41v0a.87.87,0,0,0-.61-1,4.47,4.47,0,0,0-4.22.33,3.85,3.85,0,0,1-2.22.62,7.94,7.94,0,0,0-1.43.2.79.79,0,0,0-.32-.31,2.14,2.14,0,0,0-.83-.41l-.31-.11a1.49,1.49,0,0,0-1.1-.07.68.68,0,0,0-.38.46.46.46,0,0,1,0,.09l-.12,0-.1,0-.37-.06-.32,0a1.06,1.06,0,0,0-1.44-.53l-.05-.14-.46.37-.09.05a.9.9,0,0,0-.44.42l-.53.1a2.56,2.56,0,0,1-1,.1.78.78,0,0,0-.86.53,1,1,0,0,1-.26,0l-.09,0a.56.56,0,0,0-.29-.4.61.61,0,0,0-.42-.27.75.75,0,0,0-.58-.2,13.65,13.65,0,0,0-4.2-.26.39.39,0,0,0-.29.17,2,2,0,0,1-1.4.06,1.33,1.33,0,0,0-1.69.38l-.08.09-.1,0-.11,0a8,8,0,0,0-2.62,0,9.08,9.08,0,0,1-1.94.06l-.11,0a1.26,1.26,0,0,0-1.07.21.74.74,0,0,0-.44.25l-.25,0a1.5,1.5,0,0,0-.84.32l-.19,0a1.64,1.64,0,0,0-.68.27.74.74,0,0,0-.4.19.8.8,0,0,0-.52.35.84.84,0,0,0-.36.54l0,.06a1,1,0,0,1-.28.2,1.18,1.18,0,0,0-.86-.45,1.44,1.44,0,0,0-1,.52c-.06.06-.19.07-.4.07h-.36a1,1,0,0,0-1,.37l0,0a.79.79,0,0,0-.54.35.84.84,0,0,0-.36.54l-.1.1,0,.06a.87.87,0,0,1-.21,0,1.07,1.07,0,0,0-.8.38l0,0a.73.73,0,0,0-.45.26,2.4,2.4,0,0,1-1.15-.07,4.35,4.35,0,0,0-1-.12h-.17a43.36,43.36,0,0,1-37.26,65.57Zm-25.35,5.85a.35.35,0,0,1,.09-.12l.09.19Zm186.44-44.56.76.76a4,4,0,0,0,.16.91l-.07,0a1,1,0,0,0-.35-.74,1.44,1.44,0,0,1-.59-.93ZM821.71,150a37.69,37.69,0,1,0-12.79-28.28A37.52,37.52,0,0,0,821.71,150ZM132.57,236.29,167.2,88.73H149.1l-21.44,102.9c-2.17,10.62-3.35,21.45-4.73,32.86h-.39c-1.38-14.37-2.56-24.2-4.33-34L98.73,88.73H78.47L56.83,191.63c-2.17,10.62-3.35,21.45-4.73,32.86h-.39c-1.18-13.78-2.56-24-4.33-34L28.1,88.73H10L41.48,236.29H61.75L83.19,136.15c2.16-10.63,3.35-21.45,4.72-35.61h.4c1.18,16.13,2.36,26,4.32,35.61l19.68,100.14Zm83.62,3c24,0,39.15-14,39.15-61.38,0-33.06-12.2-53.91-39.15-53.91S177,144.8,177,177.86C177,225.08,192.58,239.24,216.19,239.24Zm0-102.11c16.33,0,23,12.59,23,45.65,0,25.77-4.53,43.28-23,43.28-18.1,0-23-17.51-23-43.28C193.17,149.72,200.25,137.13,216.19,137.13Zm80.07,7.67V126.9H281.31V236.29h15.54V170c0-19.87,11.81-32.47,31.88-28.92V125.72c-16.33-1.38-25.58,4.72-32.07,19.08Zm48.79,91.49H360.6V88.73H345.05Zm97.39-98.18h-.39c-7.28-9.44-14-14.16-25.19-14.16-23.41,0-34,25.38-32.85,57.45.39,9.64-2.36,57.84,32.07,57.84,13.18,0,19.87-4.33,26.56-17.31H443v14.36h15V88.73H442.44Zm0,55.29c0,12.4-4.52,32.66-20.66,32.66-21.25,0-22-21.44-22-45.05,0-33.65,8.46-43.88,21.44-43.88,20.86,0,21.25,27.74,21.25,42.7ZM72.51,341.24c0-12.91-3.39-19.43-21.91-26.34-5.21-2-10.3-3.92-15.52-5.87-6.26-2.35-9.25-6.52-9.25-13.3,0-7.57,1.69-17.48,17.47-17.48,10.82,0,16.3,7.7,15.52,17.87H69.64c1-18.39-9.91-27.65-27.78-27.65-15.9,0-27.25,10.57-27.25,26.74,0,9.65,2.35,17.47,11.61,22.16,5.21,2.74,13.82,5.48,19.17,7.57,9.91,3.78,15.9,3.91,15.9,18.78,0,11.47-7.69,17.08-18.64,17.08-16.3,0-19-9.13-18.52-23.6H13.31c.13,5.21,0,13,2.08,17.86,5.61,12.78,17.09,15.52,26.73,15.52C60.9,370.58,72.51,359.75,72.51,341.24Zm124.15-.52c.13,7.69-1.18,20.08-18.52,20.08s-18.65-12.39-18.52-20.08V270.43H148.8v74.2c0,17.47,11.61,25.95,29.34,25.95s29.34-8.48,29.34-25.95v-74.2H196.66Zm157.79-52.29c.91-3.79,1.82-7.44,3-13.18h.26c.26,4.18,0,8.22,0,12.39v80.59h10.82v-97.8h-19l-19.43,76.15a139.64,139.64,0,0,0-2.48,14.61h-.26a87.26,87.26,0,0,0-2.08-14.48l-19.17-76.28H286.9v97.8h10.82V287.9c0-4.17-.26-8.47-.26-12.65h.26c1.18,5.35,2,8.61,2.87,12l20.47,81H334Zm93-18v97.8h10.82V287.9c0-4.17-.26-8.47-.26-12.65h.26c1.18,5.35,2,8.61,2.87,12l20.48,81h12.9L515,288.43c.91-3.79,1.82-7.44,3-13.18h.26c.26,4.18,0,8.22,0,12.39v80.59h10.82v-97.8H510l-19.43,76.15a137,137,0,0,0-2.47,14.61h-.27a87.26,87.26,0,0,0-2.08-14.48L466.6,270.43Zm174.22,97.8v-97.8H610.83v97.8Zm99,0h10.83v-88h25.29v-9.78H695.33v9.78h25.3ZM0,451.16H35v-35H0Zm1095,0H451.21v-35H1095ZM77.18,425.73H70v-2.92c4.8-.09,7.45-1,8-6.24h2.92v33.67H77.18Zm14,12.16v-3.73h10.91v3.73Zm21.37-6.69c3-.18,7,.45,7-5.74,0-3.28-1-5.53-4.71-5.53-4.22,0-4.81,3.15-4.81,6.6h-3.54c-.18-5.65,2.33-10,8.44-10,5,0,8.39,3.27,8.39,8.35,0,3.63-1.12,6.28-4.71,7.54v.09c3.9.85,5.61,3.95,5.61,7.77,0,6.28-2.78,10.59-9.47,10.59s-9-4.44-8.89-10.55h3.68c-.31,3.59.72,7.18,5.52,7.18,3.68,0,5.43-2.56,5.43-6,0-5.88-2.24-7-7.9-7Zm28.91,19V416.57h9.25c10.51,0,11.94,8.53,11.67,16.83s-1.88,16.84-11,16.84Zm3.73-3.37h6c5.48,0,7.72-4.09,7.36-14.14-.27-7.68-1.34-12.8-7.36-12.8h-6Zm37.57-4.94c.23,4.89-2.28,9-7.54,9-4.71,0-8.08-3.14-8.08-13.2,0-5.25,1.39-13.11,8-13.11,8.08,0,7.63,7.64,7.81,13.47H170.78c.09,3.37-.49,9.83,4.49,9.83,3.41,0,4.36-3.14,4.13-6Zm-3.5-6.78c-.13-2.91.05-7.54-4.08-7.54s-4.22,4.58-4.36,7.54Zm11.54,3.68c0,3.28.22,9.07,4.76,9.07,3.86,0,4.22-3.32,4.4-6.37h3.37c-.14,4.8-1.94,9.38-7.5,9.38-7.63,0-8.71-6.38-8.71-12.84,0-6.1,1-13.47,8.62-13.47,5,0,7.45,3.91,7.41,8.53h-3.33c0-2.74-.76-5.52-4.13-5.52C190.49,427.61,190.76,435.29,190.76,438.83Zm31.83,3.1c.22,4.89-2.29,9-7.54,9-4.72,0-8.08-3.14-8.08-13.2,0-5.25,1.39-13.11,8-13.11,8.08,0,7.63,7.64,7.81,13.47H210.65c.09,3.37-.5,9.83,4.49,9.83,3.41,0,4.35-3.14,4.13-6Zm-3.5-6.78c-.14-2.91,0-7.54-4.09-7.54s-4.22,4.58-4.35,7.54Zm12.83,15.09h-3.54v-25h3.41v3.18h.09a7,7,0,0,1,5.93-3.86,6.51,6.51,0,0,1,5.92,3.95c1.75-2.56,3.55-3.95,6.69-3.95a6.75,6.75,0,0,1,4.58,1.75c1.62,1.49,1.53,4.27,1.53,5.84v18.05H253V432c0-2.79-.76-4.36-3.82-4.36a5.2,5.2,0,0,0-3.32,1.39c-1.43,1.3-1.61,2.74-1.61,4.54v16.7h-3.55V432c0-2.61-.85-4.36-3.73-4.36a5.06,5.06,0,0,0-3.5,1.39c-1.44,1.3-1.53,2.74-1.53,4.54Zm34.57,0h-3.23V416.57h3.55v11.27h.09c1.39-2.25,3-3.24,5.2-3.24,6.33,0,7.86,6.42,7.86,11.54,0,7.09-.94,14.77-7.68,14.77a5.88,5.88,0,0,1-5.7-3.64h-.09Zm5.08-2.34c3.68,0,4.71-3.86,4.71-10.59,0-3.28-.23-9.7-4.76-9.7-5.25,0-4.94,7.14-4.94,10.77S266.54,447.9,271.57,447.9Zm28.32-6c.23,4.89-2.29,9-7.54,9-4.71,0-8.08-3.14-8.08-13.2,0-5.25,1.39-13.11,8-13.11,8.08,0,7.63,7.64,7.81,13.47H288c.09,3.37-.49,9.83,4.49,9.83,3.41,0,4.35-3.14,4.13-6Zm-3.5-6.78c-.13-2.91.05-7.54-4.08-7.54s-4.22,4.58-4.36,7.54Zm12.93-5.79h.09c1.48-3.28,3.59-4.67,7.32-4.35v3.5c-4.58-.81-7.28,2.06-7.28,6.6v15.13h-3.54v-25h3.41ZM336.7,442a6.28,6.28,0,0,0-2.42,4.89h14.23v3.37H330.42a19.55,19.55,0,0,1,1.35-7.28,11.64,11.64,0,0,1,2.65-3.36l6.41-6.2c2.61-2.51,3.51-3.86,3.51-7.54,0-3.41-1.17-5.93-5-5.93-4.62,0-5,4.54-4.93,8.08h-3.73V426a10.62,10.62,0,0,1,2.15-6.73,8.58,8.58,0,0,1,6.69-2.65c5.75,0,8.67,3.81,8.67,9.38,0,4.94-2,7.36-5.44,10.5ZM353,433.67c0-6.28.4-17.1,9.15-17.1,9.43,0,9.21,10.68,9.21,17.1,0,7.63-.41,17.24-9.21,17.24C353.13,450.91,353,439.64,353,433.67Zm9.15,13.87c5.57,0,5.35-8,5.35-14.45,0-4.76.49-12.75-5.35-13.16s-5.29,10.06-5.29,13.16C356.82,439.55,355.92,447.54,362.11,447.54ZM381.6,442a6.25,6.25,0,0,0-2.43,4.89H393.4v3.37H375.31a19.75,19.75,0,0,1,1.35-7.28,11.64,11.64,0,0,1,2.65-3.36l6.42-6.2c2.6-2.51,3.5-3.86,3.5-7.54,0-3.41-1.17-5.93-5-5.93-4.63,0-5,4.54-4.94,8.08h-3.73V426a10.57,10.57,0,0,1,2.16-6.73,8.53,8.53,0,0,1,6.68-2.65c5.75,0,8.67,3.81,8.67,9.38,0,4.94-2,7.36-5.43,10.5Zm16.25-8.31c0-6.28.4-17.1,9.16-17.1,9.42,0,9.2,10.68,9.2,17.1,0,7.63-.41,17.24-9.2,17.24C398,450.91,397.85,439.64,397.85,433.67ZM407,447.54c5.56,0,5.34-8,5.34-14.45,0-4.76.49-12.75-5.34-13.16s-5.3,10.06-5.3,13.16C401.71,439.55,400.81,447.54,407,447.54Z"/></g></g></svg>