<svg xmlns="http://www.w3.org/2000/svg" xmlns:xlink="http://www.w3.org/1999/xlink" viewBox="0 0 1075 297.49"><defs><style>.cls-1{fill:#76a63d;}.cls-2{fill:#204660;}.cls-3{fill:#2d6288;}.cls-4{fill:#2c6187;}.cls-5{fill:#295a7c;}.cls-6{fill:#1d445e;}.cls-7{fill:#1a3a50;}.cls-8{fill:#2f658c;}.cls-9{fill:#2d638a;}.cls-10{fill:#306993;}.cls-11{fill:#224d6a;}.cls-12{fill:#2b6085;}.cls-13{fill:#224d6b;}.cls-14{fill:#336d98;}.cls-15{fill:#3773a1;}.cls-16{fill:#3a7aa8;}.cls-17{fill:#265373;}.cls-18{fill:#2a5c7f;}.cls-19{fill:#265371;}.cls-20{fill:#254f6e;}.cls-21{fill:#265778;}.cls-22{fill:#2b5f83;}.cls-23{fill:#29587b;}.cls-24{fill:#224e6d;}.cls-25{fill:#204662;}.cls-26{fill:#2e668d;}.cls-27{fill:#2d658b;}.cls-28{fill:#2b6084;}.cls-29{fill:#2e648a;}.cls-30{fill:#35709b;}.cls-31{fill:#35709c;}.cls-32{fill:#2e678e;}.cls-33{fill:#35739f;}.cls-34{fill:#35749e;}.cls-35{fill:#397baa;}.cls-36{fill:#3a80af;}.cls-37{fill:#3b80b0;}.cls-38{fill:#3778a7;}.cls-39{fill:#19394e;}.cls-40{fill:#1b3d55;}.cls-41{fill:#1a1449;}.cls-42{fill:#333;}.cls-43{fill:url(#linear-gradient);}.cls-44{fill:url(#linear-gradient-2);}.cls-45{fill:url(#linear-gradient-3);}.cls-46{fill:url(#linear-gradient-4);}.cls-47{fill:url(#linear-gradient-5);}.cls-48{fill:url(#linear-gradient-6);}.cls-49{fill:url(#linear-gradient-7);}.cls-50{fill:url(#linear-gradient-8);}.cls-51{fill:url(#linear-gradient-9);}.cls-52{fill:url(#linear-gradient-10);}.cls-53{fill:url(#linear-gradient-11);}.cls-54{fill:url(#linear-gradient-12);}.cls-55{fill:url(#linear-gradient-13);}.cls-56{fill:url(#linear-gradient-14);}.cls-57{fill:url(#linear-gradient-15);}.cls-58{fill:url(#linear-gradient-16);}.cls-59{fill:url(#linear-gradient-17);}.cls-60{fill:url(#linear-gradient-18);}.cls-61{fill:url(#linear-gradient-19);}.cls-62{fill:url(#linear-gradient-20);}.cls-63{fill:url(#linear-gradient-21);}.cls-64{fill:url(#linear-gradient-22);}.cls-65{fill:url(#linear-gradient-23);}.cls-66{fill:url(#linear-gradient-24);}.cls-67{fill:url(#linear-gradient-25);}.cls-68{fill:url(#linear-gradient-26);}.cls-69{fill:url(#linear-gradient-27);}.cls-70{fill:url(#linear-gradient-28);}.cls-71{fill:url(#linear-gradient-29);}.cls-72{fill:url(#linear-gradient-30);}.cls-73{fill:url(#linear-gradient-31);}.cls-74{fill:url(#linear-gradient-32);}.cls-75{fill:url(#linear-gradient-33);}.cls-76{fill:url(#linear-gradient-34);}.cls-77{fill:url(#linear-gradient-35);}.cls-78{fill:url(#linear-gradient-36);}.cls-79{fill:url(#linear-gradient-37);}.cls-80{fill:url(#linear-gradient-38);}.cls-81{fill:url(#linear-gradient-39);}.cls-82{fill:url(#linear-gradient-40);}.cls-83{fill:url(#linear-gradient-41);}.cls-84{fill:url(#linear-gradient-42);}.cls-85{fill:url(#linear-gradient-43);}.cls-86{fill:url(#linear-gradient-44);}.cls-87{fill:url(#linear-gradient-45);}.cls-88{fill:url(#linear-gradient-46);}.cls-89{fill:url(#linear-gradient-47);}.cls-90{fill:url(#linear-gradient-48);}.cls-91{fill:url(#linear-gradient-49);}.cls-92{fill:url(#linear-gradient-50);}.cls-93{fill:url(#linear-gradient-51);}.cls-94{fill:url(#linear-gradient-52);}.cls-95{fill:url(#linear-gradient-53);}.cls-96{fill:url(#linear-gradient-54);}.cls-97{fill:url(#linear-gradient-55);}.cls-98{fill:url(#linear-gradient-56);}.cls-99{fill:url(#linear-gradient-57);}.cls-100{fill:url(#linear-gradient-58);}.cls-101{fill:url(#linear-gradient-59);}.cls-102{fill:url(#linear-gradient-60);}.cls-103{fill:url(#linear-gradient-61);}.cls-104{fill:url(#linear-gradient-62);}.cls-105{fill:url(#linear-gradient-63);}.cls-106{fill:url(#linear-gradient-64);}.cls-107{fill:url(#linear-gradient-65);}.cls-108{fill:url(#linear-gradient-66);}.cls-109{fill:url(#linear-gradient-67);}</style><linearGradient id="linear-gradient" x1="711.93" y1="159.41" x2="747.82" y2="123.52" gradientUnits="userSpaceOnUse"><stop offset="0" stop-color="#1e7d00"/><stop offset="1" stop-color="#177400"/></linearGradient><linearGradient id="linear-gradient-2" x1="544.33" y1="90.8" x2="546.12" y2="89.01" gradientUnits="userSpaceOnUse"><stop offset="0" stop-color="#187600"/><stop offset="1" stop-color="#217d00"/></linearGradient><linearGradient id="linear-gradient-3" x1="572.05" y1="171.9" x2="625.36" y2="118.58" xlink:href="#linear-gradient-2"/><linearGradient id="linear-gradient-4" x1="541.3" y1="93.67" x2="546.53" y2="88.44" gradientUnits="userSpaceOnUse"><stop offset="0" stop-color="#136f00"/><stop offset="1" stop-color="#228200"/></linearGradient><linearGradient id="linear-gradient-5" x1="494.35" y1="101.93" x2="541.15" y2="55.14" gradientUnits="userSpaceOnUse"><stop offset="0" stop-color="#278700"/><stop offset="1" stop-color="#389900"/></linearGradient><linearGradient id="linear-gradient-6" x1="531.43" y1="81.9" x2="573.95" y2="39.38" gradientUnits="userSpaceOnUse"><stop offset="0" stop-color="#4db800"/><stop offset="1" stop-color="#4bb000"/></linearGradient><linearGradient id="linear-gradient-7" x1="571.75" y1="49.68" x2="580.7" y2="40.73" xlink:href="#linear-gradient-6"/><linearGradient id="linear-gradient-8" x1="679.92" y1="130.78" x2="685.09" y2="125.62" gradientUnits="userSpaceOnUse"><stop offset="0" stop-color="#1e8000"/><stop offset="1" stop-color="#1a7d00"/></linearGradient><linearGradient id="linear-gradient-9" x1="700.91" y1="135.3" x2="730.55" y2="105.67" xlink:href="#linear-gradient-8"/><linearGradient id="linear-gradient-10" x1="677.09" y1="131.04" x2="692.52" y2="115.61" gradientUnits="userSpaceOnUse"><stop offset="0" stop-color="#278700"/><stop offset="1" stop-color="#2b8c00"/></linearGradient><linearGradient id="linear-gradient-11" x1="695.76" y1="125.95" x2="726.36" y2="95.35" xlink:href="#linear-gradient-10"/><linearGradient id="linear-gradient-12" x1="672.11" y1="142.03" x2="686.57" y2="127.57" gradientUnits="userSpaceOnUse"><stop offset="0" stop-color="#167600"/><stop offset="1" stop-color="#127100"/></linearGradient><linearGradient id="linear-gradient-13" x1="647.69" y1="160.62" x2="692.15" y2="116.15" gradientUnits="userSpaceOnUse"><stop offset="0" stop-color="#1e7d00"/><stop offset="1" stop-color="#0e6a00"/></linearGradient><linearGradient id="linear-gradient-14" x1="616.45" y1="156.89" x2="638.3" y2="135.04" gradientUnits="userSpaceOnUse"><stop offset="0" stop-color="#2b8c00"/><stop offset="1" stop-color="#2c9000"/></linearGradient><linearGradient id="linear-gradient-15" x1="616.97" y1="168.03" x2="675.42" y2="109.58" xlink:href="#linear-gradient-14"/><linearGradient id="linear-gradient-16" x1="645.31" y1="20.16" x2="665.79" y2="-0.32" gradientUnits="userSpaceOnUse"><stop offset="0" stop-color="#59c100"/><stop offset="1" stop-color="#55bd00"/></linearGradient><linearGradient id="linear-gradient-17" x1="546.06" y1="90.5" x2="557.7" y2="78.86" gradientUnits="userSpaceOnUse"><stop offset="0" stop-color="#258500"/><stop offset="1" stop-color="#37a000"/></linearGradient><linearGradient id="linear-gradient-18" x1="591.48" y1="127.64" x2="678.24" y2="40.88" xlink:href="#linear-gradient-17"/><linearGradient id="linear-gradient-19" x1="542.62" y1="91.36" x2="568.07" y2="65.91" gradientUnits="userSpaceOnUse"><stop offset="0" stop-color="#4db800"/><stop offset="1" stop-color="#3fa900"/></linearGradient><linearGradient id="linear-gradient-20" x1="577.79" y1="75.15" x2="620.97" y2="31.98" xlink:href="#linear-gradient-19"/><linearGradient id="linear-gradient-21" x1="495.82" y1="152.51" x2="511.25" y2="137.08" gradientUnits="userSpaceOnUse"><stop offset="0" stop-color="#085f00"/><stop offset="1" stop-color="#0a6500"/></linearGradient><linearGradient id="linear-gradient-22" x1="499.15" y1="147.65" x2="513.34" y2="133.46" gradientUnits="userSpaceOnUse"><stop offset="0" stop-color="#0c6500"/><stop offset="1" stop-color="#156f00"/></linearGradient><linearGradient id="linear-gradient-23" x1="449.58" y1="151.57" x2="517.8" y2="83.35" gradientUnits="userSpaceOnUse"><stop offset="0" stop-color="#1b7b00"/><stop offset="1" stop-color="#208500"/></linearGradient><linearGradient id="linear-gradient-24" x1="469.17" y1="125.63" x2="533.2" y2="61.6" gradientUnits="userSpaceOnUse"><stop offset="0" stop-color="#309000"/><stop offset="1" stop-color="#177b00"/></linearGradient><linearGradient id="linear-gradient-25" x1="456.66" y1="159.44" x2="507.37" y2="108.73" gradientUnits="userSpaceOnUse"><stop offset="0" stop-color="#217d00"/><stop offset="1" stop-color="#137600"/></linearGradient><linearGradient id="linear-gradient-26" x1="709.28" y1="157.14" x2="724.68" y2="141.74" gradientUnits="userSpaceOnUse"><stop offset="0" stop-color="#0a6500"/><stop offset="1" stop-color="#0e6a00"/></linearGradient><linearGradient id="linear-gradient-27" x1="651.75" y1="102.61" x2="733.67" y2="20.69" gradientUnits="userSpaceOnUse"><stop offset="0" stop-color="#390"/><stop offset="1" stop-color="#42ab00"/></linearGradient><linearGradient id="linear-gradient-28" x1="646.84" y1="51.13" x2="679.53" y2="18.44" gradientUnits="userSpaceOnUse"><stop offset="0" stop-color="#55bd00"/><stop offset="1" stop-color="#46b000"/></linearGradient><linearGradient id="linear-gradient-29" x1="696.9" y1="38.77" x2="697.3" y2="38.37" xlink:href="#linear-gradient-28"/><linearGradient id="linear-gradient-30" x1="473.83" y1="170.68" x2="517.43" y2="127.07" gradientUnits="userSpaceOnUse"><stop offset="0" stop-color="#005f00"/><stop offset="1" stop-color="#0a6700"/></linearGradient><linearGradient id="linear-gradient-31" x1="454.91" y1="164.18" x2="504.5" y2="114.59" gradientUnits="userSpaceOnUse"><stop offset="0" stop-color="#136f00"/><stop offset="1" stop-color="#156f00"/></linearGradient><linearGradient id="linear-gradient-32" x1="463.3" y1="157.73" x2="486.93" y2="134.1" gradientUnits="userSpaceOnUse"><stop offset="0" stop-color="#137600"/><stop offset="1" stop-color="#0e6c00"/></linearGradient><linearGradient id="linear-gradient-33" x1="452.21" y1="171.34" x2="498.22" y2="125.33" gradientUnits="userSpaceOnUse"><stop offset="0" stop-color="#0e6a00"/><stop offset="1" stop-color="#0e6a00"/></linearGradient><linearGradient id="linear-gradient-34" x1="506.74" y1="40.22" x2="509.15" y2="37.8" gradientUnits="userSpaceOnUse"><stop offset="0" stop-color="#51bd00"/><stop offset="1" stop-color="#47ab00"/></linearGradient><linearGradient id="linear-gradient-35" x1="526.83" y1="71.27" x2="586.46" y2="11.64" xlink:href="#linear-gradient-34"/><linearGradient id="linear-gradient-36" x1="486.94" y1="102.03" x2="538.84" y2="50.14" gradientUnits="userSpaceOnUse"><stop offset="0" stop-color="#3c9e00"/><stop offset="1" stop-color="#45a700"/></linearGradient><linearGradient id="linear-gradient-37" x1="492.55" y1="972.66" x2="492.64" y2="972.57" gradientTransform="translate(86206.54 532054.11) rotate(180) scale(174 547)" gradientUnits="userSpaceOnUse"><stop offset="0" stop-color="#42ab00"/><stop offset="1" stop-color="#4db800"/></linearGradient><linearGradient id="linear-gradient-38" x1="506.83" y1="970.94" x2="506.92" y2="970.85" gradientTransform="translate(221693.6 924366.01) rotate(180) scale(436 952)" gradientUnits="userSpaceOnUse"><stop offset="0" stop-color="#3ba200"/><stop offset="1" stop-color="#2f9500"/></linearGradient><linearGradient id="linear-gradient-39" x1="718.61" y1="59.8" x2="721.8" y2="56.62" gradientUnits="userSpaceOnUse"><stop offset="0" stop-color="#0e6c00"/><stop offset="1" stop-color="#309200"/></linearGradient><linearGradient id="linear-gradient-40" x1="665.86" y1="125.88" x2="726.94" y2="64.8" gradientUnits="userSpaceOnUse"><stop offset="0" stop-color="#390"/><stop offset="1" stop-color="#2f9500"/></linearGradient><linearGradient id="linear-gradient-41" x1="688.24" y1="57.56" x2="728.99" y2="16.81" gradientUnits="userSpaceOnUse"><stop offset="0" stop-color="#3e9e00"/><stop offset="1" stop-color="#47ab00"/></linearGradient><linearGradient id="linear-gradient-42" x1="674.28" y1="14.39" x2="683.79" y2="4.87" gradientUnits="userSpaceOnUse"><stop offset="0" stop-color="#42ab00"/><stop offset="1" stop-color="#51b800"/></linearGradient><linearGradient id="linear-gradient-43" x1="697" y1="38.09" x2="698.93" y2="36.16" xlink:href="#linear-gradient-42"/><linearGradient id="linear-gradient-44" x1="669.73" y1="76.45" x2="743.71" y2="2.47" gradientUnits="userSpaceOnUse"><stop offset="0" stop-color="#127100"/><stop offset="1" stop-color="#3e9e00"/></linearGradient><linearGradient id="linear-gradient-45" x1="733.33" y1="10.89" x2="744.47" y2="-0.26" gradientUnits="userSpaceOnUse"><stop offset="0" stop-color="#0e6a00"/><stop offset="1" stop-color="#2c9200"/></linearGradient><linearGradient id="linear-gradient-46" x1="471.2" y1="54.36" x2="521.69" y2="3.87" gradientUnits="userSpaceOnUse"><stop offset="0" stop-color="#47ab00"/><stop offset="1" stop-color="#4ab400"/></linearGradient><linearGradient id="linear-gradient-47" x1="456.9" y1="86.46" x2="499" y2="44.36" gradientUnits="userSpaceOnUse"><stop offset="0" stop-color="#3c9e00"/><stop offset="1" stop-color="#369500"/></linearGradient><linearGradient id="linear-gradient-48" x1="470.42" y1="21.99" x2="495.68" y2="-3.27" gradientUnits="userSpaceOnUse"><stop offset="0" stop-color="#55c100"/><stop offset="1" stop-color="#51bd00"/></linearGradient><linearGradient id="linear-gradient-49" x1="470.37" y1="8.65" x2="478.21" y2="0.82" gradientUnits="userSpaceOnUse"><stop offset="0" stop-color="#61d000"/><stop offset="1" stop-color="#5bc900"/></linearGradient><linearGradient id="linear-gradient-50" x1="643.03" y1="11.61" x2="653.76" y2="0.88" gradientUnits="userSpaceOnUse"><stop offset="0" stop-color="#5cc500"/><stop offset="1" stop-color="#5ec700"/></linearGradient><linearGradient id="linear-gradient-51" x1="541.46" y1="24.28" x2="563.69" y2="2.06" gradientUnits="userSpaceOnUse"><stop offset="0" stop-color="#60ce00"/><stop offset="1" stop-color="#5ec700"/></linearGradient><linearGradient id="linear-gradient-52" x1="528.88" y1="20.52" x2="544" y2="5.41" gradientUnits="userSpaceOnUse"><stop offset="0" stop-color="#68d600"/><stop offset="1" stop-color="#67df00"/></linearGradient><linearGradient id="linear-gradient-53" x1="505.15" y1="40.02" x2="508.52" y2="36.64" gradientUnits="userSpaceOnUse"><stop offset="0" stop-color="#57c300"/><stop offset="1" stop-color="#55c300"/></linearGradient><linearGradient id="linear-gradient-54" x1="511.63" y1="54.55" x2="550.95" y2="15.23" xlink:href="#linear-gradient-53"/><linearGradient id="linear-gradient-55" x1="496.08" y1="28.9" x2="527.63" y2="-2.65" gradientUnits="userSpaceOnUse"><stop offset="0" stop-color="#51bd00"/><stop offset="1" stop-color="#58c700"/></linearGradient><linearGradient id="linear-gradient-56" x1="479.67" y1="34.54" x2="519.18" y2="-4.97" gradientUnits="userSpaceOnUse"><stop offset="0" stop-color="#58c700"/><stop offset="1" stop-color="#60ce00"/></linearGradient><linearGradient id="linear-gradient-57" x1="526.07" y1="10.63" x2="532.64" y2="4.05" gradientUnits="userSpaceOnUse"><stop offset="0" stop-color="#79f100"/><stop offset="1" stop-color="#71e700"/></linearGradient><linearGradient id="linear-gradient-58" x1="504.7" y1="16.74" x2="523.85" y2="-2.4" gradientUnits="userSpaceOnUse"><stop offset="0" stop-color="#65d400"/><stop offset="1" stop-color="#69e100"/></linearGradient><linearGradient id="linear-gradient-59" x1="474.8" y1="161.54" x2="496.72" y2="139.62" gradientUnits="userSpaceOnUse"><stop offset="0" stop-color="#005f00"/><stop offset="1" stop-color="#055f00"/></linearGradient><linearGradient id="linear-gradient-60" x1="470.43" y1="153.78" x2="491.99" y2="132.22" gradientUnits="userSpaceOnUse"><stop offset="0" stop-color="#056200"/><stop offset="1" stop-color="#055f00"/></linearGradient><linearGradient id="linear-gradient-61" x1="617.95" y1="17.3" x2="618.46" y2="16.8" gradientUnits="userSpaceOnUse"><stop offset="0" stop-color="#61d000"/><stop offset="1" stop-color="#63d200"/></linearGradient><linearGradient id="linear-gradient-62" x1="618.1" y1="17.45" x2="618.41" y2="17.14" gradientUnits="userSpaceOnUse"><stop offset="0" stop-color="#60ce00"/><stop offset="1" stop-color="#5bc900"/></linearGradient><linearGradient id="linear-gradient-63" x1="594.86" y1="21.69" x2="613.27" y2="3.28" gradientUnits="userSpaceOnUse"><stop offset="0" stop-color="#66d600"/><stop offset="1" stop-color="#61d000"/></linearGradient><linearGradient id="linear-gradient-64" x1="617.64" y1="18.13" x2="619.12" y2="16.65" gradientUnits="userSpaceOnUse"><stop offset="0" stop-color="#51ba00"/><stop offset="1" stop-color="#58c500"/></linearGradient><linearGradient id="linear-gradient-65" x1="587.81" y1="53.99" x2="627.44" y2="14.35" gradientUnits="userSpaceOnUse"><stop offset="0" stop-color="#51ba00"/><stop offset="1" stop-color="#59c100"/></linearGradient><linearGradient id="linear-gradient-66" x1="621.6" y1="48.23" x2="632.17" y2="37.66" xlink:href="#linear-gradient-65"/><linearGradient id="linear-gradient-67" x1="580.13" y1="38.06" x2="616.97" y2="1.22" gradientUnits="userSpaceOnUse"><stop offset="0" stop-color="#55c300"/><stop offset="1" stop-color="#5bc900"/></linearGradient></defs><g id="Layer_2" data-name="Layer 2"><g id="Logo_PtX_MULTI" data-name="Logo PtX MULTI"><g id="Logo_PtX_MULTI_-_Short" data-name="Logo PtX MULTI - Short"><path class="cls-1" d="M874.33,37.71A37.71,37.71,0,1,1,836.62,0,37.75,37.75,0,0,1,874.33,37.71Z"/><path class="cls-2" d="M958,291.16l-11.08,4.19-.3.12-.85.32h0l-.07,0a1,1,0,0,1-.54-.59,2.05,2.05,0,0,1,0-2.12.6.6,0,0,0,0-.58.64.64,0,0,0-.48-.39h-.06a.62.62,0,0,1-.55-.23.46.46,0,0,1,0-.41c.09-.26,0-.42-.3-.76a1.6,1.6,0,0,1-.51-1.31c0-.06,0-.12,0-.19a1.21,1.21,0,0,1,.39-.94.94.94,0,0,1,.77-.13.45.45,0,0,0,.34,0s.12-.14.12-.51a5.3,5.3,0,0,0-1.15-3.61,16,16,0,0,1-2.87-5.1l-.24-.67c-.19-.54-.39-1.07-.59-1.59Z"/><path class="cls-3" d="M887.05,129.67l10.85,12.51a7.4,7.4,0,0,1-1.76,0,3.62,3.62,0,0,1-2.83-2.6,13.42,13.42,0,0,0-2.69-4.88,3.54,3.54,0,0,0-2.66-1.06l-1,0Z"/><path class="cls-4" d="M911.43,157.78l-3-1.18c0-.12,0-.23.05-.36a.85.85,0,0,1,.95-.66,1.17,1.17,0,0,1,0-.2Z"/><path class="cls-5" d="M911.43,157.78l-4.56,5.68c-.18-.3-.37-.6-.55-.88a1.72,1.72,0,0,1-.27-1.59l.14-.38.38.12a1.37,1.37,0,0,0,1.17,0c.36-.24.58-.84.66-1.81,0-.23,0-.47,0-.72s0-.25,0-.37v-.37l.17,0a1.78,1.78,0,0,1-.17-.84Z"/><path class="cls-6" d="M998.56,268.74c0,.09-.07.17-.1.26a16.67,16.67,0,0,0-.77,2.36,4.49,4.49,0,0,1-2.5,3.33,5.84,5.84,0,0,0-1.49,1l-.39.34a7.62,7.62,0,0,0-1.69,2.29c-.24.44-.5.88-.79,1.31l-.45.66a15.56,15.56,0,0,1-4.79,5.11,4.06,4.06,0,0,0-1.23,1.13,14.75,14.75,0,0,1-3.15,2.83l-.06,0c-.44.32-.87.65-1.29,1a23.56,23.56,0,0,1-3.13,2.17l-.31.18c-1.13.64-2.41,1.36-4,.64a.38.38,0,0,0-.36,0,.68.68,0,0,0-.21.58.74.74,0,0,1-.21.56.72.72,0,0,1-.53.19,2.09,2.09,0,0,0-.25,0,1.32,1.32,0,0,1-.75-.07c-.86-.39-1.11-.33-1.41.31a.6.6,0,0,1-.41.33,1.89,1.89,0,0,1-1.32-.15,5.64,5.64,0,0,0-1.88-.57c-.35-.07-.71-.13-1.07-.23-.15,0-.29,0-.54.15a2.12,2.12,0,0,1-.9.26,5.29,5.29,0,0,1-1.22-.15L958,291.16Z"/><path class="cls-7" d="M961.35,294.6h0a4.78,4.78,0,0,0-1.29-.12,2.06,2.06,0,0,0-.64.16L958,291.16Z"/><path class="cls-8" d="M1021,84.2,974.1,82.32l36.73-16.07a2,2,0,0,0,.28.31.75.75,0,0,1,.19.22l.05.06a5,5,0,0,1,2.23,1.36,5.56,5.56,0,0,0,1.33,1,1.08,1.08,0,0,1,.66,1.09,3.84,3.84,0,0,0,1.18,2.73,1.26,1.26,0,0,1,.32.87,15.28,15.28,0,0,0,.3,3.6c.11.71.23,1.45.29,2.19a7.63,7.63,0,0,0,.55,2c.08.2.16.4.23.61s.24.43.7.54a2.59,2.59,0,0,1,1.82,1.3A.54.54,0,0,0,1021,84.2Z"/><path class="cls-9" d="M1026.59,94.14l-29.15,25.6L974.1,82.32,1021,84.2a1.72,1.72,0,0,0,.76.64l.12.06c1.76,1,2.49,2.65,3.14,4.4l0,.06a15.65,15.65,0,0,1,1.07,3.86A2,2,0,0,0,1026.59,94.14Z"/><path class="cls-10" d="M1010,63.58v.93c.12.23.21.45.3.67a4.52,4.52,0,0,0,.56,1.07L974.1,82.32,970.53,49,1005,54.43a8.66,8.66,0,0,1,1.53,2.64,4,4,0,0,1,1.2,1.77c.08.19.16.38.25.56a6.13,6.13,0,0,0,2.33,2.44,1.63,1.63,0,0,1,.55.62l0,0c.37.62.12,1-.15,1.13A.7.7,0,0,1,1010,63.58Z"/><path class="cls-11" d="M1009.77,254.83a1.67,1.67,0,0,1-.58,1.69,3.33,3.33,0,0,0-.25.28,5.27,5.27,0,0,1-2.72,2l-.2.06a27.32,27.32,0,0,0-5.65,2.06,3.34,3.34,0,0,0-1,.71l.18.62a4.37,4.37,0,0,1,0,2.13,5.78,5.78,0,0,0-.12.88,10.18,10.18,0,0,1-.86,3.45L958,291.16l13.56-123.54,38.28,85A3.88,3.88,0,0,0,1009.77,254.83Z"/><polygon id="triangle36" class="cls-12" points="997.44 119.74 953.81 135.9 971.58 167.62 997.44 119.74"/><path class="cls-13" d="M971.58,167.62,958,291.16,940,276.61a17.54,17.54,0,0,0-1.63-3.31.46.46,0,0,0-.14-.16,13.84,13.84,0,0,1-4.33-5.15l-.14-.27a6.15,6.15,0,0,1-.93-3.35s0,0,0-.09a12,12,0,0,1-1.18-5.16,5.11,5.11,0,0,0-.66-2.19c-.06-.13-.12-.26-.19-.39a3.87,3.87,0,0,1-.51-3.11,3.36,3.36,0,0,0-.12-1.63c0-.2-.09-.4-.12-.6l0-.16a1.13,1.13,0,0,1,0-.81c.69-1.45-.13-2.4-1.08-3.51l-.19-.23a17.77,17.77,0,0,1-1.82-2.76l-.42-.71c-.74-1.26-1.39-2.59-2-3.88a41.52,41.52,0,0,0-2.66-4.9l0-.05a2.57,2.57,0,0,0-.4-.49,7.69,7.69,0,0,1-2.45-4.64,2.74,2.74,0,0,1,.05-1.18,3.69,3.69,0,0,0-.11-2.36l0-.07a1,1,0,0,1,.47-1.48,2.91,2.91,0,0,0-.13-.64,3.7,3.7,0,0,1-.14-.55c0-.09,0-.17,0-.25a1.27,1.27,0,0,1,.82-1.7c.12-.05.15-.36.17-.55v-.06a14.38,14.38,0,0,1,.61-2.57,10.49,10.49,0,0,0,.62-3.15,3.26,3.26,0,0,1,.26-1.15,2.55,2.55,0,0,0,.24-1.18.73.73,0,0,1,.41-.72l.08-.06a4.43,4.43,0,0,1,.55-.51c.46-.37.72-.6.7-1.11,0-.15,0-.6,1-1.29a3.29,3.29,0,0,0,1.88-3.58,5.4,5.4,0,0,1,.14-1.15,2.93,2.93,0,0,1,0-.29,3.89,3.89,0,0,0-.85-2.92,10.62,10.62,0,0,1-1.77-4v0a2.32,2.32,0,0,1-.5-1.68,3,3,0,0,1,1.32-1.82,1.31,1.31,0,0,0-.07-.78,16.84,16.84,0,0,1-1.38-2.75Z"/><path class="cls-5" d="M971.58,167.62,923.29,189.5c-.3-.75-.57-1.51-.83-2.26l-.21-.61a3.65,3.65,0,0,0-.71-1.06,4.55,4.55,0,0,1-.88-1.37,6.44,6.44,0,0,1-.23-.94,2.57,2.57,0,0,0-.66-1.56.73.73,0,0,1,0-1,1.84,1.84,0,0,0,.1-.16,2.54,2.54,0,0,0-.56-1.07,7,7,0,0,1-.75-1.25,5,5,0,0,0-.78-1.23c-.84-.88-1.66-1.8-2.46-2.69-.61-.67-1.21-1.34-1.83-2a15.3,15.3,0,0,0-1.39-1.24,11.81,11.81,0,0,1-1.68-1.56l-.23-.26a10.5,10.5,0,0,1-2.26-3.54,10.91,10.91,0,0,0-1.07-2.17h0l4.56-5.68Z"/><path class="cls-14" d="M1005.3,42.07l-.13.43a12,12,0,0,0-.65,3.81,1.55,1.55,0,0,1-.66,1.54,1.7,1.7,0,0,1-1.61,0,1,1,0,0,1,0,.83l0,.08-.08.15.14.12a2.16,2.16,0,0,1,.71,1.36,7.16,7.16,0,0,0,.8,2,11,11,0,0,1,.57,1.2l.18.22c.18.22.36.43.53.65L970.53,49l1.72-16.43a3.18,3.18,0,0,1,1.35.23c.37,0,.78.07,1.16.1a6.82,6.82,0,0,1,2.93.63,4.27,4.27,0,0,0,1.07.39,4.16,4.16,0,0,1,1.27.49,1.34,1.34,0,0,0,.77.08,3.62,3.62,0,0,1,.58,0,2.86,2.86,0,0,1,2.07.8c.77.23,1.31-.22,1.93-.72l.36-.3a15.13,15.13,0,0,1,4.5-2.16,2.28,2.28,0,0,1,1.36.08l.42.18c.54.25.75.31,1.06,0a.92.92,0,0,1,.69-.17.61.61,0,0,1,.48.27,2.16,2.16,0,0,0,1,.71,3.1,3.1,0,0,1,1.3.95c.08,0,.16-.09.34-.26a2.41,2.41,0,0,1,.33-.3,1.58,1.58,0,0,1,1.87-.16,1.57,1.57,0,0,0,1.79-.18,2.05,2.05,0,0,1,1-.25h.13a.74.74,0,0,1,.61.18.79.79,0,0,1,.22.63v0a8.3,8.3,0,0,1,1.29,3A5.71,5.71,0,0,1,1005.3,42.07Z"/><path class="cls-15" d="M972.25,32.59,970.53,49l-3.76-17.85a2.68,2.68,0,0,0,.46-.05c1.73-.29,2.24-.18,2.94,1.55.16.38.19.4.62.24A4.63,4.63,0,0,1,972.25,32.59Z"/><path class="cls-16" d="M970.53,49,953.92,28.75c.67-.29,1.34-.51,2-.71a8.29,8.29,0,0,1,4-.25,6.35,6.35,0,0,1,1.34.42,5.88,5.88,0,0,0,1.24.38c.58.09.6.68.61.9v.11c.05.57.31.81.92.78a2.9,2.9,0,0,1,2,.59,1.11,1.11,0,0,0,.81.2Z"/><path class="cls-17" d="M1035,159.89l-2.08,9.72-.36.08c-.26.06-.51.22-.5.42a4.91,4.91,0,0,1-.93,2.92l0,.09a15.46,15.46,0,0,0-.78,1.69c-.22.52-.44,1.06-.71,1.57l-.1.2a3.86,3.86,0,0,1-.84,1.19,3.31,3.31,0,0,0-1,1.92,11.4,11.4,0,0,1-1.1,2.59l-.2.38a1,1,0,0,0,0,.7,3.83,3.83,0,0,1,.05.51c0,.39.08.49.5.66a1.69,1.69,0,0,1,1,1.28c0,.24.06.24.13.26a1.22,1.22,0,0,1,.93.78,1.49,1.49,0,0,1-.32,1.43c-.53.63-.74,1-.34,1.61a1,1,0,0,1,.15.36v0l-8.38,39.13-.05,0a7.76,7.76,0,0,1-.69.4,15.45,15.45,0,0,0-4.23,3.75l-.24.27-.23.27a2.76,2.76,0,0,1-2.17,1.27,2.37,2.37,0,0,0-1.17.92l-.16.22a5.71,5.71,0,0,1-2.21,2c-.73.28-.78.53-.94,1.29v.08c-.16.75-.17.92.38,1.27a2,2,0,0,1,.6,2.19c-.19.53,0,.84.33,1.33a.64.64,0,0,1,.73-.28c.45.1.61.46.5,1.07a.5.5,0,0,0,0,.12,1.5,1.5,0,0,0,0,.29,1.07,1.07,0,0,1-.8,1.37.11.11,0,0,0,0,.08c1.07.31.84,1.17.72,1.58a4.13,4.13,0,0,1-.14.42c-.19.55-.23.76.06,1s.08.82,0,.92a10.56,10.56,0,0,0-.53,1.31l-38.28-85Z"/><polygon id="triangle36-2" data-name="triangle36" class="cls-18" points="997.44 119.74 971.58 167.62 1034.98 159.89 997.44 119.74"/><path class="cls-19" d="M1033,203.92a1.09,1.09,0,0,0,0,.17.68.68,0,0,1-.18.56.78.78,0,0,1-.67.17H1032s0,.06,0,.08a1.5,1.5,0,0,1,0,.2,9.29,9.29,0,0,0,.2,2.61,10.66,10.66,0,0,1,.24,2.41,1.35,1.35,0,0,1-.65,1.31,2.86,2.86,0,0,1,.29,1.11,5.42,5.42,0,0,1-.09,1.29,5.54,5.54,0,0,0-.07.57,3.52,3.52,0,0,0,.43,1.7,4,4,0,0,1,.48,2.2,3,3,0,0,1-.27.88,3.68,3.68,0,0,0-.18.53,8.92,8.92,0,0,1-2.84,4.39l-.29.29a18.09,18.09,0,0,1-3.34,2.89,11.9,11.9,0,0,1-3.94,1.38l-.5.11a5.43,5.43,0,0,0-1.35.63l8.38-39.13a2,2,0,0,1-.13,1.61,1.63,1.63,0,0,0,.11,2,6.71,6.71,0,0,1,.84,2.72,8.46,8.46,0,0,0,.38,1.72,1.62,1.62,0,0,0,.93,1.1c1.67.72,2,1.36,1.8,3.26l0,.11s0,.07,0,.11h.05C1033.09,203.05,1033,203.7,1033,203.92Z"/><path class="cls-20" d="M1039,163.33h0l-.34.56a11.27,11.27,0,0,1-1.18,1.76,5,5,0,0,0-.35.43,2.15,2.15,0,0,1-2.3,1.18.7.7,0,0,0,0,.17c-.22,1.41-.56,1.84-1.91,2.17l2.08-9.72Z"/><path class="cls-21" d="M1052.57,150.86l-.55.3-.32.17a25.33,25.33,0,0,0-4.34,3.23l-.26.23a47.38,47.38,0,0,0-3.95,3.94l-1.29,1.37c-.25.26-.5.51-.76.76a17.3,17.3,0,0,0-1.77,2c-.11.16-.21.32-.31.49l-4-3.44,7.33-53.14.13-1,.42,1.89h0l.5,2.22h0l.61,2.7h0Z"/><path class="cls-22" d="M1041.7,106l-44.26,13.73,29.15-25.6.15.2a3.56,3.56,0,0,1,.71,1.32.62.62,0,0,0,.75.22,2.08,2.08,0,0,1,2.23,1.19,1.42,1.42,0,0,1,.08.18c.07.14.08.14.11.15a8.73,8.73,0,0,1,1.21.66,4.63,4.63,0,0,0,1.59.75,2.87,2.87,0,0,1,1.86,1.79,3.06,3.06,0,0,0,1.33,1.13,4.49,4.49,0,0,1,1.36,1c.06.07.14.14.21.21a1.82,1.82,0,0,1,.52.73,2.12,2.12,0,0,0,1.79,1.44,1,1,0,0,1,.22.09A3.14,3.14,0,0,1,1041.7,106Z"/><polygon class="cls-23" points="1042.44 105.78 1042.31 106.75 1034.98 159.89 997.44 119.74 1041.7 106.01 1042.44 105.78"/><path class="cls-21" d="M1042.87,107.68a4.19,4.19,0,0,1,.55,1.82,1.33,1.33,0,0,1-.05.4Z"/><path class="cls-24" d="M1072.43,121.29l0,0a6.58,6.58,0,0,0-.78,1.7,4.64,4.64,0,0,1-1.21,2.16,3,3,0,0,0-.89,1.77,4,4,0,0,1-.71,1.69,7.16,7.16,0,0,0-1.68,3.22,13.68,13.68,0,0,1-2.2,4.89c-.31.5-.63,1-.92,1.54a47.6,47.6,0,0,1-7.67,9.49l-1.09,1.14a10.69,10.69,0,0,1-2.69,1.94L1044,112.62c0,.07.07.13.1.19s.15.27.23.41a4.78,4.78,0,0,0,3.23,2.46,3.55,3.55,0,0,0,2.62-.77l.15-.09a12.89,12.89,0,0,1,1.7-1,3,3,0,0,1,2.48.23c.55.26.84.11,1.34-.18s.69-.43,1-.66Z"/><path class="cls-25" d="M1075,115.37v.06a.65.65,0,0,1-.22.49.76.76,0,0,1-.58.14s0,0-.07,0h-.32a1.6,1.6,0,0,0-.22,0c-.26.11-.29.12-.31.43s0,.76,0,1.16a5.85,5.85,0,0,1-.8,3.64l-15.57-8.05.48-.32.91-.61a1.23,1.23,0,0,1,1.35,0c.57.3,1.17.21,2.09-.29a2.74,2.74,0,0,1,1.91-.47,3.15,3.15,0,0,0,2.26-.17,8.57,8.57,0,0,1,2.05-.74,6.85,6.85,0,0,0,2-.73c.15-.08.19-.13.2-.15a2.5,2.5,0,0,1,1.63-1.19,2.44,2.44,0,0,1,1.94.43,1.39,1.39,0,0,1,.28,1.81,4.14,4.14,0,0,0,0,2.51c.07.36.15.74.19,1.13,0,0,.08.07.14.07a.72.72,0,0,1,.57.23A.85.85,0,0,1,1075,115.37Z"/><polygon id="triangle36-3" data-name="triangle36" class="cls-26" points="997.44 119.74 974.1 82.32 974.31 113.07 997.44 119.74"/><polygon id="triangle36-4" data-name="triangle36" class="cls-3" points="997.44 119.74 953.81 135.9 974.31 113.07 997.44 119.74"/><path class="cls-27" d="M887.05,129.67,887,133.6a56.44,56.44,0,0,0-6.77.39l-.51,0a7.87,7.87,0,0,0-1.18.26,7.07,7.07,0,0,1-1.48.31c-.07,0-.2.18-.23.39a1.19,1.19,0,0,1-1.51,1.06c-1.71-.22-3.11.58-4.6,1.42l-.14.08a13.07,13.07,0,0,1-4,1.25l-.12,0-19-8.75Z"/><polygon id="triangle36-5" data-name="triangle36" class="cls-10" points="887.05 129.67 863.92 89.19 847.41 130.09 887.05 129.67"/><path class="cls-12" d="M866.45,138.84a2.19,2.19,0,0,0-.72.41,2.71,2.71,0,0,1-1.15.58l-.16,0a1.59,1.59,0,0,1-1.53-.29,3.88,3.88,0,0,0-2.15-.73l-.73-.12-1-.21a11.82,11.82,0,0,0-3.81-.4l-2,.16a31.84,31.84,0,0,0-3.91.46,8.1,8.1,0,0,0-1.63.6,10.36,10.36,0,0,1-1.46.59,16,16,0,0,0-2.44,1l-.68.34a1.92,1.92,0,0,1-1.71.06c-.67-.36-1.38-.68-2.06-1l-.55-.26,8.61-10Z"/><path class="cls-28" d="M847.41,130.09l-8.61,10a22.76,22.76,0,0,1-3.09-1.69,11.11,11.11,0,0,1-2-1.94A12.19,12.19,0,0,0,832.2,135c-.19-.15-.36-.31-.53-.47a3,3,0,0,0-1.47-.93c-.86-.17-1.28-.59-1.25-1.24l-.33-.17Z"/><path class="cls-29" d="M847.41,130.09l-18.79,2.07h0a7.18,7.18,0,0,1-2.33-1.94,4.88,4.88,0,0,0-2.25-1.34l-.74-.29c-.28-.13-.55-.28-.8-.42a3.34,3.34,0,0,0-1.33-.55c-.56-.05-.67-.6-.73-.86l-.1-.44.31-.14a1.27,1.27,0,0,1,.4-.11.7.7,0,0,1-.06-.58,1.49,1.49,0,0,0,.09-.44,2.11,2.11,0,0,0-.75.18l-.93.32.41-.89c.22-.48.21-.6.1-.71Z"/><path class="cls-30" d="M863.92,89.19l-16.51,40.9-11.68-49c.3,0,.59,0,.89,0a43,43,0,0,0,9-.94Z"/><path class="cls-10" d="M847.41,130.09,819.9,124l0,0a.72.72,0,0,1-.18-.85.62.62,0,0,1,.26-.25,3.14,3.14,0,0,1-.15-1.16,2.44,2.44,0,0,0-.12-1l-.15-.37c-.32-.83-.45-1.08-1.16-.9l-.42.1-.09-.42a.73.73,0,0,1,.07-.6.67.67,0,0,1,.48-.28,0,0,0,0,1,0,0h0l-.48-.47a4,4,0,0,0-1-.83,3.33,3.33,0,0,1-1.34-1.25,6.27,6.27,0,0,0-.5-.61.43.43,0,0,1-.19-.4,3.19,3.19,0,0,0-.18-1.16l0,0a.8.8,0,0,1-.74.27.54.54,0,0,1-.37-.4c0-.26-.27-.44-.53-.65a1.93,1.93,0,0,1-.76-1,.86.86,0,0,1-.58.31,1,1,0,0,0-.54.24,1.92,1.92,0,0,1-.7.35l-.15,0a1.22,1.22,0,0,1-1.15-.13,1,1,0,0,1-.26-.76.45.45,0,0,1-.19-.15h-.06c-.63-.06-.74-.45-.72-.77a.62.62,0,0,1,.43-.61.77.77,0,0,1-.08-.43.79.79,0,0,1,.46-.59,1.54,1.54,0,0,1,.55-.18,1.6,1.6,0,0,1-.54-1.16v-.1a.71.71,0,0,0,0-.15,2.49,2.49,0,0,1-1.36-3,10.27,10.27,0,0,0,.12-1.1l21.29-23.09h0a42.23,42.23,0,0,0,7,.7Z"/><path class="cls-31" d="M807.76,101.21a.65.65,0,0,1,.52-.17,1.14,1.14,0,0,1,0-.51s0-.1,0-.14h0l-.4-.09.08-.4a2.34,2.34,0,0,0-.47-1.61,5.31,5.31,0,0,1-.49-1c-.13-.43-.2-.45-.37-.43a.78.78,0,0,1-.61-.17.93.93,0,0,1-.32-.67.7.7,0,0,1,.59-.78l.06,0a6.24,6.24,0,0,0,3.64-5.22,1.77,1.77,0,0,1,.38-1,11.47,11.47,0,0,1,.39-1.2,1.45,1.45,0,0,1,.36-.68.67.67,0,0,1,.2-.44.62.62,0,0,1,.23-.41,6.85,6.85,0,0,1,.87-1.73v0a.81.81,0,0,1,.18-.6,3.66,3.66,0,0,1,.38-1.59,8.94,8.94,0,0,0-.08-2,14.36,14.36,0,0,1-.12-1.62,3.45,3.45,0,0,1-.36-.55,2.28,2.28,0,0,0-.28-.43,1.29,1.29,0,0,1,.11-1.82c0-.06,0-.13,0-.2a1.17,1.17,0,0,1,.17-.89,1.09,1.09,0,0,1,.51-.77,43.07,43.07,0,0,0,15.89,6.4l-21.29,23.09c0-.44,0-.89,0-1.35V102a1.23,1.23,0,0,1,.1-.41v0A.6.6,0,0,1,807.76,101.21Z"/><polygon id="triangle36-6" data-name="triangle36" class="cls-26" points="974.31 113.07 974.1 82.32 946.55 136.32 974.31 113.07"/><polygon id="triangle36-7" data-name="triangle36" class="cls-29" points="974.31 113.07 953.81 135.9 946.55 136.32 974.31 113.07"/><polygon id="triangle36-8" data-name="triangle36" class="cls-32" points="974.1 82.32 887.05 129.67 946.55 136.32 974.1 82.32"/><polygon id="triangle36-9" data-name="triangle36" class="cls-22" points="971.58 167.62 953.81 135.9 946.55 136.32 971.58 167.62"/><polygon id="triangle36-10" data-name="triangle36" class="cls-22" points="971.58 167.62 911.43 157.78 946.55 136.32 971.58 167.62"/><path class="cls-4" d="M946.55,136.32l-35.12,21.46-2.08-2.4a1.4,1.4,0,0,1,0-.46,1,1,0,0,1-.76-.48,1.19,1.19,0,0,1,.26-1.12l.06-.09c.22-.37.47-.72.7-1.06s.35-.5.51-.75a1.37,1.37,0,0,0,.18-.82,14.5,14.5,0,0,1,.45-3.74,1.31,1.31,0,0,0-.48-1.44,2,2,0,0,1-.7-1.69,3.16,3.16,0,0,1-1.89-.56,1.66,1.66,0,0,1-.74-1.25,2.51,2.51,0,0,0-.14-.48l0,0a1.18,1.18,0,0,1-1.06,0,1,1,0,0,1-.35-.35,2,2,0,0,1-1.35.25l-.29,0a4.29,4.29,0,0,0-1.23.23,5.22,5.22,0,0,1-1.34.26,13.09,13.09,0,0,0-2,.23c-.42.07-.85.14-1.28.18l-10.85-12.51Z"/><polygon id="triangle36-11" data-name="triangle36" class="cls-33" points="974.1 82.32 970.52 49.02 887.89 39.62 974.1 82.32"/><polygon id="triangle36-12" data-name="triangle36" class="cls-34" points="974.1 82.32 887.05 129.67 887.89 39.62 974.1 82.32"/><path class="cls-35" d="M970.53,49l-82.64-9.4,21.63-29.27a1.42,1.42,0,0,1,.45.27.79.79,0,0,1,.32.31,7.94,7.94,0,0,1,1.43-.2,3.85,3.85,0,0,0,2.22-.62,4.47,4.47,0,0,1,4.22-.33.87.87,0,0,1,.61,1v0a1.18,1.18,0,0,0,.08.41l.06.21a1.08,1.08,0,0,1,.63-.22h0a.64.64,0,0,1,.09-.89.52.52,0,0,1,.76,0,1,1,0,0,0,.34.14,1.18,1.18,0,0,1,.93.8,1.45,1.45,0,0,1-.4,1.58,5.12,5.12,0,0,0-.42.49,3.16,3.16,0,0,1-1.41,1.14.7.7,0,0,0-.05.46.81.81,0,0,0,.31.61,2.27,2.27,0,0,1,1.35,2,3,3,0,0,1-.51,2.4,6.7,6.7,0,0,1-2.9,2.46c-.51.23-.39.52-.35.63.27.62.54.89.94,1a.2.2,0,0,0,.15,0,.21.21,0,0,0,.06-.09.81.81,0,0,1,1-.8h.09c.57,0,.89.33,1,1a5.5,5.5,0,0,0,.21.92,7.24,7.24,0,0,1,.22.89c0,.26.47.36,1,.46l.29,0a5.42,5.42,0,0,1,1.85.81,2.29,2.29,0,0,0,2.34.4,3.2,3.2,0,0,1,2.44,0,4.46,4.46,0,0,0,1,.23,4,4,0,0,1,1.84.73,4.21,4.21,0,0,0,1.15.56,3.31,3.31,0,0,1,.42.12,2.22,2.22,0,0,0,.69.14c1.39-.08,1.57,1.09,1.65,1.66.32,2.29,1.28,3.16,3.53,3.21a13.36,13.36,0,0,1,5.19,1.47,11.22,11.22,0,0,1,2.27,1.47l.07,0c1.55,1.19,2.51,1,4.1-1a1.26,1.26,0,0,0,.19-1.8,3.45,3.45,0,0,1,1-4.62,10.2,10.2,0,0,1,2-1.15Z"/><path class="cls-36" d="M909.52,10.35,887.89,39.62l-9.7-25.38a.76.76,0,0,1,.48-.28l0,0a1,1,0,0,1,1-.37h.36c.21,0,.34,0,.4-.07a1.44,1.44,0,0,1,1-.52,1.18,1.18,0,0,1,.86.45,1,1,0,0,0,.28-.2l0-.06a.84.84,0,0,1,.36-.54.8.8,0,0,1,.52-.35.74.74,0,0,1,.4-.19,1.64,1.64,0,0,1,.68-.27l.19,0a1.5,1.5,0,0,1,.84-.32l.25-.05a.74.74,0,0,1,.44-.25,1.26,1.26,0,0,1,1.07-.21l.11,0a9.08,9.08,0,0,0,1.94-.06,8,8,0,0,1,2.62,0l.11,0,.1,0,.08-.09a1.33,1.33,0,0,1,1.69-.38,2,2,0,0,0,1.4-.06.39.39,0,0,1,.29-.17,13.65,13.65,0,0,1,4.2.26.75.75,0,0,1,.58.2.61.61,0,0,1,.42.27.56.56,0,0,1,.29.4l.09,0a1,1,0,0,0,.26,0,.78.78,0,0,1,.86-.53,2.56,2.56,0,0,0,1-.1l.53-.1a.9.9,0,0,1,.44-.42l.09-.05.46-.37.05.14a1.06,1.06,0,0,1,1.44.53l.32.05.37.06.1,0,.12,0,0-.09a.68.68,0,0,1,.38-.46,1.49,1.49,0,0,1,1.1.07l.31.11A3.57,3.57,0,0,1,909.52,10.35Z"/><polygon id="triangle36-13" data-name="triangle36" class="cls-30" points="887.05 129.67 863.92 89.19 887.89 39.62 887.05 129.67"/><path class="cls-37" d="M887.89,39.62,880,36.2a43,43,0,0,0-6.09-20.68h.17a4.35,4.35,0,0,1,1,.12,2.4,2.4,0,0,0,1.15.07.73.73,0,0,1,.45-.26l0,0a1.07,1.07,0,0,1,.8-.38.87.87,0,0,0,.21,0l0-.06.1-.1a.84.84,0,0,1,.36-.54l.06-.07Z"/><path class="cls-38" d="M887.89,39.62l-24,49.57-18.31-9a43.5,43.5,0,0,0,33.75-35Z"/><path class="cls-36" d="M879.36,45.16a43.55,43.55,0,0,0,.64-7.45c0-.51,0-1,0-1.51l7.92,3.42Z"/><path class="cls-39" d="M959.4,294.64a1.12,1.12,0,0,0-.47.35,2.8,2.8,0,0,1-2.61.94l1.7-4.77Z"/><path class="cls-2" d="M945.79,295.79l.85-.32a.85.85,0,0,1-.35.27A.67.67,0,0,1,945.79,295.79Z"/><path class="cls-40" d="M958,291.16l-1.7,4.77h0a7.3,7.3,0,0,0-.82,0,11.46,11.46,0,0,0-2.47.6,3.27,3.27,0,0,1-2,.94,4.08,4.08,0,0,1-2-.73,1.73,1.73,0,0,1-.54-.58c-.16-.24-.25-.36-.42-.4l-.13,0a1.86,1.86,0,0,1-.9-.4Z"/><path class="cls-41" d="M51.75,152.3H31.48L0,4.74H18.1L37.38,106.46c1.77,10,3.15,20.26,4.33,34h.39c1.38-11.41,2.56-22.23,4.73-32.85L68.47,4.74H88.73l19.48,101.72c1.77,9.83,3,19.67,4.33,34h.39c1.38-11.41,2.56-22.23,4.73-32.85L139.1,4.74h18.1L122.57,152.3H102.31L82.63,52.15c-2-9.64-3.14-19.47-4.32-35.61h-.4c-1.37,14.17-2.56,25-4.72,35.61Z"/><path class="cls-41" d="M206.19,155.25c-23.61,0-39.15-14.17-39.15-61.39,0-33,12.2-53.9,39.15-53.9s39.15,20.85,39.15,53.9C245.34,141.28,230.19,155.25,206.19,155.25Zm0-102.11c-15.94,0-23,12.59-23,45.64,0,25.78,4.92,43.29,23,43.29,18.49,0,23-17.51,23-43.29C229.21,65.73,222.52,53.14,206.19,53.14Z"/><path class="cls-41" d="M286.26,60.81h.4c6.49-14.36,15.74-20.46,32.07-19.08V57.07c-20.07-3.54-31.88,9.05-31.88,28.92V152.3H271.31V42.91h14.95Z"/><path class="cls-41" d="M335.05,152.3V4.74H350.6V152.3Z"/><path class="cls-41" d="M432.44,4.74H448V152.3H433V137.93h-.39c-6.69,13-13.38,17.32-26.56,17.32-34.43,0-31.68-48.2-32.07-57.85C372.83,65.34,383.45,40,406.86,40c11.22,0,17.91,4.72,25.19,14.16h.39Zm0,91.09c0-15-.39-42.69-21.25-42.69-13,0-21.44,10.23-21.44,43.87,0,23.61.78,45.06,22,45.06,16.14,0,20.66-20.27,20.66-32.66Z"/><path class="cls-42" d="M48.82,212.12c.78-10.17-4.7-17.86-15.52-17.86-15.78,0-17.47,9.91-17.47,17.47,0,6.78,3,11,9.25,13.3,5.22,2,10.31,3.92,15.52,5.87,18.52,6.91,21.91,13.43,21.91,26.34,0,18.52-11.61,29.34-30.39,29.34-9.64,0-21.12-2.73-26.73-15.51-2.08-4.83-1.95-12.65-2.08-17.87H14.13c-.52,14.48,2.22,23.6,18.52,23.6,11,0,18.64-5.6,18.64-17.08,0-14.86-6-15-15.9-18.78-5.35-2.08-14-4.82-19.17-7.56C7,228.69,4.61,220.86,4.61,211.21,4.61,195,16,184.48,31.86,184.48c17.87,0,28.82,9.26,27.78,27.64Z"/><path class="cls-42" d="M138.8,186.44h10.82v70.28c-.13,7.7,1.18,20.08,18.52,20.08s18.65-12.38,18.52-20.08V186.44h10.82v74.19c0,17.48-11.61,25.95-29.34,25.95s-29.34-8.47-29.34-25.95Z"/><path class="cls-42" d="M339.49,186.44h19v97.8H347.71V203.65c0-4.17.26-8.22,0-12.39h-.26c-1.18,5.74-2.09,9.39-3,13.17L324,284.24H311.06l-20.47-81c-.91-3.39-1.69-6.65-2.87-12h-.26c0,4.17.26,8.48.26,12.65v80.33H276.9v-97.8h19.17l19.17,76.28a87.12,87.12,0,0,1,2.08,14.47h.26a139.46,139.46,0,0,1,2.48-14.6Z"/><path class="cls-42" d="M500,186.44h19v97.8H508.24V203.65c0-4.17.26-8.22,0-12.39H508c-1.18,5.74-2.09,9.39-3,13.17L484.5,284.24H471.6l-20.48-81c-.91-3.39-1.69-6.65-2.87-12H448c0,4.17.26,8.48.26,12.65v80.33H437.43v-97.8H456.6l19.17,76.28a87.12,87.12,0,0,1,2.08,14.47h.27a136.86,136.86,0,0,1,2.47-14.6Z"/><path class="cls-42" d="M600.83,284.24v-97.8h10.82v97.8Z"/><path class="cls-42" d="M685.33,186.44h61.42v9.78H721.46v88H710.63v-88h-25.3Z"/><g id="PtX"><polygon class="cls-43" points="744.87 152.3 727.52 152.3 707.62 145.4 705.56 139.96 705.56 139.95 730.53 119.39 744.87 152.3"/><path class="cls-44" d="M544.53,89l1.8,1.45-.56.26h0Z"/><path class="cls-45" d="M624.31,153.25a105.85,105.85,0,0,1-11.06.62c-16.92,0-26.17-8.66-26.17-25.38v-5.24Z"/><path class="cls-46" d="M545.76,90.68c-.84.38-1.68.72-2.53,1l1.3-2.73Z"/><path class="cls-47" d="M544.53,89l-1.3,2.73c-11.11,4-23.57,2.62-35.24,3.15v4.71L489.56,68.08Z"/><path class="cls-48" d="M563.87,29.29c2,6.11,2.55,12.75,2.55,19.72a79.8,79.8,0,0,1-1.15,14.09L544.53,89Z"/><polygon class="cls-49" points="582.09 42.12 574.69 51.35 574.69 42.12 582.09 42.12"/><polygon class="cls-50" points="678.09 128.95 684.66 127.19 682.64 131.73 678.09 128.95"/><polygon class="cls-51" points="730.53 119.39 705.56 139.95 699.23 123.28 728.77 115.36 730.53 119.39"/><polygon class="cls-52" points="690.67 113.74 684.66 127.19 678.09 128.95 690.67 113.74"/><polygon class="cls-53" points="728.77 115.36 699.23 123.28 694.06 109.65 694.06 109.64 715.16 84.13 728.77 115.36"/><polygon class="cls-54" points="682.64 131.73 677.08 144.17 678.09 128.95 682.64 131.73"/><polygon class="cls-55" points="678.09 128.95 677.08 144.17 673.45 152.3 640.4 152.3 641.88 148.98 678.09 128.95"/><path class="cls-56" d="M631.22,130l2.1,0v22c-1.54.23-3.07.44-4.59.64Z"/><polygon class="cls-57" points="678.09 128.95 641.88 148.98 664.4 98.55 678.09 128.95"/><polygon class="cls-58" points="662.51 4.74 651.07 25.92 644.25 9.69 657.63 4.74 662.51 4.74"/><path class="cls-59" d="M544.53,89l11.15-5A28.67,28.67,0,0,1,547,90.13l-.62.29Z"/><path class="cls-60" d="M618.36,64.75v58c0,6.29,2.76,7.67,6.89,7.67a27.79,27.79,0,0,1,6-.42l-2.49,22.7c-1.48.19-3,.36-4.42.51l-37.23-30V69.69l46.24-20.95v16Z"/><path class="cls-61" d="M544.53,89,565.27,63.1c-1.4,7.84-4.28,15.27-9.59,20.82Z"/><polygon class="cls-62" points="633.32 44.32 633.32 48.74 587.08 69.69 587.08 64.75 574.69 64.75 574.69 51.35 582.09 42.12 587.08 42.12 587.08 36.75 618.36 41.87 619.9 42.12 633.32 44.32"/><polygon class="cls-63" points="507.99 147.58 507.99 150.64 496.36 141.67 507.99 147.58"/><polygon class="cls-64" points="507.99 136.68 507.99 147.58 496.36 141.67 507.99 136.68"/><polygon class="cls-65" points="507.99 99.56 507.99 136.68 496.36 141.67 489.56 68.08 507.99 99.56"/><polygon class="cls-66" points="496.36 141.67 473.36 120.82 473.36 78.22 489.56 68.08 496.36 141.67"/><polygon class="cls-67" points="496.36 141.67 473.36 126.79 473.36 120.82 496.36 141.67"/><polygon class="cls-68" points="727.52 152.3 710.24 152.3 707.62 145.4 727.52 152.3"/><polygon class="cls-69" points="697.46 38.55 678.09 128.95 664.4 98.55 673.25 78.71 658.38 43.31 689.12 39.57 692.73 49.6 693.13 49.6 696.98 38.61 697.46 38.55"/><polygon class="cls-70" points="689.12 39.57 658.38 43.31 651.07 25.92 662.51 4.74 665.84 4.74 683.32 23.43 689.12 39.57"/><polygon class="cls-71" points="697.46 38.55 696.98 38.61 697.13 38.2 697.46 38.55"/><polygon class="cls-72" points="507.99 150.64 507.99 152.3 491.74 152.3 480.78 147.94 496.36 141.67 507.99 150.64"/><polygon class="cls-73" points="496.36 141.67 480.78 147.94 473.36 139.98 473.36 126.79 496.36 141.67"/><polygon class="cls-74" points="480.78 147.94 473.36 145.02 473.36 139.98 480.78 147.94"/><polygon class="cls-75" points="480.78 147.94 473.36 146.33 473.36 145.02 480.78 147.94"/><polygon class="cls-76" points="507.99 38.24 507.99 41.47 505.81 38.64 507.99 38.24"/><path class="cls-77" d="M563.87,29.28h0L544.53,89,526.35,65.34a13.44,13.44,0,0,0,1.12-.79c3.54-3.94,4.33-9.84,4.33-14.95,0-4.64-.39-11.23-3.7-15l35.38-6.43Z"/><path class="cls-78" d="M544.53,89l-55-20.89,16.25-29.44L508,41.47V68.29c6.06-.19,13,.49,18.36-3Z"/><polygon id="triangle36-14" data-name="triangle36" class="cls-79" points="489.56 68.08 489.37 16.14 505.81 38.64 489.56 68.08"/><polygon id="triangle36-15" data-name="triangle36" class="cls-80" points="697.46 38.55 678.09 128.95 719.28 57.16 697.46 38.55"/><polygon class="cls-81" points="721.85 56.9 720.68 59.71 719.28 57.16 721.85 56.9"/><polygon class="cls-82" points="712.8 78.71 715.16 84.13 694.06 109.64 693.52 108.23 693.13 108.23 690.67 113.74 678.09 128.95 719.28 57.16 720.68 59.71 712.8 78.71"/><polygon class="cls-83" points="719.28 57.16 697.46 38.55 697.75 36.41 697.76 36.39 708.03 7.13 719.28 57.16"/><polygon class="cls-84" points="683.32 23.43 665.84 4.74 676.6 4.74 683.32 23.43"/><polygon class="cls-85" points="697.75 36.41 697.46 38.55 697.13 38.2 697.75 36.41"/><polygon class="cls-86" points="741.6 9.29 721.85 56.9 719.28 57.16 708.03 7.13 708.03 7.12 708.86 4.74 732.8 4.74 741.6 9.29"/><polygon class="cls-87" points="743.49 4.74 741.6 9.29 732.8 4.74 743.49 4.74"/><polygon class="cls-88" points="489.56 68.08 473.36 55.72 473.36 20.12 489.37 16.14 489.56 68.08"/><polygon class="cls-89" points="489.56 68.08 473.36 78.22 473.36 55.72 489.56 68.08"/><polygon class="cls-90" points="489.37 16.14 473.36 20.12 473.36 5.94 475.21 4.74 482.96 4.74 489.37 16.14"/><polygon class="cls-91" points="475.21 4.74 473.36 5.94 473.36 4.74 475.21 4.74"/><polygon class="cls-92" points="657.63 4.74 644.25 9.69 642.17 4.74 657.63 4.74"/><path class="cls-93" d="M563.24,27.53,529,11.77l21.19-.22a26.49,26.49,0,0,1,6.64,5.39A34.16,34.16,0,0,1,563.24,27.53Z"/><path class="cls-94" d="M550.14,11.55,529,11.77l2.44-6C538,6.63,544.69,8.35,550.14,11.55Z"/><polygon class="cls-95" points="507.99 36.11 507.99 38.24 505.81 38.64 507.99 36.11"/><path class="cls-96" d="M563.48,28.16,528.1,34.59a8.55,8.55,0,0,0-2.8-2.11c-3.26-1.15-7.83-1.18-13.17-1.18L529,11.77l34.29,15.76Z"/><polygon class="cls-97" points="528.95 11.77 512.13 31.3 507.99 31.3 507.99 36.11 505.81 38.64 489.37 16.14 528.95 11.77"/><polygon class="cls-98" points="528.95 11.77 489.37 16.14 482.96 4.74 497.43 4.74 528.95 11.77"/><path class="cls-99" d="M531.39,5.73l-2.44,6-1.55-6.5C528.72,5.39,530.06,5.54,531.39,5.73Z"/><path class="cls-100" d="M529,11.77l-31.52-7h17.05c3.93,0,8.37.1,12.92.53Z"/><polygon class="cls-101" points="491.74 152.3 476.35 152.3 480.78 147.94 491.74 152.3"/><polygon class="cls-102" points="480.78 147.94 476.35 152.3 473.36 152.3 473.36 146.33 480.78 147.94"/><polygon class="cls-103" points="618.36 16.7 618.36 17.09 618.02 17.37 618.36 16.7"/><polygon class="cls-104" points="618.36 17.09 618.36 17.35 618.02 17.37 618.36 17.09"/><polygon class="cls-105" points="618.36 10.64 618.36 16.7 618.02 17.37 587.08 13.91 587.08 10.64 618.36 10.64"/><polygon class="cls-106" points="618.36 17.35 618.36 17.8 618.02 17.37 618.36 17.35"/><polygon class="cls-107" points="618.36 17.8 618.36 41.87 587.08 36.75 587.08 36.28 618.02 17.37 618.36 17.8"/><polygon class="cls-108" points="633.32 42.12 633.32 44.32 619.9 42.12 633.32 42.12"/><polygon class="cls-109" points="618.02 17.37 587.08 36.28 587.08 13.91 618.02 17.37"/></g></g></g></g></svg>