<svg xmlns="http://www.w3.org/2000/svg" viewBox="0 0 1075 297.49"><defs><style>.cls-1{fill:#0884b5;}.cls-2{fill:#76a63d;}.cls-3{fill:#1a1449;}.cls-4{fill:#333;}</style></defs><g id="Layer_2" data-name="Layer 2"><g id="Logo_PtX_LIGHT" data-name="Logo PtX LIGHT"><g id="Logo_PtX_LIGHT_-_Short" data-name="Logo PtX LIGHT - Short"><path class="cls-1" d="M836.62,81.09A43.07,43.07,0,0,1,812.85,74a1.09,1.09,0,0,0-.51.77,1.17,1.17,0,0,0-.17.89c0,.07,0,.14,0,.2a1.29,1.29,0,0,0-.11,1.82,2.28,2.28,0,0,1,.28.43,3.45,3.45,0,0,0,.36.55,14.36,14.36,0,0,0,.12,1.62,8.94,8.94,0,0,1,.08,2,3.66,3.66,0,0,0-.38,1.59.81.81,0,0,0-.18.6v0a6.85,6.85,0,0,0-.87,1.73.62.62,0,0,0-.23.41.67.67,0,0,0-.2.44,1.45,1.45,0,0,0-.36.68,11.47,11.47,0,0,0-.39,1.2,1.77,1.77,0,0,0-.38,1,6.24,6.24,0,0,1-3.64,5.22l-.06,0a.7.7,0,0,0-.59.78.93.93,0,0,0,.32.67.78.78,0,0,0,.61.17c.17,0,.24,0,.37.43a5.31,5.31,0,0,0,.49,1,2.34,2.34,0,0,1,.47,1.61l-.08.4.4.09h0s0,.1,0,.14a1.14,1.14,0,0,0,0,.51.65.65,0,0,0-.52.17.6.6,0,0,0-.16.4v0a1.23,1.23,0,0,0-.1.41v.07a16.53,16.53,0,0,1-.17,2.45,2.49,2.49,0,0,0,1.36,3,.71.71,0,0,1,0,.15v.1a1.6,1.6,0,0,0,.54,1.16,1.54,1.54,0,0,0-.55.18.79.79,0,0,0-.46.59.77.77,0,0,0,.08.43.62.62,0,0,0-.43.61c0,.32.09.71.72.77h.06a.45.45,0,0,0,.19.15,1,1,0,0,0,.26.76,1.22,1.22,0,0,0,1.15.13l.15,0a1.92,1.92,0,0,0,.7-.35,1,1,0,0,1,.54-.24.86.86,0,0,0,.58-.31,1.93,1.93,0,0,0,.76,1c.26.21.48.39.53.65a.54.54,0,0,0,.37.4.8.8,0,0,0,.74-.27l0,0a3.19,3.19,0,0,1,.18,1.16.43.43,0,0,0,.19.4,6.27,6.27,0,0,1,.5.61,3.33,3.33,0,0,0,1.34,1.25,4,4,0,0,1,1,.83l.48.47h0a0,0,0,0,0,0,0,.67.67,0,0,0-.48.28.73.73,0,0,0-.07.6l.09.42.42-.1c.71-.18.84.07,1.16.9l.15.37a2.44,2.44,0,0,1,.12,1,3.14,3.14,0,0,0,.15,1.16.62.62,0,0,0-.26.25.72.72,0,0,0,.18.85c.15.13.2.21-.05.76l-.41.89.93-.32a2.11,2.11,0,0,1,.75-.18,1.49,1.49,0,0,1-.09.44.7.7,0,0,0,.06.58,1.27,1.27,0,0,0-.4.11l-.31.14.1.44c.06.26.17.81.73.86a3.34,3.34,0,0,1,1.33.55c.25.14.52.29.8.42l.74.29a4.88,4.88,0,0,1,2.25,1.34,7.26,7.26,0,0,0,2.67,2.11c0,.65.39,1.07,1.25,1.24a3,3,0,0,1,1.47.93c.17.16.34.32.53.47a12.19,12.19,0,0,1,1.47,1.49,11.11,11.11,0,0,0,2,1.94,25.61,25.61,0,0,0,3.64,1.95c.68.32,1.39.64,2.06,1a1.92,1.92,0,0,0,1.71-.06l.68-.34a16,16,0,0,1,2.44-1,10.36,10.36,0,0,0,1.46-.59,8.1,8.1,0,0,1,1.63-.6,31.84,31.84,0,0,1,3.91-.46l2-.16a11.82,11.82,0,0,1,3.81.4l1,.21.73.12a3.88,3.88,0,0,1,2.15.73,1.59,1.59,0,0,0,1.53.29l.16,0a2.71,2.71,0,0,0,1.15-.58,2,2,0,0,1,.84-.45,13.07,13.07,0,0,0,4-1.25l.14-.08c1.49-.84,2.89-1.64,4.6-1.42a1.19,1.19,0,0,0,1.51-1.06c0-.21.16-.38.23-.39a7.07,7.07,0,0,0,1.48-.31,7.87,7.87,0,0,1,1.18-.26l.51,0a50.05,50.05,0,0,1,7.75-.35,3.54,3.54,0,0,1,2.66,1.06,13.42,13.42,0,0,1,2.69,4.88,3.62,3.62,0,0,0,2.83,2.6,10.28,10.28,0,0,0,3-.18,13.09,13.09,0,0,1,2-.23,5.22,5.22,0,0,0,1.34-.26,4.29,4.29,0,0,1,1.23-.23l.29,0a2,2,0,0,0,1.35-.25,1,1,0,0,0,.35.35,1.18,1.18,0,0,0,1.06,0l0,0a2.51,2.51,0,0,1,.14.48,1.66,1.66,0,0,0,.74,1.25,3.16,3.16,0,0,0,1.89.56,2,2,0,0,0,.7,1.69,1.31,1.31,0,0,1,.48,1.44,14.5,14.5,0,0,0-.45,3.74,1.37,1.37,0,0,1-.18.82q-.24.38-.51.75c-.23.34-.48.69-.7,1.06l-.06.09a1.19,1.19,0,0,0-.26,1.12,1,1,0,0,0,.76.48,1.58,1.58,0,0,0,.07.66.85.85,0,0,0-.95.66,1.79,1.79,0,0,0,.12,1.2l-.17,0v.37c0,.12,0,.25,0,.37s0,.49,0,.72c-.08,1-.3,1.57-.66,1.81a1.37,1.37,0,0,1-1.17,0l-.38-.12-.14.38a1.72,1.72,0,0,0,.27,1.59,14.72,14.72,0,0,1,1.62,3.06,10.5,10.5,0,0,0,2.26,3.54l.23.26a11.81,11.81,0,0,0,1.68,1.56,15.3,15.3,0,0,1,1.39,1.24c.62.67,1.22,1.34,1.83,2,.8.89,1.62,1.81,2.46,2.69a5,5,0,0,1,.78,1.23,7,7,0,0,0,.75,1.25,2.54,2.54,0,0,1,.56,1.07,1.84,1.84,0,0,1-.1.16.73.73,0,0,0,0,1,2.57,2.57,0,0,1,.66,1.56,6.44,6.44,0,0,0,.23.94,4.55,4.55,0,0,0,.88,1.37,3.65,3.65,0,0,1,.71,1.06l.21.61a23.39,23.39,0,0,0,2.21,5,1.31,1.31,0,0,1,.07.78,3,3,0,0,0-1.32,1.82,2.32,2.32,0,0,0,.5,1.68v0a10.62,10.62,0,0,0,1.77,4,3.89,3.89,0,0,1,.85,2.92,2.93,2.93,0,0,0,0,.29,5.4,5.4,0,0,0-.14,1.15,3.29,3.29,0,0,1-1.88,3.58c-1.07.69-1.05,1.14-1,1.29,0,.51-.24.74-.7,1.11a4.43,4.43,0,0,0-.55.51l-.08.06a.73.73,0,0,0-.41.72,2.55,2.55,0,0,1-.24,1.18,3.26,3.26,0,0,0-.26,1.15,10.49,10.49,0,0,1-.62,3.15,14.38,14.38,0,0,0-.61,2.57v.06c0,.19-.05.5-.17.55a1.27,1.27,0,0,0-.82,1.7c0,.08,0,.16,0,.25a3.7,3.7,0,0,0,.14.55,2.91,2.91,0,0,1,.13.64,1,1,0,0,0-.47,1.48l0,.07a3.69,3.69,0,0,1,.11,2.36,2.74,2.74,0,0,0-.05,1.18,7.69,7.69,0,0,0,2.45,4.64,2.57,2.57,0,0,1,.4.49l0,.05a41.52,41.52,0,0,1,2.66,4.9c.62,1.29,1.27,2.62,2,3.88l.42.71a17.77,17.77,0,0,0,1.82,2.76l.19.23c1,1.11,1.77,2.06,1.08,3.51a1.13,1.13,0,0,0,0,.81l0,.16c0,.2.08.4.12.6a3.36,3.36,0,0,1,.12,1.63,3.87,3.87,0,0,0,.51,3.11c.07.13.13.26.19.39a5.11,5.11,0,0,1,.66,2.19,12,12,0,0,0,1.18,5.16c0,.06,0,.06,0,.09a6.15,6.15,0,0,0,.93,3.35l.14.27a13.84,13.84,0,0,0,4.33,5.15.46.46,0,0,1,.14.16,22.89,22.89,0,0,1,2.22,4.9l.24.67a16,16,0,0,0,2.87,5.1,5.3,5.3,0,0,1,1.15,3.61c0,.37-.08.48-.12.51a.45.45,0,0,1-.34,0,.94.94,0,0,0-.77.13,1.21,1.21,0,0,0-.39.94c0,.07,0,.13,0,.19a1.6,1.6,0,0,0,.51,1.31c.29.34.39.5.3.76a.46.46,0,0,0,0,.41.62.62,0,0,0,.55.23h.06a.64.64,0,0,1,.48.39.6.6,0,0,1,0,.58,2.05,2.05,0,0,0,0,2.12,1,1,0,0,0,.54.59.73.73,0,0,0,.58,0,.78.78,0,0,0,.46-.49.36.36,0,0,0,0-.1,1.58,1.58,0,0,0,1.07.6l.13,0c.17,0,.26.16.42.4a1.73,1.73,0,0,0,.54.58,4.08,4.08,0,0,0,2,.73,3.27,3.27,0,0,0,2-.94,11.46,11.46,0,0,1,2.47-.6,7.3,7.3,0,0,1,.82,0,2.82,2.82,0,0,0,2.62-.94,1.48,1.48,0,0,1,1.11-.51,4.78,4.78,0,0,1,1.29.12,5.47,5.47,0,0,0,1.24.15,2.12,2.12,0,0,0,.9-.26c.25-.13.39-.19.54-.15.36.1.72.16,1.07.23a5.64,5.64,0,0,1,1.88.57,1.89,1.89,0,0,0,1.32.15.6.6,0,0,0,.41-.33c.3-.64.55-.7,1.41-.31a1.32,1.32,0,0,0,.75.07,2.09,2.09,0,0,1,.25,0,.72.72,0,0,0,.53-.19.74.74,0,0,0,.21-.56.68.68,0,0,1,.21-.58.38.38,0,0,1,.36,0c1.6.72,2.88,0,4-.64l.31-.18a23.56,23.56,0,0,0,3.13-2.17c.42-.33.85-.66,1.29-1l.06,0a14.75,14.75,0,0,0,3.15-2.83,4.06,4.06,0,0,1,1.23-1.13,15.56,15.56,0,0,0,4.79-5.11l.45-.66c.29-.43.55-.87.79-1.31a7.62,7.62,0,0,1,1.69-2.29l.39-.34a5.84,5.84,0,0,1,1.49-1,4.49,4.49,0,0,0,2.5-3.33,16.67,16.67,0,0,1,.77-2.36,10.92,10.92,0,0,0,1-3.71,5.78,5.78,0,0,1,.12-.88,4.37,4.37,0,0,0,0-2.13l-.18-.62a3.34,3.34,0,0,1,1-.71,27.32,27.32,0,0,1,5.65-2.06l.2-.06a5.27,5.27,0,0,0,2.72-2,3.33,3.33,0,0,1,.25-.28,1.67,1.67,0,0,0,.58-1.69,5,5,0,0,1,.62-3.53c.05-.1.28-.62,0-.92s-.25-.49-.06-1a4.13,4.13,0,0,0,.14-.42c.12-.41.35-1.27-.72-1.58a.11.11,0,0,1,0-.08,1.07,1.07,0,0,0,.8-1.37,1.5,1.5,0,0,1,0-.29.5.5,0,0,1,0-.12c.11-.61,0-1-.5-1.07a.64.64,0,0,0-.73.28c-.36-.49-.52-.8-.33-1.33a2,2,0,0,0-.6-2.19c-.55-.35-.54-.52-.38-1.27v-.08c.16-.76.21-1,.94-1.29a5.71,5.71,0,0,0,2.21-2l.16-.22a2.37,2.37,0,0,1,1.17-.92,2.76,2.76,0,0,0,2.17-1.27l.23-.27.24-.27a15.45,15.45,0,0,1,4.23-3.75,7.76,7.76,0,0,0,.69-.4,5.51,5.51,0,0,1,1.4-.66l.5-.11a11.9,11.9,0,0,0,3.94-1.38,18.09,18.09,0,0,0,3.34-2.89l.29-.29a8.92,8.92,0,0,0,2.84-4.39,3.68,3.68,0,0,1,.18-.53,3,3,0,0,0,.27-.88,4,4,0,0,0-.48-2.2,3.52,3.52,0,0,1-.43-1.7,5.54,5.54,0,0,1,.07-.57,5.42,5.42,0,0,0,.09-1.29,2.86,2.86,0,0,0-.29-1.11,1.35,1.35,0,0,0,.65-1.31,10.66,10.66,0,0,0-.24-2.41,9.29,9.29,0,0,1-.2-2.61,1.5,1.5,0,0,0,0-.2s0-.05,0-.08h.09a.78.78,0,0,0,.67-.17.68.68,0,0,0,.18-.56,1.09,1.09,0,0,1,0-.17c0-.22.14-.87-.53-1h-.05s0-.08,0-.11l0-.11c.22-1.9-.13-2.54-1.8-3.26a1.62,1.62,0,0,1-.93-1.1,8.46,8.46,0,0,1-.38-1.72,6.71,6.71,0,0,0-.84-2.72,1.63,1.63,0,0,1-.11-2,2.1,2.1,0,0,0,0-2c-.4-.61-.19-1,.34-1.61a1.49,1.49,0,0,0,.32-1.43,1.22,1.22,0,0,0-.93-.78c-.07,0-.09,0-.13-.26a1.69,1.69,0,0,0-1-1.28c-.42-.17-.5-.27-.5-.66a3.83,3.83,0,0,0-.05-.51,1,1,0,0,1,0-.7l.2-.38a11.4,11.4,0,0,0,1.1-2.59,3.31,3.31,0,0,1,1-1.92,3.86,3.86,0,0,0,.84-1.19l.1-.2c.27-.51.49-1,.71-1.57a15.46,15.46,0,0,1,.78-1.69l0-.09a4.91,4.91,0,0,0,.93-2.92c0-.2.24-.36.5-.42,1.65-.34,2-.72,2.27-2.25a.7.7,0,0,1,0-.17,2.15,2.15,0,0,0,2.3-1.18,5,5,0,0,1,.35-.43,11.27,11.27,0,0,0,1.18-1.76c.22-.37.42-.72.65-1.06a17.3,17.3,0,0,1,1.77-2c.26-.25.51-.5.76-.76l1.29-1.37a47.38,47.38,0,0,1,3.95-3.94l.26-.23a25.33,25.33,0,0,1,4.34-3.23l.32-.17a12.37,12.37,0,0,0,3.24-2.24l1.09-1.14a47.6,47.6,0,0,0,7.67-9.49c.29-.52.61-1,.92-1.54a13.68,13.68,0,0,0,2.2-4.89,7.16,7.16,0,0,1,1.68-3.22,4,4,0,0,0,.71-1.69,3,3,0,0,1,.89-1.77,4.64,4.64,0,0,0,1.21-2.16,6.58,6.58,0,0,1,.78-1.7,5.82,5.82,0,0,0,.82-3.67c0-.4,0-.79,0-1.16s0-.32.31-.43a1.6,1.6,0,0,1,.22,0h.32s.05,0,.07,0a.76.76,0,0,0,.58-.14.65.65,0,0,0,.22-.49v-.06a.85.85,0,0,0-.16-.67.72.72,0,0,0-.57-.23c-.06,0-.13-.07-.14-.07,0-.39-.12-.77-.19-1.13a4.14,4.14,0,0,1,0-2.51,1.39,1.39,0,0,0-.28-1.81,2.44,2.44,0,0,0-1.94-.43,2.5,2.5,0,0,0-1.63,1.19s0,.07-.2.15a6.85,6.85,0,0,1-2,.73,8.57,8.57,0,0,0-2.05.74,3.15,3.15,0,0,1-2.26.17,2.74,2.74,0,0,0-1.91.47c-.92.5-1.52.59-2.09.29a1.23,1.23,0,0,0-1.35,0l-.91.61c-.49.33-1,.68-1.51,1s-.79.44-1.34.18a3,3,0,0,0-2.48-.23,12.89,12.89,0,0,0-1.7,1l-.15.09a3.55,3.55,0,0,1-2.62.77,4.78,4.78,0,0,1-3.23-2.46c-.08-.14-.16-.27-.23-.41a3.25,3.25,0,0,0-1.65-1.69,1.84,1.84,0,0,0-.49-.12,1.78,1.78,0,0,1,.58-.34,1.05,1.05,0,0,0,.9-1.16,6.13,6.13,0,0,0-2.71-4.26,1,1,0,0,0-.22-.09,2.12,2.12,0,0,1-1.79-1.44,1.82,1.82,0,0,0-.52-.73c-.07-.07-.15-.14-.21-.21a4.49,4.49,0,0,0-1.36-1,3.06,3.06,0,0,1-1.33-1.13,2.87,2.87,0,0,0-1.86-1.79,4.63,4.63,0,0,1-1.59-.75,8.73,8.73,0,0,0-1.21-.66s0,0-.11-.15a1.42,1.42,0,0,0-.08-.18,2.08,2.08,0,0,0-2.23-1.19.62.62,0,0,1-.75-.22,3.56,3.56,0,0,0-.71-1.32,2.35,2.35,0,0,1-.59-1.12,15.65,15.65,0,0,0-1.07-3.86l0-.06c-.65-1.75-1.38-3.4-3.14-4.4l-.12-.06a1.6,1.6,0,0,1-.83-.77,2.59,2.59,0,0,0-1.82-1.3c-.46-.11-.61-.29-.7-.54s-.15-.41-.23-.61a7.63,7.63,0,0,1-.55-2c-.06-.74-.18-1.48-.29-2.19a15.28,15.28,0,0,1-.3-3.6,1.26,1.26,0,0,0-.32-.87,3.84,3.84,0,0,1-1.18-2.73,1.08,1.08,0,0,0-.66-1.09,5.56,5.56,0,0,1-1.33-1,5,5,0,0,0-2.23-1.36l-.05-.06a.75.75,0,0,0-.19-.22,3.52,3.52,0,0,1-.84-1.38c-.09-.22-.18-.44-.3-.67v-.93a.7.7,0,0,0,.79.06c.27-.17.52-.51.15-1.13l0,0a1.63,1.63,0,0,0-.55-.62A6.13,6.13,0,0,1,1008,59.4c-.09-.18-.17-.37-.25-.56a4,4,0,0,0-1.2-1.77,10.13,10.13,0,0,0-2.06-3.29l-.18-.22a11,11,0,0,0-.57-1.2,7.16,7.16,0,0,1-.8-2,2.16,2.16,0,0,0-.71-1.36l-.14-.12.08-.15,0-.08a1,1,0,0,0,0-.83,1.7,1.7,0,0,0,1.61,0,1.55,1.55,0,0,0,.66-1.54,12,12,0,0,1,.65-3.81l.13-.43a5.71,5.71,0,0,0-1.14-5.27,8.3,8.3,0,0,0-1.29-3v0a.79.79,0,0,0-.22-.63A.74.74,0,0,0,1002,33h-.13a2.05,2.05,0,0,0-1,.25,1.57,1.57,0,0,1-1.79.18,1.58,1.58,0,0,0-1.87.16,2.41,2.41,0,0,0-.33.3c-.18.17-.26.25-.34.26a3.1,3.1,0,0,0-1.3-.95,2.16,2.16,0,0,1-1-.71.61.61,0,0,0-.48-.27.92.92,0,0,0-.69.17c-.31.29-.52.23-1.06,0l-.42-.18a2.28,2.28,0,0,0-1.36-.08,15.13,15.13,0,0,0-4.5,2.16l-.36.3c-.62.5-1.16,1-1.93.72a2.86,2.86,0,0,0-2.07-.8,3.62,3.62,0,0,0-.58,0,1.34,1.34,0,0,1-.77-.08,4.16,4.16,0,0,0-1.27-.49,4.27,4.27,0,0,1-1.07-.39,6.82,6.82,0,0,0-2.93-.63c-.38,0-.79-.05-1.16-.1a3.75,3.75,0,0,0-2.81.09c-.43.16-.46.14-.62-.24-.7-1.73-1.21-1.84-2.94-1.55A1.53,1.53,0,0,1,966,31a2.9,2.9,0,0,0-2-.59c-.61,0-.87-.21-.92-.78v-.11c0-.22,0-.81-.61-.9a5.88,5.88,0,0,1-1.24-.38,6.35,6.35,0,0,0-1.34-.42,8.29,8.29,0,0,0-4,.25A12.45,12.45,0,0,0,952,29.9a3.45,3.45,0,0,0-1,4.62,1.26,1.26,0,0,1-.19,1.8c-1.59,1.94-2.55,2.16-4.1,1l-.07,0a11.22,11.22,0,0,0-2.27-1.47,13.36,13.36,0,0,0-5.19-1.47c-2.25,0-3.21-.92-3.53-3.21-.08-.57-.26-1.74-1.65-1.66a2.22,2.22,0,0,1-.69-.14,3.31,3.31,0,0,0-.42-.12,4.21,4.21,0,0,1-1.15-.56,4,4,0,0,0-1.84-.73,4.46,4.46,0,0,1-1-.23,3.2,3.2,0,0,0-2.44,0,2.29,2.29,0,0,1-2.34-.4,5.42,5.42,0,0,0-1.85-.81l-.29,0c-.51-.1-.94-.2-1-.46a7.24,7.24,0,0,0-.22-.89,5.5,5.5,0,0,1-.21-.92c-.06-.65-.38-1-1-1h-.09a.81.81,0,0,0-1,.8.21.21,0,0,1-.06.09.2.2,0,0,1-.15,0c-.4-.06-.67-.33-.94-1,0-.11-.16-.4.35-.63a6.7,6.7,0,0,0,2.9-2.46,3,3,0,0,0,.51-2.4,2.27,2.27,0,0,0-1.35-2,.81.81,0,0,1-.31-.61.7.7,0,0,1,.05-.46,3.16,3.16,0,0,0,1.41-1.14,5.12,5.12,0,0,1,.42-.49,1.45,1.45,0,0,0,.4-1.58,1.18,1.18,0,0,0-.93-.8,1,1,0,0,1-.34-.14.52.52,0,0,0-.76,0,.64.64,0,0,0-.09.89h0a1.08,1.08,0,0,0-.63.22l-.06-.21a1.18,1.18,0,0,1-.08-.41v0a.87.87,0,0,0-.61-1,4.47,4.47,0,0,0-4.22.33,3.85,3.85,0,0,1-2.22.62,7.94,7.94,0,0,0-1.43.2.79.79,0,0,0-.32-.31,2.14,2.14,0,0,0-.83-.41l-.31-.11a1.49,1.49,0,0,0-1.1-.07.68.68,0,0,0-.38.46l0,.09-.12,0-.1,0-.37-.06-.32-.05A1.06,1.06,0,0,0,905,9.88l-.05-.14-.46.37-.09.05a.9.9,0,0,0-.44.42l-.53.1a2.56,2.56,0,0,1-1,.1.78.78,0,0,0-.86.53,1,1,0,0,1-.26,0l-.09,0a.56.56,0,0,0-.29-.4.61.61,0,0,0-.42-.27.75.75,0,0,0-.58-.2,13.65,13.65,0,0,0-4.2-.26.39.39,0,0,0-.29.17,2,2,0,0,1-1.4.06,1.33,1.33,0,0,0-1.69.38l-.08.09-.1,0-.11,0a8,8,0,0,0-2.62,0,9.08,9.08,0,0,1-1.94.06l-.11,0a1.26,1.26,0,0,0-1.07.21.74.74,0,0,0-.44.25l-.25.05a1.5,1.5,0,0,0-.84.32l-.19,0a1.64,1.64,0,0,0-.68.27.74.74,0,0,0-.4.19.8.8,0,0,0-.52.35.84.84,0,0,0-.36.54l0,.06a1,1,0,0,1-.28.2,1.18,1.18,0,0,0-.86-.45,1.44,1.44,0,0,0-1,.52c-.06.06-.19.07-.4.07h-.36a1,1,0,0,0-1,.37l0,0a.79.79,0,0,0-.54.35.84.84,0,0,0-.36.54l-.1.1,0,.06a.87.87,0,0,1-.21,0,1.07,1.07,0,0,0-.8.38l0,0a.73.73,0,0,0-.45.26,2.4,2.4,0,0,1-1.15-.07,4.35,4.35,0,0,0-1-.12h-.17a43.36,43.36,0,0,1-37.26,65.57Z"/><path class="cls-2" d="M874.33,37.71A37.71,37.71,0,1,1,836.62,0,37.75,37.75,0,0,1,874.33,37.71Z"/><path class="cls-3" d="M51.75,152.3H31.48L0,4.74H18.1L37.38,106.46c1.77,10,3.15,20.26,4.33,34h.39c1.38-11.41,2.56-22.23,4.73-32.85L68.47,4.74H88.73l19.48,101.72c1.77,9.83,3,19.67,4.33,34h.39c1.38-11.41,2.56-22.23,4.73-32.85L139.1,4.74h18.1L122.57,152.3H102.31L82.63,52.15c-2-9.64-3.14-19.47-4.32-35.61h-.4c-1.37,14.17-2.56,25-4.72,35.61Z"/><path class="cls-3" d="M206.19,155.25c-23.61,0-39.15-14.17-39.15-61.39,0-33,12.2-53.9,39.15-53.9s39.15,20.85,39.15,53.9C245.34,141.28,230.19,155.25,206.19,155.25Zm0-102.11c-15.94,0-23,12.59-23,45.64,0,25.78,4.92,43.29,23,43.29,18.49,0,23-17.51,23-43.29C229.21,65.73,222.52,53.14,206.19,53.14Z"/><path class="cls-3" d="M286.26,60.81h.4c6.49-14.36,15.74-20.46,32.07-19.08V57.07c-20.07-3.54-31.88,9.05-31.88,28.92V152.3H271.31V42.91h14.95Z"/><path class="cls-3" d="M335.05,152.3V4.74H350.6V152.3Z"/><path class="cls-3" d="M432.44,4.74H448V152.3H433V137.93h-.39c-6.69,13-13.38,17.32-26.56,17.32-34.43,0-31.68-48.2-32.07-57.85C372.83,65.34,383.45,40,406.86,40c11.22,0,17.91,4.72,25.19,14.16h.39Zm0,91.09c0-15-.39-42.69-21.25-42.69-13,0-21.44,10.23-21.44,43.87,0,23.61.78,45.06,22,45.06,16.14,0,20.66-20.27,20.66-32.66Z"/><path class="cls-4" d="M48.82,212.12c.78-10.17-4.7-17.86-15.52-17.86-15.78,0-17.47,9.91-17.47,17.47,0,6.78,3,11,9.25,13.3,5.22,2,10.31,3.92,15.52,5.87,18.52,6.91,21.91,13.43,21.91,26.34,0,18.52-11.61,29.34-30.39,29.34-9.64,0-21.12-2.73-26.73-15.51-2.08-4.83-1.95-12.65-2.08-17.87H14.13c-.52,14.48,2.22,23.6,18.52,23.6,11,0,18.64-5.6,18.64-17.08,0-14.86-6-15-15.9-18.78-5.35-2.08-14-4.82-19.17-7.56C7,228.69,4.61,220.86,4.61,211.21,4.61,195,16,184.48,31.86,184.48c17.87,0,28.82,9.26,27.78,27.64Z"/><path class="cls-4" d="M138.8,186.44h10.82v70.28c-.13,7.7,1.18,20.08,18.52,20.08s18.65-12.38,18.52-20.08V186.44h10.82v74.19c0,17.48-11.61,25.95-29.34,25.95s-29.34-8.47-29.34-25.95Z"/><path class="cls-4" d="M339.49,186.44h19v97.8H347.71V203.65c0-4.17.26-8.22,0-12.39h-.26c-1.18,5.74-2.09,9.39-3,13.17L324,284.24H311.06l-20.47-81c-.91-3.39-1.69-6.65-2.87-12h-.26c0,4.17.26,8.48.26,12.65v80.33H276.9v-97.8h19.17l19.17,76.28a87.12,87.12,0,0,1,2.08,14.47h.26a139.46,139.46,0,0,1,2.48-14.6Z"/><path class="cls-4" d="M500,186.44h19v97.8H508.24V203.65c0-4.17.26-8.22,0-12.39H508c-1.18,5.74-2.09,9.39-3,13.17L484.5,284.24H471.6l-20.48-81c-.91-3.39-1.69-6.65-2.87-12H448c0,4.17.26,8.48.26,12.65v80.33H437.43v-97.8H456.6l19.17,76.28a87.12,87.12,0,0,1,2.08,14.47h.27a136.86,136.86,0,0,1,2.47-14.6Z"/><path class="cls-4" d="M600.83,284.24v-97.8h10.82v97.8Z"/><path class="cls-4" d="M685.33,186.44h61.42v9.78H721.46v88H710.63v-88h-25.3Z"/><path class="cls-2" d="M473.36,152.3V4.74h41.12c13.38,0,32.66,1.18,42.3,12.2,8.07,9,9.64,20.06,9.64,32.07,0,15.93-3.73,33.84-19.47,41.12-12,5.9-26,4.13-39,4.72V152.3Zm34.63-84c6.49-.2,14,.59,19.48-3.74,3.54-3.94,4.33-9.84,4.33-14.95,0-5.71-.59-14.37-6.5-17.12-3.34-1.18-8.06-1.18-13.57-1.18H508Zm66.7-3.54V42.12h12.39V10.64h31.28V42.12h15V64.75h-15v58c0,6.29,2.76,7.67,6.89,7.67a37.62,37.62,0,0,1,8.07-.4v22a136.46,136.46,0,0,1-20.07,1.77c-16.92,0-26.17-8.66-26.17-25.38V64.75Zm118-15.15h.4L708.86,4.74h34.63l-30.69,74,32.07,73.59H710.24l-16.72-44.07h-.39L673.45,152.3H640.4l32.85-73.59-31.08-74H676.6Z"/></g></g></g></svg>