<svg xmlns="http://www.w3.org/2000/svg" xmlns:xlink="http://www.w3.org/1999/xlink" viewBox="0 0 657.73 831.12"><defs><style>.cls-1{fill:#1a1449;}.cls-2{fill:#333;}.cls-3{fill:url(#linear-gradient);}.cls-4{fill:url(#linear-gradient-2);}.cls-5{fill:url(#linear-gradient-3);}.cls-6{fill:url(#linear-gradient-4);}.cls-7{fill:url(#linear-gradient-5);}.cls-8{fill:url(#linear-gradient-6);}.cls-9{fill:url(#linear-gradient-7);}.cls-10{fill:url(#linear-gradient-8);}.cls-11{fill:url(#linear-gradient-9);}.cls-12{fill:url(#linear-gradient-10);}.cls-13{fill:url(#linear-gradient-11);}.cls-14{fill:url(#linear-gradient-12);}.cls-15{fill:url(#linear-gradient-13);}.cls-16{fill:url(#linear-gradient-14);}.cls-17{fill:url(#linear-gradient-15);}.cls-18{fill:url(#linear-gradient-16);}.cls-19{fill:url(#linear-gradient-17);}.cls-20{fill:url(#linear-gradient-18);}.cls-21{fill:url(#linear-gradient-19);}.cls-22{fill:url(#linear-gradient-20);}.cls-23{fill:url(#linear-gradient-21);}.cls-24{fill:url(#linear-gradient-22);}.cls-25{fill:url(#linear-gradient-23);}.cls-26{fill:url(#linear-gradient-24);}.cls-27{fill:url(#linear-gradient-25);}.cls-28{fill:url(#linear-gradient-26);}.cls-29{fill:url(#linear-gradient-27);}.cls-30{fill:url(#linear-gradient-28);}.cls-31{fill:url(#linear-gradient-29);}.cls-32{fill:url(#linear-gradient-30);}.cls-33{fill:url(#linear-gradient-31);}.cls-34{fill:url(#linear-gradient-32);}.cls-35{fill:url(#linear-gradient-33);}.cls-36{fill:url(#linear-gradient-34);}.cls-37{fill:url(#linear-gradient-35);}.cls-38{fill:url(#linear-gradient-36);}.cls-39{fill:url(#linear-gradient-37);}.cls-40{fill:url(#linear-gradient-38);}.cls-41{fill:url(#linear-gradient-39);}.cls-42{fill:url(#linear-gradient-40);}.cls-43{fill:url(#linear-gradient-41);}.cls-44{fill:url(#linear-gradient-42);}.cls-45{fill:url(#linear-gradient-43);}.cls-46{fill:url(#linear-gradient-44);}.cls-47{fill:url(#linear-gradient-45);}.cls-48{fill:url(#linear-gradient-46);}.cls-49{fill:url(#linear-gradient-47);}.cls-50{fill:url(#linear-gradient-48);}.cls-51{fill:url(#linear-gradient-49);}.cls-52{fill:url(#linear-gradient-50);}.cls-53{fill:url(#linear-gradient-51);}.cls-54{fill:url(#linear-gradient-52);}.cls-55{fill:url(#linear-gradient-53);}.cls-56{fill:url(#linear-gradient-54);}.cls-57{fill:url(#linear-gradient-55);}.cls-58{fill:url(#linear-gradient-56);}.cls-59{fill:url(#linear-gradient-57);}.cls-60{fill:url(#linear-gradient-58);}.cls-61{fill:url(#linear-gradient-59);}.cls-62{fill:url(#linear-gradient-60);}.cls-63{fill:url(#linear-gradient-61);}.cls-64{fill:url(#linear-gradient-62);}.cls-65{fill:url(#linear-gradient-63);}.cls-66{fill:url(#linear-gradient-64);}.cls-67{fill:url(#linear-gradient-65);}.cls-68{fill:url(#linear-gradient-66);}.cls-69{fill:url(#linear-gradient-67);}.cls-70{fill:#76a63d;}.cls-71{fill:#204660;}.cls-72{fill:#2d6288;}.cls-73{fill:#2c6187;}.cls-74{fill:#295a7c;}.cls-75{fill:#1d445e;}.cls-76{fill:#1a3a50;}.cls-77{fill:#2f658c;}.cls-78{fill:#2d638a;}.cls-79{fill:#306993;}.cls-80{fill:#224d6a;}.cls-81{fill:#2b6085;}.cls-82{fill:#224d6b;}.cls-83{fill:#336d98;}.cls-84{fill:#3773a1;}.cls-85{fill:#3a7aa8;}.cls-86{fill:#265373;}.cls-87{fill:#2a5c7f;}.cls-88{fill:#265371;}.cls-89{fill:#254f6e;}.cls-90{fill:#265778;}.cls-91{fill:#2b5f83;}.cls-92{fill:#29587b;}.cls-93{fill:#224e6d;}.cls-94{fill:#204662;}.cls-95{fill:#2e668d;}.cls-96{fill:#2d658b;}.cls-97{fill:#2b6084;}.cls-98{fill:#2e648a;}.cls-99{fill:#35709b;}.cls-100{fill:#35709c;}.cls-101{fill:#2e678e;}.cls-102{fill:#35739f;}.cls-103{fill:#35749e;}.cls-104{fill:#397baa;}.cls-105{fill:#3a80af;}.cls-106{fill:#3b80b0;}.cls-107{fill:#3778a7;}.cls-108{fill:#19394e;}.cls-109{fill:#1b3d55;}</style><linearGradient id="linear-gradient" x1="627.47" y1="585.46" x2="658.66" y2="554.26" gradientUnits="userSpaceOnUse"><stop offset="0" stop-color="#1e7d00"/><stop offset="1" stop-color="#177400"/></linearGradient><linearGradient id="linear-gradient-2" x1="481.79" y1="525.82" x2="483.35" y2="524.27" gradientUnits="userSpaceOnUse"><stop offset="0" stop-color="#187600"/><stop offset="1" stop-color="#217d00"/></linearGradient><linearGradient id="linear-gradient-3" x1="505.89" y1="596.31" x2="552.22" y2="549.97" xlink:href="#linear-gradient-2"/><linearGradient id="linear-gradient-4" x1="479.16" y1="528.32" x2="483.71" y2="523.77" gradientUnits="userSpaceOnUse"><stop offset="0" stop-color="#136f00"/><stop offset="1" stop-color="#228200"/></linearGradient><linearGradient id="linear-gradient-5" x1="438.36" y1="535.5" x2="479.03" y2="494.83" gradientUnits="userSpaceOnUse"><stop offset="0" stop-color="#278700"/><stop offset="1" stop-color="#389900"/></linearGradient><linearGradient id="linear-gradient-6" x1="470.59" y1="518.09" x2="507.54" y2="481.13" gradientUnits="userSpaceOnUse"><stop offset="0" stop-color="#4db800"/><stop offset="1" stop-color="#4bb000"/></linearGradient><linearGradient id="linear-gradient-7" x1="505.63" y1="490.08" x2="513.41" y2="482.31" xlink:href="#linear-gradient-6"/><linearGradient id="linear-gradient-8" x1="599.65" y1="560.58" x2="604.13" y2="556.09" gradientUnits="userSpaceOnUse"><stop offset="0" stop-color="#1e8000"/><stop offset="1" stop-color="#1a7d00"/></linearGradient><linearGradient id="linear-gradient-9" x1="617.89" y1="564.5" x2="643.64" y2="538.75" xlink:href="#linear-gradient-8"/><linearGradient id="linear-gradient-10" x1="597.18" y1="560.8" x2="610.6" y2="547.39" gradientUnits="userSpaceOnUse"><stop offset="0" stop-color="#278700"/><stop offset="1" stop-color="#2b8c00"/></linearGradient><linearGradient id="linear-gradient-11" x1="613.41" y1="556.37" x2="640" y2="529.78" xlink:href="#linear-gradient-10"/><linearGradient id="linear-gradient-12" x1="592.86" y1="570.35" x2="605.42" y2="557.79" gradientUnits="userSpaceOnUse"><stop offset="0" stop-color="#167600"/><stop offset="1" stop-color="#127100"/></linearGradient><linearGradient id="linear-gradient-13" x1="571.63" y1="586.51" x2="610.27" y2="547.86" gradientUnits="userSpaceOnUse"><stop offset="0" stop-color="#1e7d00"/><stop offset="1" stop-color="#0e6a00"/></linearGradient><linearGradient id="linear-gradient-14" x1="544.48" y1="583.27" x2="563.47" y2="564.28" gradientUnits="userSpaceOnUse"><stop offset="0" stop-color="#2b8c00"/><stop offset="1" stop-color="#2c9000"/></linearGradient><linearGradient id="linear-gradient-15" x1="544.93" y1="592.94" x2="595.73" y2="542.14" xlink:href="#linear-gradient-14"/><linearGradient id="linear-gradient-16" x1="569.56" y1="464.43" x2="587.36" y2="446.63" gradientUnits="userSpaceOnUse"><stop offset="0" stop-color="#59c100"/><stop offset="1" stop-color="#55bd00"/></linearGradient><linearGradient id="linear-gradient-17" x1="483.3" y1="525.56" x2="493.42" y2="515.45" gradientUnits="userSpaceOnUse"><stop offset="0" stop-color="#258500"/><stop offset="1" stop-color="#37a000"/></linearGradient><linearGradient id="linear-gradient-18" x1="522.77" y1="557.85" x2="598.18" y2="482.44" xlink:href="#linear-gradient-17"/><linearGradient id="linear-gradient-19" x1="480.31" y1="526.32" x2="502.43" y2="504.19" gradientUnits="userSpaceOnUse"><stop offset="0" stop-color="#4db800"/><stop offset="1" stop-color="#3fa900"/></linearGradient><linearGradient id="linear-gradient-20" x1="510.88" y1="512.22" x2="548.41" y2="474.7" xlink:href="#linear-gradient-19"/><linearGradient id="linear-gradient-21" x1="439.63" y1="579.46" x2="453.05" y2="566.05" gradientUnits="userSpaceOnUse"><stop offset="0" stop-color="#085f00"/><stop offset="1" stop-color="#0a6500"/></linearGradient><linearGradient id="linear-gradient-22" x1="442.53" y1="575.23" x2="454.87" y2="562.9" gradientUnits="userSpaceOnUse"><stop offset="0" stop-color="#0c6500"/><stop offset="1" stop-color="#156f00"/></linearGradient><linearGradient id="linear-gradient-23" x1="399.45" y1="578.64" x2="458.74" y2="519.35" gradientUnits="userSpaceOnUse"><stop offset="0" stop-color="#1b7b00"/><stop offset="1" stop-color="#208500"/></linearGradient><linearGradient id="linear-gradient-24" x1="416.47" y1="556.1" x2="472.13" y2="500.45" gradientUnits="userSpaceOnUse"><stop offset="0" stop-color="#309000"/><stop offset="1" stop-color="#177b00"/></linearGradient><linearGradient id="linear-gradient-25" x1="405.6" y1="585.49" x2="449.68" y2="541.41" gradientUnits="userSpaceOnUse"><stop offset="0" stop-color="#217d00"/><stop offset="1" stop-color="#137600"/></linearGradient><linearGradient id="linear-gradient-26" x1="625.16" y1="583.48" x2="638.55" y2="570.1" gradientUnits="userSpaceOnUse"><stop offset="0" stop-color="#0a6500"/><stop offset="1" stop-color="#0e6a00"/></linearGradient><linearGradient id="linear-gradient-27" x1="575.16" y1="536.09" x2="646.36" y2="464.89" gradientUnits="userSpaceOnUse"><stop offset="0" stop-color="#390"/><stop offset="1" stop-color="#42ab00"/></linearGradient><linearGradient id="linear-gradient-28" x1="570.89" y1="491.35" x2="599.31" y2="462.93" gradientUnits="userSpaceOnUse"><stop offset="0" stop-color="#55bd00"/><stop offset="1" stop-color="#46b000"/></linearGradient><linearGradient id="linear-gradient-29" x1="614.4" y1="480.6" x2="614.75" y2="480.26" xlink:href="#linear-gradient-28"/><linearGradient id="linear-gradient-30" x1="420.52" y1="595.25" x2="458.42" y2="557.35" gradientUnits="userSpaceOnUse"><stop offset="0" stop-color="#005f00"/><stop offset="1" stop-color="#0a6700"/></linearGradient><linearGradient id="linear-gradient-31" x1="404.08" y1="589.6" x2="447.18" y2="546.5" gradientUnits="userSpaceOnUse"><stop offset="0" stop-color="#136f00"/><stop offset="1" stop-color="#156f00"/></linearGradient><linearGradient id="linear-gradient-32" x1="411.37" y1="583.99" x2="431.91" y2="563.46" gradientUnits="userSpaceOnUse"><stop offset="0" stop-color="#137600"/><stop offset="1" stop-color="#0e6c00"/></linearGradient><linearGradient id="linear-gradient-33" x1="401.74" y1="595.82" x2="441.72" y2="555.84" gradientUnits="userSpaceOnUse"><stop offset="0" stop-color="#0e6a00"/><stop offset="1" stop-color="#0e6a00"/></linearGradient><linearGradient id="linear-gradient-34" x1="449.12" y1="481.86" x2="451.22" y2="479.76" gradientUnits="userSpaceOnUse"><stop offset="0" stop-color="#51bd00"/><stop offset="1" stop-color="#47ab00"/></linearGradient><linearGradient id="linear-gradient-35" x1="466.59" y1="508.85" x2="518.41" y2="457.02" xlink:href="#linear-gradient-34"/><linearGradient id="linear-gradient-36" x1="431.92" y1="535.59" x2="477.02" y2="490.48" gradientUnits="userSpaceOnUse"><stop offset="0" stop-color="#3c9e00"/><stop offset="1" stop-color="#45a700"/></linearGradient><linearGradient id="linear-gradient-37" x1="-1326.15" y1="1210.78" x2="-1326.07" y2="1210.7" gradientTransform="translate(-230304.35 662753.07) rotate(180) scale(174 547)" gradientUnits="userSpaceOnUse"><stop offset="0" stop-color="#42ab00"/><stop offset="1" stop-color="#4db800"/></linearGradient><linearGradient id="linear-gradient-38" x1="-1305.76" y1="1209.23" x2="-1305.68" y2="1209.14" gradientTransform="translate(-568679.31 1151658.18) rotate(180) scale(436 952)" gradientUnits="userSpaceOnUse"><stop offset="0" stop-color="#3ba200"/><stop offset="1" stop-color="#2f9500"/></linearGradient><linearGradient id="linear-gradient-39" x1="633.27" y1="498.88" x2="636.04" y2="496.12" gradientUnits="userSpaceOnUse"><stop offset="0" stop-color="#0e6c00"/><stop offset="1" stop-color="#309200"/></linearGradient><linearGradient id="linear-gradient-40" x1="587.43" y1="556.31" x2="640.51" y2="503.23" gradientUnits="userSpaceOnUse"><stop offset="0" stop-color="#390"/><stop offset="1" stop-color="#2f9500"/></linearGradient><linearGradient id="linear-gradient-41" x1="606.88" y1="496.94" x2="642.29" y2="461.52" gradientUnits="userSpaceOnUse"><stop offset="0" stop-color="#3e9e00"/><stop offset="1" stop-color="#47ab00"/></linearGradient><linearGradient id="linear-gradient-42" x1="594.74" y1="459.41" x2="603.01" y2="451.14" gradientUnits="userSpaceOnUse"><stop offset="0" stop-color="#42ab00"/><stop offset="1" stop-color="#51b800"/></linearGradient><linearGradient id="linear-gradient-43" x1="614.49" y1="480.01" x2="616.17" y2="478.33" xlink:href="#linear-gradient-42"/><linearGradient id="linear-gradient-44" x1="590.79" y1="513.35" x2="655.08" y2="449.05" gradientUnits="userSpaceOnUse"><stop offset="0" stop-color="#127100"/><stop offset="1" stop-color="#3e9e00"/></linearGradient><linearGradient id="linear-gradient-45" x1="646.06" y1="456.37" x2="655.75" y2="446.68" gradientUnits="userSpaceOnUse"><stop offset="0" stop-color="#0e6a00"/><stop offset="1" stop-color="#2c9200"/></linearGradient><linearGradient id="linear-gradient-46" x1="418.23" y1="494.16" x2="462.12" y2="450.27" gradientUnits="userSpaceOnUse"><stop offset="0" stop-color="#47ab00"/><stop offset="1" stop-color="#4ab400"/></linearGradient><linearGradient id="linear-gradient-47" x1="405.81" y1="522.05" x2="442.4" y2="485.46" gradientUnits="userSpaceOnUse"><stop offset="0" stop-color="#3c9e00"/><stop offset="1" stop-color="#369500"/></linearGradient><linearGradient id="linear-gradient-48" x1="417.56" y1="466.02" x2="439.51" y2="444.06" gradientUnits="userSpaceOnUse"><stop offset="0" stop-color="#55c100"/><stop offset="1" stop-color="#51bd00"/></linearGradient><linearGradient id="linear-gradient-49" x1="417.52" y1="454.43" x2="424.33" y2="447.62" gradientUnits="userSpaceOnUse"><stop offset="0" stop-color="#61d000"/><stop offset="1" stop-color="#5bc900"/></linearGradient><linearGradient id="linear-gradient-50" x1="567.58" y1="457" x2="576.91" y2="447.67" gradientUnits="userSpaceOnUse"><stop offset="0" stop-color="#5cc500"/><stop offset="1" stop-color="#5ec700"/></linearGradient><linearGradient id="linear-gradient-51" x1="479.31" y1="468.01" x2="498.62" y2="448.69" gradientUnits="userSpaceOnUse"><stop offset="0" stop-color="#60ce00"/><stop offset="1" stop-color="#5ec700"/></linearGradient><linearGradient id="linear-gradient-52" x1="468.37" y1="464.75" x2="481.51" y2="451.61" gradientUnits="userSpaceOnUse"><stop offset="0" stop-color="#68d600"/><stop offset="1" stop-color="#67df00"/></linearGradient><linearGradient id="linear-gradient-53" x1="447.74" y1="481.69" x2="450.68" y2="478.75" gradientUnits="userSpaceOnUse"><stop offset="0" stop-color="#57c300"/><stop offset="1" stop-color="#55c300"/></linearGradient><linearGradient id="linear-gradient-54" x1="453.37" y1="494.32" x2="487.55" y2="460.15" xlink:href="#linear-gradient-53"/><linearGradient id="linear-gradient-55" x1="439.86" y1="472.03" x2="467.29" y2="444.6" gradientUnits="userSpaceOnUse"><stop offset="0" stop-color="#51bd00"/><stop offset="1" stop-color="#58c700"/></linearGradient><linearGradient id="linear-gradient-56" x1="425.6" y1="476.92" x2="459.94" y2="442.59" gradientUnits="userSpaceOnUse"><stop offset="0" stop-color="#58c700"/><stop offset="1" stop-color="#60ce00"/></linearGradient><linearGradient id="linear-gradient-57" x1="465.93" y1="456.14" x2="471.64" y2="450.43" gradientUnits="userSpaceOnUse"><stop offset="0" stop-color="#79f100"/><stop offset="1" stop-color="#71e700"/></linearGradient><linearGradient id="linear-gradient-58" x1="447.35" y1="461.46" x2="464" y2="444.82" gradientUnits="userSpaceOnUse"><stop offset="0" stop-color="#65d400"/><stop offset="1" stop-color="#69e100"/></linearGradient><linearGradient id="linear-gradient-59" x1="421.37" y1="587.31" x2="440.42" y2="568.26" gradientUnits="userSpaceOnUse"><stop offset="0" stop-color="#005f00"/><stop offset="1" stop-color="#055f00"/></linearGradient><linearGradient id="linear-gradient-60" x1="417.57" y1="580.56" x2="436.3" y2="561.82" gradientUnits="userSpaceOnUse"><stop offset="0" stop-color="#056200"/><stop offset="1" stop-color="#055f00"/></linearGradient><linearGradient id="linear-gradient-61" x1="545.78" y1="461.95" x2="546.22" y2="461.51" gradientUnits="userSpaceOnUse"><stop offset="0" stop-color="#61d000"/><stop offset="1" stop-color="#63d200"/></linearGradient><linearGradient id="linear-gradient-62" x1="545.91" y1="462.07" x2="546.18" y2="461.8" gradientUnits="userSpaceOnUse"><stop offset="0" stop-color="#60ce00"/><stop offset="1" stop-color="#5bc900"/></linearGradient><linearGradient id="linear-gradient-63" x1="525.72" y1="465.76" x2="541.72" y2="449.76" gradientUnits="userSpaceOnUse"><stop offset="0" stop-color="#66d600"/><stop offset="1" stop-color="#61d000"/></linearGradient><linearGradient id="linear-gradient-64" x1="545.51" y1="462.67" x2="546.8" y2="461.38" gradientUnits="userSpaceOnUse"><stop offset="0" stop-color="#51ba00"/><stop offset="1" stop-color="#58c500"/></linearGradient><linearGradient id="linear-gradient-65" x1="519.59" y1="493.83" x2="554.03" y2="459.38" gradientUnits="userSpaceOnUse"><stop offset="0" stop-color="#51ba00"/><stop offset="1" stop-color="#59c100"/></linearGradient><linearGradient id="linear-gradient-66" x1="548.96" y1="488.82" x2="558.15" y2="479.64" xlink:href="#linear-gradient-65"/><linearGradient id="linear-gradient-67" x1="512.92" y1="479.98" x2="544.93" y2="447.97" gradientUnits="userSpaceOnUse"><stop offset="0" stop-color="#55c300"/><stop offset="1" stop-color="#5bc900"/></linearGradient></defs><g id="Layer_2" data-name="Layer 2"><g id="Logo_PtX_MULTI" data-name="Logo PtX MULTI"><g id="Logo_PtX_MULTI_-_Square" data-name="Logo PtX MULTI - Square"><path class="cls-1" d="M12.77,821.13h.07l2.94-14.56h1.89l-4,18.27h-2L8.87,810.51H8.8L6,824.84H3.87L0,806.57H1.92l3,14.56H5l2.82-14.56H9.89Z"/><path class="cls-1" d="M47.71,821.13h.07l2.94-14.56h1.89l-4,18.27h-2l-2.81-14.33h-.07l-2.81,14.33H38.81l-3.87-18.27h1.92l3,14.56h.06l2.82-14.56h2.11Z"/><path class="cls-1" d="M82.65,821.13h.07l2.94-14.56h1.89l-4,18.27h-2l-2.81-14.33h-.07l-2.81,14.33H73.75l-3.87-18.27H71.8l3,14.56h.06l2.81-14.56h2.12Z"/><path class="cls-1" d="M105.78,824.84v-2.92h2.28v2.92Z"/><path class="cls-1" d="M140.25,821.13h.07l2.94-14.56h1.89l-4,18.27h-2l-2.81-14.33h-.07l-2.81,14.33h-2.12l-3.87-18.27h1.92l3,14.56h.06l2.82-14.56h2.11Z"/><path class="cls-1" d="M163.68,815.27c0-4.1.76-9.16,5.79-9.16s5.69,5.52,5.69,9.53-.53,9.66-5.79,9.66C163.81,825.3,163.68,819.51,163.68,815.27Zm9.56.4c0-2.85-.07-7.87-4-7.87-3.45,0-3.64,5-3.64,7.51,0,2.71-.2,8.3,3.73,8.3S173.24,818.42,173.24,815.67Z"/><path class="cls-1" d="M197.39,808.69h.07a4.15,4.15,0,0,1,4.33-2.58v2c-3-.07-4.3,1.85-4.3,4.73v12h-1.92V806.57h1.82Z"/><path class="cls-1" d="M221.74,824.84V800h1.92v24.82Z"/><path class="cls-1" d="M253.64,800h1.92v24.82h-1.92v-1.72h-.07a4.13,4.13,0,0,1-3.94,2.18c-4.93,0-5.26-6-5.26-9.66s.43-9.53,5.33-9.53a5,5,0,0,1,3.87,1.95h.07Zm-7.35,16c0,2.58.17,7.61,3.77,7.61,3.91,0,3.58-6.19,3.58-8.7s-.17-7.11-3.68-7.11S246.29,813.52,246.29,816Z"/><path class="cls-1" d="M278.05,831.12h-2V806.57H278v1.66h.06a4.35,4.35,0,0,1,3.64-2.12c5,0,5.5,5.23,5.5,9.13s0,10.06-5.33,10.06a4.15,4.15,0,0,1-3.74-1.95h-.07Zm3.64-7.51c3.61,0,3.58-5.33,3.58-7.74s0-8.07-3.51-8.07c-4,0-3.77,5-3.77,7.8S277.79,823.61,281.69,823.61Z"/><path class="cls-1" d="M312,825a6.91,6.91,0,0,1-2.48.1c-1.69-.59-2-1.42-2-3.18V808.26h-1.65v-1.69h1.65v-5.36h1.92v5.36H312v1.69h-2.55v13.47c0,.63.07,1.55,1,1.72a2.54,2.54,0,0,0,1.59,0Z"/><path class="cls-1" d="M335.65,817.09l-3.87,7.75H329.7l4.8-9.57-4.47-8.7h2.15l3.47,7,3.55-7h2.21l-4.56,8.7,4.86,9.57h-2.15Z"/><path class="cls-1" d="M364.84,806.11c3.14,0,5,2,5,5.13h-1.89c-.06-1.92-1.12-3.44-3.14-3.44-1.82,0-2.71,1.12-2.71,2.91a3,3,0,0,0,2.21,2.78c3.25,1.49,6,2.88,6,6.78,0,3.24-2,5-5.19,5-3.58,0-5.33-1.95-5.33-5.43h1.95c.17,2.25,1.16,3.74,3.51,3.74,2,0,3.14-1.52,3.14-3.44,0-4.83-7.94-3.87-8.2-8.8C359.84,808.06,361.49,806.11,364.84,806.11Z"/><path class="cls-1" d="M398.72,806.57h1.92v18.27h-1.86v-1.69h-.06a5.3,5.3,0,0,1-4.6,2.15c-3.35,0-4-2.38-4-5.23v-13.5H392V820.4c0,2.32.89,3.38,3.21,3.21,1.52-.06,2.91-1.59,3.51-3.14Z"/><path class="cls-1" d="M423.17,824.84h-1.92V806.57h1.92v1.62h.06a4.47,4.47,0,0,1,3.87-2.08,3.7,3.7,0,0,1,3.84,2H431a5.08,5.08,0,0,1,4.3-2c3.28,0,4.2,2.08,4.2,5v13.77h-1.92v-14c0-1.52-.59-3.08-2.51-3.08a3.51,3.51,0,0,0-3.74,3.74v13.34h-1.92V811.63c0-2-.23-3.83-2.71-3.83-1.53,0-3.54,1.48-3.54,3.11Z"/><path class="cls-1" d="M461.78,824.84h-1.92V806.57h1.92v1.62h.06a4.49,4.49,0,0,1,3.87-2.08,3.7,3.7,0,0,1,3.84,2h.07a5.08,5.08,0,0,1,4.3-2c3.28,0,4.2,2.08,4.2,5v13.77H476.2v-14c0-1.52-.59-3.08-2.51-3.08A3.51,3.51,0,0,0,470,811.5v13.34H468V811.63c0-2-.23-3.83-2.71-3.83-1.53,0-3.54,1.48-3.54,3.11Z"/><path class="cls-1" d="M499.13,803.16V800h2.22v3.14Zm.13,21.68V806.57h1.92v18.27Z"/><path class="cls-1" d="M527.09,825a6.91,6.91,0,0,1-2.48.1c-1.69-.59-2-1.42-2-3.18V808.26H521v-1.69h1.65v-5.36h1.92v5.36h2.55v1.69h-2.55v13.47c0,.63.07,1.55,1,1.72a2.54,2.54,0,0,0,1.59,0Z"/><path class="cls-1" d="M546.87,824.84v-2.92h2.28v2.92Z"/><path class="cls-1" d="M580.06,818.78c0,3.38-1.23,6.52-5.07,6.52-5.36,0-5.55-5.59-5.55-9.7,0-3.93.43-9.49,5.49-9.49,3.27,0,5,2.81,5,5.85H578c-.07-2.21-1.13-4.23-3.21-4.16-3.61.09-3.44,5.29-3.44,8.14,0,2.54-.07,7.67,3.67,7.67,2.68,0,2.91-2.74,3.11-4.83Z"/><path class="cls-1" d="M599.25,815.27c0-4.1.76-9.16,5.79-9.16s5.69,5.52,5.69,9.53-.53,9.66-5.79,9.66C599.38,825.3,599.25,819.51,599.25,815.27Zm9.56.4c0-2.85-.07-7.87-4-7.87-3.45,0-3.64,5-3.64,7.51,0,2.71-.2,8.3,3.73,8.3S608.81,818.42,608.81,815.67Z"/><path class="cls-1" d="M632.7,824.84h-1.92V806.57h1.92v1.62h.06a4.47,4.47,0,0,1,3.87-2.08,3.7,3.7,0,0,1,3.84,2h.07a5.08,5.08,0,0,1,4.3-2c3.28,0,4.2,2.08,4.2,5v13.77h-1.92v-14c0-1.52-.59-3.08-2.51-3.08a3.51,3.51,0,0,0-3.74,3.74v13.34H639V811.63c0-2-.23-3.83-2.71-3.83-1.53,0-3.54,1.48-3.54,3.11Z"/><path class="cls-1" d="M53.67,579.28H36.05L8.69,451H24.42l16.76,88.41c1.54,8.72,2.74,17.62,3.76,29.59h.35c1.19-9.92,2.22-19.33,4.1-28.56L68.2,451H85.81l16.93,88.41c1.54,8.55,2.57,17.1,3.76,29.59h.35c1.19-9.92,2.22-19.33,4.1-28.56L129.59,451h15.73L115.23,579.28H97.61l-17.1-87c-1.71-8.38-2.73-16.93-3.76-31h-.34c-1.2,12.32-2.22,21.72-4.11,31Z"/><path class="cls-1" d="M187.9,581.84c-20.52,0-34-12.31-34-53.35,0-28.73,10.6-46.86,34-46.86s34,18.13,34,46.86C221.93,569.7,208.76,581.84,187.9,581.84Zm0-88.75c-13.85,0-20,10.94-20,39.67,0,22.4,4.28,37.62,20,37.62,16.08,0,20-15.22,20-37.62C207.91,504,202.09,493.09,187.9,493.09Z"/><path class="cls-1" d="M257.5,499.76h.34c5.64-12.48,13.68-17.78,27.87-16.59v13.34c-17.44-3.08-27.7,7.87-27.7,25.14v57.63H244.5V484.2h13Z"/><path class="cls-1" d="M299.9,579.28V451h13.51V579.28Z"/><path class="cls-1" d="M384.55,451h13.51V579.28h-13V566.79h-.34c-5.82,11.29-11.63,15.05-23.09,15.05-29.92,0-27.53-41.89-27.87-50.27-1-27.88,8.21-49.94,28.56-49.94,9.74,0,15.56,4.11,21.89,12.32h.34Zm0,79.18c0-13-.34-37.11-18.47-37.11-11.29,0-18.64,8.89-18.64,38.13,0,20.52.68,39.16,19.15,39.16,14,0,18-17.61,18-28.38Z"/><path class="cls-2" d="M51.12,631.28c.68-8.85-4.08-15.53-13.49-15.53-13.71,0-15.18,8.61-15.18,15.19,0,5.89,2.6,9.52,8,11.56,4.54,1.7,9,3.4,13.49,5.1,16.09,6,19,11.67,19,22.89C63,686.58,52.93,696,36.61,696c-8.38,0-18.36-2.38-23.23-13.49-1.81-4.19-1.7-11-1.81-15.52H21c-.45,12.58,1.93,20.51,16.1,20.51,9.52,0,16.2-4.87,16.2-14.85,0-12.92-5.21-13-13.82-16.32-4.65-1.81-12.13-4.19-16.66-6.57-8-4.08-10.09-10.88-10.09-19.27,0-14.05,9.86-23.23,23.69-23.23,15.52,0,25,8,24.14,24Z"/><path class="cls-2" d="M129.33,609h9.41V670c-.12,6.68,1,17.45,16.09,17.45S171,676.72,170.92,670V609h9.41v64.49c0,15.18-10.09,22.55-25.5,22.55s-25.5-7.37-25.5-22.55Z"/><path class="cls-2" d="M303.76,609h16.55v85H310.9v-70c0-3.63.23-7.14,0-10.77h-.22c-1,5-1.82,8.16-2.61,11.45L290.27,694H279.05l-17.79-70.38c-.79-3-1.47-5.78-2.49-10.43h-.23c0,3.63.23,7.37.23,11V694h-9.41V609H266l16.66,66.3a74.86,74.86,0,0,1,1.81,12.58h.23a119.17,119.17,0,0,1,2.15-12.69Z"/><path class="cls-2" d="M443.29,609h16.54v85h-9.4v-70c0-3.63.22-7.14,0-10.77h-.23c-1,5-1.81,8.16-2.61,11.45L429.8,694H418.58l-17.8-70.38c-.79-3-1.47-5.78-2.49-10.43h-.23c0,3.63.23,7.37.23,11V694h-9.41V609h16.67l16.66,66.3A75.91,75.91,0,0,1,424,687.83h.23a116.69,116.69,0,0,1,2.15-12.69Z"/><path class="cls-2" d="M530.9,694V609h9.41v85Z"/><path class="cls-2" d="M604.35,609h53.38v8.5h-22V694h-9.41v-76.5h-22Z"/><g id="PtX"><polygon class="cls-3" points="656.1 579.28 641.02 579.28 623.72 573.28 621.93 568.55 621.93 568.54 643.63 550.67 656.1 579.28"/><path class="cls-4" d="M482,524.23l1.57,1.26-.49.23h0Z"/><path class="cls-5" d="M551.31,580.1a91.91,91.91,0,0,1-9.61.54c-14.71,0-22.75-7.53-22.75-22.06V554Z"/><path class="cls-6" d="M483,525.72c-.73.33-1.46.63-2.2.89l1.13-2.38Z"/><path class="cls-7" d="M482,524.23l-1.13,2.38c-9.65,3.47-20.48,2.27-30.63,2.74v4.09l-16-27.36Z"/><path class="cls-8" d="M498.78,472.36c1.76,5.31,2.22,11.09,2.22,17.14a69.34,69.34,0,0,1-1,12.25l-18,22.48Z"/><polygon class="cls-9" points="514.62 483.51 508.19 491.54 508.19 483.51 514.62 483.51"/><polygon class="cls-10" points="598.05 558.98 603.76 557.45 602.01 561.4 598.05 558.98"/><polygon class="cls-11" points="643.63 550.67 621.93 568.54 616.43 554.05 642.1 547.17 643.63 550.67"/><polygon class="cls-12" points="608.99 545.76 603.76 557.45 598.05 558.98 608.99 545.76"/><polygon class="cls-13" points="642.1 547.17 616.43 554.05 611.93 542.21 611.93 542.2 630.27 520.03 642.1 547.17"/><polygon class="cls-14" points="602.01 561.4 597.18 572.21 598.05 558.98 602.01 561.4"/><polygon class="cls-15" points="598.05 558.98 597.18 572.21 594.02 579.28 565.3 579.28 566.58 576.39 598.05 558.98"/><path class="cls-16" d="M557.32,559.93l1.82,0V579.1c-1.34.2-2.67.39-4,.56Z"/><polygon class="cls-17" points="598.05 558.98 566.58 576.39 586.15 532.56 598.05 558.98"/><polygon class="cls-18" points="584.51 451.03 574.57 469.44 568.64 455.33 580.27 451.03 584.51 451.03"/><path class="cls-19" d="M482,524.23l9.69-4.38a24.85,24.85,0,0,1-7.59,5.39c-.18.09-.35.18-.53.25Z"/><path class="cls-20" d="M546.14,503.18v50.45c0,5.47,2.4,6.67,6,6.67a23.39,23.39,0,0,1,5.19-.37l-2.17,19.73c-1.28.16-2.56.31-3.84.44L519,554V507.48l40.19-18.21v13.91Z"/><path class="cls-21" d="M482,524.23l18-22.48c-1.22,6.81-3.72,13.27-8.34,18.1Z"/><polygon class="cls-22" points="559.14 485.43 559.14 489.27 518.95 507.48 518.95 503.18 508.19 503.18 508.19 491.54 514.62 483.51 518.95 483.51 518.95 478.85 546.14 483.3 547.48 483.51 559.14 485.43"/><polygon class="cls-23" points="450.21 575.17 450.21 577.83 440.11 570.04 450.21 575.17"/><polygon class="cls-24" points="450.21 565.7 450.21 575.17 440.11 570.04 450.21 565.7"/><polygon class="cls-25" points="450.21 533.44 450.21 565.7 440.11 570.04 434.19 506.08 450.21 533.44"/><polygon class="cls-26" points="440.11 570.04 420.12 551.92 420.12 514.89 434.19 506.08 440.11 570.04"/><polygon class="cls-27" points="440.11 570.04 420.12 557.11 420.12 551.92 440.11 570.04"/><polygon class="cls-28" points="641.02 579.28 626 579.28 623.72 573.28 641.02 579.28"/><polygon class="cls-29" points="614.89 480.41 598.05 558.98 586.15 532.56 593.85 515.32 580.92 484.55 607.64 481.3 610.78 490.02 611.13 490.02 614.47 480.46 614.89 480.41"/><polygon class="cls-30" points="607.64 481.3 580.92 484.55 574.57 469.44 584.51 451.03 587.41 451.03 602.6 467.27 607.64 481.3"/><polygon class="cls-31" points="614.89 480.41 614.47 480.46 614.6 480.11 614.89 480.41"/><polygon class="cls-32" points="450.21 577.83 450.21 579.28 436.09 579.28 426.56 575.49 440.11 570.04 450.21 577.83"/><polygon class="cls-33" points="440.11 570.04 426.56 575.49 420.12 568.57 420.12 557.11 440.11 570.04"/><polygon class="cls-34" points="426.56 575.49 420.12 572.95 420.12 568.57 426.56 575.49"/><polygon class="cls-35" points="426.56 575.49 420.12 574.09 420.12 572.95 426.56 575.49"/><polygon class="cls-36" points="450.21 480.14 450.21 482.95 448.32 480.49 450.21 480.14"/><path class="cls-37" d="M498.78,472.36h0L482,524.23l-15.8-20.53c.33-.21.65-.44,1-.69,3.08-3.42,3.77-8.55,3.77-13,0-4-.34-9.76-3.22-13l30.75-5.59C498.55,471.71,498.67,472,498.78,472.36Z"/><path class="cls-38" d="M482,524.23,434.2,506.08l14.12-25.59,1.89,2.46v23.31c5.27-.16,11.28.43,16-2.56Z"/><polygon id="triangle36" class="cls-39" points="434.2 506.08 434.03 460.94 448.32 480.49 434.2 506.08"/><polygon id="triangle36-2" data-name="triangle36" class="cls-40" points="614.89 480.41 598.06 558.98 633.85 496.58 614.89 480.41"/><polygon class="cls-41" points="636.09 496.36 635.07 498.8 633.85 496.59 636.09 496.36"/><polygon class="cls-42" points="628.22 515.32 630.27 520.03 611.93 542.2 611.47 540.97 611.13 540.97 608.99 545.76 598.05 558.98 633.85 496.59 635.07 498.8 628.22 515.32"/><polygon class="cls-43" points="633.85 496.59 614.89 480.41 615.14 478.55 615.15 478.54 624.08 453.1 633.85 496.59"/><polygon class="cls-44" points="602.6 467.27 587.41 451.03 596.76 451.03 602.6 467.27"/><polygon class="cls-45" points="615.14 478.55 614.89 480.41 614.6 480.11 615.14 478.55"/><polygon class="cls-46" points="653.25 454.98 636.09 496.36 633.85 496.59 624.08 453.1 624.08 453.1 624.8 451.03 645.61 451.03 653.25 454.98"/><polygon class="cls-47" points="654.9 451.03 653.25 454.98 645.61 451.03 654.9 451.03"/><polygon class="cls-48" points="434.19 506.08 420.12 495.34 420.12 464.39 434.03 460.94 434.19 506.08"/><polygon class="cls-49" points="434.19 506.08 420.12 514.89 420.12 495.34 434.19 506.08"/><polygon class="cls-50" points="434.03 460.94 420.12 464.39 420.12 452.07 421.72 451.03 428.46 451.03 434.03 460.94"/><polygon class="cls-51" points="421.72 451.03 420.12 452.07 420.12 451.03 421.72 451.03"/><polygon class="cls-52" points="580.27 451.03 568.64 455.33 566.83 451.03 580.27 451.03"/><path class="cls-53" d="M498.23,470.83l-29.8-13.69,18.42-.19a22.93,22.93,0,0,1,5.77,4.68A29.86,29.86,0,0,1,498.23,470.83Z"/><path class="cls-54" d="M486.85,457l-18.42.19,2.12-5.25C476.33,452.67,482.11,454.16,486.85,457Z"/><polygon class="cls-55" points="450.21 478.29 450.21 480.14 448.32 480.49 450.21 478.29"/><path class="cls-56" d="M498.44,471.38,467.69,477a7.39,7.39,0,0,0-2.43-1.83c-2.84-1-6.81-1-11.45-1l14.62-17,29.8,13.69Z"/><polygon class="cls-57" points="468.43 457.14 453.81 474.11 450.21 474.11 450.21 478.29 448.32 480.49 434.03 460.94 468.43 457.14"/><polygon class="cls-58" points="468.43 457.14 434.03 460.94 428.46 451.03 441.04 451.03 468.43 457.14"/><path class="cls-59" d="M470.55,451.89l-2.12,5.25-1.35-5.65C468.23,451.59,469.4,451.72,470.55,451.89Z"/><path class="cls-60" d="M468.43,457.14,441,451h14.81c3.42,0,7.28.08,11.23.46Z"/><polygon class="cls-61" points="436.09 579.28 422.71 579.28 426.56 575.49 436.09 579.28"/><polygon class="cls-62" points="426.56 575.49 422.71 579.28 420.12 579.28 420.12 574.09 426.56 575.49"/><polygon class="cls-63" points="546.14 461.42 546.14 461.76 545.85 462 546.14 461.42"/><polygon class="cls-64" points="546.14 461.76 546.14 461.99 545.85 462 546.14 461.76"/><polygon class="cls-65" points="546.14 456.15 546.14 461.42 545.85 462 518.95 459 518.95 456.15 546.14 456.15"/><polygon class="cls-66" points="546.14 461.99 546.14 462.38 545.85 462 546.14 461.99"/><polygon class="cls-67" points="546.14 462.38 546.14 483.3 518.95 478.85 518.95 478.44 545.85 462 546.14 462.38"/><polygon class="cls-68" points="559.14 483.51 559.14 485.43 547.48 483.51 559.14 483.51"/><polygon class="cls-69" points="545.85 462 518.95 478.44 518.95 459 545.85 462"/></g><path class="cls-70" d="M242.61,51.93A51.93,51.93,0,1,1,190.68,0,52,52,0,0,1,242.61,51.93Z"/><path class="cls-71" d="M357.87,401l-15.26,5.77-.41.17-1.17.44h0a.24.24,0,0,1-.1,0,1.4,1.4,0,0,1-.75-.81,2.84,2.84,0,0,1-.06-2.92.84.84,0,0,0,0-.8.9.9,0,0,0-.66-.54h-.09a.85.85,0,0,1-.76-.32.61.61,0,0,1-.06-.56c.12-.36,0-.58-.42-1.05a2.21,2.21,0,0,1-.7-1.8c0-.09,0-.17,0-.27A1.64,1.64,0,0,1,338,397a1.28,1.28,0,0,1,1.06-.18c.22,0,.38,0,.46,0s.17-.19.17-.7a7.28,7.28,0,0,0-1.58-5,22,22,0,0,1-4-7l-.33-.93Q333.42,382,333,381Z"/><path class="cls-72" d="M260.13,178.58l14.94,17.23a9.8,9.8,0,0,1-2.42,0,5,5,0,0,1-3.9-3.58,18.38,18.38,0,0,0-3.7-6.72,4.89,4.89,0,0,0-3.67-1.46c-.45,0-.89,0-1.35-.05Z"/><path class="cls-73" d="M293.71,217.3l-4.18-1.63c0-.16.05-.31.07-.49a1.16,1.16,0,0,1,1.31-.91,1.91,1.91,0,0,1-.07-.28Z"/><path class="cls-74" d="M293.71,217.3l-6.28,7.82c-.25-.41-.51-.83-.76-1.21a2.36,2.36,0,0,1-.37-2.19l.19-.52.52.16a1.86,1.86,0,0,0,1.62,0q.74-.5.9-2.49c0-.32,0-.65,0-1,0-.17,0-.35,0-.51v-.51l.24,0a2.44,2.44,0,0,1-.24-1.16Z"/><path class="cls-75" d="M413.7,370.11c0,.13-.09.24-.13.36a22.42,22.42,0,0,0-1.06,3.25,6.18,6.18,0,0,1-3.45,4.59,8.18,8.18,0,0,0-2.05,1.42l-.54.47a10.47,10.47,0,0,0-2.32,3.15,21,21,0,0,1-1.09,1.8l-.62.91c-1.79,2.62-3.65,5.33-6.6,7a5.61,5.61,0,0,0-1.69,1.56,20.4,20.4,0,0,1-4.34,3.89l-.08.06c-.61.44-1.2.89-1.78,1.35a32.42,32.42,0,0,1-4.31,3l-.43.25c-1.55.88-3.32,1.87-5.52.88a.52.52,0,0,0-.5,0,1,1,0,0,0-.28.8,1,1,0,0,1-.29.77,1,1,0,0,1-.73.26c-.11,0-.24,0-.35,0a1.77,1.77,0,0,1-1-.09c-1.19-.54-1.53-.46-1.94.43a.84.84,0,0,1-.57.45,2.57,2.57,0,0,1-1.82-.21,7.67,7.67,0,0,0-2.58-.78c-.49-.1-1-.18-1.48-.32-.2-.05-.4,0-.74.21a3,3,0,0,1-1.24.36,7.5,7.5,0,0,1-1.68-.21L357.87,401Z"/><path class="cls-76" d="M362.46,405.73h0a6.84,6.84,0,0,0-1.78-.17,3.23,3.23,0,0,0-.88.22l-1.9-4.79Z"/><path class="cls-77" d="M444.65,116,380,113.37,430.6,91.24a3.1,3.1,0,0,0,.39.43.89.89,0,0,1,.26.3s0,.06.07.08a6.86,6.86,0,0,1,3.07,1.88,8,8,0,0,0,1.83,1.35,1.48,1.48,0,0,1,.91,1.5c-.15,1.5.75,2.64,1.63,3.76a1.78,1.78,0,0,1,.44,1.2,20.4,20.4,0,0,0,.41,5c.15,1,.32,2,.4,3a10.39,10.39,0,0,0,.76,2.7c.11.27.22.55.31.84s.33.59,1,.74a3.57,3.57,0,0,1,2.5,1.79A.77.77,0,0,0,444.65,116Z"/><path class="cls-78" d="M452.31,129.65l-40.15,35.26L380,113.37,444.65,116a2.35,2.35,0,0,0,1.05.88l.16.09c2.43,1.37,3.43,3.65,4.33,6.06l0,.08a21.52,21.52,0,0,1,1.47,5.31A2.77,2.77,0,0,0,452.31,129.65Z"/><path class="cls-79" d="M429.42,87.56v1.28c.16.32.29.62.41.93a6.41,6.41,0,0,0,.77,1.47L380,113.37,375.1,67.51,422.6,75a12,12,0,0,1,2.11,3.64A5.48,5.48,0,0,1,426.36,81c.11.26.22.52.35.77a8.49,8.49,0,0,0,3.2,3.36,2.17,2.17,0,0,1,.76.85l0,.07c.51.85.17,1.32-.2,1.56A1,1,0,0,1,429.42,87.56Z"/><path class="cls-80" d="M429.14,351a2.27,2.27,0,0,1-.8,2.32c-.12.13-.23.25-.34.39a7.26,7.26,0,0,1-3.75,2.8l-.27.08a37,37,0,0,0-7.78,2.84,4.44,4.44,0,0,0-1.39,1l.24.86a5.8,5.8,0,0,1,0,2.93,7.9,7.9,0,0,0-.16,1.21,13.89,13.89,0,0,1-1.19,4.75L357.87,401l18.68-170.14,52.72,117A5.28,5.28,0,0,0,429.14,351Z"/><polygon id="triangle36-3" data-name="triangle36" class="cls-81" points="412.16 164.91 352.08 187.16 376.54 230.84 412.16 164.91"/><path class="cls-82" d="M376.55,230.85,357.87,401,333,381a24.46,24.46,0,0,0-2.25-4.56.54.54,0,0,0-.19-.22,19,19,0,0,1-6-7.09l-.19-.37a8.48,8.48,0,0,1-1.29-4.61c0-.05,0-.05,0-.13a16.51,16.51,0,0,1-1.62-7.1,7,7,0,0,0-.91-3c-.08-.18-.17-.36-.26-.54a5.3,5.3,0,0,1-.7-4.28,4.73,4.73,0,0,0-.17-2.25c-.05-.27-.12-.55-.17-.82a2.07,2.07,0,0,0,0-.22,1.55,1.55,0,0,1,0-1.12c.95-2-.18-3.3-1.49-4.83l-.26-.32a24,24,0,0,1-2.51-3.8c-.19-.33-.38-.66-.58-1-1-1.73-1.91-3.56-2.76-5.34A58.9,58.9,0,0,0,308,322.6l0-.07a3.52,3.52,0,0,0-.55-.67,10.59,10.59,0,0,1-3.37-6.39,3.71,3.71,0,0,1,.06-1.63,5.05,5.05,0,0,0-.15-3.25l-.05-.1a1.33,1.33,0,0,1,.64-2,4.17,4.17,0,0,0-.17-.89,4,4,0,0,1-.2-.75c0-.13,0-.24-.05-.35a1.74,1.74,0,0,1,1.13-2.34c.16-.07.2-.49.23-.76l0-.08a18.83,18.83,0,0,1,.84-3.54,14.53,14.53,0,0,0,.85-4.34,4.55,4.55,0,0,1,.36-1.58,3.57,3.57,0,0,0,.33-1.62,1,1,0,0,1,.56-1,.38.38,0,0,0,.11-.08,6.31,6.31,0,0,1,.76-.7c.63-.51,1-.83,1-1.53,0-.21,0-.83,1.44-1.78,2.17-1.42,2.67-2.32,2.59-4.93a6.83,6.83,0,0,1,.19-1.58,2.79,2.79,0,0,1,.07-.4,5.35,5.35,0,0,0-1.17-4,14.62,14.62,0,0,1-2.44-5.5v0a3.19,3.19,0,0,1-.69-2.32,4.14,4.14,0,0,1,1.82-2.5,1.82,1.82,0,0,0-.1-1.08A22.76,22.76,0,0,1,310,261Z"/><path class="cls-74" d="M376.55,230.85,310,261c-.41-1-.78-2.08-1.14-3.11l-.29-.84a5.06,5.06,0,0,0-1-1.46,6.14,6.14,0,0,1-1.21-1.89,9.72,9.72,0,0,1-.32-1.29,3.53,3.53,0,0,0-.91-2.15,1,1,0,0,1,0-1.44c0-.07.12-.18.14-.23a3.57,3.57,0,0,0-.78-1.47,10.17,10.17,0,0,1-1-1.72,6.7,6.7,0,0,0-1.07-1.69c-1.16-1.22-2.29-2.48-3.39-3.71l-2.52-2.77a23.07,23.07,0,0,0-1.92-1.71,16.7,16.7,0,0,1-2.31-2.14L292,233a14.64,14.64,0,0,1-3.11-4.88,15.32,15.32,0,0,0-1.47-3h0l6.28-7.82Z"/><path class="cls-83" d="M423,57.94l-.18.59a16.68,16.68,0,0,0-.9,5.25A2.12,2.12,0,0,1,421,65.9a2.32,2.32,0,0,1-2.21-.06,1.48,1.48,0,0,1-.06,1.15l-.05.11c0,.07-.07.14-.11.2l.19.17a3,3,0,0,1,1,1.87,9.89,9.89,0,0,0,1.1,2.77,16.69,16.69,0,0,1,.78,1.65l.25.31c.25.3.5.59.73.89l-47.5-7.45,2.37-22.63a4.54,4.54,0,0,1,1.86.32c.51.07,1.07.1,1.6.14a9.21,9.21,0,0,1,4,.87,5.67,5.67,0,0,0,1.48.53,5.71,5.71,0,0,1,1.74.68,1.91,1.91,0,0,0,1.07.11,5,5,0,0,1,.79,0,4,4,0,0,1,2.86,1.1c1.06.32,1.8-.3,2.65-1,.17-.15.33-.27.5-.41a20.67,20.67,0,0,1,6.2-3,3.23,3.23,0,0,1,1.87.11c.19.07.39.17.58.25.74.34,1,.43,1.46,0a1.28,1.28,0,0,1,.95-.24.87.87,0,0,1,.66.38,3,3,0,0,0,1.38,1A4.39,4.39,0,0,1,410.94,47c.11,0,.22-.12.46-.36a3.72,3.72,0,0,1,.46-.41,2.17,2.17,0,0,1,2.57-.22,2.17,2.17,0,0,0,2.47-.25,2.87,2.87,0,0,1,1.42-.34h.18a1,1,0,0,1,.84.25,1.07,1.07,0,0,1,.3.86v0a11.33,11.33,0,0,1,1.78,4.07C423.22,53.15,423.7,55.39,423,57.94Z"/><path class="cls-84" d="M377.47,44.88,375.1,67.51l-5.18-24.58a3.9,3.9,0,0,0,.64-.07c2.38-.4,3.08-.25,4.05,2.13.22.53.26.55.85.33A6.63,6.63,0,0,1,377.47,44.88Z"/><path class="cls-85" d="M375.1,67.51,352.23,39.6c.92-.4,1.84-.71,2.68-1a11.36,11.36,0,0,1,5.51-.35,9.07,9.07,0,0,1,1.85.58,7.72,7.72,0,0,0,1.7.52c.8.13.83.94.84,1.24v.16c.07.78.43,1.11,1.27,1.07a4.06,4.06,0,0,1,2.73.81,1.48,1.48,0,0,0,1.11.28Z"/><path class="cls-86" d="M463.86,220.2,461,233.59l-.5.11c-.36.08-.7.3-.69.58a6.74,6.74,0,0,1-1.28,4l-.07.12a21.67,21.67,0,0,0-1.07,2.33c-.3.72-.61,1.46-1,2.16l-.14.28a5.36,5.36,0,0,1-1.15,1.64,4.59,4.59,0,0,0-1.34,2.64,15.63,15.63,0,0,1-1.51,3.57l-.28.52a1.43,1.43,0,0,0,0,1,4.73,4.73,0,0,1,.07.7c0,.54.11.67.69.91a2.32,2.32,0,0,1,1.43,1.76c.06.33.08.33.18.36a1.68,1.68,0,0,1,1.28,1.07,2.06,2.06,0,0,1-.44,2c-.73.87-1,1.38-.47,2.22a1.26,1.26,0,0,1,.21.5v0l-11.54,53.89-.07.05c-.31.19-.62.38-1,.55a21.28,21.28,0,0,0-5.83,5.16l-.33.37c-.11.13-.22.25-.32.38a3.79,3.79,0,0,1-3,1.74,3.26,3.26,0,0,0-1.62,1.27l-.22.3a7.86,7.86,0,0,1-3,2.76c-1,.38-1.07.73-1.29,1.78l0,.11c-.22,1-.23,1.26.53,1.74a2.69,2.69,0,0,1,.82,3c-.26.73,0,1.16.46,1.83a.88.88,0,0,1,1-.38c.62.13.84.63.69,1.47a1,1,0,0,0,0,.17,2,2,0,0,0,0,.4,1.47,1.47,0,0,1-1.11,1.88.2.2,0,0,0,0,.11c1.48.43,1.16,1.61,1,2.18-.06.2-.13.4-.2.58-.26.75-.31,1,.09,1.43s.11,1.13,0,1.27a13.3,13.3,0,0,0-.73,1.8l-52.72-117Z"/><polygon id="triangle36-4" data-name="triangle36" class="cls-87" points="412.16 164.91 376.54 230.84 463.86 220.21 412.16 164.91"/><path class="cls-88" d="M461.07,280.84c0,.07,0,.2,0,.24a1,1,0,0,1-.24.77,1.07,1.07,0,0,1-.93.23h-.12s0,.09,0,.11,0,.18,0,.28a12.92,12.92,0,0,0,.27,3.59,14.07,14.07,0,0,1,.33,3.32,1.85,1.85,0,0,1-.89,1.81,4.09,4.09,0,0,1,.4,1.52,7.32,7.32,0,0,1-.13,1.78,6.82,6.82,0,0,0-.09.79,4.9,4.9,0,0,0,.59,2.34,5.51,5.51,0,0,1,.66,3,4,4,0,0,1-.37,1.21,5.25,5.25,0,0,0-.25.73c-.52,2.59-2.24,4.34-3.91,6.05l-.4.39a24.4,24.4,0,0,1-4.6,4,16.35,16.35,0,0,1-5.43,1.91l-.68.15a7.34,7.34,0,0,0-1.86.86L454.9,262a2.7,2.7,0,0,1-.18,2.22,2.25,2.25,0,0,0,.15,2.76,9.33,9.33,0,0,1,1.16,3.74,11.07,11.07,0,0,0,.52,2.37,2.23,2.23,0,0,0,1.28,1.52c2.3,1,2.78,1.87,2.48,4.49l0,.15s0,.09,0,.15h.07C461.26,279.64,461.12,280.54,461.07,280.84Z"/><path class="cls-89" d="M469.43,224.94v0c-.15.24-.31.49-.47.77a15.32,15.32,0,0,1-1.63,2.42c-.16.18-.33.39-.48.59-.6.84-1.44,2-3.17,1.63a1,1,0,0,0-.05.23c-.3,1.94-.77,2.54-2.63,3l2.86-13.39Z"/><path class="cls-90" d="M488.09,207.77l-.76.41-.44.23a35.83,35.83,0,0,0-6,4.45l-.35.32a63.36,63.36,0,0,0-5.44,5.43l-1.78,1.88c-.35.36-.69.71-1,1a24.07,24.07,0,0,0-2.44,2.73c-.15.22-.29.44-.42.67l-5.57-4.74L474,147l.18-1.34.58,2.61h0l.69,3.06h0l.84,3.72h0Z"/><path class="cls-91" d="M473.12,146l-61,18.91,40.15-35.26c.07.1.14.18.2.28a4.68,4.68,0,0,1,1,1.82.88.88,0,0,0,1,.3c1.18-.39,2.46.55,3.07,1.64a2.56,2.56,0,0,1,.11.24c.09.2.11.2.15.21a12.71,12.71,0,0,1,1.67.91,6.4,6.4,0,0,0,2.18,1c1.41.26,2.08,1.53,2.57,2.47a4.21,4.21,0,0,0,1.83,1.55,6.26,6.26,0,0,1,1.87,1.44l.29.29a2.53,2.53,0,0,1,.72,1,2.9,2.9,0,0,0,2.46,2,1.09,1.09,0,0,1,.3.13A4.2,4.2,0,0,1,473.12,146Z"/><polygon class="cls-92" points="474.14 145.68 473.96 147.02 463.86 220.2 412.16 164.91 473.12 146 474.14 145.68"/><path class="cls-90" d="M474.73,148.3a5.81,5.81,0,0,1,.76,2.51,2,2,0,0,1-.07.55Z"/><path class="cls-93" d="M515.44,167s0,0,0,0a9.3,9.3,0,0,0-1.07,2.35,6.37,6.37,0,0,1-1.67,3,4.05,4.05,0,0,0-1.22,2.44,5.69,5.69,0,0,1-1,2.33,9.87,9.87,0,0,0-2.32,4.43,18.78,18.78,0,0,1-3,6.74c-.42.68-.86,1.4-1.26,2.12-2.8,5-6.75,9.1-10.57,13.07l-1.5,1.57a14.69,14.69,0,0,1-3.7,2.67L476.26,155.1a1.59,1.59,0,0,0,.14.26,6.28,6.28,0,0,0,.31.57,6.6,6.6,0,0,0,4.45,3.39,4.92,4.92,0,0,0,3.61-1.06l.21-.13a17.26,17.26,0,0,1,2.34-1.33,4.13,4.13,0,0,1,3.41.31c.76.36,1.16.15,1.85-.24.48-.28.95-.6,1.42-.91Z"/><path class="cls-94" d="M519,158.89l0,.08a.9.9,0,0,1-.3.68,1.08,1.08,0,0,1-.8.19H517c-.36.15-.4.17-.43.59s0,1,0,1.6c0,1.74,0,3.54-1.1,5L494,156l.66-.44c.41-.29.82-.57,1.25-.84a1.68,1.68,0,0,1,1.86-.07c.79.41,1.61.29,2.88-.4a3.76,3.76,0,0,1,2.63-.65,4.33,4.33,0,0,0,3.11-.23,11.46,11.46,0,0,1,2.83-1,9.31,9.31,0,0,0,2.69-1,.73.73,0,0,0,.28-.2,3.42,3.42,0,0,1,2.24-1.64,3.34,3.34,0,0,1,2.68.59,1.92,1.92,0,0,1,.38,2.49,5.68,5.68,0,0,0,0,3.46c.09.49.2,1,.26,1.55,0,0,.11.1.19.1a1,1,0,0,1,.79.32A1.2,1.2,0,0,1,519,158.89Z"/><polygon id="triangle36-5" data-name="triangle36" class="cls-95" points="412.16 164.91 380.01 113.37 380.3 155.73 412.16 164.91"/><polygon id="triangle36-6" data-name="triangle36" class="cls-72" points="412.16 164.91 352.08 187.16 380.3 155.73 412.16 164.91"/><path class="cls-96" d="M260.13,178.58,260,184a78.1,78.1,0,0,0-9.32.53l-.7.06a10.44,10.44,0,0,0-1.63.36,9.46,9.46,0,0,1-2,.42.72.72,0,0,0-.31.54,1.64,1.64,0,0,1-2.08,1.46c-2.36-.3-4.28.8-6.34,2l-.19.11a18.26,18.26,0,0,1-5.49,1.72l-.17.05-26.22-12.05Z"/><polygon id="triangle36-7" data-name="triangle36" class="cls-79" points="260.14 178.58 228.28 122.83 205.54 179.16 260.14 178.58"/><path class="cls-81" d="M231.76,191.21a3,3,0,0,0-1,.57,3.9,3.9,0,0,1-1.59.8l-.22,0a2.18,2.18,0,0,1-2.1-.4,5.37,5.37,0,0,0-3-1l-1-.16-1.36-.29a16.24,16.24,0,0,0-5.25-.55l-2.71.22a44,44,0,0,0-5.39.63,10.76,10.76,0,0,0-2.24.83,15.34,15.34,0,0,1-2,.81,22.67,22.67,0,0,0-3.36,1.42l-.94.47a2.66,2.66,0,0,1-2.36.08c-.92-.5-1.9-.94-2.83-1.38l-.76-.35,11.86-13.78Z"/><path class="cls-97" d="M205.54,179.16l-11.86,13.78a32.88,32.88,0,0,1-4.26-2.33,15.58,15.58,0,0,1-2.81-2.67,17.14,17.14,0,0,0-2-2.06,9,9,0,0,1-.73-.64,4.13,4.13,0,0,0-2-1.28c-1.19-.24-1.77-.82-1.73-1.71a4.92,4.92,0,0,1-.45-.24Z"/><path class="cls-98" d="M205.54,179.16,179.66,182h0a9.73,9.73,0,0,1-3.21-2.67,6.7,6.7,0,0,0-3.1-1.84l-1-.4c-.39-.18-.76-.39-1.1-.58a4.61,4.61,0,0,0-1.83-.76c-.78-.07-.93-.83-1-1.18l-.14-.61.43-.19a1.68,1.68,0,0,1,.55-.15,1,1,0,0,1-.08-.8,2,2,0,0,0,.12-.61,3,3,0,0,0-1,.25l-1.28.44.56-1.23c.31-.66.29-.82.14-1Z"/><path class="cls-99" d="M228.28,122.83l-22.74,56.33-16.09-67.51c.41,0,.81,0,1.23,0a58.83,58.83,0,0,0,12.38-1.3Z"/><path class="cls-79" d="M205.54,179.16l-37.89-8.45-.07-.07a1,1,0,0,1-.25-1.17.85.85,0,0,1,.36-.35,4.43,4.43,0,0,1-.2-1.59,3.26,3.26,0,0,0-.17-1.31l-.21-.51c-.44-1.15-.62-1.49-1.59-1.24l-.58.14-.13-.58a1,1,0,0,1,.1-.83.89.89,0,0,1,.66-.38s0,0,0,0h0l-.66-.65a5.36,5.36,0,0,0-1.41-1.14,4.59,4.59,0,0,1-1.84-1.72,8.86,8.86,0,0,0-.69-.84.57.57,0,0,1-.26-.56,4.51,4.51,0,0,0-.25-1.59.2.2,0,0,0-.06.07,1.13,1.13,0,0,1-1,.37.77.77,0,0,1-.51-.55,1.7,1.7,0,0,0-.73-.9,2.6,2.6,0,0,1-1-1.43,1.21,1.21,0,0,1-.8.43,1.34,1.34,0,0,0-.75.33,2.55,2.55,0,0,1-1,.48l-.21,0a1.66,1.66,0,0,1-1.58-.18,1.34,1.34,0,0,1-.36-1,.7.7,0,0,1-.26-.2h-.08c-.87-.08-1-.62-1-1.06a.84.84,0,0,1,.59-.84,1.06,1.06,0,0,1-.11-.59,1.08,1.08,0,0,1,.63-.82,2.12,2.12,0,0,1,.76-.25,2.17,2.17,0,0,1-.74-1.59v-.14a.68.68,0,0,0,0-.21c-2.39-.93-2-3.3-1.87-4.2a12.89,12.89,0,0,0,.16-1.51l29.33-31.8h0a57.43,57.43,0,0,0,9.61,1Z"/><path class="cls-100" d="M150.93,139.39a.91.91,0,0,1,.72-.24,1.43,1.43,0,0,1,0-.7s0-.14,0-.19h-.07l-.55-.13.11-.55a3.23,3.23,0,0,0-.65-2.22,7,7,0,0,1-.67-1.44c-.18-.59-.28-.62-.51-.59a1.08,1.08,0,0,1-.84-.24,1.25,1.25,0,0,1-.44-.92,1,1,0,0,1,.81-1.08l.08,0a8.6,8.6,0,0,0,5-7.19,2.41,2.41,0,0,1,.52-1.41,1.08,1.08,0,0,1,.25-.84,1.05,1.05,0,0,1,.29-.81,2,2,0,0,1,.49-.94.94.94,0,0,1,.28-.6.89.89,0,0,1,.31-.57,9.5,9.5,0,0,1,1.2-2.38v0a1.11,1.11,0,0,1,.25-.83,5.15,5.15,0,0,1,.52-2.19,12.12,12.12,0,0,0-.11-2.74,20.35,20.35,0,0,1-.16-2.23,4.72,4.72,0,0,1-.5-.76,3.15,3.15,0,0,0-.38-.59,1.77,1.77,0,0,1,.15-2.51c0-.08,0-.17,0-.27a1.61,1.61,0,0,1,.24-1.23,1.51,1.51,0,0,1,.7-1.06,59.38,59.38,0,0,0,21.89,8.82l-29.33,31.8c.05-.61.06-1.23.07-1.86v-.1a1.84,1.84,0,0,1,.14-.56v0A.81.81,0,0,1,150.93,139.39Z"/><polygon id="triangle36-8" data-name="triangle36" class="cls-95" points="380.3 155.73 380.01 113.37 342.08 187.75 380.3 155.73"/><polygon id="triangle36-9" data-name="triangle36" class="cls-98" points="380.3 155.73 352.08 187.16 342.08 187.75 380.3 155.73"/><polygon id="triangle36-10" data-name="triangle36" class="cls-101" points="380.01 113.37 260.14 178.58 342.08 187.75 380.01 113.37"/><polygon id="triangle36-11" data-name="triangle36" class="cls-91" points="376.54 230.84 352.08 187.16 342.08 187.75 376.54 230.84"/><polygon id="triangle36-12" data-name="triangle36" class="cls-91" points="376.54 230.84 293.71 217.3 342.08 187.75 376.54 230.84"/><path class="cls-73" d="M342.08,187.74,293.71,217.3,290.84,214a1.88,1.88,0,0,1,0-.63,1.43,1.43,0,0,1-1.05-.66,1.64,1.64,0,0,1,.36-1.54l.08-.13c.3-.51.65-1,1-1.46s.49-.69.71-1a1.92,1.92,0,0,0,.24-1.13,20.19,20.19,0,0,1,.62-5.15,1.78,1.78,0,0,0-.66-2,2.72,2.72,0,0,1-1-2.33,4.38,4.38,0,0,1-2.6-.77,2.28,2.28,0,0,1-1-1.72,3.34,3.34,0,0,0-.2-.67l0,0a1.64,1.64,0,0,1-1.46,0,1.41,1.41,0,0,1-.49-.48,2.79,2.79,0,0,1-1.86.34c-.13,0-.26,0-.39,0a6.2,6.2,0,0,0-1.7.32,7.24,7.24,0,0,1-1.84.36,16.44,16.44,0,0,0-2.7.32c-.58.09-1.17.19-1.77.24l-14.94-17.23Z"/><polygon id="triangle36-13" data-name="triangle36" class="cls-102" points="380.01 113.37 375.1 67.52 261.29 54.56 380.01 113.37"/><polygon id="triangle36-14" data-name="triangle36" class="cls-103" points="380.01 113.37 260.14 178.58 261.29 54.56 380.01 113.37"/><path class="cls-104" d="M375.1,67.51,261.29,54.57l29.79-40.32a2.31,2.31,0,0,1,.62.38,1.19,1.19,0,0,1,.44.42,10.36,10.36,0,0,1,2-.27,5.26,5.26,0,0,0,3.05-.86c1.93-1.47,4.25-1,5.82-.45a1.21,1.21,0,0,1,.84,1.42V15a1.45,1.45,0,0,0,.11.56l.08.29a1.48,1.48,0,0,1,.87-.3l0,0a.88.88,0,0,1,.13-1.22.71.71,0,0,1,1,0,1.39,1.39,0,0,0,.47.19,1.63,1.63,0,0,1,1.28,1.1,2,2,0,0,1-.55,2.18c-.2.21-.38.43-.58.67A4.27,4.27,0,0,1,304.75,20a1.09,1.09,0,0,0-.07.64,1.16,1.16,0,0,0,.43.84A3.11,3.11,0,0,1,307,24.23a4.12,4.12,0,0,1-.7,3.3,9.3,9.3,0,0,1-4,3.39c-.7.32-.53.71-.48.87.37.85.75,1.22,1.3,1.3a.24.24,0,0,0,.2-.05.36.36,0,0,0,.09-.12,1.12,1.12,0,0,1,1.33-1.11h.13c.78,0,1.22.46,1.3,1.35a8.88,8.88,0,0,0,.29,1.27,10.52,10.52,0,0,1,.31,1.23c.05.35.64.49,1.35.63l.4.07A7.52,7.52,0,0,1,311,37.47a3.17,3.17,0,0,0,3.23.56,4.41,4.41,0,0,1,3.36,0,6.33,6.33,0,0,0,1.41.32,5.44,5.44,0,0,1,2.54,1,5.62,5.62,0,0,0,1.58.77,3.86,3.86,0,0,1,.58.17,2.89,2.89,0,0,0,.95.19c1.92-.11,2.16,1.5,2.27,2.29.44,3.15,1.77,4.35,4.87,4.42a18.39,18.39,0,0,1,7.14,2,15.62,15.62,0,0,1,3.13,2l.1.07c2.13,1.64,3.45,1.33,5.64-1.34a1.73,1.73,0,0,0,.26-2.48,4.75,4.75,0,0,1,1.42-6.36,14,14,0,0,1,2.72-1.58Z"/><path class="cls-105" d="M291.08,14.25,261.29,54.57l-13.36-35a1,1,0,0,1,.66-.38l0,0a1.43,1.43,0,0,1,1.43-.51h.5c.28,0,.46,0,.55-.1a2,2,0,0,1,1.3-.71,1.61,1.61,0,0,1,1.19.62,1.54,1.54,0,0,0,.38-.28l.07-.08a1.16,1.16,0,0,1,.5-.75,1.12,1.12,0,0,1,.72-.48,1,1,0,0,1,.55-.26,2.21,2.21,0,0,1,.93-.37l.26-.06a2.13,2.13,0,0,1,1.16-.44,1.81,1.81,0,0,0,.35-.07,1,1,0,0,1,.6-.34,1.75,1.75,0,0,1,1.48-.29l.15,0a13.38,13.38,0,0,0,2.67-.08,10.94,10.94,0,0,1,3.61,0,.51.51,0,0,0,.15-.07l.14-.05.11-.12a1.82,1.82,0,0,1,2.32-.53,2.74,2.74,0,0,0,1.93-.08.53.53,0,0,1,.4-.23,18.7,18.7,0,0,1,5.79.35,1,1,0,0,1,.79.28.82.82,0,0,1,.58.37.78.78,0,0,1,.4.55.5.5,0,0,0,.13,0,1.41,1.41,0,0,0,.35,0,1.08,1.08,0,0,1,1.19-.73,3.52,3.52,0,0,0,1.35-.14l.73-.14A1.29,1.29,0,0,1,284,14l.13-.07.63-.51.07.2a1.46,1.46,0,0,1,2,.73l.44.07.51.08.14,0,.17,0,0-.12a1,1,0,0,1,.52-.64,2.07,2.07,0,0,1,1.52.1,3.52,3.52,0,0,0,.42.15C290.72,14.12,290.9,14.17,291.08,14.25Z"/><polygon id="triangle36-15" data-name="triangle36" class="cls-99" points="260.14 178.58 228.28 122.83 261.29 54.56 260.14 178.58"/><path class="cls-106" d="M261.29,54.57l-10.91-4.71A59.25,59.25,0,0,0,242,21.37h.24a6.45,6.45,0,0,1,1.32.17,3.45,3.45,0,0,0,1.58.1,1,1,0,0,1,.62-.36l0,0a1.46,1.46,0,0,1,1.1-.52,1.31,1.31,0,0,0,.29-.06l0-.08.14-.14a1.17,1.17,0,0,1,.5-.74.39.39,0,0,1,.08-.1Z"/><path class="cls-107" d="M261.29,54.57l-33,68.26-25.22-12.45A59.9,59.9,0,0,0,249.54,62.2Z"/><path class="cls-105" d="M249.54,62.2a60,60,0,0,0,.88-10.26c0-.71,0-1.4,0-2.08l10.91,4.71Z"/><path class="cls-108" d="M359.77,405.78a1.51,1.51,0,0,0-.64.49,3.87,3.87,0,0,1-3.6,1.29l2.34-6.57Z"/><path class="cls-71" d="M341,407.37l1.17-.44a1.19,1.19,0,0,1-.48.37A.93.93,0,0,1,341,407.37Z"/><path class="cls-109" d="M357.87,401l-2.34,6.57h0a10.38,10.38,0,0,0-1.13,0,15,15,0,0,0-3.4.83,4.55,4.55,0,0,1-2.83,1.29,5.59,5.59,0,0,1-2.81-1,2.49,2.49,0,0,1-.74-.79c-.22-.33-.34-.5-.58-.56l-.18,0a2.57,2.57,0,0,1-1.24-.55Z"/><rect class="cls-1" y="735.26" width="145.92" height="30.77"/><rect class="cls-1" x="511.82" y="735.26" width="145.92" height="30.77"/><path class="cls-1" d="M183,743.67h-6.31V741.1c4.22-.08,6.55-.86,7-5.48h2.56v29.6H183Z"/><path class="cls-1" d="M195.27,754.36v-3.27h9.59v3.27Z"/><path class="cls-1" d="M214.06,748.48c2.6-.15,6.12.4,6.12-5.05,0-2.88-.87-4.85-4.15-4.85-3.71,0-4.22,2.76-4.22,5.8h-3.12c-.16-5,2.05-8.76,7.42-8.76,4.42,0,7.38,2.88,7.38,7.34,0,3.19-1,5.52-4.14,6.63v.08c3.43.75,4.93,3.47,4.93,6.82,0,5.53-2.45,9.32-8.33,9.32s-7.93-3.91-7.81-9.28h3.24c-.28,3.16.63,6.32,4.85,6.32,3.24,0,4.78-2.25,4.78-5.29,0-5.17-2-6.16-6.95-6.12Z"/><path class="cls-1" d="M239.48,765.22v-29.6h8.13c9.23,0,10.49,7.5,10.26,14.8s-1.66,14.8-9.67,14.8Zm3.27-3H248c4.82,0,6.79-3.59,6.47-12.43-.23-6.75-1.18-11.25-6.47-11.25h-5.25Z"/><path class="cls-1" d="M275.78,757.92c.2,4.3-2,7.89-6.63,7.89-4.14,0-7.1-2.76-7.1-11.6,0-4.62,1.22-11.53,7-11.53,7.1,0,6.7,6.71,6.86,11.84H265.29c.08,3-.44,8.64,3.94,8.64,3,0,3.83-2.76,3.63-5.24Zm-3.07-6c-.12-2.57,0-6.63-3.6-6.63s-3.71,4-3.82,6.63Z"/><path class="cls-1" d="M282.85,755.19c0,2.88.2,8,4.18,8,3.4,0,3.71-2.92,3.87-5.6h3c-.12,4.22-1.7,8.25-6.59,8.25-6.71,0-7.66-5.61-7.66-11.29,0-5.37.87-11.84,7.58-11.84,4.42,0,6.55,3.44,6.51,7.5h-2.92c0-2.41-.67-4.85-3.63-4.85C282.61,745.33,282.85,752.07,282.85,755.19Z"/><path class="cls-1" d="M310.83,757.92c.2,4.3-2,7.89-6.63,7.89-4.14,0-7.1-2.76-7.1-11.6,0-4.62,1.22-11.53,7-11.53,7.1,0,6.71,6.71,6.87,11.84H300.33c.08,3-.43,8.64,3.95,8.64,3,0,3.83-2.76,3.63-5.24Zm-3.08-6c-.12-2.57,0-6.63-3.59-6.63s-3.71,4-3.83,6.63Z"/><path class="cls-1" d="M319,765.22h-3.12v-22h3v2.81H319a6.16,6.16,0,0,1,5.21-3.4,5.73,5.73,0,0,1,5.21,3.47c1.54-2.24,3.12-3.47,5.88-3.47a5.87,5.87,0,0,1,4,1.54c1.42,1.3,1.34,3.75,1.34,5.13v15.87h-3.11V749.15c0-2.44-.67-3.82-3.36-3.82a4.54,4.54,0,0,0-2.92,1.22,4.73,4.73,0,0,0-1.42,4v14.68h-3.12V749.15c0-2.28-.75-3.82-3.27-3.82a4.45,4.45,0,0,0-3.08,1.22c-1.26,1.14-1.34,2.41-1.34,4Z"/><path class="cls-1" d="M349.43,765.22h-2.84v-29.6h3.11v9.9h.08c1.23-2,2.65-2.84,4.58-2.84,5.56,0,6.91,5.65,6.91,10.14,0,6.24-.83,13-6.75,13a5.15,5.15,0,0,1-5-3.2h-.08Zm4.46-2.06c3.23,0,4.14-3.39,4.14-9.31,0-2.88-.2-8.52-4.18-8.52-4.62,0-4.34,6.27-4.34,9.47S349.47,763.16,353.89,763.16Z"/><path class="cls-1" d="M378.79,757.92c.2,4.3-2,7.89-6.63,7.89-4.14,0-7.1-2.76-7.1-11.6,0-4.62,1.22-11.53,7-11.53,7.11,0,6.71,6.71,6.87,11.84H368.29c.08,3-.43,8.64,3.95,8.64,3,0,3.83-2.76,3.63-5.24Zm-3.08-6c-.12-2.57,0-6.63-3.59-6.63s-3.71,4-3.83,6.63Z"/><path class="cls-1" d="M387.08,746.87h.08c1.3-2.89,3.15-4.11,6.43-3.83v3.08c-4-.71-6.39,1.81-6.39,5.8v13.3h-3.12v-22h3Z"/><path class="cls-1" d="M411.15,758a5.51,5.51,0,0,0-2.13,4.3h12.51v3h-15.9a17.29,17.29,0,0,1,1.18-6.4,10.47,10.47,0,0,1,2.33-3l5.64-5.44c2.29-2.21,3.08-3.4,3.08-6.63,0-3-1-5.21-4.38-5.21-4.06,0-4.42,4-4.34,7.1h-3.28v-1.81a9.32,9.32,0,0,1,1.9-5.92,7.52,7.52,0,0,1,5.88-2.33c5.05,0,7.62,3.35,7.62,8.25,0,4.34-1.74,6.47-4.78,9.23Z"/><path class="cls-1" d="M425.44,750.65c0-5.52.35-15,8.05-15,8.29,0,8.09,9.39,8.09,15,0,6.71-.35,15.16-8.09,15.16S425.44,755.9,425.44,750.65Zm8.05,12.2c4.89,0,4.7-7,4.7-12.71,0-4.18.43-11.21-4.7-11.56s-4.66,8.84-4.66,11.56C428.83,755.82,428,762.85,433.49,762.85Z"/><path class="cls-1" d="M450.62,758a5.51,5.51,0,0,0-2.13,4.3H461v3H445.09a17.31,17.31,0,0,1,1.19-6.4,10.29,10.29,0,0,1,2.33-3l5.64-5.44c2.29-2.21,3.08-3.4,3.08-6.63,0-3-1-5.21-4.38-5.21-4.07,0-4.42,4-4.34,7.1h-3.28v-1.81a9.32,9.32,0,0,1,1.89-5.92,7.53,7.53,0,0,1,5.88-2.33c5.06,0,7.62,3.35,7.62,8.25,0,4.34-1.74,6.47-4.77,9.23Z"/><path class="cls-1" d="M464.91,750.65c0-5.52.35-15,8-15,8.28,0,8.09,9.39,8.09,15,0,6.71-.36,15.16-8.09,15.16C465.06,765.81,464.91,755.9,464.91,750.65Zm8,12.2c4.89,0,4.69-7,4.69-12.71,0-4.18.44-11.21-4.69-11.56s-4.66,8.84-4.66,11.56C468.3,755.82,467.51,762.85,473,762.85Z"/></g></g></g></svg>