<svg xmlns="http://www.w3.org/2000/svg" viewBox="0 0 657.73 823.46"><defs><style>.cls-1{fill:#fff;}</style></defs><g id="Layer_2" data-name="Layer 2"><g id="Logo_PtX_MONO" data-name="Logo PtX MONO"><path id="Logo_PtX_MONO_-_Square" data-name="Logo PtX MONO - Square" class="cls-1" d="M12.77,813.47h.07l2.94-14.56h1.89l-4,18.27h-2L8.87,802.85H8.8L6,817.18H3.87L0,798.91H1.92l3,14.56H5l2.82-14.56H9.89Zm34.94,0h.07l2.94-14.56h1.89l-4,18.27h-2l-2.81-14.33h-.07l-2.81,14.33H38.81l-3.87-18.27h1.92l3,14.56h.06l2.82-14.56h2.11Zm34.94,0h.07l2.94-14.56h1.89l-4,18.27h-2l-2.81-14.33h-.07l-2.81,14.33H73.75l-3.87-18.27H71.8l3,14.56h.06l2.81-14.56h2.12Zm23.13,3.71v-2.92h2.28v2.92Zm34.47-3.71h.07l2.94-14.56h1.89l-4,18.27h-2l-2.81-14.33h-.07l-2.81,14.33h-2.12l-3.87-18.27h1.92l3,14.56h.06l2.82-14.56h2.11Zm23.43-5.86c0-4.1.76-9.16,5.79-9.16s5.69,5.52,5.69,9.53-.53,9.66-5.79,9.66C163.81,817.64,163.68,811.85,163.68,807.61Zm9.56.4c0-2.84-.07-7.87-4-7.87-3.45,0-3.64,5-3.64,7.51,0,2.71-.2,8.3,3.73,8.3S173.24,810.76,173.24,808Zm24.15-7h.07a4.16,4.16,0,0,1,4.33-2.58v2c-3-.07-4.3,1.85-4.3,4.73v12h-1.92V798.91h1.82Zm24.35,16.15V792.36h1.92v24.82Zm31.9-24.82h1.92v24.82h-1.92v-1.72h-.07a4.11,4.11,0,0,1-3.94,2.18c-4.93,0-5.26-6-5.26-9.66s.43-9.53,5.33-9.53a5,5,0,0,1,3.87,1.95h.07Zm-7.35,16c0,2.58.17,7.61,3.77,7.61,3.91,0,3.58-6.19,3.58-8.7s-.17-7.11-3.68-7.11S246.29,805.86,246.29,808.34Zm31.76,15.12h-2V798.91H278v1.66h.06a4.35,4.35,0,0,1,3.64-2.12c5,0,5.5,5.23,5.5,9.13s0,10.06-5.33,10.06a4.15,4.15,0,0,1-3.74-1.95h-.07Zm3.64-7.51c3.61,0,3.58-5.33,3.58-7.74s0-8.07-3.51-8.07c-4,0-3.77,5-3.77,7.8S277.79,816,281.69,816ZM312,817.34a6.91,6.91,0,0,1-2.48.1c-1.69-.59-2-1.42-2-3.18V800.6h-1.65v-1.69h1.65v-5.36h1.92v5.36H312v1.69h-2.55v13.47c0,.63.07,1.55,1,1.72a2.54,2.54,0,0,0,1.59,0Zm23.62-7.91-3.87,7.75H329.7l4.8-9.57-4.47-8.7h2.15l3.47,7.05,3.55-7.05h2.21l-4.56,8.7,4.86,9.57h-2.15Zm29.19-11c3.14,0,5,2,5,5.13h-1.89c-.06-1.92-1.12-3.44-3.14-3.44-1.82,0-2.71,1.12-2.71,2.91a3,3,0,0,0,2.21,2.78c3.25,1.49,6,2.88,6,6.78,0,3.24-2,5-5.19,5-3.58,0-5.33-1.95-5.33-5.43h1.95c.17,2.25,1.16,3.74,3.51,3.74,2,0,3.14-1.52,3.14-3.44,0-4.83-7.94-3.87-8.2-8.8C359.84,800.4,361.49,798.45,364.84,798.45Zm33.88.46h1.92v18.27h-1.86v-1.69h-.06a5.3,5.3,0,0,1-4.6,2.15c-3.35,0-4-2.38-4-5.23v-13.5H392v13.83c0,2.32.89,3.38,3.21,3.21,1.52-.06,2.91-1.59,3.51-3.14Zm24.45,18.27h-1.92V798.91h1.92v1.62h.06a4.47,4.47,0,0,1,3.87-2.08,3.7,3.7,0,0,1,3.84,2H431a5.08,5.08,0,0,1,4.3-2c3.28,0,4.2,2.08,4.2,5v13.77h-1.92v-14c0-1.52-.59-3.08-2.51-3.08a3.51,3.51,0,0,0-3.74,3.74v13.34h-1.92V804c0-2.05-.23-3.83-2.71-3.83-1.53,0-3.54,1.48-3.54,3.11Zm38.61,0h-1.92V798.91h1.92v1.62h.06a4.49,4.49,0,0,1,3.87-2.08,3.7,3.7,0,0,1,3.84,2h.07a5.08,5.08,0,0,1,4.3-2c3.28,0,4.2,2.08,4.2,5v13.77H476.2v-14c0-1.52-.59-3.08-2.51-3.08a3.51,3.51,0,0,0-3.74,3.74v13.34H468V804c0-2.05-.23-3.83-2.71-3.83-1.53,0-3.54,1.48-3.54,3.11Zm37.35-21.68v-3.14h2.22v3.14Zm.13,21.68V798.91h1.92v18.27Zm27.83.16a6.91,6.91,0,0,1-2.48.1c-1.69-.59-2-1.42-2-3.18V800.6H521v-1.69h1.65v-5.36h1.92v5.36h2.55v1.69h-2.55v13.47c0,.63.07,1.55,1,1.72a2.54,2.54,0,0,0,1.59,0Zm19.78-.16v-2.92h2.28v2.92Zm33.19-6.06c0,3.38-1.23,6.52-5.07,6.52-5.36,0-5.55-5.59-5.55-9.7,0-3.93.43-9.49,5.49-9.49,3.27,0,5,2.81,5,5.85H578c-.07-2.21-1.13-4.23-3.21-4.16-3.61.09-3.44,5.29-3.44,8.14,0,2.54-.07,7.67,3.67,7.67,2.68,0,2.91-2.74,3.11-4.83Zm19.19-3.51c0-4.1.76-9.16,5.79-9.16s5.69,5.52,5.69,9.53-.53,9.66-5.79,9.66C599.38,817.64,599.25,811.85,599.25,807.61Zm9.56.4c0-2.84-.07-7.87-4-7.87-3.45,0-3.64,5-3.64,7.51,0,2.71-.2,8.3,3.73,8.3S608.81,810.76,608.81,808Zm23.89,9.17h-1.92V798.91h1.92v1.62h.06a4.47,4.47,0,0,1,3.87-2.08,3.7,3.7,0,0,1,3.84,2h.07a5.08,5.08,0,0,1,4.3-2c3.28,0,4.2,2.08,4.2,5v13.77h-1.92v-14c0-1.52-.59-3.08-2.51-3.08a3.51,3.51,0,0,0-3.74,3.74v13.34H639V804c0-2.05-.23-3.83-2.71-3.83-1.53,0-3.54,1.48-3.54,3.11Zm-579-245.56H36.05L8.69,443.36H24.42l16.76,88.41c1.54,8.72,2.74,17.62,3.76,29.59h.35c1.19-9.92,2.22-19.33,4.1-28.56L68.2,443.36H85.81l16.93,88.41c1.54,8.55,2.57,17.1,3.76,29.59h.35c1.19-9.92,2.22-19.33,4.1-28.56l18.64-89.44h15.73L115.23,571.62H97.61l-17.1-87c-1.71-8.38-2.73-16.93-3.76-31h-.34c-1.2,12.32-2.22,21.72-4.11,31Zm134.23,2.56c-20.52,0-34-12.31-34-53.35,0-28.73,10.6-46.86,34-46.86s34,18.13,34,46.86C221.93,562,208.76,574.18,187.9,574.18Zm0-88.75c-13.85,0-20,10.95-20,39.67,0,22.41,4.28,37.62,20,37.62,16.08,0,20-15.21,20-37.62C207.91,496.38,202.09,485.43,187.9,485.43Zm69.6,6.67h.34c5.64-12.48,13.68-17.78,27.87-16.59v13.34C268.27,485.77,258,496.72,258,514v57.63H244.5V476.54h13Zm42.4,79.52V443.36h13.51V571.62Zm84.65-128.26h13.51V571.62h-13V559.13h-.34c-5.82,11.29-11.63,15-23.09,15-29.92,0-27.53-41.89-27.87-50.27C332.73,496,342,474,362.32,474c9.74,0,15.56,4.11,21.89,12.32h.34Zm0,79.18c0-13-.34-37.11-18.47-37.11-11.29,0-18.64,8.89-18.64,38.14,0,20.52.68,39.15,19.15,39.15,14,0,18-17.61,18-28.38ZM51.12,623.62c.68-8.84-4.08-15.53-13.49-15.53-13.71,0-15.18,8.61-15.18,15.19,0,5.89,2.6,9.52,8,11.56,4.54,1.7,9,3.4,13.49,5.1,16.09,6,19,11.67,19,22.89,0,16.09-10.09,25.5-26.41,25.5-8.38,0-18.36-2.38-23.23-13.49-1.81-4.19-1.7-11-1.81-15.52H21c-.45,12.58,1.93,20.51,16.1,20.51,9.52,0,16.2-4.87,16.2-14.85,0-12.92-5.21-13-13.82-16.32-4.65-1.81-12.13-4.19-16.66-6.57-8-4.08-10.09-10.88-10.09-19.27,0-14.05,9.86-23.23,23.69-23.23,15.52,0,25,8,24.14,24Zm78.21-22.33h9.41v61.09c-.12,6.68,1,17.45,16.09,17.45s16.21-10.77,16.09-17.45V601.29h9.41v64.49c0,15.18-10.09,22.55-25.5,22.55s-25.5-7.37-25.5-22.55Zm174.43,0h16.55v85H310.9v-70c0-3.63.23-7.14,0-10.77h-.22c-1,5-1.82,8.16-2.61,11.45l-17.8,69.36H279.05l-17.79-70.38c-.79-2.95-1.47-5.78-2.49-10.43h-.23c0,3.63.23,7.37.23,11v69.81h-9.41v-85H266l16.66,66.3a74.86,74.86,0,0,1,1.81,12.58h.23a119.17,119.17,0,0,1,2.15-12.69Zm139.53,0h16.54v85h-9.4v-70c0-3.63.22-7.14,0-10.77h-.23c-1,5-1.81,8.16-2.61,11.45L429.8,686.29H418.58l-17.8-70.38c-.79-2.95-1.47-5.78-2.49-10.43h-.23c0,3.63.23,7.37.23,11v69.81h-9.41v-85h16.67l16.66,66.3A75.91,75.91,0,0,1,424,680.17h.23a116.69,116.69,0,0,1,2.15-12.69Zm87.61,85v-85h9.41v85Zm73.45-85h53.38v8.5h-22v76.5h-9.41v-76.5h-22ZM420.11,571.62V443.36h35.74c11.63,0,28.39,1,36.77,10.61,7,7.86,8.38,17.44,8.38,27.87,0,13.85-3.25,29.41-16.93,35.74-10.43,5.13-22.57,3.59-33.86,4.1v49.94Zm30.1-73c5.64-.17,12.14.51,16.93-3.25,3.08-3.42,3.76-8.55,3.76-13,0-5-.51-12.48-5.64-14.87-2.91-1-7-1-11.8-1h-3.25Zm58-3.08V475.86H519V448.49h27.19v27.37h13v19.66h-13V546c0,5.47,2.4,6.67,6,6.67a32.22,32.22,0,0,1,7-.35v19.16A118.86,118.86,0,0,1,541.7,573C527,573,519,565.46,519,550.93V495.52Zm102.6-13.17h.34l13.68-39h30.1l-26.68,64.3,27.88,64H626l-14.54-38.31h-.34L594,571.62H565.29l28.56-64-27-64.3h29.93ZM496.4,155a.81.81,0,0,0-.68-.31c-.07,0-.15-.09-.16-.09-.05-.53-.14-1-.23-1.54a6.46,6.46,0,0,1,0-3.38,2.06,2.06,0,0,0-.33-2.45,2.6,2.6,0,0,0-2.3-.58,3,3,0,0,0-1.94,1.61.92.92,0,0,1-.24.21,7.78,7.78,0,0,1-2.33,1,9,9,0,0,0-2.45,1,3.3,3.3,0,0,1-2.68.23,3,3,0,0,0-2.29.64c-1.09.68-1.81.79-2.48.38a1.32,1.32,0,0,0-1.61.07c-.37.27-.73.55-1.09.83-.58.45-1.18.91-1.79,1.32s-.94.59-1.59.25a3.23,3.23,0,0,0-3-.32,16,16,0,0,0-2,1.31l-.17.13a3.85,3.85,0,0,1-3.12,1,5.83,5.83,0,0,1-3.85-3.32c-.1-.18-.19-.37-.28-.55a4.15,4.15,0,0,0-2-2.29,1.84,1.84,0,0,0-.58-.15,2.07,2.07,0,0,1,.69-.47A1.4,1.4,0,0,0,459,148c0-1.76-1.82-5.09-3.22-5.76a1.18,1.18,0,0,0-.27-.12,2.63,2.63,0,0,1-2.12-2,2.63,2.63,0,0,0-.63-1,3.36,3.36,0,0,1-.24-.29,5.54,5.54,0,0,0-1.62-1.39,3.72,3.72,0,0,1-1.58-1.54c-.43-.91-1-2.16-2.22-2.41a5.31,5.31,0,0,1-1.9-1,8.69,8.69,0,0,0-1.44-.89s-.05,0-.12-.21a2.56,2.56,0,0,0-.11-.24c-.52-1.07-1.62-2-2.65-1.61a.71.71,0,0,1-.89-.3,5,5,0,0,0-.85-1.78,3.29,3.29,0,0,1-.7-1.52,23.5,23.5,0,0,0-1.28-5.21l0-.09c-.78-2.36-1.65-4.59-3.75-5.94l-.13-.08a2,2,0,0,1-1-1,3.15,3.15,0,0,0-2.17-1.76,1,1,0,0,1-.83-.72c-.08-.28-.17-.55-.27-.83a11.18,11.18,0,0,1-.65-2.64c-.07-1-.22-2-.35-3a24.4,24.4,0,0,1-.37-4.86,1.7,1.7,0,0,0-.38-1.17,5.6,5.6,0,0,1-1.4-3.69,1.48,1.48,0,0,0-.78-1.47,7,7,0,0,1-1.59-1.34,5.83,5.83,0,0,0-2.65-1.83l-.06-.08a1.34,1.34,0,0,0-.22-.3,4.71,4.71,0,0,1-1-1.86c-.1-.3-.22-.6-.35-.9v-.38c0-.29,0-.59,0-.88a.74.74,0,0,0,.95.07c.32-.23.61-.68.18-1.52l0-.06a2.15,2.15,0,0,0-.65-.85,7.94,7.94,0,0,1-2.78-3.3c-.11-.24-.2-.49-.3-.75a5.29,5.29,0,0,0-1.43-2.39,14,14,0,0,0-2.44-4.45l-.22-.29c-.2-.57-.44-1.11-.68-1.63a11,11,0,0,1-1-2.71A3,3,0,0,0,410,66.2L409.8,66c0-.06.06-.13.09-.2l0-.1a1.52,1.52,0,0,0,.05-1.13,1.8,1.8,0,0,0,1.92.06,2.2,2.2,0,0,0,.79-2.08,17.92,17.92,0,0,1,.78-5.16l.14-.58a8.55,8.55,0,0,0-1.35-7.12,12,12,0,0,0-1.54-4v0a1.21,1.21,0,0,0-.25-.86.9.9,0,0,0-.73-.25h-.15a2.18,2.18,0,0,0-1.24.34c-.85.61-1.49.68-2.13.24a1.72,1.72,0,0,0-2.23.22,2.94,2.94,0,0,0-.39.4c-.21.24-.31.33-.41.35a3.56,3.56,0,0,0-1.54-1.28,2.61,2.61,0,0,1-1.19-1,.73.73,0,0,0-.57-.36.93.93,0,0,0-.82.22c-.37.39-.63.31-1.27,0-.17-.08-.33-.17-.49-.23a2.33,2.33,0,0,0-1.62-.11,16.94,16.94,0,0,0-5.36,2.92l-.44.39c-.73.69-1.38,1.29-2.29,1a3.18,3.18,0,0,0-2.46-1.08,5.37,5.37,0,0,0-.7,0,1.28,1.28,0,0,1-.91-.11,4.91,4.91,0,0,0-1.52-.66,4.53,4.53,0,0,1-1.27-.52,7.14,7.14,0,0,0-3.48-.85c-.46,0-.94-.07-1.39-.14a4,4,0,0,0-3.34.12c-.51.22-.55.2-.74-.32-.83-2.33-1.44-2.49-3.5-2.1-.67.13-1.15.14-1.51-.19a3.19,3.19,0,0,0-2.37-.8c-.71,0-1-.28-1.08-1.06a.76.76,0,0,1,0-.15c0-.3,0-1.09-.72-1.21a6.71,6.71,0,0,1-1.48-.52,7.07,7.07,0,0,0-1.6-.57,8.59,8.59,0,0,0-4.75.35,13.92,13.92,0,0,0-4.68,2.5,5.09,5.09,0,0,0-1.22,6.25,1.88,1.88,0,0,1-.23,2.44c-1.89,2.61-3,2.92-4.88,1.3l-.08-.06a13.14,13.14,0,0,0-2.71-2,14.55,14.55,0,0,0-6.17-2c-2.68-.06-3.82-1.24-4.21-4.34-.09-.76-.3-2.35-2-2.24a2.14,2.14,0,0,1-.82-.19,4.83,4.83,0,0,0-.5-.16,4.86,4.86,0,0,1-1.38-.76,4.31,4.31,0,0,0-2.19-1,5.47,5.47,0,0,1-1.22-.31,3.4,3.4,0,0,0-2.9-.06c-.84.44-1.7.27-2.79-.54a6.25,6.25,0,0,0-2.21-1.09l-.34-.08c-.61-.13-1.12-.26-1.17-.62a10.57,10.57,0,0,0-.26-1.2,7.26,7.26,0,0,1-.25-1.23c-.07-.88-.45-1.33-1.13-1.33h-.11c-.29,0-1.06,0-1.15,1.09a.2.2,0,0,1-.08.12.16.16,0,0,1-.17,0c-.48-.07-.8-.44-1.12-1.28,0-.15-.2-.53.41-.84A8.44,8.44,0,0,0,312.71,27a4.52,4.52,0,0,0,.61-3.25,3.1,3.1,0,0,0-1.61-2.72,1.13,1.13,0,0,1-.37-.82,1,1,0,0,1,.06-.62,3.83,3.83,0,0,0,1.67-1.55,7,7,0,0,1,.51-.65,2.18,2.18,0,0,0,.48-2.14A1.42,1.42,0,0,0,313,14.2a1.06,1.06,0,0,1-.4-.2.57.57,0,0,0-.91,0,1,1,0,0,0-.11,1.2h0a1.2,1.2,0,0,0-.75.31c0-.1-.05-.2-.08-.29a2.15,2.15,0,0,1-.09-.56v-.06a1.21,1.21,0,0,0-.73-1.39c-1.36-.5-3.36-1-5,.44a4.18,4.18,0,0,1-2.64.84,8.56,8.56,0,0,0-1.71.27.91.91,0,0,0-.38-.41,2.41,2.41,0,0,0-1-.56,3.17,3.17,0,0,1-.37-.15,1.63,1.63,0,0,0-1.32-.1.93.93,0,0,0-.45.62.55.55,0,0,1,0,.12l-.13,0-.12,0-.45-.08a3.7,3.7,0,0,1-.38-.07,1.19,1.19,0,0,0-1.71-.72l-.07-.19-.54.5a.41.41,0,0,1-.11.07,1.13,1.13,0,0,0-.52.57l-.63.14a2.79,2.79,0,0,1-1.16.13c-.22,0-.73-.05-1,.71a.93.93,0,0,1-.31,0l-.11,0a.7.7,0,0,0-.34-.54.69.69,0,0,0-.5-.37.8.8,0,0,0-.69-.27,14.2,14.2,0,0,0-5-.36.48.48,0,0,0-.35.23,2.06,2.06,0,0,1-1.66.08,1.47,1.47,0,0,0-2,.52l-.1.12-.11.06-.14.06a8.35,8.35,0,0,0-3.11,0,9.1,9.1,0,0,1-2.32.08l-.12,0a1.35,1.35,0,0,0-1.27.28.87.87,0,0,0-.53.35l-.3.06a1.7,1.7,0,0,0-1,.42l-.22.06a1.79,1.79,0,0,0-.82.37.81.81,0,0,0-.47.25,1,1,0,0,0-.62.48,1.13,1.13,0,0,0-.43.73l-.07.07a.78.78,0,0,1-.32.27,1.38,1.38,0,0,0-1-.59,1.57,1.57,0,0,0-1.12.69c-.07.09-.23.09-.48.1h-.21a.81.81,0,0,1-.22,0,1.18,1.18,0,0,0-1.24.5l0,0a1,1,0,0,0-.65.48,1.11,1.11,0,0,0-.42.73l-.12.14,0,.08a1.09,1.09,0,0,1-.25.05,1.15,1.15,0,0,0-.95.52l0,0a.93.93,0,0,0-.55.34,2.55,2.55,0,0,1-1.36-.08,4.37,4.37,0,0,0-1.14-.17,1.47,1.47,0,0,1-.21,0,64.27,64.27,0,0,1,7.29,30c0,32.32-23.17,58.62-51.65,58.62a47.12,47.12,0,0,1-28.3-9.62,1.49,1.49,0,0,0-.61,1,1.87,1.87,0,0,0-.21,1.2c0,.1,0,.19,0,.27a1.9,1.9,0,0,0-.13,2.46,2.93,2.93,0,0,1,.33.58,4.79,4.79,0,0,0,.43.75,19.65,19.65,0,0,0,.14,2.19,14.27,14.27,0,0,1,.1,2.68,5.39,5.39,0,0,0-.45,2.15,1.16,1.16,0,0,0-.21.82v0a9.44,9.44,0,0,0-1,2.34.86.86,0,0,0-.28.56,1,1,0,0,0-.24.59,2.1,2.1,0,0,0-.42.92,1.06,1.06,0,0,0-.25.8,1.11,1.11,0,0,0-.22.82,2.48,2.48,0,0,0-.45,1.38,8.49,8.49,0,0,1-4.33,7l-.08,0a1,1,0,0,0-.7,1.06,1.36,1.36,0,0,0,.38.91.87.87,0,0,0,.73.22c.2,0,.28,0,.44.58a7.42,7.42,0,0,0,.58,1.42,3.47,3.47,0,0,1,.56,2.18l-.09.54.48.11,0,0c0,.05,0,.13,0,.19a1.83,1.83,0,0,0,0,.69.72.72,0,0,0-.61.23.82.82,0,0,0-.19.55v0a1.79,1.79,0,0,0-.11.55v.1a24.13,24.13,0,0,1-.19,3.31c-.13.87-.46,3.2,1.61,4.12a.68.68,0,0,1,0,.21v.12a2.25,2.25,0,0,0,.64,1.57,1.81,1.81,0,0,0-.65.25,1,1,0,0,0-.55.8,1,1,0,0,0,.1.57,1,1,0,0,0,.34,1.87h.06a.61.61,0,0,0,.24.19,1.43,1.43,0,0,0,.3,1,1.31,1.31,0,0,0,1.38.17l.17,0a2.2,2.2,0,0,0,.84-.46c.26-.2.42-.33.63-.33a.93.93,0,0,0,.69-.42,2.56,2.56,0,0,0,.92,1.4,1.76,1.76,0,0,1,.63.89.66.66,0,0,0,.44.53.85.85,0,0,0,.87-.36l0-.06a4.49,4.49,0,0,1,.22,1.57.59.59,0,0,0,.23.53,8.05,8.05,0,0,1,.59.83,4.23,4.23,0,0,0,1.6,1.69,4.63,4.63,0,0,1,1.21,1.12c.19.22.38.44.58.63v0h0a.8.8,0,0,0-.57.38,1.17,1.17,0,0,0-.08.81l.11.57.49-.14c.85-.24,1,.1,1.39,1.22.06.17.11.34.18.5a3.76,3.76,0,0,1,.14,1.28,5,5,0,0,0,.17,1.57.86.86,0,0,0-.3.33,1.08,1.08,0,0,0,.21,1.16c.18.18.24.29-.06,1l-.48,1.21,1.1-.43a2.29,2.29,0,0,1,.89-.25,2.39,2.39,0,0,1-.1.6,1,1,0,0,0,.07.78,1.28,1.28,0,0,0-.47.15l-.37.19.12.59c.06.36.19,1.09.87,1.17a4,4,0,0,1,1.58.73,7.46,7.46,0,0,0,.95.57c.28.14.58.27.88.39a5.85,5.85,0,0,1,2.68,1.81,9,9,0,0,0,3.17,2.86c0,.88.47,1.44,1.49,1.67a3.6,3.6,0,0,1,1.75,1.26c.21.22.41.43.63.64a16.38,16.38,0,0,1,1.75,2,14.38,14.38,0,0,0,2.44,2.63,28.37,28.37,0,0,0,4.33,2.62c.81.44,1.65.88,2.45,1.37a2.08,2.08,0,0,0,2-.1l.81-.45a18,18,0,0,1,2.91-1.4,13.45,13.45,0,0,0,1.73-.78,8.59,8.59,0,0,1,1.94-.82,33,33,0,0,1,4.66-.62c.77-.06,1.56-.13,2.35-.22a12.45,12.45,0,0,1,4.53.55c.39.09.78.19,1.18.27s.57.11.86.16a4.42,4.42,0,0,1,2.57,1,1.67,1.67,0,0,0,1.82.39l.19,0a3.12,3.12,0,0,0,1.37-.78,2.46,2.46,0,0,1,1-.61,14.07,14.07,0,0,0,4.74-1.68l.18-.11c1.77-1.14,3.44-2.22,5.48-1.92a1.46,1.46,0,0,0,1.79-1.44c0-.28.19-.51.27-.52a8.31,8.31,0,0,0,1.77-.41,7.13,7.13,0,0,1,1.41-.36l.6-.06a51.7,51.7,0,0,1,9.23-.47,4,4,0,0,1,3.17,1.44,18.84,18.84,0,0,1,3.2,6.59c.63,2,1.86,3.28,3.36,3.51a11,11,0,0,0,3.63-.24,14.17,14.17,0,0,1,2.33-.31,6,6,0,0,0,1.6-.35,4.66,4.66,0,0,1,1.46-.31l.35,0a2.13,2.13,0,0,0,1.6-.34,1.23,1.23,0,0,0,.42.48,1.25,1.25,0,0,0,1.26,0l0,0a3.21,3.21,0,0,1,.17.65,2.31,2.31,0,0,0,.88,1.69,3.5,3.5,0,0,0,2.26.76,2.81,2.81,0,0,0,.82,2.28,1.88,1.88,0,0,1,.57,1.95,22.63,22.63,0,0,0-.53,5.06,2.11,2.11,0,0,1-.21,1.1c-.2.34-.4.68-.61,1s-.57.94-.84,1.43l-.07.13a1.77,1.77,0,0,0-.3,1.51,1.16,1.16,0,0,0,.9.64,2.59,2.59,0,0,0,.08.9,1,1,0,0,0-1.13.89,2.83,2.83,0,0,0,.14,1.63l-.19,0v1a7.79,7.79,0,0,1,0,1,3.49,3.49,0,0,1-.78,2.44,1.44,1.44,0,0,1-1.39,0l-.46-.17-.16.51a2.56,2.56,0,0,0,.31,2.15,20,20,0,0,1,1.93,4.14,14.65,14.65,0,0,0,2.7,4.78l.26.36a16,16,0,0,0,2,2.1,17.39,17.39,0,0,1,1.65,1.68c.74.9,1.46,1.81,2.18,2.72.95,1.2,1.94,2.44,2.94,3.63a7,7,0,0,1,.92,1.66,10.51,10.51,0,0,0,.89,1.69,3.74,3.74,0,0,1,.67,1.45,1.72,1.72,0,0,1-.12.22,1.08,1.08,0,0,0,0,1.42,3.7,3.7,0,0,1,.79,2.11,8.4,8.4,0,0,0,.28,1.26,6.19,6.19,0,0,0,1,1.86,4.76,4.76,0,0,1,.84,1.43l.26.82a33.89,33.89,0,0,0,2.63,6.77,2,2,0,0,1,.07,1.06,4.12,4.12,0,0,0-1.56,2.46,3.4,3.4,0,0,0,.59,2.27v0a15.32,15.32,0,0,0,2.11,5.4,5.69,5.69,0,0,1,1,3.94l-.06.39a7.93,7.93,0,0,0-.16,1.56c.06,2.55-.36,3.45-2.24,4.83-1.27.94-1.25,1.55-1.24,1.75,0,.69-.29,1-.83,1.5a5.48,5.48,0,0,0-.67.69.73.73,0,0,1-.09.08,1,1,0,0,0-.48,1,4,4,0,0,1-.28,1.59,4.76,4.76,0,0,0-.32,1.55,15.68,15.68,0,0,1-.74,4.26,20.32,20.32,0,0,0-.72,3.47v.09c0,.25-.06.67-.21.73-1.26.53-1.09,1.59-1,2.3,0,.11,0,.23.05.34a5.3,5.3,0,0,0,.16.75,3.71,3.71,0,0,1,.15.86,1.4,1.4,0,0,0-.55,2l0,.11a5.58,5.58,0,0,1,.13,3.18,4.44,4.44,0,0,0-.06,1.59,11,11,0,0,0,2.92,6.28,2.81,2.81,0,0,1,.47.67l0,.06a58.23,58.23,0,0,1,3.17,6.62c.74,1.74,1.51,3.54,2.4,5.25.16.31.33.63.49,1a25.48,25.48,0,0,0,2.17,3.73l.23.31c1.13,1.49,2.1,2.78,1.28,4.75a1.77,1.77,0,0,0,0,1.09c0,.07,0,.14,0,.21,0,.27.09.54.14.81a5,5,0,0,1,.14,2.21,5.86,5.86,0,0,0,.61,4.2c.08.18.16.35.23.52a7.65,7.65,0,0,1,.78,3,18.41,18.41,0,0,0,1.41,7,.33.33,0,0,1,0,.13,9.26,9.26,0,0,0,1.11,4.53l.17.36a18.54,18.54,0,0,0,5.15,7,.73.73,0,0,1,.17.22,32.78,32.78,0,0,1,2.64,6.62l.29.9a22.79,22.79,0,0,0,3.41,6.9,7.75,7.75,0,0,1,1.37,4.88c0,.5-.1.65-.14.69a.49.49,0,0,1-.4,0,1,1,0,0,0-.92.17,1.78,1.78,0,0,0-.47,1.27,2.28,2.28,0,0,1,0,.26,2.33,2.33,0,0,0,.61,1.76c.34.47.46.68.36,1a.68.68,0,0,0,.06.56.71.71,0,0,0,.66.31h.07a.77.77,0,0,1,.56.53.89.89,0,0,1,0,.78,3.13,3.13,0,0,0,.06,2.87,1.35,1.35,0,0,0,.64.8.82.82,0,0,0,.7,0,1,1,0,0,0,.54-.67l0-.14a1.85,1.85,0,0,0,1.27.82l.15,0c.21.05.32.22.5.54a2.26,2.26,0,0,0,.65.78,4.54,4.54,0,0,0,2.43,1,3.68,3.68,0,0,0,2.44-1.26,12.1,12.1,0,0,1,2.94-.82,6.28,6.28,0,0,1,1,0,3.15,3.15,0,0,0,3.12-1.28,1.68,1.68,0,0,1,1.31-.68,4.6,4.6,0,0,1,1.55.16,6.28,6.28,0,0,0,1.47.2,2.16,2.16,0,0,0,1.07-.36c.3-.16.47-.25.65-.2.42.13.85.22,1.27.31a6.29,6.29,0,0,1,2.23.77,2,2,0,0,0,1.58.21.79.79,0,0,0,.49-.45c.35-.87.65-.94,1.68-.41a1.46,1.46,0,0,0,.89.09l.29,0a.8.8,0,0,0,.64-.25,1.15,1.15,0,0,0,.25-.76,1,1,0,0,1,.25-.79.44.44,0,0,1,.43,0c1.91,1,3.43,0,4.77-.86l.37-.24a29.42,29.42,0,0,0,3.72-2.93c.51-.45,1-.9,1.54-1.33l.07-.06a17.68,17.68,0,0,0,3.75-3.82,5.4,5.4,0,0,1,1.47-1.53c2.55-1.67,4.15-4.33,5.7-6.91l.54-.89c.35-.57.65-1.18.94-1.77a10.38,10.38,0,0,1,2-3.09l.47-.46a6.75,6.75,0,0,1,1.77-1.4,6,6,0,0,0,3-4.5,21.83,21.83,0,0,1,.92-3.18,16.36,16.36,0,0,0,1.13-5,10.8,10.8,0,0,1,.14-1.2,6.43,6.43,0,0,0,0-2.87l-.22-.84a3.84,3.84,0,0,1,1.21-1,29.94,29.94,0,0,1,6.72-2.79l.25-.08a6.4,6.4,0,0,0,3.23-2.75l.29-.37a2.42,2.42,0,0,0,.7-2.28,7.49,7.49,0,0,1,.74-4.78c.06-.13.33-.83,0-1.23s-.31-.67-.07-1.41c.05-.18.11-.37.16-.57.13-.55.41-1.71-.86-2.14a.17.17,0,0,1,0-.1,1.48,1.48,0,0,0,.95-1.85,3.11,3.11,0,0,1,0-.4l0-.16c.14-.83-.06-1.31-.59-1.44a.7.7,0,0,0-.87.38,1.86,1.86,0,0,1-.39-1.81,2.87,2.87,0,0,0-.72-2.95c-.65-.48-.64-.71-.45-1.72v-.11c.19-1,.25-1.37,1.12-1.74a7.22,7.22,0,0,0,2.63-2.71l.2-.29c.53-.77,1.12-1.24,1.38-1.25a3.3,3.3,0,0,0,2.59-1.71L425,316l.28-.37a19.4,19.4,0,0,1,5-5.06c.28-.17.55-.35.82-.54a5.79,5.79,0,0,1,1.67-.89l.59-.15a12.81,12.81,0,0,0,4.68-1.87,22.71,22.71,0,0,0,4-3.9l.34-.4c1.44-1.67,2.93-3.39,3.39-5.93a4.06,4.06,0,0,1,.21-.71,4.67,4.67,0,0,0,.32-1.19,5.9,5.9,0,0,0-.57-3,5.2,5.2,0,0,1-.52-2.29q0-.39.09-.78a8.14,8.14,0,0,0,.1-1.73,4.08,4.08,0,0,0-.34-1.51,1.91,1.91,0,0,0,.78-1.77,17.42,17.42,0,0,0-.29-3.26,14,14,0,0,1-.23-3.52c0-.1,0-.19,0-.27a.41.41,0,0,1,0-.11h.11a.84.84,0,0,0,.79-.23,1,1,0,0,0,.21-.75c0-.05,0-.16,0-.24,0-.29.16-1.18-.63-1.36l-.07,0a.68.68,0,0,0,0-.15l0-.14c.27-2.57-.15-3.43-2.14-4.42a2.08,2.08,0,0,1-1.11-1.48,12.94,12.94,0,0,1-.45-2.31,9.69,9.69,0,0,0-1-3.68,2.45,2.45,0,0,1-.13-2.7,3.19,3.19,0,0,0,0-2.7c-.47-.83-.22-1.32.41-2.18a2.22,2.22,0,0,0,.38-1.92,1.53,1.53,0,0,0-1.11-1.06c-.08,0-.1,0-.15-.35a2.27,2.27,0,0,0-1.24-1.74c-.5-.22-.59-.36-.59-.89a4.73,4.73,0,0,0-.07-.68,1.61,1.61,0,0,1,0-.94l.24-.52a17.27,17.27,0,0,0,1.31-3.5,4.78,4.78,0,0,1,1.15-2.6,5.11,5.11,0,0,0,1-1.61l.12-.27c.33-.69.59-1.42.85-2.12a19.71,19.71,0,0,1,.93-2.28l.06-.12a7.24,7.24,0,0,0,1.1-3.95c0-.28.29-.49.59-.57,2-.46,2.43-1,2.71-3a.64.64,0,0,1,.05-.22c1.49.34,2.21-.78,2.74-1.6.13-.2.27-.41.41-.59a14.24,14.24,0,0,0,1.41-2.37c.26-.5.5-1,.78-1.43a19.27,19.27,0,0,1,2.11-2.68c.3-.34.6-.68.89-1,.52-.61,1-1.23,1.54-1.85a64.19,64.19,0,0,1,4.7-5.33l.31-.3a30.12,30.12,0,0,1,5.17-4.37l.38-.24a14.62,14.62,0,0,0,3.87-3l1.29-1.54c3.3-3.89,6.71-7.92,9.13-12.82.34-.7.72-1.4,1.1-2.08a19.78,19.78,0,0,0,2.62-6.62,10,10,0,0,1,2-4.35,5.84,5.84,0,0,0,.84-2.29,4.31,4.31,0,0,1,1.06-2.39,6.39,6.39,0,0,0,1.44-2.91,9.23,9.23,0,0,1,.93-2.3c1-1.47,1-3.24,1-5,0-.54,0-1.06,0-1.57s.07-.43.37-.57a1.06,1.06,0,0,1,.26,0,2.41,2.41,0,0,0,.38,0h.09a.8.8,0,0,0,.69-.19,1,1,0,0,0,.26-.66v-.09A1.22,1.22,0,0,0,496.4,155ZM212.78,101.93c24.76,0,44.9-22.86,44.9-51a54.56,54.56,0,0,0-12.6-35.35C236.91,6,225.46,0,212.78,0,188,0,167.89,22.86,167.89,51c0,15.21,5.91,28.87,15.25,38.22C191.05,97.11,201.43,101.93,212.78,101.93ZM145.92,758.37H0V727.6H145.92Zm511.81,0H511.82V727.6H657.73ZM183,736h-6.31v-2.57c4.22-.08,6.55-.86,7-5.48h2.56v29.6H183Zm12.27,10.69v-3.27h9.59v3.27Zm18.79-5.88c2.6-.15,6.12.4,6.12-5.05,0-2.88-.87-4.85-4.15-4.85-3.71,0-4.22,2.76-4.22,5.8h-3.12c-.16-5,2.05-8.76,7.42-8.76,4.42,0,7.38,2.88,7.38,7.34,0,3.2-1,5.52-4.14,6.63V742c3.43.75,4.93,3.47,4.93,6.83,0,5.52-2.45,9.31-8.33,9.31s-7.93-3.91-7.81-9.28h3.24c-.28,3.16.63,6.32,4.85,6.32,3.24,0,4.78-2.25,4.78-5.29,0-5.17-2-6.16-6.95-6.12Zm25.42,16.74V728h8.13c9.23,0,10.49,7.5,10.26,14.8s-1.66,14.8-9.67,14.8Zm3.27-3H248c4.82,0,6.79-3.59,6.47-12.43-.23-6.75-1.18-11.25-6.47-11.25h-5.25Zm33-4.34c.2,4.3-2,7.89-6.63,7.89-4.14,0-7.1-2.76-7.1-11.6,0-4.62,1.22-11.53,7-11.53,7.1,0,6.7,6.71,6.86,11.84H265.29c.08,3-.44,8.65,3.94,8.65,3,0,3.83-2.77,3.63-5.25Zm-3.07-6c-.12-2.57,0-6.63-3.6-6.63s-3.71,4-3.82,6.63Zm10.14,3.23c0,2.88.2,8,4.18,8,3.4,0,3.71-2.93,3.87-5.61h3c-.12,4.22-1.7,8.25-6.59,8.25-6.71,0-7.66-5.61-7.66-11.29,0-5.37.87-11.84,7.58-11.84,4.42,0,6.55,3.44,6.51,7.5h-2.92c0-2.41-.67-4.85-3.63-4.85C282.61,737.67,282.85,744.41,282.85,747.53Zm28,2.73c.2,4.3-2,7.89-6.63,7.89-4.14,0-7.1-2.76-7.1-11.6,0-4.62,1.22-11.53,7-11.53,7.1,0,6.71,6.71,6.87,11.84H300.33c.08,3-.43,8.65,3.95,8.65,3,0,3.83-2.77,3.63-5.25Zm-3.08-6c-.12-2.57,0-6.63-3.59-6.63s-3.71,4-3.83,6.63ZM319,757.56h-3.12V735.61h3v2.81H319a6.16,6.16,0,0,1,5.21-3.4,5.72,5.72,0,0,1,5.21,3.48c1.54-2.25,3.12-3.48,5.88-3.48a5.87,5.87,0,0,1,4,1.54c1.42,1.3,1.34,3.75,1.34,5.13v15.87h-3.11V741.49c0-2.44-.67-3.82-3.36-3.82a4.54,4.54,0,0,0-2.92,1.22,4.73,4.73,0,0,0-1.42,4v14.68h-3.12V741.49c0-2.28-.75-3.82-3.27-3.82a4.45,4.45,0,0,0-3.08,1.22c-1.26,1.14-1.34,2.41-1.34,4Zm30.39,0h-2.84V728h3.11v9.9h.08c1.23-2,2.65-2.84,4.58-2.84,5.56,0,6.91,5.65,6.91,10.15,0,6.23-.83,13-6.75,13a5.15,5.15,0,0,1-5-3.2h-.08Zm4.46-2c3.23,0,4.14-3.4,4.14-9.32,0-2.88-.2-8.52-4.18-8.52-4.62,0-4.34,6.27-4.34,9.47S349.47,755.51,353.89,755.51Zm24.9-5.25c.2,4.3-2,7.89-6.63,7.89-4.14,0-7.1-2.76-7.1-11.6,0-4.62,1.22-11.53,7-11.53,7.11,0,6.71,6.71,6.87,11.84H368.29c.08,3-.43,8.65,3.95,8.65,3,0,3.83-2.77,3.63-5.25Zm-3.08-6c-.12-2.57,0-6.63-3.59-6.63s-3.71,4-3.83,6.63Zm11.37-5.09h.08c1.3-2.89,3.15-4.11,6.43-3.83v3.08c-4-.71-6.39,1.81-6.39,5.8v13.3h-3.12V735.61h3Zm24.07,11.09a5.51,5.51,0,0,0-2.13,4.3h12.51v3h-15.9a17.29,17.29,0,0,1,1.18-6.4,10.47,10.47,0,0,1,2.33-3l5.64-5.44c2.29-2.21,3.08-3.4,3.08-6.63,0-3-1-5.21-4.38-5.21-4.06,0-4.42,4-4.34,7.1h-3.28v-1.81a9.32,9.32,0,0,1,1.9-5.92,7.52,7.52,0,0,1,5.88-2.33c5.05,0,7.62,3.35,7.62,8.25,0,4.34-1.74,6.47-4.78,9.23ZM425.44,743c0-5.52.35-15,8.05-15,8.29,0,8.09,9.39,8.09,15,0,6.71-.35,15.16-8.09,15.16S425.44,748.24,425.44,743Zm8.05,12.2c4.89,0,4.7-7,4.7-12.71,0-4.18.43-11.21-4.7-11.56s-4.66,8.84-4.66,11.56C428.83,748.16,428,755.19,433.49,755.19Zm17.13-4.89a5.51,5.51,0,0,0-2.13,4.3H461v3H445.09a17.31,17.31,0,0,1,1.19-6.4,10.29,10.29,0,0,1,2.33-3l5.64-5.44c2.29-2.21,3.08-3.4,3.08-6.63,0-3-1-5.21-4.38-5.21-4.07,0-4.42,4-4.34,7.1h-3.28v-1.81a9.32,9.32,0,0,1,1.89-5.92A7.53,7.53,0,0,1,453.1,728c5.06,0,7.62,3.35,7.62,8.25,0,4.34-1.74,6.47-4.77,9.23ZM464.91,743c0-5.52.35-15,8-15,8.28,0,8.09,9.39,8.09,15,0,6.71-.36,15.16-8.09,15.16C465.06,758.15,464.91,748.24,464.91,743Zm8,12.2c4.89,0,4.69-7,4.69-12.71,0-4.18.44-11.21-4.69-11.56s-4.66,8.84-4.66,11.56C468.3,748.16,467.51,755.19,473,755.19Z"/></g></g></svg>