<svg xmlns="http://www.w3.org/2000/svg" viewBox="0 0 1095 534.4"><defs><style>.cls-1{fill:#fff;}.cls-2{fill:#11a5d3;}.cls-3{fill:#87cf3f;}</style></defs><g id="Layer_2" data-name="Layer 2"><g id="Logo_PtX_TONES" data-name="Logo PtX TONES"><g id="Logo_PtX_TONES_-_Long" data-name="Logo PtX TONES - Long"><path class="cls-1" d="M0,.94H29.59V5.65H17.4V48.07H12.19V5.65H0Z"/><path class="cls-1" d="M46.3,48.07h-5V.94h5V17h.13c2.26-3,4.84-4.77,8.61-4.77,5.21,0,8.61,2.76,8.61,8.92v27h-5V22.49c0-3.64-1.19-6.09-5.21-6.09a7.06,7.06,0,0,0-4.9,2c-2,1.82-2.27,3.83-2.27,6.34Z"/><path class="cls-1" d="M99,36.44C99.33,43.29,95.81,49,88.46,49c-6.6,0-11.31-4.4-11.31-18.47,0-7.36,1.95-18.35,11.18-18.35C99.64,12.19,99,22.87,99.27,31h-17c.13,4.71-.69,13.76,6.29,13.76,4.77,0,6.09-4.4,5.78-8.36ZM94.12,27c-.19-4.08.06-10.55-5.72-10.55S82.49,22.81,82.3,27Z"/><path class="cls-1" d="M148.21,48.07h-6.47L131.68.94h5.78l6.16,32.49c.57,3.2,1,6.47,1.38,10.87h.13c.44-3.65.82-7.1,1.51-10.5L153.55.94H160l6.22,32.49c.57,3.14.94,6.28,1.38,10.87h.13c.44-3.65.82-7.1,1.51-10.5L176.11.94h5.78L170.83,48.07h-6.47l-6.29-32a86.21,86.21,0,0,1-1.38-11.37h-.13a110,110,0,0,1-1.5,11.37Z"/><path class="cls-1" d="M203.81,49c-7.54,0-12.5-4.53-12.5-19.6,0-10.56,3.89-17.22,12.5-17.22s12.5,6.66,12.5,17.22C216.31,44.55,211.48,49,203.81,49Zm0-32.61c-5.09,0-7.35,4-7.35,14.58,0,8.23,1.57,13.82,7.35,13.82s7.35-5.59,7.35-13.82C211.16,20.42,209,16.4,203.81,16.4Z"/><path class="cls-1" d="M235.66,18.85h.13c2.07-4.59,5-6.54,10.24-6.1v4.91c-6.41-1.14-10.18,2.89-10.18,9.23V48.07h-5V13.13h4.77Z"/><path class="cls-1" d="M257.52,48.07V.94h5V48.07Z"/><path class="cls-1" d="M294.91.94h5V48.07H295.1V43.48H295c-2.14,4.15-4.27,5.53-8.48,5.53-11,0-10.12-15.4-10.24-18.47-.38-10.25,3-18.35,10.49-18.35,3.58,0,5.72,1.51,8,4.52h.13Zm0,29.09c0-4.77-.13-13.63-6.79-13.63-4.15,0-6.85,3.27-6.85,14,0,7.54.25,14.39,7,14.39,5.15,0,6.6-6.47,6.6-10.43Z"/><path class="cls-1" d="M338.32,48.07V.94H350.7c3.64,0,8.23.44,11,3.08s3.83,6.28,3.83,10.05c0,5.22-1.57,10.31-6.66,12.63-3.26,1.39-8.6,1.39-12.19,1.39h-3.14v20Zm5.21-24.7h5.09c7.17-.06,11.56-1.06,11.5-9.17,0-7.6-4.84-8.67-11.18-8.55h-5.41Z"/><path class="cls-1" d="M389.84,49c-7.54,0-12.51-4.53-12.51-19.6,0-10.56,3.9-17.22,12.51-17.22s12.5,6.66,12.5,17.22C402.34,44.55,397.5,49,389.84,49Zm0-32.61c-5.09,0-7.35,4-7.35,14.58,0,8.23,1.57,13.82,7.35,13.82s7.35-5.59,7.35-13.82C397.19,20.42,395.05,16.4,389.84,16.4Z"/><path class="cls-1" d="M441.23,43.86h.13l6.09-30.73h5.15l-8.73,34.94h-5.15l-5.91-30.73h-.13l-5.52,30.73H422l-9-34.94h5.15l6.35,30.73h.12l5.53-30.73h5.15Z"/><path class="cls-1" d="M484.58,36.44C484.89,43.29,481.38,49,474,49c-6.59,0-11.31-4.4-11.31-18.47,0-7.36,2-18.35,11.19-18.35,11.31,0,10.68,10.68,10.93,18.85h-17c.12,4.71-.69,13.76,6.28,13.76,4.77,0,6.09-4.4,5.78-8.36ZM479.68,27c-.19-4.08.06-10.55-5.72-10.55s-5.91,6.41-6.09,10.55Z"/><path class="cls-1" d="M504.05,18.85h.13c2.07-4.59,5-6.54,10.24-6.1v4.91c-6.41-1.14-10.18,2.89-10.18,9.23V48.07h-5V13.13h4.77Z"/><path class="cls-1" d="M521.9,30.79V25.57h15.26v5.22Z"/><path class="cls-1" d="M556.58,13.13h5.84v4.21h-5.78V41.15c0,1.2-.44,2.71,2.32,2.71h3.33v4.21h-5.46c-3,.06-5.15-.44-5.15-5.72v-25h-4.84V13.13h4.84V3.64h4.9Z"/><path class="cls-1" d="M585.73,49c-7.54,0-12.51-4.53-12.51-19.6,0-10.56,3.9-17.22,12.51-17.22s12.5,6.66,12.5,17.22C598.23,44.55,593.39,49,585.73,49Zm0-32.61c-5.09,0-7.35,4-7.35,14.58,0,8.23,1.57,13.82,7.35,13.82s7.35-5.59,7.35-13.82C593.08,20.42,590.94,16.4,585.73,16.4Z"/><path class="cls-1" d="M610.54,30.79V25.57h15.27v5.22Z"/><path class="cls-1" d="M649.37,23.88,636.36.94h6.16l9.87,18.41L662.25.94h6.16L655.47,23.88l13.32,24.19h-6.41l-10-19.73L642.21,48.07H636Z"/><path class="cls-1" d="M723.26,13.32c.37-4.9-2.27-8.61-7.48-8.61-7.6,0-8.42,4.78-8.42,8.42a6.19,6.19,0,0,0,4.46,6.41c2.51.94,5,1.89,7.48,2.83,8.92,3.33,10.55,6.47,10.55,12.69,0,8.92-5.59,14.14-14.64,14.14-4.65,0-10.17-1.32-12.88-7.48-1-2.32-.94-6.09-1-8.61h5.21c-.25,7,1.07,11.37,8.93,11.37,5.27,0,9-2.7,9-8.23,0-7.16-2.89-7.22-7.67-9-2.57-1-6.72-2.33-9.23-3.65-4.46-2.26-5.59-6-5.59-10.68C702,5.09,707.42,0,715.09,0,723.7,0,729,4.46,728.47,13.32Z"/><path class="cls-1" d="M761,43.48h-.12a9.18,9.18,0,0,1-8.3,5.53c-5.21,0-8.41-2.77-8.41-8.92v-27h5V40.27c0,3,.94,4.53,4.46,4.53a7.11,7.11,0,0,0,6-3.08A11.74,11.74,0,0,0,761,35.56V13.13h5V48.07h-5Z"/><path class="cls-1" d="M786.77,48.07h-5V13.13h4.77v4.46h.13c1.63-2.95,4.65-5.4,8.29-5.4a9.12,9.12,0,0,1,8.3,5.53c2.45-3.58,5-5.53,9.36-5.53a9.42,9.42,0,0,1,6.41,2.45c2.26,2.07,2.13,6,2.13,8.17V48.07h-5V22.49c0-3.89-1.07-6.09-5.34-6.09a7.17,7.17,0,0,0-4.65,2c-2,1.82-2.26,3.83-2.26,6.34V48.07h-5V22.49c0-3.64-1.19-6.09-5.21-6.09a7.09,7.09,0,0,0-4.9,2c-2,1.82-2.14,3.83-2.14,6.34Z"/><path class="cls-1" d="M841.93,48.07h-5V13.13h4.77v4.46h.13c1.63-2.95,4.65-5.4,8.29-5.4a9.12,9.12,0,0,1,8.3,5.53c2.45-3.58,5-5.53,9.36-5.53a9.42,9.42,0,0,1,6.41,2.45c2.26,2.07,2.14,6,2.14,8.17V48.07h-5V22.49c0-3.89-1.07-6.09-5.34-6.09a7.17,7.17,0,0,0-4.65,2c-2,1.82-2.26,3.83-2.26,6.34V48.07h-5V22.49c0-3.64-1.2-6.09-5.22-6.09a7.09,7.09,0,0,0-4.9,2c-2,1.82-2.14,3.83-2.14,6.34Z"/><path class="cls-1" d="M891.88,7.23V.94h5V7.23Zm0,40.84V13.13h5V48.07Z"/><path class="cls-1" d="M917.89,13.13h5.84v4.21H918V41.15c0,1.2-.44,2.71,2.33,2.71h3.33v4.21h-5.47c-2.95.06-5.15-.44-5.15-5.72v-25h-4.84V13.13H913V3.64h4.9Z"/><path class="cls-1" d="M964.88,36.51a8.79,8.79,0,0,0-3.39,6.84h19.92v4.72H956.09A27.49,27.49,0,0,1,958,37.89a16.36,16.36,0,0,1,3.71-4.72l9-8.67c3.65-3.51,4.91-5.4,4.91-10.55,0-4.78-1.64-8.3-7-8.3-6.47,0-7,6.35-6.91,11.31h-5.22V14.07a14.81,14.81,0,0,1,3-9.42c1.45-1.51,4.08-3.71,9.36-3.71,8,0,12.13,5.34,12.13,13.13,0,6.92-2.76,10.31-7.6,14.71Z"/><path class="cls-1" d="M993.91,24.88c0-8.8.57-23.94,12.82-23.94,13.19,0,12.88,15,12.88,23.94,0,10.68-.57,24.13-12.88,24.13C994.16,49,993.91,33.24,993.91,24.88Zm12.82,19.42c7.79,0,7.47-11.19,7.47-20.24,0-6.66.7-17.84-7.47-18.41s-7.42,14.08-7.42,18.41C999.31,33.11,998.06,44.3,1006.73,44.3Z"/><path class="cls-1" d="M1040.28,36.51a8.77,8.77,0,0,0-3.4,6.84h19.92v4.72h-25.32a27.49,27.49,0,0,1,1.88-10.18,16.53,16.53,0,0,1,3.71-4.72l9-8.67C1049.7,21,1051,19.1,1051,14c0-4.78-1.64-8.3-7-8.3-6.47,0-7,6.35-6.91,11.31h-5.21V14.07a14.86,14.86,0,0,1,3-9.42c1.45-1.51,4.09-3.71,9.36-3.71,8,0,12.13,5.34,12.13,13.13,0,6.92-2.76,10.31-7.6,14.71Z"/><path class="cls-1" d="M1069.3,24.88c0-8.8.57-23.94,12.82-23.94,13.19,0,12.88,15,12.88,23.94,0,10.68-.57,24.13-12.88,24.13C1069.55,49,1069.3,33.24,1069.3,24.88Zm12.82,19.42c7.79,0,7.48-11.19,7.48-20.24,0-6.66.69-17.84-7.48-18.41s-7.42,14.08-7.42,18.41C1074.7,33.11,1073.45,44.3,1082.12,44.3Z"/><path class="cls-1" d="M21.55,517.54h.11l5-24.56h3.18l-6.7,30.81h-3.4L15,499.62h-.11l-4.74,24.17H6.53L0,493H3.24l5,24.56h.11L13.12,493h3.57Z"/><path class="cls-1" d="M80.5,517.54h.11l5-24.56h3.19l-6.7,30.81H78.65l-4.74-24.17H73.8l-4.75,24.17H65.48L59,493h3.23l5,24.56h.11L72.07,493h3.57Z"/><path class="cls-1" d="M139.44,517.54h.11l5-24.56h3.18L141,523.79h-3.4l-4.75-24.17h-.11L128,523.79h-3.58L117.89,493h3.24l5,24.56h.12L131,493h3.57Z"/><path class="cls-1" d="M178.46,523.79v-4.91h3.85v4.91Z"/><path class="cls-1" d="M236.62,517.54h.11l5-24.56h3.18l-6.7,30.81h-3.4L230,499.62h-.11l-4.74,24.17H221.6L215.07,493h3.24l5,24.56h.12L228.19,493h3.57Z"/><path class="cls-1" d="M276.14,507.66c0-6.92,1.28-15.46,9.77-15.46,8.65,0,9.6,9.32,9.6,16.07,0,7-.89,16.3-9.77,16.3C276.36,524.57,276.14,514.8,276.14,507.66Zm16.13.67c0-4.8-.11-13.29-6.75-13.29-5.81,0-6.14,8.43-6.14,12.67,0,4.58-.34,14,6.31,14S292.27,513,292.27,508.33Z"/><path class="cls-1" d="M333,496.55h.11c1.62-3.24,3.74-4.41,7.31-4.35v3.4c-5-.11-7.25,3.13-7.25,8v20.21H330V493H333Z"/><path class="cls-1" d="M374.1,523.79V481.92h3.24v41.87Z"/><path class="cls-1" d="M427.91,481.92h3.24v41.87h-3.24v-2.9h-.11c-1.28,2.51-3.69,3.68-6.64,3.68-8.32,0-8.88-10.1-8.88-16.3s.73-16.07,9-16.07a8.43,8.43,0,0,1,6.53,3.29h.11Zm-12.39,27c0,4.35.28,12.84,6.36,12.84,6.59,0,6-10.44,6-14.69s-.28-12-6.19-12C415.57,495,415.52,504.7,415.52,508.89Z"/><path class="cls-1" d="M469.1,534.4h-3.35V493H469v2.79h.11a7.33,7.33,0,0,1,6.14-3.57c8.43,0,9.27,8.81,9.27,15.4s0,17-9,17a7,7,0,0,1-6.3-3.29h-.12Zm6.14-12.67c6.09,0,6-9,6-13.07s0-13.62-5.91-13.62c-6.76,0-6.37,8.49-6.37,13.18S468.66,521.73,475.24,521.73Z"/><path class="cls-1" d="M526.43,524.07a11.83,11.83,0,0,1-4.19.17c-2.84-1-3.35-2.4-3.35-5.36V495.82H516.1V493h2.79v-9.05h3.24V493h4.3v2.84h-4.3v22.72c0,1.07.11,2.63,1.62,2.91a4.38,4.38,0,0,0,2.68-.06Z"/><path class="cls-1" d="M566.28,510.73l-6.53,13.06h-3.51l8.09-16.13L556.79,493h3.63l5.86,11.89,6-11.89H576l-7.71,14.68,8.21,16.13h-3.63Z"/><path class="cls-1" d="M615.52,492.2c5.3,0,8.37,3.34,8.37,8.65h-3.18c-.11-3.24-1.9-5.81-5.31-5.81-3.07,0-4.57,1.9-4.57,4.91,0,2.46,1.62,3.86,3.74,4.69,5.47,2.52,10.1,4.86,10.1,11.45,0,5.47-3.4,8.48-8.76,8.48-6,0-9-3.29-9-9.15h3.29c.28,3.79,2,6.31,5.92,6.31,3.41,0,5.3-2.57,5.3-5.81,0-8.15-13.39-6.53-13.84-14.85C607.09,495.49,609.88,492.2,615.52,492.2Z"/><path class="cls-1" d="M672.68,493h3.23v30.81h-3.12v-2.85h-.11a8.93,8.93,0,0,1-7.77,3.63c-5.63,0-6.81-4-6.81-8.82V493h3.24v23.33c0,3.91,1.51,5.7,5.42,5.42,2.57-.11,4.91-2.68,5.92-5.31Z"/><path class="cls-1" d="M713.92,523.79h-3.24V493h3.24v2.73H714a7.55,7.55,0,0,1,6.54-3.51c2.51,0,4.57.22,6.47,3.46h.11a8.58,8.58,0,0,1,7.26-3.46c5.53,0,7.09,3.51,7.09,8.37v23.22h-3.24V500.18c0-2.57-1-5.19-4.24-5.19a5.92,5.92,0,0,0-6.31,6.3v22.5h-3.24V501.52c0-3.46-.39-6.48-4.57-6.48-2.57,0-6,2.51-6,5.25Z"/><path class="cls-1" d="M779.06,523.79h-3.23V493h3.23v2.73h.12a7.54,7.54,0,0,1,6.53-3.51c2.51,0,4.58.22,6.47,3.46h.11a8.59,8.59,0,0,1,7.26-3.46c5.53,0,7.09,3.51,7.09,8.37v23.22H803.4V500.18c0-2.57-1-5.19-4.24-5.19a5.92,5.92,0,0,0-6.31,6.3v22.5h-3.23V501.52c0-3.46-.4-6.48-4.58-6.48-2.57,0-6,2.51-6,5.25Z"/><path class="cls-1" d="M842.08,487.23v-5.31h3.74v5.31Zm.23,36.56V493h3.23v30.81Z"/><path class="cls-1" d="M889.25,524.07a11.83,11.83,0,0,1-4.19.17c-2.84-1-3.35-2.4-3.35-5.36V495.82h-2.79V493h2.79v-9.05H885V493h4.3v2.84H885v22.72c0,1.07.11,2.63,1.62,2.91a4.38,4.38,0,0,0,2.68-.06Z"/><path class="cls-1" d="M922.63,523.79v-4.91h3.85v4.91Z"/><path class="cls-1" d="M978.62,513.58c0,5.69-2.07,11-8.55,11-9,0-9.37-9.43-9.37-16.35,0-6.65.72-16,9.26-16,5.53,0,8.43,4.74,8.38,9.88h-3.18c-.12-3.74-1.9-7.15-5.42-7-6.08.17-5.81,8.93-5.81,13.74,0,4.29-.11,13,6.2,13,4.52,0,4.91-4.64,5.25-8.15Z"/><path class="cls-1" d="M1011,507.66c0-6.92,1.28-15.46,9.77-15.46,8.65,0,9.6,9.32,9.6,16.07,0,7-.89,16.3-9.77,16.3C1011.21,524.57,1011,514.8,1011,507.66Zm16.13.67c0-4.8-.11-13.29-6.75-13.29-5.81,0-6.14,8.43-6.14,12.67,0,4.58-.34,14,6.31,14S1027.12,513,1027.12,508.33Z"/><path class="cls-1" d="M1067.42,523.79h-3.24V493h3.24v2.73h.11a7.55,7.55,0,0,1,6.54-3.51c2.51,0,4.57.22,6.47,3.46h.11a8.58,8.58,0,0,1,7.26-3.46c5.53,0,7.09,3.51,7.09,8.37v23.22h-3.24V500.18c0-2.57-1-5.19-4.24-5.19a5.92,5.92,0,0,0-6.31,6.3v22.5H1078V501.52c0-3.46-.39-6.48-4.57-6.48-2.57,0-6,2.51-6,5.25Z"/><rect class="cls-1" y="416.16" width="35" height="35"/><g id="Logo_PtX_LIGHT_-_Short" data-name="Logo PtX LIGHT - Short"><path class="cls-2" d="M846.62,165.08A43.07,43.07,0,0,1,822.85,158a1.09,1.09,0,0,0-.51.77,1.17,1.17,0,0,0-.17.89c0,.07,0,.14,0,.2a1.29,1.29,0,0,0-.11,1.82,2.28,2.28,0,0,1,.28.43,3.45,3.45,0,0,0,.36.55,14.36,14.36,0,0,0,.12,1.62,8.94,8.94,0,0,1,.08,2,3.66,3.66,0,0,0-.38,1.59.81.81,0,0,0-.18.6v0a6.85,6.85,0,0,0-.87,1.73.62.62,0,0,0-.23.41.67.67,0,0,0-.2.44,1.45,1.45,0,0,0-.36.68,11.47,11.47,0,0,0-.39,1.2,1.77,1.77,0,0,0-.38,1,6.24,6.24,0,0,1-3.64,5.22l-.06,0a.7.7,0,0,0-.59.78.93.93,0,0,0,.32.67.78.78,0,0,0,.61.17c.17,0,.24,0,.37.43a5.31,5.31,0,0,0,.49,1.05,2.34,2.34,0,0,1,.47,1.61l-.08.4.4.09h0s0,.1,0,.14a1.14,1.14,0,0,0,0,.51.65.65,0,0,0-.52.17.6.6,0,0,0-.16.4v0a1.23,1.23,0,0,0-.1.41v.07a16.53,16.53,0,0,1-.17,2.45,2.49,2.49,0,0,0,1.36,3,.71.71,0,0,1,0,.15v.1a1.6,1.6,0,0,0,.54,1.16,1.54,1.54,0,0,0-.55.18.79.79,0,0,0-.46.59.77.77,0,0,0,.08.43.62.62,0,0,0-.43.61c0,.32.09.71.72.77h.06a.45.45,0,0,0,.19.15,1,1,0,0,0,.26.76,1.22,1.22,0,0,0,1.15.13l.15,0a1.92,1.92,0,0,0,.7-.35,1,1,0,0,1,.54-.24.86.86,0,0,0,.58-.31,1.93,1.93,0,0,0,.76,1c.26.21.48.39.53.65a.54.54,0,0,0,.37.4.8.8,0,0,0,.74-.27l0-.05a3.19,3.19,0,0,1,.18,1.16.43.43,0,0,0,.19.4,6.27,6.27,0,0,1,.5.61,3.33,3.33,0,0,0,1.34,1.25,4,4,0,0,1,1,.83l.48.47h0a0,0,0,0,0,0,0,.67.67,0,0,0-.48.28.73.73,0,0,0-.07.6l.09.42.42-.1c.71-.18.84.07,1.16.9l.15.37a2.44,2.44,0,0,1,.12.95,3.14,3.14,0,0,0,.15,1.16.62.62,0,0,0-.26.25.72.72,0,0,0,.18.85c.15.13.2.21-.05.76l-.41.89.93-.32a2.11,2.11,0,0,1,.75-.18,1.49,1.49,0,0,1-.09.44.7.7,0,0,0,.06.58,1.27,1.27,0,0,0-.4.11l-.31.14.1.44c.06.26.17.81.73.86a3.34,3.34,0,0,1,1.33.55c.25.14.52.29.8.42l.74.29a4.88,4.88,0,0,1,2.25,1.34,7.26,7.26,0,0,0,2.67,2.11c0,.65.39,1.07,1.25,1.24a3,3,0,0,1,1.47.93c.17.16.34.32.53.47a12.19,12.19,0,0,1,1.47,1.49,11.11,11.11,0,0,0,2,1.94,25.61,25.61,0,0,0,3.64,2c.68.32,1.39.64,2.06,1a1.92,1.92,0,0,0,1.71-.06l.68-.34a16,16,0,0,1,2.44-1,10.36,10.36,0,0,0,1.46-.59,8.1,8.1,0,0,1,1.63-.6,31.84,31.84,0,0,1,3.91-.46l2-.16a11.82,11.82,0,0,1,3.81.4l1,.21.73.12a3.88,3.88,0,0,1,2.15.73,1.59,1.59,0,0,0,1.53.29l.16,0a2.71,2.71,0,0,0,1.15-.58,2,2,0,0,1,.84-.45,13.07,13.07,0,0,0,4-1.25l.14-.08c1.49-.84,2.89-1.64,4.6-1.42a1.19,1.19,0,0,0,1.51-1.06c0-.21.16-.38.23-.39a7.07,7.07,0,0,0,1.48-.31,7.87,7.87,0,0,1,1.18-.26l.51,0a50.05,50.05,0,0,1,7.75-.35,3.54,3.54,0,0,1,2.66,1.06,13.42,13.42,0,0,1,2.69,4.88,3.62,3.62,0,0,0,2.83,2.6,10.28,10.28,0,0,0,3-.18,13.09,13.09,0,0,1,2-.23,5.22,5.22,0,0,0,1.34-.26,4.29,4.29,0,0,1,1.23-.23l.29,0a2,2,0,0,0,1.35-.25,1,1,0,0,0,.35.35,1.18,1.18,0,0,0,1.06,0l0,0a2.51,2.51,0,0,1,.14.48,1.66,1.66,0,0,0,.74,1.25,3.16,3.16,0,0,0,1.89.56,2,2,0,0,0,.7,1.69,1.31,1.31,0,0,1,.48,1.44,14.5,14.5,0,0,0-.45,3.74,1.37,1.37,0,0,1-.18.82q-.24.38-.51.75c-.23.34-.48.69-.7,1.06l-.06.09a1.19,1.19,0,0,0-.26,1.12,1,1,0,0,0,.76.48,1.58,1.58,0,0,0,.07.66.85.85,0,0,0-.95.66,1.79,1.79,0,0,0,.12,1.2l-.17,0v.37c0,.12,0,.25,0,.37s0,.49,0,.72c-.08,1-.3,1.57-.66,1.81a1.37,1.37,0,0,1-1.17,0l-.38-.12-.14.38a1.72,1.72,0,0,0,.27,1.59,14.72,14.72,0,0,1,1.62,3.06,10.5,10.5,0,0,0,2.26,3.54l.23.26a11.81,11.81,0,0,0,1.68,1.56,15.3,15.3,0,0,1,1.39,1.24c.62.67,1.22,1.34,1.83,2,.8.89,1.62,1.81,2.46,2.69a5,5,0,0,1,.78,1.23,7,7,0,0,0,.75,1.25,2.54,2.54,0,0,1,.56,1.07,1.84,1.84,0,0,1-.1.16.73.73,0,0,0,0,1.05,2.57,2.57,0,0,1,.66,1.56,6.44,6.44,0,0,0,.23.94,4.55,4.55,0,0,0,.88,1.37,3.65,3.65,0,0,1,.71,1.06l.21.61a23.39,23.39,0,0,0,2.21,5,1.31,1.31,0,0,1,.07.78,3,3,0,0,0-1.32,1.82,2.32,2.32,0,0,0,.5,1.68v0a10.62,10.62,0,0,0,1.77,4,3.89,3.89,0,0,1,.85,2.92,2.93,2.93,0,0,0,0,.29,5.4,5.4,0,0,0-.14,1.15,3.29,3.29,0,0,1-1.88,3.58c-1.07.69-1.05,1.14-1,1.29,0,.51-.24.74-.7,1.11a4.43,4.43,0,0,0-.55.51l-.08.06a.73.73,0,0,0-.41.72,2.55,2.55,0,0,1-.24,1.18,3.26,3.26,0,0,0-.26,1.15,10.49,10.49,0,0,1-.62,3.15,14.38,14.38,0,0,0-.61,2.57v.06c0,.19-.05.5-.17.55a1.27,1.27,0,0,0-.82,1.7c0,.08,0,.16,0,.25a3.7,3.7,0,0,0,.14.55,2.91,2.91,0,0,1,.13.64,1,1,0,0,0-.47,1.48l0,.07a3.69,3.69,0,0,1,.11,2.36,2.74,2.74,0,0,0-.05,1.18,7.69,7.69,0,0,0,2.45,4.64,2.57,2.57,0,0,1,.4.49l0,.05a41.52,41.52,0,0,1,2.66,4.9c.62,1.29,1.27,2.62,2,3.88l.42.71a17.77,17.77,0,0,0,1.82,2.76l.19.23c1,1.11,1.77,2.06,1.08,3.51a1.13,1.13,0,0,0,0,.81l0,.16c0,.2.08.4.12.6a3.36,3.36,0,0,1,.12,1.63,3.87,3.87,0,0,0,.51,3.11c.07.13.13.26.19.39a5.11,5.11,0,0,1,.66,2.19,12,12,0,0,0,1.18,5.16c0,.06,0,.06,0,.09a6.15,6.15,0,0,0,.93,3.35l.14.27a13.84,13.84,0,0,0,4.33,5.15.46.46,0,0,1,.14.16,22.89,22.89,0,0,1,2.22,4.9l.24.67a16,16,0,0,0,2.87,5.1,5.3,5.3,0,0,1,1.15,3.61c0,.37-.08.48-.12.51a.45.45,0,0,1-.34,0,.94.94,0,0,0-.77.13,1.21,1.21,0,0,0-.39.94c0,.07,0,.13,0,.19a1.6,1.6,0,0,0,.51,1.31c.29.34.39.5.3.76a.46.46,0,0,0,0,.41.62.62,0,0,0,.55.23h.06a.64.64,0,0,1,.48.39.6.6,0,0,1,0,.58,2.05,2.05,0,0,0,0,2.12,1,1,0,0,0,.54.59.73.73,0,0,0,.58,0,.78.78,0,0,0,.46-.49.36.36,0,0,0,0-.1,1.58,1.58,0,0,0,1.07.6l.13,0c.17,0,.26.16.42.4a1.73,1.73,0,0,0,.54.58,4.08,4.08,0,0,0,2,.73,3.27,3.27,0,0,0,2-.94,11.46,11.46,0,0,1,2.47-.6,7.3,7.3,0,0,1,.82,0,2.82,2.82,0,0,0,2.62-.94,1.48,1.48,0,0,1,1.11-.51,4.78,4.78,0,0,1,1.29.12,5.47,5.47,0,0,0,1.24.15,2.12,2.12,0,0,0,.9-.26c.25-.13.39-.19.54-.15.36.1.72.16,1.07.23a5.64,5.64,0,0,1,1.88.57,1.89,1.89,0,0,0,1.32.15.6.6,0,0,0,.41-.33c.3-.64.55-.7,1.41-.31a1.32,1.32,0,0,0,.75.07,2.09,2.09,0,0,1,.25,0,.72.72,0,0,0,.53-.19.74.74,0,0,0,.21-.56.68.68,0,0,1,.21-.58.38.38,0,0,1,.36,0c1.6.72,2.88,0,4-.64l.31-.18a23.56,23.56,0,0,0,3.13-2.17c.42-.33.85-.66,1.29-1l.06,0a14.75,14.75,0,0,0,3.15-2.83,4.06,4.06,0,0,1,1.23-1.13,15.56,15.56,0,0,0,4.79-5.11l.45-.66c.29-.43.55-.87.79-1.31a7.62,7.62,0,0,1,1.69-2.29l.39-.34a5.84,5.84,0,0,1,1.49-1,4.49,4.49,0,0,0,2.5-3.33,16.67,16.67,0,0,1,.77-2.36,10.92,10.92,0,0,0,1-3.71,5.78,5.78,0,0,1,.12-.88,4.37,4.37,0,0,0,0-2.13l-.18-.62a3.34,3.34,0,0,1,1-.71,27.32,27.32,0,0,1,5.65-2.06l.2-.06a5.27,5.27,0,0,0,2.72-2,3.33,3.33,0,0,1,.25-.28,1.67,1.67,0,0,0,.58-1.69,5,5,0,0,1,.62-3.53c.05-.1.28-.62,0-.92s-.25-.49-.06-1a4.13,4.13,0,0,0,.14-.42c.12-.41.35-1.27-.72-1.58a.11.11,0,0,1,0-.08,1.07,1.07,0,0,0,.8-1.37,1.5,1.5,0,0,1,0-.29.5.5,0,0,1,0-.12c.11-.61,0-1-.5-1.07a.64.64,0,0,0-.73.28c-.36-.49-.52-.8-.33-1.33a2,2,0,0,0-.6-2.19c-.55-.35-.54-.52-.38-1.27v-.08c.16-.76.21-1,.94-1.29a5.71,5.71,0,0,0,2.21-2l.16-.22a2.37,2.37,0,0,1,1.17-.92,2.76,2.76,0,0,0,2.17-1.27l.23-.27.24-.27a15.45,15.45,0,0,1,4.23-3.75,7.76,7.76,0,0,0,.69-.4,5.51,5.51,0,0,1,1.4-.66l.5-.11a11.9,11.9,0,0,0,3.94-1.38,18.09,18.09,0,0,0,3.34-2.89l.29-.29a8.92,8.92,0,0,0,2.84-4.39,3.68,3.68,0,0,1,.18-.53,3,3,0,0,0,.27-.88,4,4,0,0,0-.48-2.2,3.52,3.52,0,0,1-.43-1.7,5.54,5.54,0,0,1,.07-.57,5.42,5.42,0,0,0,.09-1.29,2.86,2.86,0,0,0-.29-1.11,1.35,1.35,0,0,0,.65-1.31,10.66,10.66,0,0,0-.24-2.41,9.29,9.29,0,0,1-.2-2.61,1.5,1.5,0,0,0,0-.2s0-.05,0-.08h.09a.78.78,0,0,0,.67-.17.68.68,0,0,0,.18-.56,1.09,1.09,0,0,1,0-.17c0-.22.14-.87-.53-1h-.05s0-.08,0-.11l0-.11c.22-1.9-.13-2.54-1.8-3.26a1.62,1.62,0,0,1-.93-1.1,8.46,8.46,0,0,1-.38-1.72,6.71,6.71,0,0,0-.84-2.72,1.63,1.63,0,0,1-.11-2,2.1,2.1,0,0,0,0-2c-.4-.61-.19-1,.34-1.61a1.49,1.49,0,0,0,.32-1.43,1.22,1.22,0,0,0-.93-.78c-.07,0-.09,0-.13-.26a1.69,1.69,0,0,0-1-1.28c-.42-.17-.5-.27-.5-.66a3.83,3.83,0,0,0-.05-.51,1,1,0,0,1,0-.7l.2-.38a11.4,11.4,0,0,0,1.1-2.59,3.31,3.31,0,0,1,1-1.92,3.86,3.86,0,0,0,.84-1.19l.1-.2c.27-.51.49-1.05.71-1.57a15.46,15.46,0,0,1,.78-1.69l0-.09a4.91,4.91,0,0,0,.93-2.92c0-.2.24-.36.5-.42,1.65-.34,2-.72,2.27-2.25a.7.7,0,0,1,0-.17,2.15,2.15,0,0,0,2.3-1.18,5,5,0,0,1,.35-.43,11.27,11.27,0,0,0,1.18-1.76c.22-.37.42-.72.65-1.06a17.3,17.3,0,0,1,1.77-2l.76-.76,1.29-1.37a47.38,47.38,0,0,1,3.95-3.94l.26-.23a25.33,25.33,0,0,1,4.34-3.23l.32-.17a12.37,12.37,0,0,0,3.24-2.24l1.09-1.14a47.6,47.6,0,0,0,7.67-9.49c.29-.52.61-1,.92-1.54a13.68,13.68,0,0,0,2.2-4.89,7.16,7.16,0,0,1,1.68-3.22,4,4,0,0,0,.71-1.69,3,3,0,0,1,.89-1.77,4.64,4.64,0,0,0,1.21-2.16,6.58,6.58,0,0,1,.78-1.7,5.82,5.82,0,0,0,.82-3.67c0-.4,0-.79,0-1.16s0-.32.31-.43a1.6,1.6,0,0,1,.22,0h.32s.05,0,.07,0a.76.76,0,0,0,.58-.14.65.65,0,0,0,.22-.49v-.06a.85.85,0,0,0-.16-.67.72.72,0,0,0-.57-.23c-.06,0-.13-.07-.14-.07,0-.39-.12-.77-.19-1.13a4.14,4.14,0,0,1,0-2.51,1.39,1.39,0,0,0-.28-1.81,2.44,2.44,0,0,0-1.94-.43,2.5,2.5,0,0,0-1.63,1.19s0,.07-.2.15a6.85,6.85,0,0,1-2,.73,8.57,8.57,0,0,0-2.05.74,3.15,3.15,0,0,1-2.26.17,2.74,2.74,0,0,0-1.91.47c-.92.5-1.52.59-2.09.29a1.23,1.23,0,0,0-1.35.05l-.91.61c-.49.33-1,.68-1.51,1s-.79.44-1.34.18a3,3,0,0,0-2.48-.23,12.89,12.89,0,0,0-1.7,1l-.15.09a3.55,3.55,0,0,1-2.62.77,4.78,4.78,0,0,1-3.23-2.46c-.08-.14-.16-.27-.23-.41a3.25,3.25,0,0,0-1.65-1.69,1.84,1.84,0,0,0-.49-.12,1.78,1.78,0,0,1,.58-.34,1.05,1.05,0,0,0,.9-1.16,6.13,6.13,0,0,0-2.71-4.26,1,1,0,0,0-.22-.09,2.12,2.12,0,0,1-1.79-1.44,1.82,1.82,0,0,0-.52-.73c-.07-.07-.15-.14-.21-.21a4.49,4.49,0,0,0-1.36-1,3.06,3.06,0,0,1-1.33-1.13,2.87,2.87,0,0,0-1.86-1.79,4.63,4.63,0,0,1-1.59-.75,8.73,8.73,0,0,0-1.21-.66s0,0-.11-.15a1.42,1.42,0,0,0-.08-.18,2.08,2.08,0,0,0-2.23-1.19.62.62,0,0,1-.75-.22,3.56,3.56,0,0,0-.71-1.32,2.35,2.35,0,0,1-.59-1.12,15.65,15.65,0,0,0-1.07-3.86l0-.06c-.65-1.75-1.38-3.4-3.14-4.4l-.12-.06a1.6,1.6,0,0,1-.83-.77,2.59,2.59,0,0,0-1.82-1.3c-.46-.11-.61-.29-.7-.54s-.15-.41-.23-.61a7.63,7.63,0,0,1-.55-2c-.06-.74-.18-1.48-.29-2.19a15.28,15.28,0,0,1-.3-3.6,1.26,1.26,0,0,0-.32-.87,3.84,3.84,0,0,1-1.18-2.73,1.08,1.08,0,0,0-.66-1.09,5.56,5.56,0,0,1-1.33-1,5,5,0,0,0-2.23-1.36l-.05-.06a.75.75,0,0,0-.19-.22,3.52,3.52,0,0,1-.84-1.38c-.09-.22-.18-.44-.3-.67v-.93a.7.7,0,0,0,.79.06c.27-.17.52-.51.15-1.13l0-.05a1.63,1.63,0,0,0-.55-.62,6.13,6.13,0,0,1-2.33-2.44c-.09-.18-.17-.37-.25-.56a4,4,0,0,0-1.2-1.77,10.13,10.13,0,0,0-2.06-3.29l-.18-.22a11,11,0,0,0-.57-1.2,7.16,7.16,0,0,1-.8-2,2.16,2.16,0,0,0-.71-1.36l-.14-.12.08-.15,0-.08a1,1,0,0,0,0-.83,1.7,1.7,0,0,0,1.61,0,1.55,1.55,0,0,0,.66-1.54,12,12,0,0,1,.65-3.81l.13-.43a5.71,5.71,0,0,0-1.14-5.27,8.3,8.3,0,0,0-1.29-3v0a.79.79,0,0,0-.22-.63.74.74,0,0,0-.61-.18h-.13a2.05,2.05,0,0,0-1,.25,1.57,1.57,0,0,1-1.79.18,1.58,1.58,0,0,0-1.87.16,2.41,2.41,0,0,0-.33.3c-.18.17-.26.25-.34.26a3.1,3.1,0,0,0-1.3-1,2.16,2.16,0,0,1-1-.71.61.61,0,0,0-.48-.27.92.92,0,0,0-.69.17c-.31.29-.52.23-1.06,0-.14-.06-.28-.13-.42-.18a2.28,2.28,0,0,0-1.36-.08,15.13,15.13,0,0,0-4.5,2.16c-.12.1-.24.19-.36.3-.62.5-1.16,1-1.93.72a2.86,2.86,0,0,0-2.07-.8,3.62,3.62,0,0,0-.58,0,1.34,1.34,0,0,1-.77-.08,4.16,4.16,0,0,0-1.27-.49,4.27,4.27,0,0,1-1.07-.39,6.82,6.82,0,0,0-2.93-.63c-.38,0-.79,0-1.16-.1a3.75,3.75,0,0,0-2.81.09c-.43.16-.46.14-.62-.24-.7-1.73-1.21-1.84-2.94-1.55A1.53,1.53,0,0,1,976,115a2.9,2.9,0,0,0-2-.59c-.61,0-.87-.21-.92-.78v-.11c0-.22,0-.81-.61-.9a5.88,5.88,0,0,1-1.24-.38,6.35,6.35,0,0,0-1.34-.42,8.29,8.29,0,0,0-4,.25,12.45,12.45,0,0,0-3.92,1.86,3.45,3.45,0,0,0-1,4.62,1.26,1.26,0,0,1-.19,1.8c-1.59,1.94-2.55,2.16-4.1,1l-.07,0a11.22,11.22,0,0,0-2.27-1.47,13.36,13.36,0,0,0-5.19-1.47c-2.25-.05-3.21-.92-3.53-3.21-.08-.57-.26-1.74-1.65-1.66a2.22,2.22,0,0,1-.69-.14,3.31,3.31,0,0,0-.42-.12,4.21,4.21,0,0,1-1.15-.56,4,4,0,0,0-1.84-.73,4.46,4.46,0,0,1-1-.23,3.2,3.2,0,0,0-2.44,0,2.29,2.29,0,0,1-2.34-.4,5.42,5.42,0,0,0-1.85-.81l-.29,0c-.51-.1-.94-.2-1-.46a7.24,7.24,0,0,0-.22-.89,5.5,5.5,0,0,1-.21-.92c-.06-.65-.38-1-1-1h-.09a.81.81,0,0,0-1,.8.21.21,0,0,1-.06.09.2.2,0,0,1-.15,0c-.4-.06-.67-.33-.94-1,0-.11-.16-.4.35-.63a6.7,6.7,0,0,0,2.9-2.46,3,3,0,0,0,.51-2.4,2.27,2.27,0,0,0-1.35-2,.81.81,0,0,1-.31-.61.7.7,0,0,1,.05-.46,3.16,3.16,0,0,0,1.41-1.14,5.12,5.12,0,0,1,.42-.49,1.45,1.45,0,0,0,.4-1.58,1.18,1.18,0,0,0-.93-.8,1,1,0,0,1-.34-.14.52.52,0,0,0-.76,0,.64.64,0,0,0-.09.89h0a1.08,1.08,0,0,0-.63.22l-.06-.21a1.18,1.18,0,0,1-.08-.41v0a.87.87,0,0,0-.61-1,4.47,4.47,0,0,0-4.22.33,3.85,3.85,0,0,1-2.22.62,7.94,7.94,0,0,0-1.43.2.79.79,0,0,0-.32-.31,2.14,2.14,0,0,0-.83-.41l-.31-.11a1.49,1.49,0,0,0-1.1-.07.68.68,0,0,0-.38.46.46.46,0,0,1,0,.09l-.12,0-.1,0-.37-.06-.32,0a1.06,1.06,0,0,0-1.44-.53l-.05-.14-.46.37-.09.05a.9.9,0,0,0-.44.42l-.53.1a2.56,2.56,0,0,1-1,.1.78.78,0,0,0-.86.53,1,1,0,0,1-.26,0l-.09,0a.56.56,0,0,0-.29-.4.61.61,0,0,0-.42-.27.75.75,0,0,0-.58-.2,13.65,13.65,0,0,0-4.2-.26.39.39,0,0,0-.29.17,2,2,0,0,1-1.4.06,1.33,1.33,0,0,0-1.69.38l-.08.09-.1,0-.11,0a8,8,0,0,0-2.62,0,9.08,9.08,0,0,1-1.94.06l-.11,0a1.26,1.26,0,0,0-1.07.21.74.74,0,0,0-.44.25l-.25,0a1.5,1.5,0,0,0-.84.32l-.19,0a1.64,1.64,0,0,0-.68.27.74.74,0,0,0-.4.19.8.8,0,0,0-.52.35.84.84,0,0,0-.36.54l0,.06a1,1,0,0,1-.28.2,1.18,1.18,0,0,0-.86-.45,1.44,1.44,0,0,0-1,.52c-.06.06-.19.07-.4.07h-.36a1,1,0,0,0-1,.37l0,0a.79.79,0,0,0-.54.35.84.84,0,0,0-.36.54l-.1.1,0,.06a.87.87,0,0,1-.21,0,1.07,1.07,0,0,0-.8.38l0,0a.73.73,0,0,0-.45.26,2.4,2.4,0,0,1-1.15-.07,4.35,4.35,0,0,0-1-.12h-.17a43.36,43.36,0,0,1-37.26,65.57Z"/><path class="cls-3" d="M884.33,121.7A37.71,37.71,0,1,1,846.62,84,37.75,37.75,0,0,1,884.33,121.7Z"/><path class="cls-1" d="M61.75,236.29H41.48L10,88.73H28.1L47.38,190.45c1.77,10,3.15,20.26,4.33,34h.39c1.38-11.41,2.56-22.24,4.73-32.86L78.47,88.73H98.73l19.48,101.72c1.77,9.84,3,19.67,4.33,34h.39c1.38-11.41,2.56-22.24,4.73-32.86L149.1,88.73h18.1L132.57,236.29H112.31L92.63,136.15c-2-9.64-3.14-19.48-4.32-35.61h-.4c-1.37,14.16-2.56,25-4.72,35.61Z"/><path class="cls-1" d="M216.19,239.24c-23.61,0-39.15-14.16-39.15-61.38,0-33.06,12.2-53.91,39.15-53.91s39.15,20.85,39.15,53.91C255.34,225.27,240.19,239.24,216.19,239.24Zm0-102.11c-15.94,0-23,12.59-23,45.65,0,25.77,4.92,43.28,23,43.28,18.49,0,23-17.51,23-43.28C239.21,149.72,232.52,137.13,216.19,137.13Z"/><path class="cls-1" d="M296.26,144.8h.4c6.49-14.36,15.74-20.46,32.07-19.08v15.35c-20.07-3.55-31.88,9.05-31.88,28.92v66.3H281.31V126.9h14.95Z"/><path class="cls-1" d="M345.05,236.29V88.73H360.6V236.29Z"/><path class="cls-1" d="M442.44,88.73H458V236.29H443V221.93h-.39c-6.69,13-13.38,17.31-26.56,17.31-34.43,0-31.68-48.2-32.07-57.84-1.18-32.07,9.44-57.45,32.85-57.45,11.22,0,17.91,4.72,25.19,14.16h.39Zm0,91.1c0-15-.39-42.7-21.25-42.7-13,0-21.44,10.23-21.44,43.88,0,23.61.78,45.05,22,45.05,16.14,0,20.66-20.26,20.66-32.66Z"/><path class="cls-1" d="M58.82,296.12c.78-10.17-4.7-17.87-15.52-17.87-15.78,0-17.47,9.91-17.47,17.48,0,6.78,3,10.95,9.25,13.3,5.22,2,10.31,3.91,15.52,5.87,18.52,6.91,21.91,13.43,21.91,26.34,0,18.51-11.61,29.34-30.39,29.34-9.64,0-21.12-2.74-26.73-15.52-2.08-4.82-2-12.65-2.08-17.86H24.13c-.52,14.47,2.22,23.6,18.52,23.6,11,0,18.64-5.61,18.64-17.08,0-14.87-6-15-15.9-18.78-5.35-2.09-14-4.83-19.17-7.57-9.26-4.69-11.61-12.51-11.61-22.16,0-16.17,11.35-26.74,27.25-26.74,17.87,0,28.82,9.26,27.78,27.65Z"/><path class="cls-1" d="M148.8,270.43h10.82v70.29c-.13,7.69,1.18,20.08,18.52,20.08s18.65-12.39,18.52-20.08V270.43h10.82v74.2c0,17.47-11.61,25.95-29.34,25.95s-29.34-8.48-29.34-25.95Z"/><path class="cls-1" d="M349.49,270.43h19v97.8H357.71V287.64c0-4.17.26-8.21,0-12.39h-.26c-1.18,5.74-2.09,9.39-3,13.18L334,368.23H321.06l-20.47-81c-.91-3.39-1.69-6.65-2.87-12h-.26c0,4.18.26,8.48.26,12.65v80.33H286.9v-97.8h19.17l19.17,76.28a87.26,87.26,0,0,1,2.08,14.48h.26a139.64,139.64,0,0,1,2.48-14.61Z"/><path class="cls-1" d="M510,270.43h19v97.8H518.24V287.64c0-4.17.26-8.21,0-12.39H518c-1.18,5.74-2.09,9.39-3,13.18l-20.48,79.8H481.6l-20.48-81c-.91-3.39-1.69-6.65-2.87-12H458c0,4.18.26,8.48.26,12.65v80.33H447.43v-97.8H466.6l19.17,76.28a87.26,87.26,0,0,1,2.08,14.48h.27a137,137,0,0,1,2.47-14.61Z"/><path class="cls-1" d="M610.83,368.23v-97.8h10.82v97.8Z"/><path class="cls-1" d="M695.33,270.43h61.42v9.78H731.46v88H720.63v-88h-25.3Z"/><path class="cls-3" d="M483.36,236.29V88.73h41.12c13.38,0,32.66,1.18,42.3,12.2,8.07,9,9.64,20.07,9.64,32.07,0,15.94-3.73,33.84-19.47,41.12-12,5.9-26,4.13-39,4.72v57.45Zm34.63-84c6.49-.2,14,.59,19.48-3.74,3.54-3.93,4.33-9.83,4.33-14.95,0-5.71-.59-14.36-6.5-17.12-3.34-1.18-8.06-1.18-13.57-1.18H518Zm66.7-3.54V126.11h12.39V94.63h31.28v31.48h15v22.63h-15v58c0,6.3,2.76,7.67,6.89,7.67a37.6,37.6,0,0,1,8.07-.39v22a135.12,135.12,0,0,1-20.07,1.78c-16.92,0-26.17-8.66-26.17-25.38V148.74Zm118-15.15h.4l15.73-44.86h34.63l-30.69,74,32.07,73.58H720.24l-16.72-44.07h-.39l-19.68,44.07H650.4l32.85-73.58-31.08-74H686.6Z"/></g><rect class="cls-1" x="451.21" y="416.16" width="643.79" height="35"/><path class="cls-1" d="M77.18,425.73H70v-2.92c4.8-.09,7.45-1,8-6.24h2.92v33.67H77.18Z"/><path class="cls-1" d="M91.14,437.89v-3.73h10.91v3.73Z"/><path class="cls-1" d="M112.51,431.2c3-.18,7,.45,7-5.74,0-3.28-1-5.53-4.71-5.53-4.22,0-4.81,3.15-4.81,6.6h-3.54c-.18-5.65,2.33-10,8.44-10,5,0,8.39,3.27,8.39,8.35,0,3.63-1.12,6.28-4.71,7.54v.09c3.9.85,5.61,3.95,5.61,7.77,0,6.28-2.78,10.59-9.47,10.59s-9-4.44-8.89-10.55h3.68c-.31,3.59.72,7.18,5.52,7.18,3.68,0,5.43-2.56,5.43-6,0-5.88-2.24-7-7.9-7Z"/><path class="cls-1" d="M141.42,450.24V416.57h9.25c10.51,0,11.94,8.53,11.67,16.83s-1.88,16.84-11,16.84Zm3.73-3.37h6c5.48,0,7.72-4.09,7.36-14.14-.27-7.68-1.34-12.8-7.36-12.8h-6Z"/><path class="cls-1" d="M182.72,441.93c.23,4.89-2.28,9-7.54,9-4.71,0-8.08-3.14-8.08-13.2,0-5.25,1.39-13.11,8-13.11,8.08,0,7.63,7.63,7.81,13.47H170.78c.09,3.37-.49,9.83,4.49,9.83,3.41,0,4.36-3.14,4.13-6Zm-3.5-6.78c-.13-2.92.05-7.54-4.08-7.54s-4.22,4.58-4.36,7.54Z"/><path class="cls-1" d="M190.76,438.83c0,3.28.22,9.07,4.76,9.07,3.86,0,4.22-3.32,4.4-6.37h3.37c-.14,4.8-1.94,9.38-7.5,9.38-7.63,0-8.71-6.38-8.71-12.84,0-6.1,1-13.47,8.62-13.47,5,0,7.45,3.91,7.41,8.53h-3.33c0-2.74-.76-5.52-4.13-5.52C190.49,427.61,190.76,435.29,190.76,438.83Z"/><path class="cls-1" d="M222.59,441.93c.22,4.89-2.29,9-7.54,9-4.72,0-8.08-3.14-8.08-13.2,0-5.25,1.39-13.11,8-13.11,8.08,0,7.63,7.63,7.81,13.47H210.65c.09,3.37-.5,9.83,4.49,9.83,3.41,0,4.35-3.14,4.13-6Zm-3.5-6.78c-.14-2.92,0-7.54-4.09-7.54s-4.22,4.58-4.35,7.54Z"/><path class="cls-1" d="M231.92,450.24h-3.54v-25h3.41v3.18h.09a7,7,0,0,1,5.93-3.86,6.51,6.51,0,0,1,5.92,3.95c1.75-2.56,3.55-3.95,6.69-3.95a6.75,6.75,0,0,1,4.58,1.75c1.62,1.49,1.53,4.27,1.53,5.84v18.05H253V432c0-2.79-.76-4.36-3.82-4.36a5.2,5.2,0,0,0-3.32,1.39c-1.43,1.3-1.61,2.74-1.61,4.54v16.7h-3.55V432c0-2.61-.85-4.36-3.73-4.36a5.06,5.06,0,0,0-3.5,1.39c-1.44,1.3-1.53,2.74-1.53,4.54Z"/><path class="cls-1" d="M266.49,450.24h-3.23V416.57h3.55v11.27h.09c1.39-2.25,3-3.24,5.2-3.24,6.33,0,7.86,6.42,7.86,11.54,0,7.09-.94,14.77-7.68,14.77a5.88,5.88,0,0,1-5.7-3.64h-.09Zm5.08-2.34c3.68,0,4.71-3.86,4.71-10.59,0-3.28-.23-9.7-4.76-9.7-5.25,0-4.94,7.14-4.94,10.77S266.54,447.9,271.57,447.9Z"/><path class="cls-1" d="M299.89,441.93c.23,4.89-2.29,9-7.54,9-4.71,0-8.08-3.14-8.08-13.2,0-5.25,1.39-13.11,8-13.11,8.08,0,7.63,7.63,7.81,13.47H288c.09,3.37-.49,9.83,4.49,9.83,3.41,0,4.35-3.14,4.13-6Zm-3.5-6.78c-.13-2.92.05-7.54-4.08-7.54s-4.22,4.58-4.36,7.54Z"/><path class="cls-1" d="M309.32,429.36h.09c1.48-3.28,3.59-4.67,7.32-4.35v3.5c-4.58-.81-7.28,2.06-7.28,6.6v15.13h-3.54v-25h3.41Z"/><path class="cls-1" d="M336.7,442a6.28,6.28,0,0,0-2.42,4.89h14.23v3.37H330.42a19.55,19.55,0,0,1,1.35-7.28,11.64,11.64,0,0,1,2.65-3.36l6.41-6.2c2.61-2.51,3.51-3.86,3.51-7.54,0-3.41-1.17-5.93-5-5.93-4.62,0-5,4.54-4.93,8.08h-3.73V426a10.62,10.62,0,0,1,2.15-6.73,8.58,8.58,0,0,1,6.69-2.65c5.75,0,8.67,3.81,8.67,9.38,0,4.94-2,7.36-5.44,10.5Z"/><path class="cls-1" d="M353,433.67c0-6.28.4-17.1,9.15-17.1,9.43,0,9.21,10.68,9.21,17.1,0,7.63-.41,17.24-9.21,17.24C353.13,450.91,353,439.64,353,433.67Zm9.15,13.87c5.57,0,5.35-8,5.35-14.45,0-4.76.49-12.75-5.35-13.16s-5.29,10.06-5.29,13.16C356.82,439.55,355.92,447.54,362.11,447.54Z"/><path class="cls-1" d="M381.6,442a6.25,6.25,0,0,0-2.43,4.89H393.4v3.37H375.31a19.75,19.75,0,0,1,1.35-7.28,11.64,11.64,0,0,1,2.65-3.36l6.42-6.2c2.6-2.51,3.5-3.86,3.5-7.54,0-3.41-1.17-5.93-5-5.93-4.63,0-5,4.54-4.94,8.08h-3.73V426a10.57,10.57,0,0,1,2.16-6.73,8.53,8.53,0,0,1,6.68-2.65c5.75,0,8.67,3.81,8.67,9.38,0,4.94-2,7.36-5.43,10.5Z"/><path class="cls-1" d="M397.85,433.67c0-6.28.4-17.1,9.16-17.1,9.42,0,9.2,10.68,9.2,17.1,0,7.63-.41,17.24-9.2,17.24C398,450.91,397.85,439.64,397.85,433.67ZM407,447.54c5.56,0,5.34-8,5.34-14.45,0-4.76.49-12.75-5.34-13.16s-5.3,10.06-5.3,13.16C401.71,439.55,400.81,447.54,407,447.54Z"/></g></g></g></svg>