<svg xmlns="http://www.w3.org/2000/svg" viewBox="0 0 657.73 831.12"><defs><style>.cls-1{fill:#1a1449;}.cls-2{fill:#333;}.cls-3{fill:#76a63d;}.cls-4{fill:#0884b5;}</style></defs><g id="Layer_2" data-name="Layer 2"><g id="Logo_PtX_LIGHT" data-name="Logo PtX LIGHT"><g id="Logo_PtX_LIGHT_-_Square" data-name="Logo PtX LIGHT - Square"><path class="cls-1" d="M12.77,821.13h.07l2.94-14.56h1.89l-4,18.27h-2L8.87,810.51H8.8L6,824.84H3.87L0,806.57H1.92l3,14.56H5l2.82-14.56H9.89Z"/><path class="cls-1" d="M47.71,821.13h.07l2.94-14.56h1.89l-4,18.27h-2l-2.81-14.33h-.07l-2.81,14.33H38.81l-3.87-18.27h1.92l3,14.56h.06l2.82-14.56h2.11Z"/><path class="cls-1" d="M82.65,821.13h.07l2.94-14.56h1.89l-4,18.27h-2l-2.81-14.33h-.07l-2.81,14.33H73.75l-3.87-18.27H71.8l3,14.56h.06l2.81-14.56h2.12Z"/><path class="cls-1" d="M105.78,824.84v-2.92h2.28v2.92Z"/><path class="cls-1" d="M140.25,821.13h.07l2.94-14.56h1.89l-4,18.27h-2l-2.81-14.33h-.07l-2.81,14.33h-2.12l-3.87-18.27h1.92l3,14.56h.06l2.82-14.56h2.11Z"/><path class="cls-1" d="M163.68,815.27c0-4.1.76-9.16,5.79-9.16s5.69,5.52,5.69,9.53-.53,9.66-5.79,9.66C163.81,825.3,163.68,819.51,163.68,815.27Zm9.56.4c0-2.85-.07-7.87-4-7.87-3.45,0-3.64,5-3.64,7.51,0,2.71-.2,8.3,3.73,8.3S173.24,818.42,173.24,815.67Z"/><path class="cls-1" d="M197.39,808.69h.07a4.15,4.15,0,0,1,4.33-2.58v2c-3-.07-4.3,1.85-4.3,4.73v12h-1.92V806.57h1.82Z"/><path class="cls-1" d="M221.74,824.84V800h1.92v24.82Z"/><path class="cls-1" d="M253.64,800h1.92v24.82h-1.92v-1.72h-.07a4.13,4.13,0,0,1-3.94,2.18c-4.93,0-5.26-6-5.26-9.66s.43-9.53,5.33-9.53a5,5,0,0,1,3.87,1.95h.07Zm-7.35,16c0,2.58.17,7.61,3.77,7.61,3.91,0,3.58-6.19,3.58-8.7s-.17-7.11-3.68-7.11S246.29,813.52,246.29,816Z"/><path class="cls-1" d="M278.05,831.12h-2V806.57H278v1.66h.06a4.35,4.35,0,0,1,3.64-2.12c5,0,5.5,5.23,5.5,9.13s0,10.06-5.33,10.06a4.15,4.15,0,0,1-3.74-1.95h-.07Zm3.64-7.51c3.61,0,3.58-5.33,3.58-7.74s0-8.07-3.51-8.07c-4,0-3.77,5-3.77,7.8S277.79,823.61,281.69,823.61Z"/><path class="cls-1" d="M312,825a6.91,6.91,0,0,1-2.48.1c-1.69-.59-2-1.42-2-3.18V808.26h-1.65v-1.69h1.65v-5.36h1.92v5.36H312v1.69h-2.55v13.47c0,.63.07,1.55,1,1.72a2.54,2.54,0,0,0,1.59,0Z"/><path class="cls-1" d="M335.65,817.09l-3.87,7.75H329.7l4.8-9.57-4.47-8.7h2.15l3.47,7,3.55-7h2.21l-4.56,8.7,4.86,9.57h-2.15Z"/><path class="cls-1" d="M364.84,806.11c3.14,0,5,2,5,5.13h-1.89c-.06-1.92-1.12-3.44-3.14-3.44-1.82,0-2.71,1.12-2.71,2.91a3,3,0,0,0,2.21,2.78c3.25,1.49,6,2.88,6,6.78,0,3.24-2,5-5.19,5-3.58,0-5.33-1.95-5.33-5.43h1.95c.17,2.25,1.16,3.74,3.51,3.74,2,0,3.14-1.52,3.14-3.44,0-4.83-7.94-3.87-8.2-8.8C359.84,808.06,361.49,806.11,364.84,806.11Z"/><path class="cls-1" d="M398.72,806.57h1.92v18.27h-1.86v-1.69h-.06a5.3,5.3,0,0,1-4.6,2.15c-3.35,0-4-2.38-4-5.23v-13.5H392V820.4c0,2.32.89,3.38,3.21,3.21,1.52-.06,2.91-1.59,3.51-3.14Z"/><path class="cls-1" d="M423.17,824.84h-1.92V806.57h1.92v1.62h.06a4.47,4.47,0,0,1,3.87-2.08,3.7,3.7,0,0,1,3.84,2H431a5.08,5.08,0,0,1,4.3-2c3.28,0,4.2,2.08,4.2,5v13.77h-1.92v-14c0-1.52-.59-3.08-2.51-3.08a3.51,3.51,0,0,0-3.74,3.74v13.34h-1.92V811.63c0-2-.23-3.83-2.71-3.83-1.53,0-3.54,1.48-3.54,3.11Z"/><path class="cls-1" d="M461.78,824.84h-1.92V806.57h1.92v1.62h.06a4.49,4.49,0,0,1,3.87-2.08,3.7,3.7,0,0,1,3.84,2h.07a5.08,5.08,0,0,1,4.3-2c3.28,0,4.2,2.08,4.2,5v13.77H476.2v-14c0-1.52-.59-3.08-2.51-3.08A3.51,3.51,0,0,0,470,811.5v13.34H468V811.63c0-2-.23-3.83-2.71-3.83-1.53,0-3.54,1.48-3.54,3.11Z"/><path class="cls-1" d="M499.13,803.16V800h2.22v3.14Zm.13,21.68V806.57h1.92v18.27Z"/><path class="cls-1" d="M527.09,825a6.91,6.91,0,0,1-2.48.1c-1.69-.59-2-1.42-2-3.18V808.26H521v-1.69h1.65v-5.36h1.92v5.36h2.55v1.69h-2.55v13.47c0,.63.07,1.55,1,1.72a2.54,2.54,0,0,0,1.59,0Z"/><path class="cls-1" d="M546.87,824.84v-2.92h2.28v2.92Z"/><path class="cls-1" d="M580.06,818.78c0,3.38-1.23,6.52-5.07,6.52-5.36,0-5.55-5.59-5.55-9.7,0-3.93.43-9.49,5.49-9.49,3.27,0,5,2.81,5,5.85H578c-.07-2.21-1.13-4.23-3.21-4.16-3.61.09-3.44,5.29-3.44,8.14,0,2.54-.07,7.67,3.67,7.67,2.68,0,2.91-2.74,3.11-4.83Z"/><path class="cls-1" d="M599.25,815.27c0-4.1.76-9.16,5.79-9.16s5.69,5.52,5.69,9.53-.53,9.66-5.79,9.66C599.38,825.3,599.25,819.51,599.25,815.27Zm9.56.4c0-2.85-.07-7.87-4-7.87-3.45,0-3.64,5-3.64,7.51,0,2.71-.2,8.3,3.73,8.3S608.81,818.42,608.81,815.67Z"/><path class="cls-1" d="M632.7,824.84h-1.92V806.57h1.92v1.62h.06a4.47,4.47,0,0,1,3.87-2.08,3.7,3.7,0,0,1,3.84,2h.07a5.08,5.08,0,0,1,4.3-2c3.28,0,4.2,2.08,4.2,5v13.77h-1.92v-14c0-1.52-.59-3.08-2.51-3.08a3.51,3.51,0,0,0-3.74,3.74v13.34H639V811.63c0-2-.23-3.83-2.71-3.83-1.53,0-3.54,1.48-3.54,3.11Z"/><path class="cls-1" d="M53.67,579.28H36.05L8.69,451H24.42l16.76,88.41c1.54,8.72,2.74,17.62,3.76,29.59h.35c1.19-9.92,2.22-19.33,4.1-28.56L68.2,451H85.81l16.93,88.41c1.54,8.55,2.57,17.1,3.76,29.59h.35c1.19-9.92,2.22-19.33,4.1-28.56L129.59,451h15.73L115.23,579.28H97.61l-17.1-87c-1.71-8.38-2.73-16.93-3.76-31h-.34c-1.2,12.32-2.22,21.72-4.11,31Z"/><path class="cls-1" d="M187.9,581.84c-20.52,0-34-12.31-34-53.35,0-28.73,10.6-46.86,34-46.86s34,18.13,34,46.86C221.93,569.7,208.76,581.84,187.9,581.84Zm0-88.75c-13.85,0-20,10.94-20,39.67,0,22.4,4.28,37.62,20,37.62,16.08,0,20-15.22,20-37.62C207.91,504,202.09,493.09,187.9,493.09Z"/><path class="cls-1" d="M257.5,499.76h.34c5.64-12.48,13.68-17.78,27.87-16.59v13.34c-17.44-3.08-27.7,7.87-27.7,25.14v57.63H244.5V484.2h13Z"/><path class="cls-1" d="M299.9,579.28V451h13.51V579.28Z"/><path class="cls-1" d="M384.55,451h13.51V579.28h-13V566.79h-.34c-5.82,11.29-11.63,15.05-23.09,15.05-29.92,0-27.53-41.89-27.87-50.27-1-27.88,8.21-49.94,28.56-49.94,9.74,0,15.56,4.11,21.89,12.32h.34Zm0,79.18c0-13-.34-37.11-18.47-37.11-11.29,0-18.64,8.89-18.64,38.13,0,20.52.68,39.16,19.15,39.16,14,0,18-17.61,18-28.38Z"/><path class="cls-2" d="M51.12,631.28c.68-8.85-4.08-15.53-13.49-15.53-13.71,0-15.18,8.61-15.18,15.19,0,5.89,2.6,9.52,8,11.56,4.54,1.7,9,3.4,13.49,5.1,16.09,6,19,11.67,19,22.89C63,686.58,52.93,696,36.61,696c-8.38,0-18.36-2.38-23.23-13.49-1.81-4.19-1.7-11-1.81-15.52H21c-.45,12.58,1.93,20.51,16.1,20.51,9.52,0,16.2-4.87,16.2-14.85,0-12.92-5.21-13-13.82-16.32-4.65-1.81-12.13-4.19-16.66-6.57-8-4.08-10.09-10.88-10.09-19.27,0-14.05,9.86-23.23,23.69-23.23,15.52,0,25,8,24.14,24Z"/><path class="cls-2" d="M129.33,609h9.41V670c-.12,6.68,1,17.45,16.09,17.45S171,676.72,170.92,670V609h9.41v64.49c0,15.18-10.09,22.55-25.5,22.55s-25.5-7.37-25.5-22.55Z"/><path class="cls-2" d="M303.76,609h16.55v85H310.9v-70c0-3.63.23-7.14,0-10.77h-.22c-1,5-1.82,8.16-2.61,11.45L290.27,694H279.05l-17.79-70.38c-.79-3-1.47-5.78-2.49-10.43h-.23c0,3.63.23,7.37.23,11V694h-9.41V609H266l16.66,66.3a74.86,74.86,0,0,1,1.81,12.58h.23a119.17,119.17,0,0,1,2.15-12.69Z"/><path class="cls-2" d="M443.29,609h16.54v85h-9.4v-70c0-3.63.22-7.14,0-10.77h-.23c-1,5-1.81,8.16-2.61,11.45L429.8,694H418.58l-17.8-70.38c-.79-3-1.47-5.78-2.49-10.43h-.23c0,3.63.23,7.37.23,11V694h-9.41V609h16.67l16.66,66.3A75.91,75.91,0,0,1,424,687.83h.23a116.69,116.69,0,0,1,2.15-12.69Z"/><path class="cls-2" d="M530.9,694V609h9.41v85Z"/><path class="cls-2" d="M604.35,609h53.38v8.5h-22V694h-9.41v-76.5h-22Z"/><path class="cls-3" d="M420.11,579.28V451h35.74c11.63,0,28.39,1,36.77,10.61,7,7.86,8.38,17.44,8.38,27.87,0,13.85-3.25,29.41-16.93,35.74-10.43,5.13-22.57,3.59-33.86,4.1v49.94Zm30.1-73c5.64-.17,12.14.51,16.93-3.25,3.08-3.42,3.76-8.55,3.76-13,0-5-.51-12.48-5.64-14.87-2.91-1-7-1-11.8-1h-3.25Zm58-3.08V483.51H519V456.15h27.19v27.36h13v19.67h-13v50.45c0,5.47,2.4,6.67,6,6.67a32.22,32.22,0,0,1,7-.35v19.16a118.86,118.86,0,0,1-17.44,1.53c-14.71,0-22.75-7.52-22.75-22V503.18ZM610.78,490h.34l13.68-39h30.1l-26.68,64.3,27.88,64H626L611.46,541h-.34L594,579.28H565.29l28.56-64-27-64.3h29.93Z"/><path class="cls-4" d="M190.68,111.68a59.31,59.31,0,0,1-32.74-9.81,1.51,1.51,0,0,0-.7,1.06,1.61,1.61,0,0,0-.24,1.23c0,.1,0,.19,0,.27a1.77,1.77,0,0,0-.15,2.51,3.15,3.15,0,0,1,.38.59,4.72,4.72,0,0,0,.5.76,20.35,20.35,0,0,0,.16,2.23,12.12,12.12,0,0,1,.11,2.74,5.15,5.15,0,0,0-.52,2.19,1.11,1.11,0,0,0-.25.83v0a9.5,9.5,0,0,0-1.2,2.38.89.89,0,0,0-.31.57.94.94,0,0,0-.28.6,2,2,0,0,0-.49.94,1.05,1.05,0,0,0-.29.81,1.08,1.08,0,0,0-.25.84,2.41,2.41,0,0,0-.52,1.41,8.6,8.6,0,0,1-5,7.19l-.08,0a1,1,0,0,0-.81,1.08,1.25,1.25,0,0,0,.44.92,1.08,1.08,0,0,0,.84.24c.23,0,.33,0,.51.59a7.59,7.59,0,0,0,.67,1.44,3.23,3.23,0,0,1,.65,2.22l-.11.55.55.13h.07c0,.05,0,.14,0,.19a1.43,1.43,0,0,0,0,.7.91.91,0,0,0-.72.24.81.81,0,0,0-.22.55v0a1.84,1.84,0,0,0-.14.56v.1a22,22,0,0,1-.23,3.37c-.14.9-.52,3.27,1.87,4.2a.68.68,0,0,1,0,.21v.14a2.17,2.17,0,0,0,.74,1.59,2.12,2.12,0,0,0-.76.25,1.08,1.08,0,0,0-.63.82,1.06,1.06,0,0,0,.11.59.84.84,0,0,0-.59.84c0,.44.12,1,1,1.06h.08a.7.7,0,0,0,.26.2,1.34,1.34,0,0,0,.36,1,1.66,1.66,0,0,0,1.58.18l.21,0a2.55,2.55,0,0,0,1-.48,1.34,1.34,0,0,1,.75-.33,1.21,1.21,0,0,0,.8-.43,2.6,2.6,0,0,0,1,1.43,1.7,1.7,0,0,1,.73.9.77.77,0,0,0,.51.55,1.13,1.13,0,0,0,1-.37.2.2,0,0,1,.06-.07,4.51,4.51,0,0,1,.25,1.59.57.57,0,0,0,.26.56,8.86,8.86,0,0,1,.69.84,4.59,4.59,0,0,0,1.84,1.72,5.36,5.36,0,0,1,1.41,1.14l.66.65h0s0,0,0,0a.89.89,0,0,0-.66.38,1,1,0,0,0-.1.83l.13.58.58-.14c1-.25,1.15.09,1.59,1.24l.21.51a3.26,3.26,0,0,1,.17,1.31,4.43,4.43,0,0,0,.2,1.59.92.92,0,0,0-.36.35,1,1,0,0,0,.25,1.17c.21.18.28.29-.07,1l-.56,1.23,1.28-.44a3,3,0,0,1,1-.25,2,2,0,0,1-.12.61,1,1,0,0,0,.08.8,1.68,1.68,0,0,0-.55.15l-.43.19.14.61c.08.35.23,1.11,1,1.18a4.61,4.61,0,0,1,1.83.76c.34.19.71.4,1.1.58l1,.4a6.7,6.7,0,0,1,3.1,1.84,10,10,0,0,0,3.67,2.91c0,.89.54,1.47,1.73,1.71a4.13,4.13,0,0,1,2,1.28,9,9,0,0,0,.73.64,17.14,17.14,0,0,1,2,2.06,15.92,15.92,0,0,0,2.81,2.67,34.75,34.75,0,0,0,5,2.68c.93.44,1.91.88,2.83,1.38a2.66,2.66,0,0,0,2.36-.08l.94-.47a22.67,22.67,0,0,1,3.36-1.42,15.34,15.34,0,0,0,2-.81,10.76,10.76,0,0,1,2.24-.83,44,44,0,0,1,5.39-.63l2.71-.22a16.24,16.24,0,0,1,5.25.55l1.36.29,1,.16a5.45,5.45,0,0,1,3,1,2.18,2.18,0,0,0,2.1.4l.22,0a3.9,3.9,0,0,0,1.59-.8,2.68,2.68,0,0,1,1.16-.62,18.26,18.26,0,0,0,5.49-1.72l.19-.11c2.06-1.16,4-2.26,6.34-2a1.64,1.64,0,0,0,2.08-1.46.72.72,0,0,1,.31-.54,9.46,9.46,0,0,0,2-.42,10.44,10.44,0,0,1,1.63-.36l.7-.06a70.3,70.3,0,0,1,10.67-.48,4.89,4.89,0,0,1,3.67,1.46,18.38,18.38,0,0,1,3.7,6.72,5,5,0,0,0,3.9,3.58,14,14,0,0,0,4.19-.24,16.44,16.44,0,0,1,2.7-.32,7.24,7.24,0,0,0,1.84-.36,6.2,6.2,0,0,1,1.7-.32c.13,0,.26,0,.39,0a2.79,2.79,0,0,0,1.86-.34,1.41,1.41,0,0,0,.49.48,1.64,1.64,0,0,0,1.46,0l0,0a3.34,3.34,0,0,1,.2.67,2.28,2.28,0,0,0,1,1.72,4.38,4.38,0,0,0,2.6.77,2.72,2.72,0,0,0,1,2.33,1.78,1.78,0,0,1,.66,2,20.19,20.19,0,0,0-.62,5.15,1.92,1.92,0,0,1-.24,1.13c-.22.34-.46.69-.71,1s-.66,1-1,1.46l-.08.13a1.64,1.64,0,0,0-.36,1.54,1.43,1.43,0,0,0,1.05.66,2.1,2.1,0,0,0,.09.91,1.16,1.16,0,0,0-1.31.91,2.47,2.47,0,0,0,.17,1.65l-.24,0v.51c0,.16,0,.34,0,.51,0,.34,0,.67,0,1q-.16,2-.9,2.49a1.94,1.94,0,0,1-1.62,0l-.52-.16-.19.52a2.36,2.36,0,0,0,.37,2.19,20,20,0,0,1,2.23,4.21A14.64,14.64,0,0,0,292,233l.32.36a16.15,16.15,0,0,0,2.31,2.14,23.07,23.07,0,0,1,1.92,1.71l2.52,2.77c1.1,1.23,2.23,2.49,3.39,3.71a6.7,6.7,0,0,1,1.07,1.69,10.17,10.17,0,0,0,1,1.72,3.45,3.45,0,0,1,.77,1.47,1.42,1.42,0,0,1-.13.23,1,1,0,0,0,0,1.44,3.53,3.53,0,0,1,.91,2.15,9.72,9.72,0,0,0,.32,1.29,6.14,6.14,0,0,0,1.21,1.89,5.06,5.06,0,0,1,1,1.46l.29.84a32.16,32.16,0,0,0,3,6.9,1.82,1.82,0,0,1,.1,1.08,4.14,4.14,0,0,0-1.82,2.5,3.19,3.19,0,0,0,.69,2.32v0a14.62,14.62,0,0,0,2.44,5.5,5.39,5.39,0,0,1,1.17,4,2.79,2.79,0,0,0-.07.4,6.83,6.83,0,0,0-.19,1.58c.08,2.61-.42,3.51-2.59,4.93-1.48.95-1.45,1.57-1.44,1.78,0,.7-.33,1-1,1.53a6.31,6.31,0,0,0-.76.7.38.38,0,0,1-.11.08,1,1,0,0,0-.56,1,3.57,3.57,0,0,1-.33,1.62,4.55,4.55,0,0,0-.36,1.58,14.53,14.53,0,0,1-.85,4.34,18.83,18.83,0,0,0-.84,3.54l0,.08c0,.27-.07.69-.23.76a1.74,1.74,0,0,0-1.13,2.34c0,.11,0,.22.05.35a4,4,0,0,0,.2.75,4.17,4.17,0,0,1,.17.89,1.33,1.33,0,0,0-.64,2l.05.1a5.05,5.05,0,0,1,.15,3.25,3.71,3.71,0,0,0-.06,1.63,10.59,10.59,0,0,0,3.37,6.39,3.52,3.52,0,0,1,.55.67l0,.07a58.9,58.9,0,0,1,3.67,6.75c.85,1.78,1.74,3.61,2.76,5.34.2.32.39.65.58,1a24,24,0,0,0,2.51,3.8l.26.32c1.31,1.53,2.44,2.84,1.49,4.83a1.55,1.55,0,0,0,0,1.12,2.07,2.07,0,0,1,0,.22c.05.27.12.55.17.82a4.73,4.73,0,0,1,.17,2.25,5.3,5.3,0,0,0,.7,4.28c.09.18.18.36.26.54a7,7,0,0,1,.91,3,16.51,16.51,0,0,0,1.62,7.1c0,.08,0,.08,0,.13a8.48,8.48,0,0,0,1.29,4.61l.19.37a19,19,0,0,0,6,7.09.54.54,0,0,1,.19.22,31.49,31.49,0,0,1,3.06,6.75l.33.93a22,22,0,0,0,4,7,7.28,7.28,0,0,1,1.58,5c0,.51-.11.66-.17.7s-.24.07-.46,0A1.28,1.28,0,0,0,338,397a1.65,1.65,0,0,0-.54,1.3,2.3,2.3,0,0,0,0,.26,2.21,2.21,0,0,0,.7,1.8c.4.47.54.69.42,1.05a.59.59,0,0,0,.07.56.82.82,0,0,0,.75.32h.09a.9.9,0,0,1,.66.54.84.84,0,0,1,0,.8,2.84,2.84,0,0,0,.06,2.92,1.4,1.4,0,0,0,.75.81,1,1,0,0,0,.8,0,1.05,1.05,0,0,0,.63-.68.61.61,0,0,0,0-.13,2.14,2.14,0,0,0,1.47.82l.18,0c.24.06.36.23.58.56a2.49,2.49,0,0,0,.74.79,5.59,5.59,0,0,0,2.81,1,4.55,4.55,0,0,0,2.83-1.29,15,15,0,0,1,3.4-.83,10.38,10.38,0,0,1,1.13,0,3.89,3.89,0,0,0,3.61-1.29,2.05,2.05,0,0,1,1.52-.71,6.8,6.8,0,0,1,1.78.17,7.77,7.77,0,0,0,1.71.21,3,3,0,0,0,1.24-.36c.34-.18.53-.26.74-.21.5.14,1,.22,1.48.32a7.67,7.67,0,0,1,2.58.78,2.57,2.57,0,0,0,1.82.21.84.84,0,0,0,.57-.45c.41-.89.75-1,1.94-.43a1.77,1.77,0,0,0,1,.09c.11,0,.24,0,.35,0a1,1,0,0,0,.73-.26,1,1,0,0,0,.29-.77,1,1,0,0,1,.28-.8.52.52,0,0,1,.5,0c2.2,1,4,0,5.52-.88l.43-.25a32.42,32.42,0,0,0,4.31-3c.58-.46,1.17-.91,1.78-1.35l.08-.06a20.4,20.4,0,0,0,4.34-3.89,5.61,5.61,0,0,1,1.69-1.56c3-1.71,4.81-4.42,6.6-7l.62-.91a21,21,0,0,0,1.09-1.8,10.47,10.47,0,0,1,2.32-3.15l.54-.47a8.18,8.18,0,0,1,2.05-1.42,6.18,6.18,0,0,0,3.45-4.59,22.42,22.42,0,0,1,1.06-3.25,15.16,15.16,0,0,0,1.32-5.11,7.9,7.9,0,0,1,.16-1.21,5.8,5.8,0,0,0,0-2.93l-.24-.86a4.44,4.44,0,0,1,1.39-1,37,37,0,0,1,7.78-2.84l.27-.08a7.26,7.26,0,0,0,3.75-2.8c.11-.14.22-.26.34-.39a2.27,2.27,0,0,0,.8-2.32,6.92,6.92,0,0,1,.86-4.86c.07-.14.38-.86,0-1.27s-.35-.68-.09-1.43c.07-.18.14-.38.2-.58.16-.57.48-1.75-1-2.18a.2.2,0,0,1,0-.11,1.48,1.48,0,0,0,1.11-1.88,2,2,0,0,1,0-.4,1,1,0,0,1,0-.17c.15-.84-.07-1.34-.69-1.47a.88.88,0,0,0-1,.38c-.5-.67-.72-1.1-.46-1.83a2.69,2.69,0,0,0-.82-3c-.76-.48-.75-.71-.53-1.74l0-.11c.22-1.05.28-1.4,1.29-1.78a7.86,7.86,0,0,0,3-2.76l.22-.3a3.26,3.26,0,0,1,1.62-1.27,3.79,3.79,0,0,0,3-1.74c.1-.13.21-.25.32-.38l.33-.37a21.28,21.28,0,0,1,5.83-5.16c.33-.17.64-.36,1-.55a7.3,7.3,0,0,1,1.93-.91l.68-.15a16.35,16.35,0,0,0,5.43-1.91,24.4,24.4,0,0,0,4.6-4l.4-.39c1.67-1.71,3.39-3.46,3.91-6.05a5.25,5.25,0,0,1,.25-.73,4,4,0,0,0,.37-1.21,5.51,5.51,0,0,0-.66-3,4.9,4.9,0,0,1-.59-2.34,6.82,6.82,0,0,1,.09-.79,7.32,7.32,0,0,0,.13-1.78,4.09,4.09,0,0,0-.4-1.52,1.85,1.85,0,0,0,.89-1.81,14.07,14.07,0,0,0-.33-3.32,12.92,12.92,0,0,1-.27-3.59c0-.1,0-.19,0-.28s0-.07,0-.11h.12a1.07,1.07,0,0,0,.93-.23,1,1,0,0,0,.24-.77s0-.17,0-.24c.05-.3.19-1.2-.73-1.39h-.07c0-.06,0-.11,0-.15l0-.15c.3-2.62-.18-3.5-2.48-4.49a2.23,2.23,0,0,1-1.28-1.52,11.07,11.07,0,0,1-.52-2.37,9.33,9.33,0,0,0-1.16-3.74,2.25,2.25,0,0,1-.15-2.76,2.89,2.89,0,0,0,0-2.74c-.55-.84-.26-1.35.47-2.22a2.06,2.06,0,0,0,.44-2,1.68,1.68,0,0,0-1.28-1.07c-.1,0-.12,0-.18-.36a2.32,2.32,0,0,0-1.43-1.76c-.58-.24-.69-.37-.69-.91a4.73,4.73,0,0,0-.07-.7,1.43,1.43,0,0,1,0-1l.28-.52a15.63,15.63,0,0,0,1.51-3.57,4.59,4.59,0,0,1,1.34-2.64,5.36,5.36,0,0,0,1.15-1.64l.14-.28c.37-.7.68-1.44,1-2.16a21.67,21.67,0,0,1,1.07-2.33l.07-.12a6.74,6.74,0,0,0,1.28-4c0-.28.34-.5.69-.58,2.28-.47,2.8-1,3.13-3.1a1,1,0,0,1,.05-.23c1.73.36,2.57-.79,3.17-1.63.15-.2.32-.41.48-.59a15.32,15.32,0,0,0,1.63-2.42c.3-.51.58-1,.89-1.46a24.07,24.07,0,0,1,2.44-2.73c.36-.34.7-.69,1-1l1.77-1.88a65,65,0,0,1,5.45-5.43l.35-.32a35.83,35.83,0,0,1,6-4.45l.44-.23a17,17,0,0,0,4.46-3.08l1.5-1.57c3.82-4,7.77-8.07,10.57-13.07.4-.72.84-1.44,1.26-2.12a18.78,18.78,0,0,0,3-6.74,9.87,9.87,0,0,1,2.32-4.43,5.69,5.69,0,0,0,1-2.33,4.05,4.05,0,0,1,1.22-2.44,6.37,6.37,0,0,0,1.67-3,9.3,9.3,0,0,1,1.07-2.35c1.12-1.48,1.13-3.3,1.13-5.05,0-.55,0-1.09,0-1.6s.07-.44.43-.59h.84a1.08,1.08,0,0,0,.8-.19.9.9,0,0,0,.3-.68l0-.08a1.2,1.2,0,0,0-.22-.92,1,1,0,0,0-.79-.32c-.08,0-.18-.1-.19-.1-.06-.53-.17-1.06-.26-1.55a5.68,5.68,0,0,1,0-3.46,1.92,1.92,0,0,0-.38-2.49,3.33,3.33,0,0,0-2.67-.59,3.43,3.43,0,0,0-2.25,1.63s-.07.1-.28.21a9.31,9.31,0,0,1-2.69,1,11.46,11.46,0,0,0-2.83,1,4.33,4.33,0,0,1-3.11.23,3.76,3.76,0,0,0-2.63.65c-1.27.69-2.09.81-2.88.4a1.68,1.68,0,0,0-1.86.07c-.43.27-.84.55-1.25.84-.68.45-1.38.93-2.08,1.35s-1.09.6-1.85.24a4.13,4.13,0,0,0-3.41-.31,17.26,17.26,0,0,0-2.34,1.33l-.21.13a4.92,4.92,0,0,1-3.61,1.06,6.6,6.6,0,0,1-4.45-3.39,6.28,6.28,0,0,1-.31-.57,4.49,4.49,0,0,0-2.28-2.32,2.45,2.45,0,0,0-.67-.17,2.52,2.52,0,0,1,.8-.47,1.45,1.45,0,0,0,1.24-1.59c0-1.79-2.11-5.18-3.74-5.87a1.09,1.09,0,0,0-.3-.13,2.9,2.9,0,0,1-2.46-2,2.53,2.53,0,0,0-.72-1l-.29-.29a6.26,6.26,0,0,0-1.87-1.44,4.21,4.21,0,0,1-1.83-1.55c-.49-.94-1.16-2.21-2.57-2.47a6.4,6.4,0,0,1-2.18-1,12.71,12.71,0,0,0-1.67-.91s-.06,0-.15-.21a2.56,2.56,0,0,0-.11-.24c-.61-1.09-1.89-2-3.07-1.64a.88.88,0,0,1-1-.3,4.8,4.8,0,0,0-1-1.82,3.31,3.31,0,0,1-.82-1.55,21.52,21.52,0,0,0-1.47-5.31l0-.08c-.9-2.41-1.9-4.69-4.33-6.06l-.16-.09a2.25,2.25,0,0,1-1.15-1.06,3.57,3.57,0,0,0-2.5-1.79c-.64-.15-.84-.4-1-.74s-.2-.57-.31-.84a10.39,10.39,0,0,1-.76-2.7c-.08-1-.25-2-.4-3a20.4,20.4,0,0,1-.41-5,1.78,1.78,0,0,0-.44-1.2c-.89-1.12-1.78-2.26-1.63-3.76a1.48,1.48,0,0,0-.91-1.5,8,8,0,0,1-1.83-1.35,6.86,6.86,0,0,0-3.07-1.88s0,0-.07-.08a.89.89,0,0,0-.26-.3,4.9,4.9,0,0,1-1.16-1.9c-.12-.31-.25-.61-.41-.93V87.56a1,1,0,0,0,1.09.09c.37-.24.71-.71.2-1.56l0-.07a2.17,2.17,0,0,0-.76-.85,8.49,8.49,0,0,1-3.2-3.36c-.13-.25-.24-.51-.35-.77a5.48,5.48,0,0,0-1.65-2.44,13.91,13.91,0,0,0-2.84-4.53l-.25-.31a16.69,16.69,0,0,0-.78-1.65,9.89,9.89,0,0,1-1.1-2.77,3,3,0,0,0-1-1.87l-.19-.17c0-.06.07-.13.11-.2l.05-.11a1.48,1.48,0,0,0,.06-1.15,2.32,2.32,0,0,0,2.21.06,2.12,2.12,0,0,0,.91-2.12,16.68,16.68,0,0,1,.9-5.25l.18-.59c.71-2.55.23-4.79-1.57-7.26a11.33,11.33,0,0,0-1.78-4.07v0a1.07,1.07,0,0,0-.3-.86,1,1,0,0,0-.84-.25h-.18a2.87,2.87,0,0,0-1.42.34,2.17,2.17,0,0,1-2.47.25,2.17,2.17,0,0,0-2.57.22,3,3,0,0,0-.45.41c-.25.24-.36.35-.47.36a4.39,4.39,0,0,0-1.79-1.31,3,3,0,0,1-1.38-1,.87.87,0,0,0-.66-.38,1.27,1.27,0,0,0-.95.24c-.43.4-.72.31-1.46,0-.2-.08-.39-.18-.58-.25a3.23,3.23,0,0,0-1.87-.11,20.67,20.67,0,0,0-6.2,3c-.17.14-.33.26-.5.41-.85.69-1.59,1.31-2.65,1A4,4,0,0,0,390,47.5a5,5,0,0,0-.79,0,1.86,1.86,0,0,1-1.06-.11,5.86,5.86,0,0,0-1.75-.68,5.67,5.67,0,0,1-1.48-.53,9.21,9.21,0,0,0-4-.87c-.53,0-1.09-.07-1.6-.14a5.2,5.2,0,0,0-3.87.12c-.59.22-.63.2-.85-.33-1-2.38-1.67-2.53-4.05-2.13a2.1,2.1,0,0,1-1.75-.21,4.06,4.06,0,0,0-2.73-.81c-.84,0-1.2-.29-1.27-1.07v-.16c0-.3,0-1.11-.84-1.24a7.89,7.89,0,0,1-1.7-.52,9.07,9.07,0,0,0-1.85-.58,11.36,11.36,0,0,0-5.51.35,17,17,0,0,0-5.4,2.56,4.75,4.75,0,0,0-1.42,6.36,1.73,1.73,0,0,1-.26,2.48c-2.19,2.67-3.51,3-5.64,1.34l-.1-.07a15.62,15.62,0,0,0-3.13-2,18.39,18.39,0,0,0-7.14-2c-3.1-.07-4.43-1.27-4.87-4.42-.11-.79-.35-2.4-2.27-2.29a2.89,2.89,0,0,1-.95-.19,3.86,3.86,0,0,0-.58-.17,5.62,5.62,0,0,1-1.58-.77,5.44,5.44,0,0,0-2.54-1,6.33,6.33,0,0,1-1.41-.32,4.41,4.41,0,0,0-3.36,0,3.17,3.17,0,0,1-3.23-.56,7.52,7.52,0,0,0-2.54-1.11l-.4-.07c-.71-.14-1.3-.28-1.35-.63a10.52,10.52,0,0,0-.31-1.23,8.88,8.88,0,0,1-.29-1.27c-.08-.89-.52-1.35-1.3-1.35h-.13a1.12,1.12,0,0,0-1.33,1.11.36.36,0,0,1-.09.12.24.24,0,0,1-.2.05c-.55-.08-.93-.45-1.3-1.3-.05-.16-.22-.55.48-.87a9.3,9.3,0,0,0,4-3.39,4.12,4.12,0,0,0,.7-3.3,3.11,3.11,0,0,0-1.86-2.77,1.16,1.16,0,0,1-.43-.84,1.09,1.09,0,0,1,.07-.64,4.27,4.27,0,0,0,1.94-1.57c.2-.24.38-.46.58-.67a2,2,0,0,0,.55-2.18,1.63,1.63,0,0,0-1.28-1.1,1.25,1.25,0,0,1-.46-.19.71.71,0,0,0-1.05,0,.88.88,0,0,0-.13,1.22l0,0a1.48,1.48,0,0,0-.87.3l-.08-.29a1.45,1.45,0,0,1-.11-.56v-.07a1.22,1.22,0,0,0-.84-1.42c-1.57-.51-3.89-1-5.82.45a5.26,5.26,0,0,1-3.05.86,10.36,10.36,0,0,0-2,.27,1.19,1.19,0,0,0-.44-.42,3,3,0,0,0-1.15-.57l-.42-.15a2.07,2.07,0,0,0-1.52-.1,1,1,0,0,0-.52.64l0,.12-.17,0-.14,0-.51-.08-.44-.07a1.46,1.46,0,0,0-2-.73l-.07-.2-.63.51L284,14a1.29,1.29,0,0,0-.6.58l-.73.14a3.52,3.52,0,0,1-1.35.14,1.08,1.08,0,0,0-1.19.73,1.41,1.41,0,0,1-.35,0,.5.5,0,0,1-.13,0,.78.78,0,0,0-.4-.55.82.82,0,0,0-.58-.37,1,1,0,0,0-.79-.28,19,19,0,0,0-5.79-.36.58.58,0,0,0-.4.24,2.74,2.74,0,0,1-1.93.08,1.82,1.82,0,0,0-2.32.53l-.11.12-.14.05a.51.51,0,0,1-.15.07,10.94,10.94,0,0,0-3.61,0,13.38,13.38,0,0,1-2.67.08l-.15,0a1.75,1.75,0,0,0-1.48.29,1,1,0,0,0-.6.34,1.81,1.81,0,0,1-.35.07,2.13,2.13,0,0,0-1.16.44l-.26.06a2.21,2.21,0,0,0-.93.37,1,1,0,0,0-.55.26,1.12,1.12,0,0,0-.72.48,1.16,1.16,0,0,0-.5.75l-.07.08a1.54,1.54,0,0,1-.38.28,1.61,1.61,0,0,0-1.19-.62,2,2,0,0,0-1.3.71c-.09.09-.27.1-.55.1h-.5a1.43,1.43,0,0,0-1.43.51l0,0a1,1,0,0,0-.74.48,1.17,1.17,0,0,0-.5.74l-.14.14,0,.08a1.31,1.31,0,0,1-.29.06,1.46,1.46,0,0,0-1.1.52l0,0a1,1,0,0,0-.62.36,3.45,3.45,0,0,1-1.58-.1,6.45,6.45,0,0,0-1.32-.17H242a59.72,59.72,0,0,1-51.31,90.31Z"/><path class="cls-3" d="M242.61,51.93A51.93,51.93,0,1,1,190.68,0,52,52,0,0,1,242.61,51.93Z"/><rect class="cls-1" y="735.26" width="145.92" height="30.77"/><rect class="cls-1" x="511.82" y="735.26" width="145.92" height="30.77"/><path class="cls-1" d="M183,743.67h-6.31V741.1c4.22-.08,6.55-.86,7-5.48h2.56v29.6H183Z"/><path class="cls-1" d="M195.27,754.36v-3.27h9.59v3.27Z"/><path class="cls-1" d="M214.06,748.48c2.6-.15,6.12.4,6.12-5.05,0-2.88-.87-4.85-4.15-4.85-3.71,0-4.22,2.76-4.22,5.8h-3.12c-.16-5,2.05-8.76,7.42-8.76,4.42,0,7.38,2.88,7.38,7.34,0,3.19-1,5.52-4.14,6.63v.08c3.43.75,4.93,3.47,4.93,6.82,0,5.53-2.45,9.32-8.33,9.32s-7.93-3.91-7.81-9.28h3.24c-.28,3.16.63,6.32,4.85,6.32,3.24,0,4.78-2.25,4.78-5.29,0-5.17-2-6.16-6.95-6.12Z"/><path class="cls-1" d="M239.48,765.22v-29.6h8.13c9.23,0,10.49,7.5,10.26,14.8s-1.66,14.8-9.67,14.8Zm3.27-3H248c4.82,0,6.79-3.59,6.47-12.43-.23-6.75-1.18-11.25-6.47-11.25h-5.25Z"/><path class="cls-1" d="M275.78,757.92c.2,4.3-2,7.89-6.63,7.89-4.14,0-7.1-2.76-7.1-11.6,0-4.62,1.22-11.53,7-11.53,7.1,0,6.7,6.71,6.86,11.84H265.29c.08,3-.44,8.64,3.94,8.64,3,0,3.83-2.76,3.63-5.24Zm-3.07-6c-.12-2.57,0-6.63-3.6-6.63s-3.71,4-3.82,6.63Z"/><path class="cls-1" d="M282.85,755.19c0,2.88.2,8,4.18,8,3.4,0,3.71-2.92,3.87-5.6h3c-.12,4.22-1.7,8.25-6.59,8.25-6.71,0-7.66-5.61-7.66-11.29,0-5.37.87-11.84,7.58-11.84,4.42,0,6.55,3.44,6.51,7.5h-2.92c0-2.41-.67-4.85-3.63-4.85C282.61,745.33,282.85,752.07,282.85,755.19Z"/><path class="cls-1" d="M310.83,757.92c.2,4.3-2,7.89-6.63,7.89-4.14,0-7.1-2.76-7.1-11.6,0-4.62,1.22-11.53,7-11.53,7.1,0,6.71,6.71,6.87,11.84H300.33c.08,3-.43,8.64,3.95,8.64,3,0,3.83-2.76,3.63-5.24Zm-3.08-6c-.12-2.57,0-6.63-3.59-6.63s-3.71,4-3.83,6.63Z"/><path class="cls-1" d="M319,765.22h-3.12v-22h3v2.81H319a6.16,6.16,0,0,1,5.21-3.4,5.73,5.73,0,0,1,5.21,3.47c1.54-2.24,3.12-3.47,5.88-3.47a5.87,5.87,0,0,1,4,1.54c1.42,1.3,1.34,3.75,1.34,5.13v15.87h-3.11V749.15c0-2.44-.67-3.82-3.36-3.82a4.54,4.54,0,0,0-2.92,1.22,4.73,4.73,0,0,0-1.42,4v14.68h-3.12V749.15c0-2.28-.75-3.82-3.27-3.82a4.45,4.45,0,0,0-3.08,1.22c-1.26,1.14-1.34,2.41-1.34,4Z"/><path class="cls-1" d="M349.43,765.22h-2.84v-29.6h3.11v9.9h.08c1.23-2,2.65-2.84,4.58-2.84,5.56,0,6.91,5.65,6.91,10.14,0,6.24-.83,13-6.75,13a5.15,5.15,0,0,1-5-3.2h-.08Zm4.46-2.06c3.23,0,4.14-3.39,4.14-9.31,0-2.88-.2-8.52-4.18-8.52-4.62,0-4.34,6.27-4.34,9.47S349.47,763.16,353.89,763.16Z"/><path class="cls-1" d="M378.79,757.92c.2,4.3-2,7.89-6.63,7.89-4.14,0-7.1-2.76-7.1-11.6,0-4.62,1.22-11.53,7-11.53,7.11,0,6.71,6.71,6.87,11.84H368.29c.08,3-.43,8.64,3.95,8.64,3,0,3.83-2.76,3.63-5.24Zm-3.08-6c-.12-2.57,0-6.63-3.59-6.63s-3.71,4-3.83,6.63Z"/><path class="cls-1" d="M387.08,746.87h.08c1.3-2.89,3.15-4.11,6.43-3.83v3.08c-4-.71-6.39,1.81-6.39,5.8v13.3h-3.12v-22h3Z"/><path class="cls-1" d="M411.15,758a5.51,5.51,0,0,0-2.13,4.3h12.51v3h-15.9a17.29,17.29,0,0,1,1.18-6.4,10.47,10.47,0,0,1,2.33-3l5.64-5.44c2.29-2.21,3.08-3.4,3.08-6.63,0-3-1-5.21-4.38-5.21-4.06,0-4.42,4-4.34,7.1h-3.28v-1.81a9.32,9.32,0,0,1,1.9-5.92,7.52,7.52,0,0,1,5.88-2.33c5.05,0,7.62,3.35,7.62,8.25,0,4.34-1.74,6.47-4.78,9.23Z"/><path class="cls-1" d="M425.44,750.65c0-5.52.35-15,8.05-15,8.29,0,8.09,9.39,8.09,15,0,6.71-.35,15.16-8.09,15.16S425.44,755.9,425.44,750.65Zm8.05,12.2c4.89,0,4.7-7,4.7-12.71,0-4.18.43-11.21-4.7-11.56s-4.66,8.84-4.66,11.56C428.83,755.82,428,762.85,433.49,762.85Z"/><path class="cls-1" d="M450.62,758a5.51,5.51,0,0,0-2.13,4.3H461v3H445.09a17.31,17.31,0,0,1,1.19-6.4,10.29,10.29,0,0,1,2.33-3l5.64-5.44c2.29-2.21,3.08-3.4,3.08-6.63,0-3-1-5.21-4.38-5.21-4.07,0-4.42,4-4.34,7.1h-3.28v-1.81a9.32,9.32,0,0,1,1.89-5.92,7.53,7.53,0,0,1,5.88-2.33c5.06,0,7.62,3.35,7.62,8.25,0,4.34-1.74,6.47-4.77,9.23Z"/><path class="cls-1" d="M464.91,750.65c0-5.52.35-15,8-15,8.28,0,8.09,9.39,8.09,15,0,6.71-.36,15.16-8.09,15.16C465.06,765.81,464.91,755.9,464.91,750.65Zm8,12.2c4.89,0,4.69-7,4.69-12.71,0-4.18.44-11.21-4.69-11.56s-4.66,8.84-4.66,11.56C468.3,755.82,467.51,762.85,473,762.85Z"/></g></g></g></svg>