<svg xmlns="http://www.w3.org/2000/svg" xmlns:xlink="http://www.w3.org/1999/xlink" viewBox="0 0 1095 534.4"><defs><style>.cls-1{fill:#333;}.cls-2{fill:#1a1449;}.cls-3{fill:#76a63d;}.cls-4{fill:#204660;}.cls-5{fill:#2d6288;}.cls-6{fill:#2c6187;}.cls-7{fill:#295a7c;}.cls-8{fill:#1d445e;}.cls-9{fill:#1a3a50;}.cls-10{fill:#2f658c;}.cls-11{fill:#2d638a;}.cls-12{fill:#306993;}.cls-13{fill:#224d6a;}.cls-14{fill:#2b6085;}.cls-15{fill:#224d6b;}.cls-16{fill:#336d98;}.cls-17{fill:#3773a1;}.cls-18{fill:#3a7aa8;}.cls-19{fill:#265373;}.cls-20{fill:#2a5c7f;}.cls-21{fill:#265371;}.cls-22{fill:#254f6e;}.cls-23{fill:#265778;}.cls-24{fill:#2b5f83;}.cls-25{fill:#29587b;}.cls-26{fill:#224e6d;}.cls-27{fill:#204662;}.cls-28{fill:#2e668d;}.cls-29{fill:#2d658b;}.cls-30{fill:#2b6084;}.cls-31{fill:#2e648a;}.cls-32{fill:#35709b;}.cls-33{fill:#35709c;}.cls-34{fill:#2e678e;}.cls-35{fill:#35739f;}.cls-36{fill:#35749e;}.cls-37{fill:#397baa;}.cls-38{fill:#3a80af;}.cls-39{fill:#3b80b0;}.cls-40{fill:#3778a7;}.cls-41{fill:#19394e;}.cls-42{fill:#1b3d55;}.cls-43{fill:url(#linear-gradient);}.cls-44{fill:url(#linear-gradient-2);}.cls-45{fill:url(#linear-gradient-3);}.cls-46{fill:url(#linear-gradient-4);}.cls-47{fill:url(#linear-gradient-5);}.cls-48{fill:url(#linear-gradient-6);}.cls-49{fill:url(#linear-gradient-7);}.cls-50{fill:url(#linear-gradient-8);}.cls-51{fill:url(#linear-gradient-9);}.cls-52{fill:url(#linear-gradient-10);}.cls-53{fill:url(#linear-gradient-11);}.cls-54{fill:url(#linear-gradient-12);}.cls-55{fill:url(#linear-gradient-13);}.cls-56{fill:url(#linear-gradient-14);}.cls-57{fill:url(#linear-gradient-15);}.cls-58{fill:url(#linear-gradient-16);}.cls-59{fill:url(#linear-gradient-17);}.cls-60{fill:url(#linear-gradient-18);}.cls-61{fill:url(#linear-gradient-19);}.cls-62{fill:url(#linear-gradient-20);}.cls-63{fill:url(#linear-gradient-21);}.cls-64{fill:url(#linear-gradient-22);}.cls-65{fill:url(#linear-gradient-23);}.cls-66{fill:url(#linear-gradient-24);}.cls-67{fill:url(#linear-gradient-25);}.cls-68{fill:url(#linear-gradient-26);}.cls-69{fill:url(#linear-gradient-27);}.cls-70{fill:url(#linear-gradient-28);}.cls-71{fill:url(#linear-gradient-29);}.cls-72{fill:url(#linear-gradient-30);}.cls-73{fill:url(#linear-gradient-31);}.cls-74{fill:url(#linear-gradient-32);}.cls-75{fill:url(#linear-gradient-33);}.cls-76{fill:url(#linear-gradient-34);}.cls-77{fill:url(#linear-gradient-35);}.cls-78{fill:url(#linear-gradient-36);}.cls-79{fill:url(#linear-gradient-37);}.cls-80{fill:url(#linear-gradient-38);}.cls-81{fill:url(#linear-gradient-39);}.cls-82{fill:url(#linear-gradient-40);}.cls-83{fill:url(#linear-gradient-41);}.cls-84{fill:url(#linear-gradient-42);}.cls-85{fill:url(#linear-gradient-43);}.cls-86{fill:url(#linear-gradient-44);}.cls-87{fill:url(#linear-gradient-45);}.cls-88{fill:url(#linear-gradient-46);}.cls-89{fill:url(#linear-gradient-47);}.cls-90{fill:url(#linear-gradient-48);}.cls-91{fill:url(#linear-gradient-49);}.cls-92{fill:url(#linear-gradient-50);}.cls-93{fill:url(#linear-gradient-51);}.cls-94{fill:url(#linear-gradient-52);}.cls-95{fill:url(#linear-gradient-53);}.cls-96{fill:url(#linear-gradient-54);}.cls-97{fill:url(#linear-gradient-55);}.cls-98{fill:url(#linear-gradient-56);}.cls-99{fill:url(#linear-gradient-57);}.cls-100{fill:url(#linear-gradient-58);}.cls-101{fill:url(#linear-gradient-59);}.cls-102{fill:url(#linear-gradient-60);}.cls-103{fill:url(#linear-gradient-61);}.cls-104{fill:url(#linear-gradient-62);}.cls-105{fill:url(#linear-gradient-63);}.cls-106{fill:url(#linear-gradient-64);}.cls-107{fill:url(#linear-gradient-65);}.cls-108{fill:url(#linear-gradient-66);}.cls-109{fill:url(#linear-gradient-67);}</style><linearGradient id="linear-gradient" x1="721.93" y1="243.4" x2="757.82" y2="207.51" gradientUnits="userSpaceOnUse"><stop offset="0" stop-color="#1d9014"/><stop offset="1" stop-color="#188713"/></linearGradient><linearGradient id="linear-gradient-2" x1="554.33" y1="174.79" x2="556.12" y2="173" gradientUnits="userSpaceOnUse"><stop offset="0" stop-color="#188912"/><stop offset="1" stop-color="#239014"/></linearGradient><linearGradient id="linear-gradient-3" x1="582.05" y1="255.89" x2="635.36" y2="202.58" xlink:href="#linear-gradient-2"/><linearGradient id="linear-gradient-4" x1="551.3" y1="177.66" x2="556.53" y2="172.44" gradientUnits="userSpaceOnUse"><stop offset="0" stop-color="#178213"/><stop offset="1" stop-color="#239415"/></linearGradient><linearGradient id="linear-gradient-5" x1="504.35" y1="185.93" x2="551.15" y2="139.13" gradientUnits="userSpaceOnUse"><stop offset="0" stop-color="#269915"/><stop offset="1" stop-color="#34ab16"/></linearGradient><linearGradient id="linear-gradient-6" x1="541.43" y1="165.89" x2="583.95" y2="123.37" gradientUnits="userSpaceOnUse"><stop offset="0" stop-color="#43c810"/><stop offset="1" stop-color="#43c112"/></linearGradient><linearGradient id="linear-gradient-7" x1="581.75" y1="133.67" x2="590.7" y2="124.72" xlink:href="#linear-gradient-6"/><linearGradient id="linear-gradient-8" x1="689.92" y1="214.78" x2="695.09" y2="209.61" gradientUnits="userSpaceOnUse"><stop offset="0" stop-color="#1e9215"/><stop offset="1" stop-color="#1a9014"/></linearGradient><linearGradient id="linear-gradient-9" x1="710.91" y1="219.3" x2="740.55" y2="189.66" xlink:href="#linear-gradient-8"/><linearGradient id="linear-gradient-10" x1="687.09" y1="215.04" x2="702.52" y2="199.6" gradientUnits="userSpaceOnUse"><stop offset="0" stop-color="#269915"/><stop offset="1" stop-color="#289e16"/></linearGradient><linearGradient id="linear-gradient-11" x1="705.76" y1="209.94" x2="736.36" y2="179.35" xlink:href="#linear-gradient-10"/><linearGradient id="linear-gradient-12" x1="682.11" y1="226.03" x2="696.57" y2="211.57" gradientUnits="userSpaceOnUse"><stop offset="0" stop-color="#178915"/><stop offset="1" stop-color="#178414"/></linearGradient><linearGradient id="linear-gradient-13" x1="657.69" y1="244.61" x2="702.15" y2="200.15" gradientUnits="userSpaceOnUse"><stop offset="0" stop-color="#1d9014"/><stop offset="1" stop-color="#177c11"/></linearGradient><linearGradient id="linear-gradient-14" x1="626.45" y1="240.88" x2="648.3" y2="219.04" gradientUnits="userSpaceOnUse"><stop offset="0" stop-color="#289e16"/><stop offset="1" stop-color="#26a216"/></linearGradient><linearGradient id="linear-gradient-15" x1="626.97" y1="252.02" x2="685.42" y2="193.57" xlink:href="#linear-gradient-14"/><linearGradient id="linear-gradient-16" x1="655.31" y1="104.15" x2="675.79" y2="83.67" gradientUnits="userSpaceOnUse"><stop offset="0" stop-color="#59cc0e"/><stop offset="1" stop-color="#51ca0e"/></linearGradient><linearGradient id="linear-gradient-17" x1="556.06" y1="174.49" x2="567.7" y2="162.85" gradientUnits="userSpaceOnUse"><stop offset="0" stop-color="#239716"/><stop offset="1" stop-color="#2db217"/></linearGradient><linearGradient id="linear-gradient-18" x1="601.48" y1="211.64" x2="688.24" y2="124.88" xlink:href="#linear-gradient-17"/><linearGradient id="linear-gradient-19" x1="552.62" y1="175.36" x2="578.07" y2="149.91" gradientUnits="userSpaceOnUse"><stop offset="0" stop-color="#43c810"/><stop offset="1" stop-color="#36bb14"/></linearGradient><linearGradient id="linear-gradient-20" x1="587.79" y1="159.15" x2="630.97" y2="115.97" xlink:href="#linear-gradient-19"/><linearGradient id="linear-gradient-21" x1="505.82" y1="236.51" x2="521.25" y2="221.07" gradientUnits="userSpaceOnUse"><stop offset="0" stop-color="#1c720b"/><stop offset="1" stop-color="#1c770d"/></linearGradient><linearGradient id="linear-gradient-22" x1="509.15" y1="231.64" x2="523.34" y2="217.45" gradientUnits="userSpaceOnUse"><stop offset="0" stop-color="#1c770d"/><stop offset="1" stop-color="#178212"/></linearGradient><linearGradient id="linear-gradient-23" x1="459.58" y1="235.57" x2="527.8" y2="167.35" gradientUnits="userSpaceOnUse"><stop offset="0" stop-color="#1b8e13"/><stop offset="1" stop-color="#209716"/></linearGradient><linearGradient id="linear-gradient-24" x1="479.17" y1="209.63" x2="543.2" y2="145.6" gradientUnits="userSpaceOnUse"><stop offset="0" stop-color="#2da216"/><stop offset="1" stop-color="#178e14"/></linearGradient><linearGradient id="linear-gradient-25" x1="466.66" y1="243.44" x2="517.37" y2="192.73" gradientUnits="userSpaceOnUse"><stop offset="0" stop-color="#239014"/><stop offset="1" stop-color="#178915"/></linearGradient><linearGradient id="linear-gradient-26" x1="719.28" y1="241.14" x2="734.68" y2="225.73" gradientUnits="userSpaceOnUse"><stop offset="0" stop-color="#1c770d"/><stop offset="1" stop-color="#177c11"/></linearGradient><linearGradient id="linear-gradient-27" x1="661.75" y1="186.61" x2="743.67" y2="104.68" gradientUnits="userSpaceOnUse"><stop offset="0" stop-color="#2daa16"/><stop offset="1" stop-color="#38bc14"/></linearGradient><linearGradient id="linear-gradient-28" x1="656.84" y1="135.13" x2="689.53" y2="102.43" gradientUnits="userSpaceOnUse"><stop offset="0" stop-color="#51ca0e"/><stop offset="1" stop-color="#3ec113"/></linearGradient><linearGradient id="linear-gradient-29" x1="706.9" y1="122.76" x2="707.3" y2="122.36" xlink:href="#linear-gradient-28"/><linearGradient id="linear-gradient-30" x1="483.83" y1="254.67" x2="527.43" y2="211.07" gradientUnits="userSpaceOnUse"><stop offset="0" stop-color="#19720c"/><stop offset="1" stop-color="#187a0f"/></linearGradient><linearGradient id="linear-gradient-31" x1="464.91" y1="248.18" x2="514.5" y2="198.58" gradientUnits="userSpaceOnUse"><stop offset="0" stop-color="#178213"/><stop offset="1" stop-color="#178212"/></linearGradient><linearGradient id="linear-gradient-32" x1="473.3" y1="241.72" x2="496.93" y2="218.1" gradientUnits="userSpaceOnUse"><stop offset="0" stop-color="#178915"/><stop offset="1" stop-color="#177f14"/></linearGradient><linearGradient id="linear-gradient-33" x1="462.21" y1="255.33" x2="508.22" y2="209.33" gradientUnits="userSpaceOnUse"><stop offset="0" stop-color="#177c11"/><stop offset="1" stop-color="#177c11"/></linearGradient><linearGradient id="linear-gradient-34" x1="516.74" y1="124.21" x2="519.15" y2="121.8" gradientUnits="userSpaceOnUse"><stop offset="0" stop-color="#4dca0f"/><stop offset="1" stop-color="#40bc14"/></linearGradient><linearGradient id="linear-gradient-35" x1="536.83" y1="155.26" x2="596.46" y2="95.63" xlink:href="#linear-gradient-34"/><linearGradient id="linear-gradient-36" x1="496.94" y1="186.03" x2="548.84" y2="134.13" gradientUnits="userSpaceOnUse"><stop offset="0" stop-color="#35af16"/><stop offset="1" stop-color="#3fb913"/></linearGradient><linearGradient id="linear-gradient-37" x1="2534.16" y1="1056.65" x2="2534.25" y2="1056.56" gradientTransform="translate(441456.54 578082.99) rotate(180) scale(174 547)" gradientUnits="userSpaceOnUse"><stop offset="0" stop-color="#38bc14"/><stop offset="1" stop-color="#43c810"/></linearGradient><linearGradient id="linear-gradient-38" x1="2541.46" y1="1054.93" x2="2541.56" y2="1054.84" gradientTransform="translate(1108803.6 1004412.58) rotate(180) scale(436 952)" gradientUnits="userSpaceOnUse"><stop offset="0" stop-color="#33b316"/><stop offset="1" stop-color="#2aa716"/></linearGradient><linearGradient id="linear-gradient-39" x1="728.61" y1="143.8" x2="731.8" y2="140.61" gradientUnits="userSpaceOnUse"><stop offset="0" stop-color="#177f14"/><stop offset="1" stop-color="#2ba316"/></linearGradient><linearGradient id="linear-gradient-40" x1="675.86" y1="209.87" x2="736.94" y2="148.8" gradientUnits="userSpaceOnUse"><stop offset="0" stop-color="#2daa16"/><stop offset="1" stop-color="#2aa716"/></linearGradient><linearGradient id="linear-gradient-41" x1="698.24" y1="141.55" x2="738.99" y2="100.81" gradientUnits="userSpaceOnUse"><stop offset="0" stop-color="#3ab015"/><stop offset="1" stop-color="#40bc14"/></linearGradient><linearGradient id="linear-gradient-42" x1="684.28" y1="98.38" x2="693.79" y2="88.87" gradientUnits="userSpaceOnUse"><stop offset="0" stop-color="#38bc14"/><stop offset="1" stop-color="#48c910"/></linearGradient><linearGradient id="linear-gradient-43" x1="707" y1="122.08" x2="708.93" y2="120.15" xlink:href="#linear-gradient-42"/><linearGradient id="linear-gradient-44" x1="679.73" y1="160.44" x2="753.71" y2="86.46" gradientUnits="userSpaceOnUse"><stop offset="0" stop-color="#178414"/><stop offset="1" stop-color="#3ab015"/></linearGradient><linearGradient id="linear-gradient-45" x1="743.33" y1="94.88" x2="754.47" y2="83.74" gradientUnits="userSpaceOnUse"><stop offset="0" stop-color="#177c11"/><stop offset="1" stop-color="#26a417"/></linearGradient><linearGradient id="linear-gradient-46" x1="481.2" y1="138.36" x2="531.69" y2="87.86" gradientUnits="userSpaceOnUse"><stop offset="0" stop-color="#40bc14"/><stop offset="1" stop-color="#42c413"/></linearGradient><linearGradient id="linear-gradient-47" x1="466.9" y1="170.45" x2="509" y2="128.35" gradientUnits="userSpaceOnUse"><stop offset="0" stop-color="#35af16"/><stop offset="1" stop-color="#32a716"/></linearGradient><linearGradient id="linear-gradient-48" x1="480.42" y1="105.98" x2="505.68" y2="80.72" gradientUnits="userSpaceOnUse"><stop offset="0" stop-color="#56cb0e"/><stop offset="1" stop-color="#4dca0f"/></linearGradient><linearGradient id="linear-gradient-49" x1="480.37" y1="92.64" x2="488.21" y2="84.81" gradientUnits="userSpaceOnUse"><stop offset="0" stop-color="#6dcf09"/><stop offset="1" stop-color="#63cd0c"/></linearGradient><linearGradient id="linear-gradient-50" x1="653.03" y1="95.6" x2="663.76" y2="84.87" gradientUnits="userSpaceOnUse"><stop offset="0" stop-color="#60cd0c"/><stop offset="1" stop-color="#63cd0c"/></linearGradient><linearGradient id="linear-gradient-51" x1="551.46" y1="108.28" x2="573.69" y2="86.05" gradientUnits="userSpaceOnUse"><stop offset="0" stop-color="#6bcf0a"/><stop offset="1" stop-color="#63cd0c"/></linearGradient><linearGradient id="linear-gradient-52" x1="538.88" y1="104.52" x2="554" y2="89.4" gradientUnits="userSpaceOnUse"><stop offset="0" stop-color="#77d107"/><stop offset="1" stop-color="#78d107"/></linearGradient><linearGradient id="linear-gradient-53" x1="515.15" y1="124.01" x2="518.52" y2="120.64" gradientUnits="userSpaceOnUse"><stop offset="0" stop-color="#5bcc0c"/><stop offset="1" stop-color="#59cc0e"/></linearGradient><linearGradient id="linear-gradient-54" x1="521.63" y1="138.55" x2="560.95" y2="99.23" xlink:href="#linear-gradient-53"/><linearGradient id="linear-gradient-55" x1="506.08" y1="112.9" x2="537.63" y2="81.34" gradientUnits="userSpaceOnUse"><stop offset="0" stop-color="#4dca0f"/><stop offset="1" stop-color="#5fcc0c"/></linearGradient><linearGradient id="linear-gradient-56" x1="489.67" y1="118.53" x2="529.18" y2="79.03" gradientUnits="userSpaceOnUse"><stop offset="0" stop-color="#5fcc0c"/><stop offset="1" stop-color="#6bcf0a"/></linearGradient><linearGradient id="linear-gradient-57" x1="536.07" y1="94.62" x2="542.64" y2="88.05" gradientUnits="userSpaceOnUse"><stop offset="0" stop-color="#8fd700"/><stop offset="1" stop-color="#85d403"/></linearGradient><linearGradient id="linear-gradient-58" x1="514.7" y1="100.74" x2="533.85" y2="81.59" gradientUnits="userSpaceOnUse"><stop offset="0" stop-color="#74d008"/><stop offset="1" stop-color="#7dd207"/></linearGradient><linearGradient id="linear-gradient-59" x1="484.8" y1="245.54" x2="506.72" y2="223.62" gradientUnits="userSpaceOnUse"><stop offset="0" stop-color="#19720c"/><stop offset="1" stop-color="#19720c"/></linearGradient><linearGradient id="linear-gradient-60" x1="480.43" y1="237.77" x2="501.99" y2="216.21" gradientUnits="userSpaceOnUse"><stop offset="0" stop-color="#1a750c"/><stop offset="1" stop-color="#19720c"/></linearGradient><linearGradient id="linear-gradient-61" x1="627.95" y1="101.3" x2="628.46" y2="100.79" gradientUnits="userSpaceOnUse"><stop offset="0" stop-color="#6dcf09"/><stop offset="1" stop-color="#70d008"/></linearGradient><linearGradient id="linear-gradient-62" x1="628.1" y1="101.44" x2="628.41" y2="101.13" xlink:href="#linear-gradient-51"/><linearGradient id="linear-gradient-63" x1="604.86" y1="105.69" x2="623.27" y2="87.28" gradientUnits="userSpaceOnUse"><stop offset="0" stop-color="#75d108"/><stop offset="1" stop-color="#6dcf09"/></linearGradient><linearGradient id="linear-gradient-64" x1="627.64" y1="102.13" x2="629.12" y2="100.64" gradientUnits="userSpaceOnUse"><stop offset="0" stop-color="#49c910"/><stop offset="1" stop-color="#5ccc0c"/></linearGradient><linearGradient id="linear-gradient-65" x1="597.81" y1="137.98" x2="637.44" y2="98.35" gradientUnits="userSpaceOnUse"><stop offset="0" stop-color="#49c910"/><stop offset="1" stop-color="#59cc0e"/></linearGradient><linearGradient id="linear-gradient-66" x1="631.6" y1="132.22" x2="642.17" y2="121.65" xlink:href="#linear-gradient-65"/><linearGradient id="linear-gradient-67" x1="590.13" y1="122.05" x2="626.97" y2="85.21" gradientUnits="userSpaceOnUse"><stop offset="0" stop-color="#59cc0e"/><stop offset="1" stop-color="#63cd0c"/></linearGradient></defs><g id="Layer_2" data-name="Layer 2"><g id="Logo_PtX_MULTI" data-name="Logo PtX MULTI"><g id="Logo_PtX_MULTI_-_Long" data-name="Logo PtX MULTI - Long"><path class="cls-1" d="M0,.94H29.59V5.65H17.4V48.07H12.19V5.65H0Z"/><path class="cls-1" d="M46.3,48.07h-5V.94h5V17h.13c2.26-3,4.84-4.77,8.61-4.77,5.21,0,8.61,2.76,8.61,8.92v27h-5V22.49c0-3.64-1.19-6.09-5.21-6.09a7.06,7.06,0,0,0-4.9,2c-2,1.82-2.27,3.83-2.27,6.34Z"/><path class="cls-1" d="M99,36.44C99.33,43.29,95.81,49,88.46,49c-6.6,0-11.31-4.4-11.31-18.47,0-7.36,1.95-18.35,11.18-18.35C99.64,12.19,99,22.87,99.27,31h-17c.13,4.71-.69,13.76,6.29,13.76,4.77,0,6.09-4.4,5.78-8.36ZM94.12,27c-.19-4.08.06-10.55-5.72-10.55S82.49,22.81,82.3,27Z"/><path class="cls-1" d="M148.21,48.07h-6.47L131.68.94h5.78l6.16,32.49c.57,3.2,1,6.47,1.38,10.87h.13c.44-3.65.82-7.1,1.51-10.5L153.55.94H160l6.22,32.49c.57,3.14.94,6.28,1.38,10.87h.13c.44-3.65.82-7.1,1.51-10.5L176.11.94h5.78L170.83,48.07h-6.47l-6.29-32a86.21,86.21,0,0,1-1.38-11.37h-.13a110,110,0,0,1-1.5,11.37Z"/><path class="cls-1" d="M203.81,49c-7.54,0-12.5-4.53-12.5-19.6,0-10.56,3.89-17.22,12.5-17.22s12.5,6.66,12.5,17.22C216.31,44.55,211.48,49,203.81,49Zm0-32.61c-5.09,0-7.35,4-7.35,14.58,0,8.23,1.57,13.82,7.35,13.82s7.35-5.59,7.35-13.82C211.16,20.42,209,16.4,203.81,16.4Z"/><path class="cls-1" d="M235.66,18.85h.13c2.07-4.59,5-6.54,10.24-6.1v4.91c-6.41-1.14-10.18,2.89-10.18,9.23V48.07h-5V13.13h4.77Z"/><path class="cls-1" d="M257.52,48.07V.94h5V48.07Z"/><path class="cls-1" d="M294.91.94h5V48.07H295.1V43.48H295c-2.14,4.15-4.27,5.53-8.48,5.53-11,0-10.12-15.4-10.24-18.47-.38-10.25,3-18.35,10.49-18.35,3.58,0,5.72,1.51,8,4.52h.13Zm0,29.09c0-4.77-.13-13.63-6.79-13.63-4.15,0-6.85,3.27-6.85,14,0,7.54.25,14.39,7,14.39,5.15,0,6.6-6.47,6.6-10.43Z"/><path class="cls-1" d="M338.32,48.07V.94H350.7c3.64,0,8.23.44,11,3.08s3.83,6.28,3.83,10.05c0,5.22-1.57,10.31-6.66,12.63-3.26,1.39-8.6,1.39-12.19,1.39h-3.14v20Zm5.21-24.7h5.09c7.17-.06,11.56-1.06,11.5-9.17,0-7.6-4.84-8.67-11.18-8.55h-5.41Z"/><path class="cls-1" d="M389.84,49c-7.54,0-12.51-4.53-12.51-19.6,0-10.56,3.9-17.22,12.51-17.22s12.5,6.66,12.5,17.22C402.34,44.55,397.5,49,389.84,49Zm0-32.61c-5.09,0-7.35,4-7.35,14.58,0,8.23,1.57,13.82,7.35,13.82s7.35-5.59,7.35-13.82C397.19,20.42,395.05,16.4,389.84,16.4Z"/><path class="cls-1" d="M441.23,43.86h.13l6.09-30.73h5.15l-8.73,34.94h-5.15l-5.91-30.73h-.13l-5.52,30.73H422l-9-34.94h5.15l6.35,30.73h.12l5.53-30.73h5.15Z"/><path class="cls-1" d="M484.58,36.44C484.89,43.29,481.38,49,474,49c-6.59,0-11.31-4.4-11.31-18.47,0-7.36,2-18.35,11.19-18.35,11.31,0,10.68,10.68,10.93,18.85h-17c.12,4.71-.69,13.76,6.28,13.76,4.77,0,6.09-4.4,5.78-8.36ZM479.68,27c-.19-4.08.06-10.55-5.72-10.55s-5.91,6.41-6.09,10.55Z"/><path class="cls-1" d="M504.05,18.85h.13c2.07-4.59,5-6.54,10.24-6.1v4.91c-6.41-1.14-10.18,2.89-10.18,9.23V48.07h-5V13.13h4.77Z"/><path class="cls-1" d="M521.9,30.79V25.57h15.26v5.22Z"/><path class="cls-1" d="M556.58,13.13h5.84v4.21h-5.78V41.15c0,1.2-.44,2.71,2.32,2.71h3.33v4.21h-5.46c-3,.06-5.15-.44-5.15-5.72v-25h-4.84V13.13h4.84V3.64h4.9Z"/><path class="cls-1" d="M585.73,49c-7.54,0-12.51-4.53-12.51-19.6,0-10.56,3.9-17.22,12.51-17.22s12.5,6.66,12.5,17.22C598.23,44.55,593.39,49,585.73,49Zm0-32.61c-5.09,0-7.35,4-7.35,14.58,0,8.23,1.57,13.82,7.35,13.82s7.35-5.59,7.35-13.82C593.08,20.42,590.94,16.4,585.73,16.4Z"/><path class="cls-1" d="M610.54,30.79V25.57h15.27v5.22Z"/><path class="cls-1" d="M649.37,23.88,636.36.94h6.16l9.87,18.41L662.25.94h6.16L655.47,23.88l13.32,24.19h-6.41l-10-19.73L642.21,48.07H636Z"/><path class="cls-1" d="M723.26,13.32c.37-4.9-2.27-8.61-7.48-8.61-7.6,0-8.42,4.78-8.42,8.42a6.19,6.19,0,0,0,4.46,6.41c2.51.94,5,1.89,7.48,2.83,8.92,3.33,10.55,6.47,10.55,12.69,0,8.92-5.59,14.14-14.64,14.14-4.65,0-10.17-1.32-12.88-7.48-1-2.32-.94-6.09-1-8.61h5.21c-.25,7,1.07,11.37,8.93,11.37,5.27,0,9-2.7,9-8.23,0-7.16-2.89-7.22-7.67-9-2.57-1-6.72-2.33-9.23-3.65-4.46-2.26-5.59-6-5.59-10.68C702,5.09,707.42,0,715.09,0,723.7,0,729,4.46,728.47,13.32Z"/><path class="cls-1" d="M761,43.48h-.12a9.18,9.18,0,0,1-8.3,5.53c-5.21,0-8.41-2.77-8.41-8.92v-27h5V40.27c0,3,.94,4.53,4.46,4.53a7.11,7.11,0,0,0,6-3.08A11.74,11.74,0,0,0,761,35.56V13.13h5V48.07h-5Z"/><path class="cls-1" d="M786.77,48.07h-5V13.13h4.77v4.46h.13c1.63-2.95,4.65-5.4,8.29-5.4a9.12,9.12,0,0,1,8.3,5.53c2.45-3.58,5-5.53,9.36-5.53a9.42,9.42,0,0,1,6.41,2.45c2.26,2.07,2.13,6,2.13,8.17V48.07h-5V22.49c0-3.89-1.07-6.09-5.34-6.09a7.17,7.17,0,0,0-4.65,2c-2,1.82-2.26,3.83-2.26,6.34V48.07h-5V22.49c0-3.64-1.19-6.09-5.21-6.09a7.09,7.09,0,0,0-4.9,2c-2,1.82-2.14,3.83-2.14,6.34Z"/><path class="cls-1" d="M841.93,48.07h-5V13.13h4.77v4.46h.13c1.63-2.95,4.65-5.4,8.29-5.4a9.12,9.12,0,0,1,8.3,5.53c2.45-3.58,5-5.53,9.36-5.53a9.42,9.42,0,0,1,6.41,2.45c2.26,2.07,2.14,6,2.14,8.17V48.07h-5V22.49c0-3.89-1.07-6.09-5.34-6.09a7.17,7.17,0,0,0-4.65,2c-2,1.82-2.26,3.83-2.26,6.34V48.07h-5V22.49c0-3.64-1.2-6.09-5.22-6.09a7.09,7.09,0,0,0-4.9,2c-2,1.82-2.14,3.83-2.14,6.34Z"/><path class="cls-1" d="M891.88,7.23V.94h5V7.23Zm0,40.84V13.13h5V48.07Z"/><path class="cls-1" d="M917.89,13.13h5.84v4.21H918V41.15c0,1.2-.44,2.71,2.33,2.71h3.33v4.21h-5.47c-2.95.06-5.15-.44-5.15-5.72v-25h-4.84V13.13H913V3.64h4.9Z"/><path class="cls-1" d="M964.88,36.51a8.79,8.79,0,0,0-3.39,6.84h19.92v4.72H956.09A27.49,27.49,0,0,1,958,37.89a16.36,16.36,0,0,1,3.71-4.72l9-8.67c3.65-3.51,4.91-5.4,4.91-10.55,0-4.78-1.64-8.3-7-8.3-6.47,0-7,6.35-6.91,11.31h-5.22V14.07a14.81,14.81,0,0,1,3-9.42c1.45-1.51,4.08-3.71,9.36-3.71,8,0,12.13,5.34,12.13,13.13,0,6.92-2.76,10.31-7.6,14.71Z"/><path class="cls-1" d="M993.91,24.88c0-8.8.57-23.94,12.82-23.94,13.19,0,12.88,15,12.88,23.94,0,10.68-.57,24.13-12.88,24.13C994.16,49,993.91,33.24,993.91,24.88Zm12.82,19.42c7.79,0,7.47-11.19,7.47-20.24,0-6.66.7-17.84-7.47-18.41s-7.42,14.08-7.42,18.41C999.31,33.11,998.06,44.3,1006.73,44.3Z"/><path class="cls-1" d="M1040.28,36.51a8.77,8.77,0,0,0-3.4,6.84h19.92v4.72h-25.32a27.49,27.49,0,0,1,1.88-10.18,16.53,16.53,0,0,1,3.71-4.72l9-8.67C1049.7,21,1051,19.1,1051,14c0-4.78-1.64-8.3-7-8.3-6.47,0-7,6.35-6.91,11.31h-5.21V14.07a14.86,14.86,0,0,1,3-9.42c1.45-1.51,4.09-3.71,9.36-3.71,8,0,12.13,5.34,12.13,13.13,0,6.92-2.76,10.31-7.6,14.71Z"/><path class="cls-1" d="M1069.3,24.88c0-8.8.57-23.94,12.82-23.94,13.19,0,12.88,15,12.88,23.94,0,10.68-.57,24.13-12.88,24.13C1069.55,49,1069.3,33.24,1069.3,24.88Zm12.82,19.42c7.79,0,7.48-11.19,7.48-20.24,0-6.66.69-17.84-7.48-18.41s-7.42,14.08-7.42,18.41C1074.7,33.11,1073.45,44.3,1082.12,44.3Z"/><path class="cls-2" d="M21.55,517.54h.11l5-24.56h3.18l-6.7,30.81h-3.4L15,499.62h-.11l-4.74,24.17H6.53L0,493H3.24l5,24.56h.11L13.12,493h3.57Z"/><path class="cls-2" d="M80.5,517.54h.11l5-24.56h3.19l-6.7,30.81H78.65l-4.74-24.17H73.8l-4.75,24.17H65.48L59,493h3.23l5,24.56h.11L72.07,493h3.57Z"/><path class="cls-2" d="M139.44,517.54h.11l5-24.56h3.18L141,523.79h-3.4l-4.75-24.17h-.11L128,523.79h-3.58L117.89,493h3.24l5,24.56h.12L131,493h3.57Z"/><path class="cls-2" d="M178.46,523.79v-4.91h3.85v4.91Z"/><path class="cls-2" d="M236.62,517.54h.11l5-24.56h3.18l-6.7,30.81h-3.4L230,499.62h-.11l-4.74,24.17H221.6L215.07,493h3.24l5,24.56h.12L228.19,493h3.57Z"/><path class="cls-2" d="M276.14,507.66c0-6.92,1.28-15.46,9.77-15.46,8.65,0,9.6,9.32,9.6,16.07,0,7-.89,16.3-9.77,16.3C276.36,524.57,276.14,514.8,276.14,507.66Zm16.13.67c0-4.8-.11-13.29-6.75-13.29-5.81,0-6.14,8.43-6.14,12.67,0,4.58-.34,14,6.31,14S292.27,513,292.27,508.33Z"/><path class="cls-2" d="M333,496.55h.11c1.62-3.24,3.74-4.41,7.31-4.35v3.4c-5-.11-7.25,3.13-7.25,8v20.21H330V493H333Z"/><path class="cls-2" d="M374.1,523.79V481.92h3.24v41.87Z"/><path class="cls-2" d="M427.91,481.92h3.24v41.87h-3.24v-2.9h-.11c-1.28,2.51-3.69,3.68-6.64,3.68-8.32,0-8.88-10.1-8.88-16.3s.73-16.07,9-16.07a8.43,8.43,0,0,1,6.53,3.29h.11Zm-12.39,27c0,4.35.28,12.84,6.36,12.84,6.59,0,6-10.44,6-14.69s-.28-12-6.19-12C415.57,495,415.52,504.7,415.52,508.89Z"/><path class="cls-2" d="M469.1,534.4h-3.35V493H469v2.79h.11a7.33,7.33,0,0,1,6.14-3.57c8.43,0,9.27,8.81,9.27,15.4s0,17-9,17a7,7,0,0,1-6.3-3.29h-.12Zm6.14-12.67c6.09,0,6-9,6-13.07s0-13.62-5.91-13.62c-6.76,0-6.37,8.49-6.37,13.18S468.66,521.73,475.24,521.73Z"/><path class="cls-2" d="M526.43,524.07a11.83,11.83,0,0,1-4.19.17c-2.84-1-3.35-2.4-3.35-5.36V495.82H516.1V493h2.79v-9.05h3.24V493h4.3v2.84h-4.3v22.72c0,1.07.11,2.63,1.62,2.91a4.38,4.38,0,0,0,2.68-.06Z"/><path class="cls-2" d="M566.28,510.73l-6.53,13.06h-3.51l8.09-16.13L556.79,493h3.63l5.86,11.89,6-11.89H576l-7.71,14.68,8.21,16.13h-3.63Z"/><path class="cls-2" d="M615.52,492.2c5.3,0,8.37,3.34,8.37,8.65h-3.18c-.11-3.24-1.9-5.81-5.31-5.81-3.07,0-4.57,1.9-4.57,4.91,0,2.46,1.62,3.86,3.74,4.69,5.47,2.52,10.1,4.86,10.1,11.45,0,5.47-3.4,8.48-8.76,8.48-6,0-9-3.29-9-9.15h3.29c.28,3.79,2,6.31,5.92,6.31,3.41,0,5.3-2.57,5.3-5.81,0-8.15-13.39-6.53-13.84-14.85C607.09,495.49,609.88,492.2,615.52,492.2Z"/><path class="cls-2" d="M672.68,493h3.23v30.81h-3.12v-2.85h-.11a8.93,8.93,0,0,1-7.77,3.63c-5.63,0-6.81-4-6.81-8.82V493h3.24v23.33c0,3.91,1.51,5.7,5.42,5.42,2.57-.11,4.91-2.68,5.92-5.31Z"/><path class="cls-2" d="M713.92,523.79h-3.24V493h3.24v2.73H714a7.55,7.55,0,0,1,6.54-3.51c2.51,0,4.57.22,6.47,3.46h.11a8.58,8.58,0,0,1,7.26-3.46c5.53,0,7.09,3.51,7.09,8.37v23.22h-3.24V500.18c0-2.57-1-5.19-4.24-5.19a5.92,5.92,0,0,0-6.31,6.3v22.5h-3.24V501.52c0-3.46-.39-6.48-4.57-6.48-2.57,0-6,2.51-6,5.25Z"/><path class="cls-2" d="M779.06,523.79h-3.23V493h3.23v2.73h.12a7.54,7.54,0,0,1,6.53-3.51c2.51,0,4.58.22,6.47,3.46h.11a8.59,8.59,0,0,1,7.26-3.46c5.53,0,7.09,3.51,7.09,8.37v23.22H803.4V500.18c0-2.57-1-5.19-4.24-5.19a5.92,5.92,0,0,0-6.31,6.3v22.5h-3.23V501.52c0-3.46-.4-6.48-4.58-6.48-2.57,0-6,2.51-6,5.25Z"/><path class="cls-2" d="M842.08,487.23v-5.31h3.74v5.31Zm.23,36.56V493h3.23v30.81Z"/><path class="cls-2" d="M889.25,524.07a11.83,11.83,0,0,1-4.19.17c-2.84-1-3.35-2.4-3.35-5.36V495.82h-2.79V493h2.79v-9.05H885V493h4.3v2.84H885v22.72c0,1.07.11,2.63,1.62,2.91a4.38,4.38,0,0,0,2.68-.06Z"/><path class="cls-2" d="M922.63,523.79v-4.91h3.85v4.91Z"/><path class="cls-2" d="M978.62,513.58c0,5.69-2.07,11-8.55,11-9,0-9.37-9.43-9.37-16.35,0-6.65.72-16,9.26-16,5.53,0,8.43,4.74,8.38,9.88h-3.18c-.12-3.74-1.9-7.15-5.42-7-6.08.17-5.81,8.93-5.81,13.74,0,4.29-.11,13,6.2,13,4.52,0,4.91-4.64,5.25-8.15Z"/><path class="cls-2" d="M1011,507.66c0-6.92,1.28-15.46,9.77-15.46,8.65,0,9.6,9.32,9.6,16.07,0,7-.89,16.3-9.77,16.3C1011.21,524.57,1011,514.8,1011,507.66Zm16.13.67c0-4.8-.11-13.29-6.75-13.29-5.81,0-6.14,8.43-6.14,12.67,0,4.58-.34,14,6.31,14S1027.12,513,1027.12,508.33Z"/><path class="cls-2" d="M1067.42,523.79h-3.24V493h3.24v2.73h.11a7.55,7.55,0,0,1,6.54-3.51c2.51,0,4.57.22,6.47,3.46h.11a8.58,8.58,0,0,1,7.26-3.46c5.53,0,7.09,3.51,7.09,8.37v23.22h-3.24V500.18c0-2.57-1-5.19-4.24-5.19a5.92,5.92,0,0,0-6.31,6.3v22.5H1078V501.52c0-3.46-.39-6.48-4.57-6.48-2.57,0-6,2.51-6,5.25Z"/><path class="cls-3" d="M884.33,121.7A37.71,37.71,0,1,1,846.62,84,37.75,37.75,0,0,1,884.33,121.7Z"/><path class="cls-4" d="M968,375.15l-11.08,4.19-.3.12-.85.32h0l-.07,0a1,1,0,0,1-.54-.59,2.05,2.05,0,0,1,0-2.12.6.6,0,0,0,0-.58.64.64,0,0,0-.48-.39h-.06a.62.62,0,0,1-.55-.23.46.46,0,0,1,0-.41c.09-.26,0-.42-.3-.76a1.6,1.6,0,0,1-.51-1.31c0-.06,0-.12,0-.19a1.21,1.21,0,0,1,.39-.94.94.94,0,0,1,.77-.13.45.45,0,0,0,.34,0s.12-.14.12-.51a5.3,5.3,0,0,0-1.15-3.61,16,16,0,0,1-2.87-5.1l-.24-.67c-.19-.54-.39-1.07-.59-1.59Z"/><path class="cls-5" d="M897.05,213.66l10.85,12.51a7.4,7.4,0,0,1-1.76,0,3.62,3.62,0,0,1-2.83-2.6,13.42,13.42,0,0,0-2.69-4.88,3.54,3.54,0,0,0-2.66-1.06l-1,0Z"/><path class="cls-6" d="M921.43,241.77l-3-1.18c0-.12,0-.23.05-.36a.85.85,0,0,1,.95-.66,1.17,1.17,0,0,1,0-.2Z"/><path class="cls-7" d="M921.43,241.77l-4.56,5.68c-.18-.3-.37-.6-.55-.88a1.72,1.72,0,0,1-.27-1.59l.14-.38.38.12a1.37,1.37,0,0,0,1.17,0c.36-.24.58-.84.66-1.81,0-.23,0-.47,0-.72s0-.25,0-.37v-.37l.17,0a1.78,1.78,0,0,1-.17-.84Z"/><path class="cls-8" d="M1008.56,352.73c0,.09-.07.17-.1.26a16.67,16.67,0,0,0-.77,2.36,4.49,4.49,0,0,1-2.5,3.33,5.84,5.84,0,0,0-1.49,1l-.39.34a7.62,7.62,0,0,0-1.69,2.29c-.24.44-.5.88-.79,1.31l-.45.66a15.56,15.56,0,0,1-4.79,5.11,4.06,4.06,0,0,0-1.23,1.13,14.75,14.75,0,0,1-3.15,2.83l-.06,0c-.44.32-.87.65-1.29,1a23.56,23.56,0,0,1-3.13,2.17l-.31.18c-1.13.64-2.41,1.36-4,.64a.38.38,0,0,0-.36,0,.68.68,0,0,0-.21.58.74.74,0,0,1-.21.56.72.72,0,0,1-.53.19,2.09,2.09,0,0,0-.25,0,1.32,1.32,0,0,1-.75-.07c-.86-.39-1.11-.33-1.41.31a.6.6,0,0,1-.41.33,1.89,1.89,0,0,1-1.32-.15,5.64,5.64,0,0,0-1.88-.57c-.35-.07-.71-.13-1.07-.23-.15,0-.29,0-.54.15a2.12,2.12,0,0,1-.9.26,5.29,5.29,0,0,1-1.22-.15L968,375.15Z"/><path class="cls-9" d="M971.35,378.59h0a4.78,4.78,0,0,0-1.29-.12,2.06,2.06,0,0,0-.64.16L968,375.15Z"/><path class="cls-10" d="M1031,168.19l-46.93-1.88,36.73-16.07a2,2,0,0,0,.28.31.75.75,0,0,1,.19.22l.05.06a5,5,0,0,1,2.23,1.36,5.56,5.56,0,0,0,1.33,1,1.08,1.08,0,0,1,.66,1.09,3.84,3.84,0,0,0,1.18,2.73,1.26,1.26,0,0,1,.32.87,15.28,15.28,0,0,0,.3,3.6c.11.71.23,1.45.29,2.19a7.63,7.63,0,0,0,.55,2c.08.2.16.4.23.61s.24.43.7.54a2.59,2.59,0,0,1,1.82,1.3A.54.54,0,0,0,1031,168.19Z"/><path class="cls-11" d="M1036.59,178.13l-29.15,25.6L984.1,166.31l46.93,1.88a1.72,1.72,0,0,0,.76.64l.12.06c1.76,1,2.49,2.65,3.14,4.4l0,.06a15.65,15.65,0,0,1,1.07,3.86A2,2,0,0,0,1036.59,178.13Z"/><path class="cls-12" d="M1020,147.57v.93c.12.23.21.45.3.67a4.52,4.52,0,0,0,.56,1.07L984.1,166.31,980.53,133l34.49,5.41a8.66,8.66,0,0,1,1.53,2.64,4,4,0,0,1,1.2,1.77c.08.19.16.38.25.56a6.13,6.13,0,0,0,2.33,2.44,1.63,1.63,0,0,1,.55.62l0,.05c.37.62.12,1-.15,1.13A.7.7,0,0,1,1020,147.57Z"/><path class="cls-13" d="M1019.77,338.82a1.67,1.67,0,0,1-.58,1.69,3.33,3.33,0,0,0-.25.28,5.27,5.27,0,0,1-2.72,2l-.2.06a27.32,27.32,0,0,0-5.65,2.06,3.34,3.34,0,0,0-1,.71l.18.62a4.37,4.37,0,0,1,0,2.13,5.78,5.78,0,0,0-.12.88,10.18,10.18,0,0,1-.86,3.45L968,375.15l13.56-123.54,38.28,85A3.88,3.88,0,0,0,1019.77,338.82Z"/><polygon id="triangle36" class="cls-14" points="1007.44 203.74 963.81 219.89 981.58 251.61 1007.44 203.74"/><path class="cls-15" d="M981.58,251.61,968,375.15,950,360.6a17.54,17.54,0,0,0-1.63-3.31.46.46,0,0,0-.14-.16,13.84,13.84,0,0,1-4.33-5.15l-.14-.27a6.15,6.15,0,0,1-.93-3.35s0,0,0-.09a12,12,0,0,1-1.18-5.16,5.11,5.11,0,0,0-.66-2.19c-.06-.13-.12-.26-.19-.39a3.87,3.87,0,0,1-.51-3.11,3.36,3.36,0,0,0-.12-1.63c0-.2-.09-.4-.12-.6l0-.16a1.13,1.13,0,0,1,0-.81c.69-1.45-.13-2.4-1.08-3.51l-.19-.23a17.77,17.77,0,0,1-1.82-2.76l-.42-.71c-.74-1.26-1.39-2.59-2-3.88a41.52,41.52,0,0,0-2.66-4.9l0-.05a2.57,2.57,0,0,0-.4-.49,7.69,7.69,0,0,1-2.45-4.64,2.74,2.74,0,0,1,.05-1.18,3.69,3.69,0,0,0-.11-2.36l0-.07a1,1,0,0,1,.47-1.48,2.91,2.91,0,0,0-.13-.64,3.7,3.7,0,0,1-.14-.55c0-.09,0-.17,0-.25a1.27,1.27,0,0,1,.82-1.7c.12-.05.15-.36.17-.55v-.06a14.38,14.38,0,0,1,.61-2.57,10.49,10.49,0,0,0,.62-3.15,3.26,3.26,0,0,1,.26-1.15,2.55,2.55,0,0,0,.24-1.18.73.73,0,0,1,.41-.72l.08-.06a4.43,4.43,0,0,1,.55-.51c.46-.37.72-.6.7-1.11,0-.15,0-.6,1-1.29a3.29,3.29,0,0,0,1.88-3.58,5.4,5.4,0,0,1,.14-1.15,2.93,2.93,0,0,1,0-.29,3.89,3.89,0,0,0-.85-2.92,10.62,10.62,0,0,1-1.77-4v0a2.32,2.32,0,0,1-.5-1.68,3,3,0,0,1,1.32-1.82,1.31,1.31,0,0,0-.07-.78,16.84,16.84,0,0,1-1.38-2.75Z"/><path class="cls-7" d="M981.58,251.61l-48.29,21.88c-.3-.75-.57-1.51-.83-2.26l-.21-.61a3.65,3.65,0,0,0-.71-1.06,4.55,4.55,0,0,1-.88-1.37,6.44,6.44,0,0,1-.23-.94,2.57,2.57,0,0,0-.66-1.56.73.73,0,0,1,0-1.05,1.84,1.84,0,0,0,.1-.16,2.54,2.54,0,0,0-.56-1.07,7,7,0,0,1-.75-1.25,5,5,0,0,0-.78-1.23c-.84-.88-1.66-1.8-2.46-2.69-.61-.67-1.21-1.34-1.83-2a15.3,15.3,0,0,0-1.39-1.24,11.81,11.81,0,0,1-1.68-1.56l-.23-.26a10.5,10.5,0,0,1-2.26-3.54,10.91,10.91,0,0,0-1.07-2.17h0l4.56-5.68Z"/><path class="cls-16" d="M1015.3,126.06l-.13.43a12,12,0,0,0-.65,3.81,1.55,1.55,0,0,1-.66,1.54,1.7,1.7,0,0,1-1.61,0,1,1,0,0,1,0,.83l0,.08-.08.15.14.12a2.16,2.16,0,0,1,.71,1.36,7.16,7.16,0,0,0,.8,2,11,11,0,0,1,.57,1.2l.18.22c.18.22.36.43.53.65L980.53,133l1.72-16.43a3.18,3.18,0,0,1,1.35.23c.37,0,.78.07,1.16.1a6.82,6.82,0,0,1,2.93.63,4.27,4.27,0,0,0,1.07.39,4.16,4.16,0,0,1,1.27.49,1.34,1.34,0,0,0,.77.08,3.62,3.62,0,0,1,.58,0,2.86,2.86,0,0,1,2.07.8c.77.23,1.31-.22,1.93-.72.12-.11.24-.2.36-.3a15.13,15.13,0,0,1,4.5-2.16,2.28,2.28,0,0,1,1.36.08c.14,0,.28.12.42.18.54.25.75.31,1.06,0a.92.92,0,0,1,.69-.17.61.61,0,0,1,.48.27,2.16,2.16,0,0,0,1,.71,3.1,3.1,0,0,1,1.3,1c.08,0,.16-.09.34-.26a2.41,2.41,0,0,1,.33-.3,1.58,1.58,0,0,1,1.87-.16,1.57,1.57,0,0,0,1.79-.18,2.05,2.05,0,0,1,1-.25h.13a.74.74,0,0,1,.61.18.79.79,0,0,1,.22.63v0a8.3,8.3,0,0,1,1.29,3A5.71,5.71,0,0,1,1015.3,126.06Z"/><path class="cls-17" d="M982.25,116.58,980.53,133l-3.76-17.85a2.68,2.68,0,0,0,.46,0c1.73-.29,2.24-.18,2.94,1.55.16.38.19.4.62.24A4.63,4.63,0,0,1,982.25,116.58Z"/><path class="cls-18" d="M980.53,133l-16.61-20.27c.67-.29,1.34-.51,2-.71a8.29,8.29,0,0,1,4-.25,6.35,6.35,0,0,1,1.34.42,5.88,5.88,0,0,0,1.24.38c.58.09.6.68.61.9v.11c.05.57.31.81.92.78a2.9,2.9,0,0,1,2,.59,1.11,1.11,0,0,0,.81.2Z"/><path class="cls-19" d="M1045,243.88l-2.08,9.72-.36.08c-.26.06-.51.22-.5.42a4.91,4.91,0,0,1-.93,2.92l0,.09a15.46,15.46,0,0,0-.78,1.69c-.22.52-.44,1.06-.71,1.57l-.1.2a3.86,3.86,0,0,1-.84,1.19,3.31,3.31,0,0,0-1,1.92,11.4,11.4,0,0,1-1.1,2.59l-.2.38a1,1,0,0,0,0,.7,3.83,3.83,0,0,1,.05.51c0,.39.08.49.5.66a1.69,1.69,0,0,1,1,1.28c0,.24.06.24.13.26a1.22,1.22,0,0,1,.93.78,1.49,1.49,0,0,1-.32,1.43c-.53.63-.74,1-.34,1.61a1,1,0,0,1,.15.36v0l-8.38,39.13,0,0a7.76,7.76,0,0,1-.69.4,15.45,15.45,0,0,0-4.23,3.75l-.24.27-.23.27a2.76,2.76,0,0,1-2.17,1.27,2.37,2.37,0,0,0-1.17.92l-.16.22a5.71,5.71,0,0,1-2.21,2c-.73.28-.78.53-.94,1.29v.08c-.16.75-.17.92.38,1.27a2,2,0,0,1,.6,2.19c-.19.53,0,.84.33,1.33a.64.64,0,0,1,.73-.28c.45.1.61.46.5,1.07a.5.5,0,0,0,0,.12,1.5,1.5,0,0,0,0,.29,1.07,1.07,0,0,1-.8,1.37.11.11,0,0,0,0,.08c1.07.31.84,1.17.72,1.58a4.13,4.13,0,0,1-.14.42c-.19.55-.23.76.06,1s.08.82,0,.92a10.56,10.56,0,0,0-.53,1.31l-38.28-85Z"/><polygon id="triangle36-2" data-name="triangle36" class="cls-20" points="1007.44 203.74 981.58 251.61 1044.98 243.89 1007.44 203.74"/><path class="cls-21" d="M1043,287.91a1.09,1.09,0,0,0,0,.17.68.68,0,0,1-.18.56.78.78,0,0,1-.67.17H1042s0,.06,0,.08a1.5,1.5,0,0,1,0,.2,9.29,9.29,0,0,0,.2,2.61,10.66,10.66,0,0,1,.24,2.41,1.35,1.35,0,0,1-.65,1.31,2.86,2.86,0,0,1,.29,1.11,5.42,5.42,0,0,1-.09,1.29,5.54,5.54,0,0,0-.07.57,3.52,3.52,0,0,0,.43,1.7,4,4,0,0,1,.48,2.2,3,3,0,0,1-.27.88,3.68,3.68,0,0,0-.18.53,8.92,8.92,0,0,1-2.84,4.39l-.29.29a18.09,18.09,0,0,1-3.34,2.89,11.9,11.9,0,0,1-3.94,1.38l-.5.11a5.43,5.43,0,0,0-1.35.63l8.38-39.13a2,2,0,0,1-.13,1.61,1.63,1.63,0,0,0,.11,2,6.71,6.71,0,0,1,.84,2.72,8.46,8.46,0,0,0,.38,1.72,1.62,1.62,0,0,0,.93,1.1c1.67.72,2,1.36,1.8,3.26l0,.11s0,.07,0,.11h.05C1043.09,287,1043,287.69,1043,287.91Z"/><path class="cls-22" d="M1049,247.32h0l-.34.56a11.27,11.27,0,0,1-1.18,1.76,5,5,0,0,0-.35.43,2.15,2.15,0,0,1-2.3,1.18.7.7,0,0,0,0,.17c-.22,1.41-.56,1.84-1.91,2.17l2.08-9.72Z"/><path class="cls-23" d="M1062.57,234.85l-.55.3-.32.17a25.33,25.33,0,0,0-4.34,3.23l-.26.23a47.38,47.38,0,0,0-3.95,3.94l-1.29,1.37-.76.76a17.3,17.3,0,0,0-1.77,2c-.11.16-.21.32-.31.49l-4-3.44,7.33-53.14.13-1,.42,1.89h0l.5,2.22h0l.61,2.7h0Z"/><path class="cls-24" d="M1051.7,190l-44.26,13.73,29.15-25.6.15.2a3.56,3.56,0,0,1,.71,1.32.62.62,0,0,0,.75.22,2.08,2.08,0,0,1,2.23,1.19,1.42,1.42,0,0,1,.08.18c.07.14.08.14.11.15a8.73,8.73,0,0,1,1.21.66,4.63,4.63,0,0,0,1.59.75,2.87,2.87,0,0,1,1.86,1.79,3.06,3.06,0,0,0,1.33,1.13,4.49,4.49,0,0,1,1.36,1c.06.07.14.14.21.21a1.82,1.82,0,0,1,.52.73,2.12,2.12,0,0,0,1.79,1.44,1,1,0,0,1,.22.09A3.14,3.14,0,0,1,1051.7,190Z"/><polygon class="cls-25" points="1052.44 189.77 1052.31 190.74 1044.98 243.88 1007.44 203.73 1051.7 190 1052.44 189.77"/><path class="cls-23" d="M1052.87,191.67a4.19,4.19,0,0,1,.55,1.82,1.33,1.33,0,0,1-.05.4Z"/><path class="cls-26" d="M1082.43,205.28l0,0a6.58,6.58,0,0,0-.78,1.7,4.64,4.64,0,0,1-1.21,2.16,3,3,0,0,0-.89,1.77,4,4,0,0,1-.71,1.69,7.16,7.16,0,0,0-1.68,3.22,13.68,13.68,0,0,1-2.2,4.89c-.31.5-.63,1-.92,1.54a47.6,47.6,0,0,1-7.67,9.49l-1.09,1.14a10.69,10.69,0,0,1-2.69,1.94L1054,196.61c0,.07.07.13.1.19s.15.27.23.41a4.78,4.78,0,0,0,3.23,2.46,3.55,3.55,0,0,0,2.62-.77l.15-.09a12.89,12.89,0,0,1,1.7-1,3,3,0,0,1,2.48.23c.55.26.84.11,1.34-.18s.69-.43,1-.66Z"/><path class="cls-27" d="M1085,199.36v.06a.65.65,0,0,1-.22.49.76.76,0,0,1-.58.14s0,0-.07,0h-.32a1.6,1.6,0,0,0-.22,0c-.26.11-.29.12-.31.43s0,.76,0,1.16a5.85,5.85,0,0,1-.8,3.64l-15.57-8.05.48-.32.91-.61a1.23,1.23,0,0,1,1.35-.05c.57.3,1.17.21,2.09-.29a2.74,2.74,0,0,1,1.91-.47,3.15,3.15,0,0,0,2.26-.17,8.57,8.57,0,0,1,2.05-.74,6.85,6.85,0,0,0,2-.73c.15-.08.19-.13.2-.15a2.5,2.5,0,0,1,1.63-1.19,2.44,2.44,0,0,1,1.94.43,1.39,1.39,0,0,1,.28,1.81,4.14,4.14,0,0,0,0,2.51c.07.36.15.74.19,1.13,0,0,.08.07.14.07a.72.72,0,0,1,.57.23A.85.85,0,0,1,1085,199.36Z"/><polygon id="triangle36-3" data-name="triangle36" class="cls-28" points="1007.44 203.74 984.1 166.31 984.31 197.07 1007.44 203.74"/><polygon id="triangle36-4" data-name="triangle36" class="cls-5" points="1007.44 203.74 963.81 219.89 984.31 197.07 1007.44 203.74"/><path class="cls-29" d="M897.05,213.66l-.07,3.93a56.44,56.44,0,0,0-6.77.39l-.51,0a7.87,7.87,0,0,0-1.18.26,7.07,7.07,0,0,1-1.48.31c-.07,0-.2.18-.23.39A1.19,1.19,0,0,1,885.3,220c-1.71-.22-3.11.58-4.6,1.42l-.14.08a13.07,13.07,0,0,1-4,1.25l-.12,0-19-8.75Z"/><polygon id="triangle36-5" data-name="triangle36" class="cls-12" points="897.05 213.66 873.92 173.18 857.41 214.09 897.05 213.66"/><path class="cls-14" d="M876.45,222.83a2.19,2.19,0,0,0-.72.41,2.71,2.71,0,0,1-1.15.58l-.16,0a1.59,1.59,0,0,1-1.53-.29,3.88,3.88,0,0,0-2.15-.73l-.73-.12-1-.21a11.82,11.82,0,0,0-3.81-.4l-2,.16a31.84,31.84,0,0,0-3.91.46,8.1,8.1,0,0,0-1.63.6,10.36,10.36,0,0,1-1.46.59,16,16,0,0,0-2.44,1l-.68.34a1.92,1.92,0,0,1-1.71.06c-.67-.36-1.38-.68-2.06-1l-.55-.26,8.61-10Z"/><path class="cls-30" d="M857.41,214.08l-8.61,10a22.76,22.76,0,0,1-3.09-1.69,11.11,11.11,0,0,1-2-1.94A12.19,12.19,0,0,0,842.2,219c-.19-.15-.36-.31-.53-.47a3,3,0,0,0-1.47-.93c-.86-.17-1.28-.59-1.25-1.24l-.33-.17Z"/><path class="cls-31" d="M857.41,214.08l-18.79,2.07h0a7.18,7.18,0,0,1-2.33-1.94,4.88,4.88,0,0,0-2.25-1.34l-.74-.29c-.28-.13-.55-.28-.8-.42a3.34,3.34,0,0,0-1.33-.55c-.56-.05-.67-.6-.73-.86l-.1-.44.31-.14a1.27,1.27,0,0,1,.4-.11.7.7,0,0,1-.06-.58,1.49,1.49,0,0,0,.09-.44,2.11,2.11,0,0,0-.75.18l-.93.32.41-.89c.22-.48.21-.6.1-.71Z"/><path class="cls-32" d="M873.92,173.18l-16.51,40.9-11.68-49c.3,0,.59,0,.89,0a43,43,0,0,0,9-.94Z"/><path class="cls-12" d="M857.41,214.08l-27.51-6.14,0-.05a.72.72,0,0,1-.18-.85.62.62,0,0,1,.26-.25,3.14,3.14,0,0,1-.15-1.16,2.44,2.44,0,0,0-.12-.95l-.15-.37c-.32-.83-.45-1.08-1.16-.9l-.42.1-.09-.42a.73.73,0,0,1,.07-.6.67.67,0,0,1,.48-.28,0,0,0,0,1,0,0h0l-.48-.47a4,4,0,0,0-1-.83,3.33,3.33,0,0,1-1.34-1.25,6.27,6.27,0,0,0-.5-.61.43.43,0,0,1-.19-.4,3.19,3.19,0,0,0-.18-1.16l0,.05a.8.8,0,0,1-.74.27.54.54,0,0,1-.37-.4c0-.26-.27-.44-.53-.65a1.93,1.93,0,0,1-.76-1,.86.86,0,0,1-.58.31,1,1,0,0,0-.54.24,1.92,1.92,0,0,1-.7.35l-.15,0a1.22,1.22,0,0,1-1.15-.13,1,1,0,0,1-.26-.76.45.45,0,0,1-.19-.15h-.06c-.63-.06-.74-.45-.72-.77a.62.62,0,0,1,.43-.61.77.77,0,0,1-.08-.43.79.79,0,0,1,.46-.59,1.54,1.54,0,0,1,.55-.18,1.6,1.6,0,0,1-.54-1.16v-.1a.71.71,0,0,0,0-.15,2.49,2.49,0,0,1-1.36-3,10.27,10.27,0,0,0,.12-1.1l21.29-23.09h0a42.23,42.23,0,0,0,7,.7Z"/><path class="cls-33" d="M817.76,185.2a.65.65,0,0,1,.52-.17,1.14,1.14,0,0,1,0-.51s0-.1,0-.14h0l-.4-.09.08-.4a2.34,2.34,0,0,0-.47-1.61,5.31,5.31,0,0,1-.49-1.05c-.13-.43-.2-.45-.37-.43a.78.78,0,0,1-.61-.17.93.93,0,0,1-.32-.67.7.7,0,0,1,.59-.78l.06,0a6.24,6.24,0,0,0,3.64-5.22,1.77,1.77,0,0,1,.38-1,11.47,11.47,0,0,1,.39-1.2,1.45,1.45,0,0,1,.36-.68.67.67,0,0,1,.2-.44.62.62,0,0,1,.23-.41,6.85,6.85,0,0,1,.87-1.73v0a.81.81,0,0,1,.18-.6,3.66,3.66,0,0,1,.38-1.59,8.94,8.94,0,0,0-.08-2,14.36,14.36,0,0,1-.12-1.62,3.45,3.45,0,0,1-.36-.55,2.28,2.28,0,0,0-.28-.43,1.29,1.29,0,0,1,.11-1.82c0-.06,0-.13,0-.2a1.17,1.17,0,0,1,.17-.89,1.09,1.09,0,0,1,.51-.77,43.07,43.07,0,0,0,15.89,6.4l-21.29,23.09c0-.44,0-.89,0-1.35V186a1.23,1.23,0,0,1,.1-.41v0A.6.6,0,0,1,817.76,185.2Z"/><polygon id="triangle36-6" data-name="triangle36" class="cls-28" points="984.31 197.07 984.1 166.31 956.55 220.32 984.31 197.07"/><polygon id="triangle36-7" data-name="triangle36" class="cls-31" points="984.31 197.07 963.81 219.89 956.55 220.32 984.31 197.07"/><polygon id="triangle36-8" data-name="triangle36" class="cls-34" points="984.1 166.31 897.05 213.66 956.55 220.32 984.1 166.31"/><polygon id="triangle36-9" data-name="triangle36" class="cls-24" points="981.58 251.61 963.81 219.89 956.55 220.32 981.58 251.61"/><polygon id="triangle36-10" data-name="triangle36" class="cls-24" points="981.58 251.61 921.43 241.77 956.55 220.32 981.58 251.61"/><path class="cls-6" d="M956.55,220.31l-35.12,21.46-2.08-2.4a1.4,1.4,0,0,1,0-.46,1,1,0,0,1-.76-.48,1.19,1.19,0,0,1,.26-1.12l.06-.09c.22-.37.47-.72.7-1.06s.35-.5.51-.75a1.37,1.37,0,0,0,.18-.82,14.5,14.5,0,0,1,.45-3.74,1.31,1.31,0,0,0-.48-1.44,2,2,0,0,1-.7-1.69,3.16,3.16,0,0,1-1.89-.56,1.66,1.66,0,0,1-.74-1.25,2.51,2.51,0,0,0-.14-.48l0,0a1.18,1.18,0,0,1-1.06,0,1,1,0,0,1-.35-.35,2,2,0,0,1-1.35.25l-.29,0a4.29,4.29,0,0,0-1.23.23,5.22,5.22,0,0,1-1.34.26,13.09,13.09,0,0,0-2,.23c-.42.07-.85.14-1.28.18l-10.85-12.51Z"/><polygon id="triangle36-11" data-name="triangle36" class="cls-35" points="984.1 166.31 980.52 133.02 897.89 123.61 984.1 166.31"/><polygon id="triangle36-12" data-name="triangle36" class="cls-36" points="984.1 166.31 897.05 213.66 897.89 123.61 984.1 166.31"/><path class="cls-37" d="M980.53,133l-82.64-9.4,21.63-29.27a1.42,1.42,0,0,1,.45.27.79.79,0,0,1,.32.31,7.94,7.94,0,0,1,1.43-.2,3.85,3.85,0,0,0,2.22-.62,4.47,4.47,0,0,1,4.22-.33.87.87,0,0,1,.61,1v0a1.18,1.18,0,0,0,.08.41l.06.21a1.08,1.08,0,0,1,.63-.22h0a.64.64,0,0,1,.09-.89.52.52,0,0,1,.76,0,1,1,0,0,0,.34.14,1.18,1.18,0,0,1,.93.8,1.45,1.45,0,0,1-.4,1.58,5.12,5.12,0,0,0-.42.49,3.16,3.16,0,0,1-1.41,1.14.7.7,0,0,0-.05.46.81.81,0,0,0,.31.61,2.27,2.27,0,0,1,1.35,2,3,3,0,0,1-.51,2.4,6.7,6.7,0,0,1-2.9,2.46c-.51.23-.39.52-.35.63.27.62.54.89.94,1a.2.2,0,0,0,.15,0,.21.21,0,0,0,.06-.09.81.81,0,0,1,1-.8h.09c.57,0,.89.33,1,1a5.5,5.5,0,0,0,.21.92,7.24,7.24,0,0,1,.22.89c0,.26.47.36,1,.46l.29,0a5.42,5.42,0,0,1,1.85.81,2.29,2.29,0,0,0,2.34.4,3.2,3.2,0,0,1,2.44,0,4.46,4.46,0,0,0,1,.23,4,4,0,0,1,1.84.73,4.21,4.21,0,0,0,1.15.56,3.31,3.31,0,0,1,.42.12,2.22,2.22,0,0,0,.69.14c1.39-.08,1.57,1.09,1.65,1.66.32,2.29,1.28,3.16,3.53,3.21a13.36,13.36,0,0,1,5.19,1.47,11.22,11.22,0,0,1,2.27,1.47l.07,0c1.55,1.19,2.51,1,4.1-1a1.26,1.26,0,0,0,.19-1.8,3.45,3.45,0,0,1,1-4.62,10.2,10.2,0,0,1,2-1.15Z"/><path class="cls-38" d="M919.52,94.34l-21.63,29.27-9.7-25.38a.76.76,0,0,1,.48-.28l0,0a1,1,0,0,1,1-.37h.36c.21,0,.34,0,.4-.07a1.44,1.44,0,0,1,1-.52,1.18,1.18,0,0,1,.86.45,1,1,0,0,0,.28-.2l0-.06a.84.84,0,0,1,.36-.54.8.8,0,0,1,.52-.35.74.74,0,0,1,.4-.19,1.64,1.64,0,0,1,.68-.27l.19,0a1.5,1.5,0,0,1,.84-.32l.25,0a.74.74,0,0,1,.44-.25,1.26,1.26,0,0,1,1.07-.21l.11,0a9.08,9.08,0,0,0,1.94-.06,8,8,0,0,1,2.62,0l.11,0,.1,0,.08-.09a1.33,1.33,0,0,1,1.69-.38,2,2,0,0,0,1.4-.06.39.39,0,0,1,.29-.17,13.65,13.65,0,0,1,4.2.26.75.75,0,0,1,.58.2.61.61,0,0,1,.42.27.56.56,0,0,1,.29.4l.09,0a1,1,0,0,0,.26,0,.78.78,0,0,1,.86-.53,2.56,2.56,0,0,0,1-.1l.53-.1a.9.9,0,0,1,.44-.42l.09-.05.46-.37.05.14a1.06,1.06,0,0,1,1.44.53l.32,0,.37.06.1,0,.12,0a.46.46,0,0,0,0-.09.68.68,0,0,1,.38-.46,1.49,1.49,0,0,1,1.1.07l.31.11A3.57,3.57,0,0,1,919.52,94.34Z"/><polygon id="triangle36-13" data-name="triangle36" class="cls-32" points="897.05 213.66 873.92 173.18 897.89 123.61 897.05 213.66"/><path class="cls-39" d="M897.89,123.61,890,120.19a43,43,0,0,0-6.09-20.68h.17a4.35,4.35,0,0,1,1,.12,2.4,2.4,0,0,0,1.15.07.73.73,0,0,1,.45-.26l0,0a1.07,1.07,0,0,1,.8-.38.87.87,0,0,0,.21,0l0-.06.1-.1a.84.84,0,0,1,.36-.54l.06-.07Z"/><path class="cls-40" d="M897.89,123.61l-24,49.57-18.31-9a43.5,43.5,0,0,0,33.75-35Z"/><path class="cls-38" d="M889.36,129.15a43.55,43.55,0,0,0,.64-7.45c0-.51,0-1,0-1.51l7.92,3.42Z"/><path class="cls-41" d="M969.4,378.63a1.12,1.12,0,0,0-.47.35,2.8,2.8,0,0,1-2.61.94l1.7-4.77Z"/><path class="cls-4" d="M955.79,379.78l.85-.32a.85.85,0,0,1-.35.27A.67.67,0,0,1,955.79,379.78Z"/><path class="cls-42" d="M968,375.15l-1.7,4.77h0a7.3,7.3,0,0,0-.82,0,11.46,11.46,0,0,0-2.47.6,3.27,3.27,0,0,1-2,.94,4.08,4.08,0,0,1-2-.73,1.73,1.73,0,0,1-.54-.58c-.16-.24-.25-.36-.42-.4l-.13,0a1.86,1.86,0,0,1-.9-.4Z"/><rect class="cls-2" x="451.21" y="416.16" width="643.79" height="35"/><rect class="cls-2" y="416.16" width="35" height="35"/><path class="cls-2" d="M61.75,236.29H41.48L10,88.73H28.1L47.38,190.45c1.77,10,3.15,20.26,4.33,34h.39c1.38-11.41,2.56-22.24,4.73-32.86L78.47,88.73H98.73l19.48,101.72c1.77,9.84,3,19.67,4.33,34h.39c1.38-11.41,2.56-22.24,4.73-32.86L149.1,88.73h18.1L132.57,236.29H112.31L92.63,136.15c-2-9.64-3.14-19.48-4.32-35.61h-.4c-1.37,14.16-2.56,25-4.72,35.61Z"/><path class="cls-2" d="M216.19,239.24c-23.61,0-39.15-14.16-39.15-61.38,0-33.06,12.2-53.91,39.15-53.91s39.15,20.85,39.15,53.91C255.34,225.27,240.19,239.24,216.19,239.24Zm0-102.11c-15.94,0-23,12.59-23,45.65,0,25.77,4.92,43.28,23,43.28,18.49,0,23-17.51,23-43.28C239.21,149.72,232.52,137.13,216.19,137.13Z"/><path class="cls-2" d="M296.26,144.8h.4c6.49-14.36,15.74-20.46,32.07-19.08v15.35c-20.07-3.55-31.88,9.05-31.88,28.92v66.3H281.31V126.9h14.95Z"/><path class="cls-2" d="M345.05,236.29V88.73H360.6V236.29Z"/><path class="cls-2" d="M442.44,88.73H458V236.29H443V221.93h-.39c-6.69,13-13.38,17.31-26.56,17.31-34.43,0-31.68-48.2-32.07-57.84-1.18-32.07,9.44-57.45,32.85-57.45,11.22,0,17.91,4.72,25.19,14.16h.39Zm0,91.1c0-15-.39-42.7-21.25-42.7-13,0-21.44,10.23-21.44,43.88,0,23.61.78,45.05,22,45.05,16.14,0,20.66-20.26,20.66-32.66Z"/><path class="cls-1" d="M58.82,296.12c.78-10.17-4.7-17.87-15.52-17.87-15.78,0-17.47,9.91-17.47,17.48,0,6.78,3,10.95,9.25,13.3,5.22,2,10.31,3.91,15.52,5.87,18.52,6.91,21.91,13.43,21.91,26.34,0,18.51-11.61,29.34-30.39,29.34-9.64,0-21.12-2.74-26.73-15.52-2.08-4.82-2-12.65-2.08-17.86H24.13c-.52,14.47,2.22,23.6,18.52,23.6,11,0,18.64-5.61,18.64-17.08,0-14.87-6-15-15.9-18.78-5.35-2.09-14-4.83-19.17-7.57-9.26-4.69-11.61-12.51-11.61-22.16,0-16.17,11.35-26.74,27.25-26.74,17.87,0,28.82,9.26,27.78,27.65Z"/><path class="cls-1" d="M148.8,270.43h10.82v70.29c-.13,7.69,1.18,20.08,18.52,20.08s18.65-12.39,18.52-20.08V270.43h10.82v74.2c0,17.47-11.61,25.95-29.34,25.95s-29.34-8.48-29.34-25.95Z"/><path class="cls-1" d="M349.49,270.43h19v97.8H357.71V287.64c0-4.17.26-8.21,0-12.39h-.26c-1.18,5.74-2.09,9.39-3,13.18L334,368.23H321.06l-20.47-81c-.91-3.39-1.69-6.65-2.87-12h-.26c0,4.18.26,8.48.26,12.65v80.33H286.9v-97.8h19.17l19.17,76.28a87.26,87.26,0,0,1,2.08,14.48h.26a139.64,139.64,0,0,1,2.48-14.61Z"/><path class="cls-1" d="M510,270.43h19v97.8H518.24V287.64c0-4.17.26-8.21,0-12.39H518c-1.18,5.74-2.09,9.39-3,13.18l-20.48,79.8H481.6l-20.48-81c-.91-3.39-1.69-6.65-2.87-12H458c0,4.18.26,8.48.26,12.65v80.33H447.43v-97.8H466.6l19.17,76.28a87.26,87.26,0,0,1,2.08,14.48h.27a137,137,0,0,1,2.47-14.61Z"/><path class="cls-1" d="M610.83,368.23v-97.8h10.82v97.8Z"/><path class="cls-1" d="M695.33,270.43h61.42v9.78H731.46v88H720.63v-88h-25.3Z"/><polygon class="cls-43" points="754.87 236.29 737.52 236.29 717.62 229.39 715.56 223.95 715.56 223.94 740.53 203.38 754.87 236.29"/><path class="cls-44" d="M554.53,173l1.8,1.45-.56.26h0Z"/><path class="cls-45" d="M634.31,237.24a105.85,105.85,0,0,1-11.06.62c-15.86,0-25-7.61-26.06-22.34,0-.39-.05-.78-.06-1.18,0-.63,0-1.25,0-1.86v-5.24Z"/><path class="cls-46" d="M555.76,174.67c-.84.38-1.68.72-2.53,1l1.3-2.73Z"/><path class="cls-47" d="M554.53,173l-1.3,2.73c-11.11,4-23.57,2.62-35.24,3.15v4.71l-18.43-31.48Z"/><path class="cls-48" d="M573.87,113.28c2,6.11,2.55,12.75,2.55,19.72a79.8,79.8,0,0,1-1.15,14.09L554.53,173Z"/><polygon class="cls-49" points="592.09 126.11 584.69 135.34 584.69 126.11 592.09 126.11"/><polygon class="cls-50" points="688.09 212.94 694.66 211.18 692.64 215.72 688.09 212.94"/><polygon class="cls-51" points="740.53 203.38 715.56 223.94 709.23 207.27 738.77 199.35 740.53 203.38"/><polygon class="cls-52" points="700.67 197.73 694.66 211.18 688.09 212.94 700.67 197.73"/><polygon class="cls-53" points="738.77 199.35 709.23 207.27 704.06 193.64 704.06 193.63 725.16 168.12 738.77 199.35"/><polygon class="cls-54" points="692.64 215.72 687.08 228.16 688.09 212.94 692.64 215.72"/><polygon class="cls-55" points="688.09 212.94 687.08 228.16 683.45 236.29 650.4 236.29 651.88 232.97 688.09 212.94"/><path class="cls-56" d="M643.32,214.05v22l-1.39.2c-1.07.16-2.14.3-3.2.44l2.49-22.7Z"/><polygon class="cls-57" points="688.09 212.94 651.88 232.97 674.4 182.54 688.09 212.94"/><polygon class="cls-58" points="672.51 88.73 661.07 109.91 654.25 93.68 667.63 88.73 672.51 88.73"/><path class="cls-59" d="M554.53,173l11.15-5.05a28.67,28.67,0,0,1-8.73,6.21l-.62.29Z"/><path class="cls-60" d="M628.36,148.74v58c0,6.29,2.76,7.67,6.89,7.67a27.79,27.79,0,0,1,6-.42l-2.49,22.7c-1.48.19-3,.36-4.42.51l-37.23-30V153.68l46.24-21v16Z"/><path class="cls-61" d="M554.53,173l20.74-25.87c-1.4,7.84-4.28,15.27-9.59,20.82Z"/><polygon class="cls-62" points="643.32 128.31 643.32 132.73 597.08 153.68 597.08 148.74 584.69 148.74 584.69 135.34 592.09 126.11 597.08 126.11 597.08 120.74 628.36 125.86 629.9 126.11 643.32 128.31"/><polygon class="cls-63" points="517.99 231.57 517.99 234.63 506.36 225.66 517.99 231.57"/><polygon class="cls-64" points="517.99 220.67 517.99 231.57 506.36 225.66 517.99 220.67"/><polygon class="cls-65" points="517.99 183.55 517.99 220.67 506.36 225.66 499.56 152.07 517.99 183.55"/><polygon class="cls-66" points="506.36 225.66 483.36 204.81 483.36 162.21 499.56 152.07 506.36 225.66"/><polygon class="cls-67" points="506.36 225.66 483.36 210.78 483.36 204.81 506.36 225.66"/><polygon class="cls-68" points="737.52 236.29 720.24 236.29 717.62 229.39 737.52 236.29"/><polygon class="cls-69" points="707.46 122.54 688.09 212.94 674.4 182.54 683.25 162.7 668.38 127.3 699.12 123.56 702.73 133.59 703.13 133.59 706.98 122.6 707.46 122.54"/><polygon class="cls-70" points="699.12 123.56 668.38 127.3 661.07 109.91 672.51 88.73 675.84 88.73 693.32 107.42 699.12 123.56"/><polygon class="cls-71" points="707.46 122.54 706.98 122.6 707.13 122.19 707.46 122.54"/><polygon class="cls-72" points="517.99 234.63 517.99 236.29 501.74 236.29 490.78 231.93 506.36 225.66 517.99 234.63"/><polygon class="cls-73" points="506.36 225.66 490.78 231.93 483.36 223.97 483.36 210.78 506.36 225.66"/><polygon class="cls-74" points="490.78 231.93 483.36 229.01 483.36 223.97 490.78 231.93"/><polygon class="cls-75" points="490.78 231.93 483.36 230.32 483.36 229.01 490.78 231.93"/><polygon class="cls-76" points="517.99 122.23 517.99 125.46 515.81 122.63 517.99 122.23"/><path class="cls-77" d="M573.87,113.27h0L554.53,173l-18.18-23.63a13.44,13.44,0,0,0,1.12-.79c3.54-3.94,4.33-9.84,4.33-14.95,0-4.64-.39-11.23-3.7-15l35.38-6.43Z"/><path class="cls-78" d="M554.53,173l-55-20.89,16.25-29.44,2.18,2.83v26.82c6.06-.19,13,.49,18.36-2.95Z"/><polygon id="triangle36-14" data-name="triangle36" class="cls-79" points="499.56 152.08 499.37 100.14 515.81 122.64 499.56 152.08"/><polygon id="triangle36-15" data-name="triangle36" class="cls-80" points="707.46 122.54 688.09 212.94 729.28 141.15 707.46 122.54"/><polygon class="cls-81" points="731.85 140.89 730.68 143.7 729.28 141.15 731.85 140.89"/><polygon class="cls-82" points="722.8 162.7 725.16 168.12 704.06 193.63 703.52 192.22 703.13 192.22 700.67 197.73 688.09 212.94 729.28 141.15 730.68 143.7 722.8 162.7"/><polygon class="cls-83" points="729.28 141.15 707.46 122.54 707.75 120.4 707.76 120.38 718.03 91.12 729.28 141.15"/><polygon class="cls-84" points="693.32 107.42 675.84 88.73 686.6 88.73 693.32 107.42"/><polygon class="cls-85" points="707.75 120.4 707.46 122.54 707.13 122.19 707.75 120.4"/><polygon class="cls-86" points="751.6 93.28 731.85 140.89 729.28 141.15 718.03 91.12 718.03 91.11 718.86 88.73 742.8 88.73 751.6 93.28"/><polygon class="cls-87" points="753.49 88.73 751.6 93.28 742.8 88.73 753.49 88.73"/><polygon class="cls-88" points="499.56 152.07 483.36 139.71 483.36 104.11 499.37 100.13 499.56 152.07"/><polygon class="cls-89" points="499.56 152.07 483.36 162.21 483.36 139.71 499.56 152.07"/><polygon class="cls-90" points="499.37 100.13 483.36 104.11 483.36 89.93 485.21 88.73 492.96 88.73 499.37 100.13"/><polygon class="cls-91" points="485.21 88.73 483.36 89.93 483.36 88.73 485.21 88.73"/><polygon class="cls-92" points="667.63 88.73 654.25 93.68 652.17 88.73 667.63 88.73"/><path class="cls-93" d="M573.24,111.52,539,95.76l21.19-.22a26.49,26.49,0,0,1,6.64,5.39A34.16,34.16,0,0,1,573.24,111.52Z"/><path class="cls-94" d="M560.14,95.54,539,95.76l2.44-6C548,90.62,554.69,92.34,560.14,95.54Z"/><polygon class="cls-95" points="517.99 120.1 517.99 122.23 515.81 122.63 517.99 120.1"/><path class="cls-96" d="M573.48,112.15l-35.38,6.43a8.55,8.55,0,0,0-2.8-2.11c-3.26-1.15-7.83-1.18-13.17-1.18L539,95.76l34.29,15.76Z"/><polygon class="cls-97" points="538.95 95.76 522.13 115.29 517.99 115.29 517.99 120.1 515.81 122.63 499.37 100.13 538.95 95.76"/><polygon class="cls-98" points="538.95 95.76 499.37 100.13 492.96 88.73 507.43 88.73 538.95 95.76"/><path class="cls-99" d="M541.39,89.72l-2.44,6-1.55-6.5C538.72,89.38,540.06,89.53,541.39,89.72Z"/><path class="cls-100" d="M539,95.76l-31.52-7h17.05c3.93,0,8.37.1,12.92.53Z"/><polygon class="cls-101" points="501.74 236.29 486.35 236.29 490.78 231.93 501.74 236.29"/><polygon class="cls-102" points="490.78 231.93 486.35 236.29 483.36 236.29 483.36 230.32 490.78 231.93"/><polygon class="cls-103" points="628.36 100.69 628.36 101.08 628.02 101.36 628.36 100.69"/><polygon class="cls-104" points="628.36 101.08 628.36 101.34 628.02 101.36 628.36 101.08"/><polygon class="cls-105" points="628.36 94.63 628.36 100.69 628.02 101.36 597.08 97.9 597.08 94.63 628.36 94.63"/><polygon class="cls-106" points="628.36 101.34 628.36 101.79 628.02 101.36 628.36 101.34"/><polygon class="cls-107" points="628.36 101.79 628.36 125.86 597.08 120.74 597.08 120.27 628.02 101.36 628.36 101.79"/><polygon class="cls-108" points="643.32 126.11 643.32 128.31 629.9 126.11 643.32 126.11"/><polygon class="cls-109" points="628.02 101.36 597.08 120.27 597.08 97.9 628.02 101.36"/><path class="cls-2" d="M77.18,425.73H70v-2.92c4.8-.09,7.45-1,8-6.24h2.92v33.67H77.18Z"/><path class="cls-2" d="M91.14,437.89v-3.73h10.91v3.73Z"/><path class="cls-2" d="M112.51,431.2c3-.18,7,.45,7-5.74,0-3.28-1-5.53-4.71-5.53-4.22,0-4.81,3.15-4.81,6.6h-3.54c-.18-5.65,2.33-10,8.44-10,5,0,8.39,3.27,8.39,8.35,0,3.63-1.12,6.28-4.71,7.54v.09c3.9.85,5.61,3.95,5.61,7.77,0,6.28-2.78,10.59-9.47,10.59s-9-4.44-8.89-10.55h3.68c-.31,3.59.72,7.18,5.52,7.18,3.68,0,5.43-2.56,5.43-6,0-5.88-2.24-7-7.9-7Z"/><path class="cls-2" d="M141.42,450.24V416.57h9.25c10.51,0,11.94,8.53,11.67,16.83s-1.88,16.84-11,16.84Zm3.73-3.37h6c5.48,0,7.72-4.09,7.36-14.14-.27-7.68-1.34-12.8-7.36-12.8h-6Z"/><path class="cls-2" d="M182.72,441.93c.23,4.89-2.28,9-7.54,9-4.71,0-8.08-3.14-8.08-13.2,0-5.25,1.39-13.11,8-13.11,8.08,0,7.63,7.63,7.81,13.47H170.78c.09,3.37-.49,9.83,4.49,9.83,3.41,0,4.36-3.14,4.13-6Zm-3.5-6.78c-.13-2.92.05-7.54-4.08-7.54s-4.22,4.58-4.36,7.54Z"/><path class="cls-2" d="M190.76,438.83c0,3.28.22,9.07,4.76,9.07,3.86,0,4.22-3.32,4.4-6.37h3.37c-.14,4.8-1.94,9.38-7.5,9.38-7.63,0-8.71-6.38-8.71-12.84,0-6.1,1-13.47,8.62-13.47,5,0,7.45,3.91,7.41,8.53h-3.33c0-2.74-.76-5.52-4.13-5.52C190.49,427.61,190.76,435.29,190.76,438.83Z"/><path class="cls-2" d="M222.59,441.93c.22,4.89-2.29,9-7.54,9-4.72,0-8.08-3.14-8.08-13.2,0-5.25,1.39-13.11,8-13.11,8.08,0,7.63,7.63,7.81,13.47H210.65c.09,3.37-.5,9.83,4.49,9.83,3.41,0,4.35-3.14,4.13-6Zm-3.5-6.78c-.14-2.92,0-7.54-4.09-7.54s-4.22,4.58-4.35,7.54Z"/><path class="cls-2" d="M231.92,450.24h-3.54v-25h3.41v3.18h.09a7,7,0,0,1,5.93-3.86,6.51,6.51,0,0,1,5.92,3.95c1.75-2.56,3.55-3.95,6.69-3.95a6.75,6.75,0,0,1,4.58,1.75c1.62,1.49,1.53,4.27,1.53,5.84v18.05H253V432c0-2.79-.76-4.36-3.82-4.36a5.2,5.2,0,0,0-3.32,1.39c-1.43,1.3-1.61,2.74-1.61,4.54v16.7h-3.55V432c0-2.61-.85-4.36-3.73-4.36a5.06,5.06,0,0,0-3.5,1.39c-1.44,1.3-1.53,2.74-1.53,4.54Z"/><path class="cls-2" d="M266.49,450.24h-3.23V416.57h3.55v11.27h.09c1.39-2.25,3-3.24,5.2-3.24,6.33,0,7.86,6.42,7.86,11.54,0,7.09-.94,14.77-7.68,14.77a5.88,5.88,0,0,1-5.7-3.64h-.09Zm5.08-2.34c3.68,0,4.71-3.86,4.71-10.59,0-3.28-.23-9.7-4.76-9.7-5.25,0-4.94,7.14-4.94,10.77S266.54,447.9,271.57,447.9Z"/><path class="cls-2" d="M299.89,441.93c.23,4.89-2.29,9-7.54,9-4.71,0-8.08-3.14-8.08-13.2,0-5.25,1.39-13.11,8-13.11,8.08,0,7.63,7.63,7.81,13.47H288c.09,3.37-.49,9.83,4.49,9.83,3.41,0,4.35-3.14,4.13-6Zm-3.5-6.78c-.13-2.92.05-7.54-4.08-7.54s-4.22,4.58-4.36,7.54Z"/><path class="cls-2" d="M309.32,429.36h.09c1.48-3.28,3.59-4.67,7.32-4.35v3.5c-4.58-.81-7.28,2.06-7.28,6.6v15.13h-3.54v-25h3.41Z"/><path class="cls-2" d="M336.7,442a6.28,6.28,0,0,0-2.42,4.89h14.23v3.37H330.42a19.55,19.55,0,0,1,1.35-7.28,11.64,11.64,0,0,1,2.65-3.36l6.41-6.2c2.61-2.51,3.51-3.86,3.51-7.54,0-3.41-1.17-5.93-5-5.93-4.62,0-5,4.54-4.93,8.08h-3.73V426a10.62,10.62,0,0,1,2.15-6.73,8.58,8.58,0,0,1,6.69-2.65c5.75,0,8.67,3.81,8.67,9.38,0,4.94-2,7.36-5.44,10.5Z"/><path class="cls-2" d="M353,433.67c0-6.28.4-17.1,9.15-17.1,9.43,0,9.21,10.68,9.21,17.1,0,7.63-.41,17.24-9.21,17.24C353.13,450.91,353,439.64,353,433.67Zm9.15,13.87c5.57,0,5.35-8,5.35-14.45,0-4.76.49-12.75-5.35-13.16s-5.29,10.06-5.29,13.16C356.82,439.55,355.92,447.54,362.11,447.54Z"/><path class="cls-2" d="M381.6,442a6.25,6.25,0,0,0-2.43,4.89H393.4v3.37H375.31a19.75,19.75,0,0,1,1.35-7.28,11.64,11.64,0,0,1,2.65-3.36l6.42-6.2c2.6-2.51,3.5-3.86,3.5-7.54,0-3.41-1.17-5.93-5-5.93-4.63,0-5,4.54-4.94,8.08h-3.73V426a10.57,10.57,0,0,1,2.16-6.73,8.53,8.53,0,0,1,6.68-2.65c5.75,0,8.67,3.81,8.67,9.38,0,4.94-2,7.36-5.43,10.5Z"/><path class="cls-2" d="M397.85,433.67c0-6.28.4-17.1,9.16-17.1,9.42,0,9.2,10.68,9.2,17.1,0,7.63-.41,17.24-9.2,17.24C398,450.91,397.85,439.64,397.85,433.67ZM407,447.54c5.56,0,5.34-8,5.34-14.45,0-4.76.49-12.75-5.34-13.16s-5.3,10.06-5.3,13.16C401.71,439.55,400.81,447.54,407,447.54Z"/></g></g></g></svg>