<svg xmlns="http://www.w3.org/2000/svg" viewBox="0 0 543.5 195.79"><defs><style>.cls-1{fill:#066ac6;}</style></defs><g id="Layer_2" data-name="Layer 2"><g id="One_Color_-_Light_Background" data-name="One Color - Light Background"><g id="One_Color_-_Light_Background-2" data-name="One Color - Light Background"><path class="cls-1" d="M210,66.82A261.26,261.26,0,0,1,233.87,36c-9.12,6.36-17.75,14.62-26,24C221.41,39.07,237,18.32,256.2,0,177.7,53,147,175.63,97.53,175.63a37.15,37.15,0,0,1-5.34-.41L91,174.65C66.42,156.49,46.2,119.46,46.2,119.46a216.33,216.33,0,0,0,24.58,41.47c-24.43-21.23-43.66-53.47-43.66-53.47s16.2,33.08,40.47,57.35C31.86,140.94,0,85.86,0,85.86S43.32,186.2,99.82,187.43A42.91,42.91,0,0,0,120.2,193c44,0,49-77,102.5-137.5A133.14,133.14,0,0,0,210,66.82Z"/><rect class="cls-1" x="217.67" y="71.08" width="8.7" height="80.17"/><path class="cls-1" d="M288.34,129.43a54.18,54.18,0,0,0-7.22-10.66,22.75,22.75,0,0,0-5.25-4q9.47-1.59,14-7.44A22.79,22.79,0,0,0,294.39,93a26.71,26.71,0,0,0-2.73-12.09,15.9,15.9,0,0,0-7.31-7.63q-4.58-2.16-13.37-2.16H241.84v80.17h8.7v-35.6h10.09a21.89,21.89,0,0,1,4.84.38,12.28,12.28,0,0,1,4,2.14,22.26,22.26,0,0,1,4.41,5.36q2.47,3.82,6.28,11l8.7,16.68h10.95Zm-19.1-23h-18.7V79.94h20.8q7.32,0,10.7,3.67A13.22,13.22,0,0,1,285.42,93a15.22,15.22,0,0,1-1.74,7.19,10.49,10.49,0,0,1-5.12,4.81A23.4,23.4,0,0,1,269.24,106.47Z"/><polygon class="cls-1" points="357.26 141.79 316.9 141.79 316.9 114.5 353.27 114.5 353.27 105.1 316.9 105.1 316.9 80.54 355.74 80.54 355.74 71.08 308.2 71.08 308.2 151.25 357.26 151.25 357.26 141.79"/><path class="cls-1" d="M402.74,141.3a20.36,20.36,0,0,1-8.79,1.81,21.26,21.26,0,0,1-10.09-2.38,15.73,15.73,0,0,1-6.62-6.24,25.5,25.5,0,0,1-2.71-9.87l-8.21.88a31.52,31.52,0,0,0,3.61,14.41,22.58,22.58,0,0,0,9.47,9.54q6,3.17,15,3.17A25.6,25.6,0,0,0,407,149.48a21.35,21.35,0,0,0,8.63-8.81,25.37,25.37,0,0,0,3-12.06,23.22,23.22,0,0,0-2.74-11.4,21.26,21.26,0,0,0-8.48-8.18q-3.94-2.18-14.55-5.11t-13.11-5.71a10.09,10.09,0,0,1-2.56-7.11,11.47,11.47,0,0,1,3.61-8.51q3.62-3.53,11.5-3.52,7.57,0,11.46,3.88t4.55,11.48l8.34-.76A28,28,0,0,0,413.45,81a19.83,19.83,0,0,0-8.58-8.45A27.77,27.77,0,0,0,392,69.72a26.47,26.47,0,0,0-12.06,2.73,18.58,18.58,0,0,0-8.25,8,23.73,23.73,0,0,0-2.83,11.35,21.36,21.36,0,0,0,2.31,10,19.44,19.44,0,0,0,7,7.46q3.63,2.35,12.69,5a100.61,100.61,0,0,1,11.71,3.91,13.44,13.44,0,0,1,5.92,4.73,12,12,0,0,1,1.79,6.59,13.21,13.21,0,0,1-1.86,6.86A12.59,12.59,0,0,1,402.74,141.3Z"/><polygon class="cls-1" points="479.78 141.79 439.42 141.79 439.42 114.5 475.79 114.5 475.79 105.1 439.42 105.1 439.42 80.54 478.25 80.54 478.25 71.08 430.72 71.08 430.72 151.25 479.78 151.25 479.78 141.79"/><polygon class="cls-1" points="535.16 71.08 535.16 134.03 500.63 71.08 491.71 71.08 491.71 151.25 500.05 151.25 500.05 88.25 534.58 151.25 543.5 151.25 543.5 71.08 535.16 71.08"/><rect class="cls-1" x="219.1" y="156.34" width="3.04" height="15.03"/><path class="cls-1" d="M234.91,171.37V164.6a8.81,8.81,0,0,0-.16-1.94,3.12,3.12,0,0,0-.56-1.21,3,3,0,0,0-1.2-.87,4.26,4.26,0,0,0-1.74-.35,4.37,4.37,0,0,0-3.59,1.85v-1.6H225v10.89h2.88v-4.93a9.23,9.23,0,0,1,.22-2.5,2.11,2.11,0,0,1,.81-1.09,2.36,2.36,0,0,1,1.35-.41,1.66,1.66,0,0,1,1,.29,1.69,1.69,0,0,1,.6.8,8.84,8.84,0,0,1,.18,2.28v5.56Z"/><path class="cls-1" d="M246.09,165.82a8.13,8.13,0,0,0-3.22-1.28,11,11,0,0,1-2.69-.81.63.63,0,0,1-.28-.52.7.7,0,0,1,.32-.59,3.19,3.19,0,0,1,1.63-.31,2.44,2.44,0,0,1,1.39.33,1.69,1.69,0,0,1,.67,1l2.71-.5a3.75,3.75,0,0,0-1.49-2.16,6.14,6.14,0,0,0-3.33-.73,5.22,5.22,0,0,0-3.46,1,3,3,0,0,0-1.12,2.38,2.81,2.81,0,0,0,1.29,2.45,15.66,15.66,0,0,0,4.42,1.4,2.39,2.39,0,0,1,1,.38.77.77,0,0,1,.21.55.91.91,0,0,1-.38.76,2.82,2.82,0,0,1-1.68.41,2.54,2.54,0,0,1-1.58-.43,2.1,2.1,0,0,1-.75-1.28l-2.89.44a4.12,4.12,0,0,0,1.7,2.45,6,6,0,0,0,3.52.91,5.52,5.52,0,0,0,3.7-1.08A3.31,3.31,0,0,0,247,168,2.67,2.67,0,0,0,246.09,165.82Z"/><path class="cls-1" d="M254.74,171.19,254.5,169a3.9,3.9,0,0,1-1.16.28.81.81,0,0,1-.49-.15.57.57,0,0,1-.25-.36,10.32,10.32,0,0,1-.06-1.55v-4.39h2v-2.3h-2v-3.84l-2.89,1.68v2.16h-1.33v2.3h1.33v4.74a14.52,14.52,0,0,0,.09,2,2.68,2.68,0,0,0,.4,1.12,2.14,2.14,0,0,0,.92.67,3.55,3.55,0,0,0,1.41.27A5.85,5.85,0,0,0,254.74,171.19Z"/><rect class="cls-1" x="256.51" y="156.34" width="2.88" height="2.67"/><rect class="cls-1" x="256.51" y="160.48" width="2.88" height="10.89"/><path class="cls-1" d="M266.17,169.23a.77.77,0,0,1-.49-.15.63.63,0,0,1-.26-.36,13.13,13.13,0,0,1-.05-1.55v-4.39h2v-2.3h-2v-3.84l-2.9,1.68v2.16h-1.32v2.3h1.32v4.74a14,14,0,0,0,.1,2,2.68,2.68,0,0,0,.4,1.12,2.08,2.08,0,0,0,.92.67,3.53,3.53,0,0,0,1.4.27,5.87,5.87,0,0,0,2.28-.43l-.24-2.24A4,4,0,0,1,266.17,169.23Z"/><path class="cls-1" d="M279.18,171.37V160.48H276.3v4.59a11.28,11.28,0,0,1-.22,2.94,2.05,2.05,0,0,1-.8,1,2.26,2.26,0,0,1-1.32.4,1.8,1.8,0,0,1-1.07-.3,1.57,1.57,0,0,1-.58-.82,14.37,14.37,0,0,1-.16-2.82v-5h-2.88v6.89a6,6,0,0,0,.39,2.41,2.84,2.84,0,0,0,1.26,1.35,4.05,4.05,0,0,0,2,.49,4.35,4.35,0,0,0,2.05-.51,4.14,4.14,0,0,0,1.56-1.37v1.63Z"/><path class="cls-1" d="M286,169.23a.79.79,0,0,1-.49-.15.63.63,0,0,1-.26-.36,13.13,13.13,0,0,1-.05-1.55v-4.39h2v-2.3h-2v-3.84l-2.89,1.68v2.16H281v2.3h1.33v4.74a14.52,14.52,0,0,0,.09,2,2.68,2.68,0,0,0,.4,1.12,2.08,2.08,0,0,0,.92.67,3.55,3.55,0,0,0,1.41.27,5.85,5.85,0,0,0,2.27-.43l-.24-2.24A4,4,0,0,1,286,169.23Z"/><path class="cls-1" d="M301.87,161.75a4.09,4.09,0,0,0-3.16-1.52,4.23,4.23,0,0,0-3.29,1.44,7.37,7.37,0,0,0,0,8.43,4.17,4.17,0,0,0,3.22,1.52,4.13,4.13,0,0,0,1.83-.46,4.3,4.3,0,0,0,1.57-1.39v1.6h2.68v-15h-2.88Zm-.69,6.74a2.12,2.12,0,0,1-1.69.85,2.17,2.17,0,0,1-1.95-1.13,5,5,0,0,1-.48-2.52,3.72,3.72,0,0,1,.69-2.44,2.16,2.16,0,0,1,1.72-.81,2.14,2.14,0,0,1,1.73.82,4.31,4.31,0,0,1,.68,2.71A3.9,3.9,0,0,1,301.18,168.49Z"/><path class="cls-1" d="M315.58,161.84a4.85,4.85,0,0,0-3.84-1.61,4.66,4.66,0,0,0-3.58,1.54,6,6,0,0,0-1.41,4.24,6.28,6.28,0,0,0,1.07,3.75,4.87,4.87,0,0,0,4.21,1.86,5.16,5.16,0,0,0,3-.83,4.75,4.75,0,0,0,1.75-2.4l-2.88-.49a2.24,2.24,0,0,1-.69,1.19,1.75,1.75,0,0,1-1.14.37,2.16,2.16,0,0,1-1.66-.71,2.87,2.87,0,0,1-.7-2h7.22A7.15,7.15,0,0,0,315.58,161.84ZM309.75,165a2.63,2.63,0,0,1,.61-1.86,2.07,2.07,0,0,1,3.05,0,2.77,2.77,0,0,1,.65,1.9Z"/><path class="cls-1" d="M334.79,171.37h3.63l-1.84-2.93a16.91,16.91,0,0,0-1.72-2.44,7,7,0,0,0-1.63-1.26,4.83,4.83,0,0,0,3-1.39,4,4,0,0,0,1-2.8,4.31,4.31,0,0,0-.66-2.37,3.46,3.46,0,0,0-1.75-1.44,10.91,10.91,0,0,0-3.5-.4H324.9v15h3v-6.28h.61a5.09,5.09,0,0,1,1.53.17,2.31,2.31,0,0,1,.91.63,19,19,0,0,1,1.6,2.21Zm-4.61-8.67h-2.24v-3.82h2.37c1.23,0,2,0,2.21.05a1.88,1.88,0,0,1,1.15.59,1.8,1.8,0,0,1,.4,1.23,1.9,1.9,0,0,1-.31,1.12,1.57,1.57,0,0,1-.85.64A11.64,11.64,0,0,1,330.18,162.7Z"/><path class="cls-1" d="M348,161.84a4.85,4.85,0,0,0-3.84-1.61,4.66,4.66,0,0,0-3.58,1.54A6,6,0,0,0,339.2,166a6.21,6.21,0,0,0,1.08,3.75,4.85,4.85,0,0,0,4.2,1.86,5.14,5.14,0,0,0,3-.83,4.75,4.75,0,0,0,1.75-2.4l-2.87-.49a2.25,2.25,0,0,1-.7,1.19,1.75,1.75,0,0,1-1.14.37,2.16,2.16,0,0,1-1.66-.71,2.87,2.87,0,0,1-.7-2h7.22A7.15,7.15,0,0,0,348,161.84ZM342.2,165a2.67,2.67,0,0,1,.61-1.86,2.07,2.07,0,0,1,3.05,0,2.77,2.77,0,0,1,.65,1.9Z"/><path class="cls-1" d="M352.51,161.74a6.86,6.86,0,0,0,0,8.37,5,5,0,0,0,3.81,1.51,5.29,5.29,0,0,0,3.36-1,5.05,5.05,0,0,0,1.69-2.94l-2.83-.48a2.82,2.82,0,0,1-.74,1.6,2,2,0,0,1-1.34.47,2.13,2.13,0,0,1-1.75-.8,4.39,4.39,0,0,1-.65-2.74,3.82,3.82,0,0,1,.64-2.49,2.16,2.16,0,0,1,1.72-.74,1.93,1.93,0,0,1,1.31.43,2,2,0,0,1,.65,1.28l2.84-.51a4.73,4.73,0,0,0-1.68-2.61,5.29,5.29,0,0,0-3.17-.86A5.06,5.06,0,0,0,352.51,161.74Z"/><path class="cls-1" d="M366.27,165.91a6.39,6.39,0,0,1,.26-2.07,2,2,0,0,1,.83-1.05,2.39,2.39,0,0,1,1.28-.35,1.87,1.87,0,0,1,1,.27,1.43,1.43,0,0,1,.58.73,8.64,8.64,0,0,1,.16,2.18v5.75h2.88V165a12.28,12.28,0,0,0-.14-2.16,3.38,3.38,0,0,0-.56-1.27,2.92,2.92,0,0,0-1.2-1,4.35,4.35,0,0,0-1.8-.37,4.27,4.27,0,0,0-3.33,1.63v-5.52h-2.88v15h2.88Z"/><path class="cls-1" d="M383.66,170.79a4.74,4.74,0,0,0,1.74-2.4l-2.87-.49a2.24,2.24,0,0,1-.69,1.19,1.75,1.75,0,0,1-1.14.37,2.14,2.14,0,0,1-1.66-.71,2.87,2.87,0,0,1-.7-2h7.22a7.09,7.09,0,0,0-1.35-4.92,4.82,4.82,0,0,0-3.83-1.61,4.64,4.64,0,0,0-3.58,1.54,6,6,0,0,0-1.41,4.24,6.21,6.21,0,0,0,1.07,3.75,4.87,4.87,0,0,0,4.21,1.86A5.16,5.16,0,0,0,383.66,170.79ZM379,163.13a2.08,2.08,0,0,1,3.06,0,2.77,2.77,0,0,1,.65,1.9h-4.31A2.62,2.62,0,0,1,379,163.13Z"/><path class="cls-1" d="M390.66,168a16.24,16.24,0,0,1,.25-3.65,2.29,2.29,0,0,1,.66-1.21,1.6,1.6,0,0,1,1-.33,2.59,2.59,0,0,1,1.36.47l.89-2.51a3.69,3.69,0,0,0-1.9-.55,2.27,2.27,0,0,0-1.24.35,4.76,4.76,0,0,0-1.24,1.45v-1.55h-2.68v10.89h2.88Z"/><path class="cls-1" d="M404,170.62a5.05,5.05,0,0,0,1.69-2.94l-2.83-.48a2.82,2.82,0,0,1-.74,1.6,2,2,0,0,1-1.34.47,2.13,2.13,0,0,1-1.75-.8,4.39,4.39,0,0,1-.65-2.74,3.82,3.82,0,0,1,.64-2.49,2.15,2.15,0,0,1,1.71-.74,2,2,0,0,1,1.32.43,2,2,0,0,1,.65,1.28l2.84-.51a4.73,4.73,0,0,0-1.68-2.61,5.29,5.29,0,0,0-3.17-.86,5.06,5.06,0,0,0-3.85,1.51,6.86,6.86,0,0,0,0,8.37,5,5,0,0,0,3.81,1.51A5.29,5.29,0,0,0,404,170.62Z"/><path class="cls-1" d="M417.66,171.37V165a11.17,11.17,0,0,0-.15-2.16,3.21,3.21,0,0,0-.55-1.27,2.92,2.92,0,0,0-1.2-1,4.39,4.39,0,0,0-1.8-.37,4.27,4.27,0,0,0-3.33,1.63v-5.52h-2.88v15h2.88v-5.46a6.39,6.39,0,0,1,.26-2.07,2,2,0,0,1,.83-1.05,2.39,2.39,0,0,1,1.28-.35,1.89,1.89,0,0,1,1,.27,1.43,1.43,0,0,1,.58.73,8.64,8.64,0,0,1,.16,2.18v5.75Z"/><path class="cls-1" d="M425,171.62a5.16,5.16,0,0,0,3-.83,4.74,4.74,0,0,0,1.74-2.4l-2.87-.49a2.24,2.24,0,0,1-.69,1.19,1.75,1.75,0,0,1-1.14.37,2.14,2.14,0,0,1-1.66-.71,2.87,2.87,0,0,1-.7-2h7.22a7.09,7.09,0,0,0-1.35-4.92,4.82,4.82,0,0,0-3.83-1.61,4.64,4.64,0,0,0-3.58,1.54,6,6,0,0,0-1.42,4.24,6.21,6.21,0,0,0,1.08,3.75A4.87,4.87,0,0,0,425,171.62Zm-1.68-8.49a2.08,2.08,0,0,1,3.06,0,2.77,2.77,0,0,1,.65,1.9h-4.31A2.62,2.62,0,0,1,423.35,163.13Z"/><path class="cls-1" d="M447.05,168.39l-2.87-.49a2.25,2.25,0,0,1-.7,1.19,1.75,1.75,0,0,1-1.14.37,2.16,2.16,0,0,1-1.66-.71,2.92,2.92,0,0,1-.7-2h7.22a7.15,7.15,0,0,0-1.34-4.92,4.85,4.85,0,0,0-3.84-1.61,4.62,4.62,0,0,0-3.57,1.54A6,6,0,0,0,437,166a6.21,6.21,0,0,0,1.08,3.75,4.87,4.87,0,0,0,4.2,1.86,5.14,5.14,0,0,0,3-.83A4.69,4.69,0,0,0,447.05,168.39Zm-6.41-5.26a2,2,0,0,1,1.56-.69,2,2,0,0,1,1.5.65,2.76,2.76,0,0,1,.64,1.9H440A2.67,2.67,0,0,1,440.64,163.13Z"/><path class="cls-1" d="M458.73,161.45a3,3,0,0,0-1.19-.87,4.43,4.43,0,0,0-5.33,1.5v-1.6h-2.68v10.89h2.88v-4.93a9.23,9.23,0,0,1,.22-2.5,2.07,2.07,0,0,1,.82-1.09,2.31,2.31,0,0,1,1.34-.41,1.66,1.66,0,0,1,1,.29,1.57,1.57,0,0,1,.6.8,8.84,8.84,0,0,1,.18,2.28v5.56h2.88V164.6a9.61,9.61,0,0,0-.15-1.94A3.29,3.29,0,0,0,458.73,161.45Z"/><polygon class="cls-1" points="479.15 158.88 479.15 156.34 468 156.34 468 171.37 479.44 171.37 479.44 168.84 471.04 168.84 471.04 164.75 478.59 164.75 478.59 162.21 471.04 162.21 471.04 158.88 479.15 158.88"/><path class="cls-1" d="M485.89,162.85a2.31,2.31,0,0,1,1.34-.41,1.66,1.66,0,0,1,1,.29,1.57,1.57,0,0,1,.6.8,8.84,8.84,0,0,1,.18,2.28v5.56h2.89V164.6a9.48,9.48,0,0,0-.16-1.94,3.29,3.29,0,0,0-.57-1.21,3,3,0,0,0-1.19-.87,4.43,4.43,0,0,0-5.33,1.5v-1.6H482v10.89h2.88v-4.93a9.23,9.23,0,0,1,.22-2.5A2.07,2.07,0,0,1,485.89,162.85Z"/><path class="cls-1" d="M502.81,161.84a4.85,4.85,0,0,0-3.84-1.61,4.66,4.66,0,0,0-3.58,1.54A6,6,0,0,0,494,166a6.28,6.28,0,0,0,1.07,3.75,4.87,4.87,0,0,0,4.21,1.86,5.16,5.16,0,0,0,3-.83,4.68,4.68,0,0,0,1.74-2.4l-2.87-.49a2.24,2.24,0,0,1-.69,1.19,1.75,1.75,0,0,1-1.14.37,2.14,2.14,0,0,1-1.66-.71,2.87,2.87,0,0,1-.7-2h7.22A7.15,7.15,0,0,0,502.81,161.84ZM497,165a2.63,2.63,0,0,1,.61-1.86,2.07,2.07,0,0,1,3.05,0,2.77,2.77,0,0,1,.65,1.9Z"/><path class="cls-1" d="M510.29,160.58a4.76,4.76,0,0,0-1.24,1.45v-1.55h-2.68v10.89h2.89V168a17.12,17.12,0,0,1,.24-3.65,2.29,2.29,0,0,1,.66-1.21,1.6,1.6,0,0,1,1-.33,2.59,2.59,0,0,1,1.36.47l.89-2.51a3.69,3.69,0,0,0-1.9-.55A2.27,2.27,0,0,0,510.29,160.58Z"/><path class="cls-1" d="M523.44,174.63a3.55,3.55,0,0,0,.89-1.5,9.73,9.73,0,0,0,.32-2.88v-9.77H522V162a4,4,0,0,0-3.33-1.78,4.27,4.27,0,0,0-3.28,1.45,6,6,0,0,0-1.32,4.18,6.28,6.28,0,0,0,1,3.65,4,4,0,0,0,3.47,1.86,3.93,3.93,0,0,0,3.27-1.76v1.59a4.27,4.27,0,0,1-.14,1.32,1.43,1.43,0,0,1-.57.73,3.45,3.45,0,0,1-1.7.33,2.23,2.23,0,0,1-1.29-.3,1.16,1.16,0,0,1-.38-.79l-3.29-.4c0,.13,0,.25,0,.35a3,3,0,0,0,1.16,2.4,6.29,6.29,0,0,0,3.93.95,7.87,7.87,0,0,0,2.42-.31A4,4,0,0,0,523.44,174.63Zm-2.35-6.41a2.29,2.29,0,0,1-1.79.82,2.09,2.09,0,0,1-1.65-.8,3.92,3.92,0,0,1-.67-2.54,3.78,3.78,0,0,1,.67-2.46,2.14,2.14,0,0,1,1.71-.8,2.21,2.21,0,0,1,1.76.82,3.84,3.84,0,0,1,.7,2.51A3.64,3.64,0,0,1,521.09,168.22Z"/><rect class="cls-1" x="527.5" y="160.48" width="2.88" height="10.89"/><rect class="cls-1" x="527.5" y="156.34" width="2.88" height="2.67"/><path class="cls-1" d="M541.32,161.84a4.85,4.85,0,0,0-3.84-1.61,4.62,4.62,0,0,0-3.57,1.54,6,6,0,0,0-1.42,4.24,6.21,6.21,0,0,0,1.08,3.75,4.87,4.87,0,0,0,4.2,1.86,5.14,5.14,0,0,0,3-.83,4.69,4.69,0,0,0,1.75-2.4l-2.87-.49a2.25,2.25,0,0,1-.7,1.19,1.75,1.75,0,0,1-1.14.37,2.16,2.16,0,0,1-1.66-.71,2.92,2.92,0,0,1-.7-2h7.22A7.09,7.09,0,0,0,541.32,161.84ZM535.49,165a2.67,2.67,0,0,1,.61-1.86,2.08,2.08,0,0,1,3.06,0,2.76,2.76,0,0,1,.64,1.9Z"/><path class="cls-1" d="M228.39,183.07a15,15,0,0,0-3.28-1.08,8,8,0,0,1-2.79-1,1.14,1.14,0,0,1-.45-.91,1.09,1.09,0,0,1,.48-.93,3.49,3.49,0,0,1,2.07-.55,3.07,3.07,0,0,1,1.93.51,2.6,2.6,0,0,1,.83,1.67l3-.14a4.37,4.37,0,0,0-1.51-3.31,6.32,6.32,0,0,0-4.26-1.24,7.63,7.63,0,0,0-2.95.52,4.05,4.05,0,0,0-1.88,1.53,3.8,3.8,0,0,0-.65,2.15,3.92,3.92,0,0,0,1.38,3,8.33,8.33,0,0,0,3.43,1.49c1.26.31,2.07.53,2.43.65a2.54,2.54,0,0,1,1.09.65,1.38,1.38,0,0,1,.31.91,1.84,1.84,0,0,1-.74,1.45,3.35,3.35,0,0,1-2.21.62,3.29,3.29,0,0,1-2.2-.69,3.61,3.61,0,0,1-1.08-2.19l-3,.29a5.74,5.74,0,0,0,1.83,3.84,6.51,6.51,0,0,0,4.38,1.32,8.66,8.66,0,0,0,3.27-.55,4.43,4.43,0,0,0,2.75-4.1,4.44,4.44,0,0,0-.6-2.39A4.23,4.23,0,0,0,228.39,183.07Z"/><path class="cls-1" d="M238.12,180.23a6,6,0,0,0-2.9.71,4.88,4.88,0,0,0-2,2.05,5.92,5.92,0,0,0-.71,2.78,6.61,6.61,0,0,0,.71,3.18,4.58,4.58,0,0,0,2.07,2,6.29,6.29,0,0,0,2.85.68,5.42,5.42,0,0,0,4-1.63,5.62,5.62,0,0,0,1.59-4.1,5.55,5.55,0,0,0-1.58-4A5.43,5.43,0,0,0,238.12,180.23Zm1.9,8.18a2.51,2.51,0,0,1-3.78,0,4.39,4.39,0,0,1,0-5,2.51,2.51,0,0,1,3.78,0,3.62,3.62,0,0,1,.77,2.47A3.67,3.67,0,0,1,240,188.41Z"/><rect class="cls-1" x="246.01" y="176.34" width="2.88" height="15.03"/><path class="cls-1" d="M260.65,187.79l0-3.36a6.07,6.07,0,0,0-.38-2.58,2.85,2.85,0,0,0-1.33-1.16,7,7,0,0,0-2.87-.46,5.6,5.6,0,0,0-3.2.76,4.07,4.07,0,0,0-1.52,2.34l2.61.47a2.18,2.18,0,0,1,.7-1.06,2.09,2.09,0,0,1,1.2-.3,2.5,2.5,0,0,1,1.55.35,1.51,1.51,0,0,1,.41,1.19v.28a15.23,15.23,0,0,1-2.8.71,9.86,9.86,0,0,0-2.29.67,3,3,0,0,0-1.24,1.11,3.13,3.13,0,0,0-.44,1.65,3,3,0,0,0,1,2.3,3.71,3.71,0,0,0,2.65.92,4.52,4.52,0,0,0,1.8-.36,5.3,5.3,0,0,0,1.58-1.08l.1.34a8.41,8.41,0,0,0,.28.85h2.85a5.86,5.86,0,0,1-.52-1.46A11.91,11.91,0,0,1,260.65,187.79Zm-2.8-1.08a6,6,0,0,1-.11,1.41,1.78,1.78,0,0,1-.69.95,2.52,2.52,0,0,1-1.49.52,1.58,1.58,0,0,1-1.14-.44,1.41,1.41,0,0,1-.46-1.05,1.21,1.21,0,0,1,.57-1,5.34,5.34,0,0,1,1.57-.5c.8-.17,1.38-.32,1.75-.44Z"/><rect class="cls-1" x="263.52" y="176.34" width="2.88" height="2.67"/><rect class="cls-1" x="263.52" y="180.48" width="2.88" height="10.89"/><path class="cls-1" d="M273.14,180.58a4.9,4.9,0,0,0-1.23,1.45v-1.55h-2.68v10.89h2.88V188a17.12,17.12,0,0,1,.24-3.65,2.29,2.29,0,0,1,.67-1.21,1.6,1.6,0,0,1,1-.33,2.53,2.53,0,0,1,1.35.47l.9-2.51a3.69,3.69,0,0,0-1.9-.55A2.33,2.33,0,0,0,273.14,180.58Z"/><path class="cls-1" d="M285.52,181.84a4.85,4.85,0,0,0-3.84-1.61,4.66,4.66,0,0,0-3.58,1.54,6,6,0,0,0-1.41,4.24,6.28,6.28,0,0,0,1.07,3.75,4.87,4.87,0,0,0,4.21,1.86,5.16,5.16,0,0,0,3-.83,4.68,4.68,0,0,0,1.74-2.4l-2.87-.49a2.24,2.24,0,0,1-.69,1.19,1.75,1.75,0,0,1-1.14.37,2.16,2.16,0,0,1-1.66-.71,2.87,2.87,0,0,1-.7-2h7.22A7.15,7.15,0,0,0,285.52,181.84ZM279.69,185a2.63,2.63,0,0,1,.61-1.86,2.07,2.07,0,0,1,3.05,0A2.77,2.77,0,0,1,284,185Z"/><path class="cls-1" d="M303.37,181.84a4.82,4.82,0,0,0-3.83-1.61,4.63,4.63,0,0,0-3.58,1.54,6,6,0,0,0-1.42,4.24,6.21,6.21,0,0,0,1.08,3.75,4.87,4.87,0,0,0,4.2,1.86,5.12,5.12,0,0,0,3-.83,4.69,4.69,0,0,0,1.75-2.4l-2.87-.49a2.25,2.25,0,0,1-.7,1.19,1.72,1.72,0,0,1-1.14.37,2.17,2.17,0,0,1-1.66-.71,2.92,2.92,0,0,1-.69-2h7.21A7,7,0,0,0,303.37,181.84ZM297.55,185a2.62,2.62,0,0,1,.6-1.86,2.08,2.08,0,0,1,3.06,0,2.76,2.76,0,0,1,.64,1.9Z"/><path class="cls-1" d="M310.89,189.23a.79.79,0,0,1-.49-.15.63.63,0,0,1-.26-.36,13.13,13.13,0,0,1-.05-1.55v-4.39h2v-2.3h-2v-3.84l-2.89,1.68v2.16h-1.33v2.3h1.33v4.74a14.52,14.52,0,0,0,.09,2,2.68,2.68,0,0,0,.4,1.12,2.08,2.08,0,0,0,.92.67,3.55,3.55,0,0,0,1.41.27,5.85,5.85,0,0,0,2.27-.43l-.24-2.24A4,4,0,0,1,310.89,189.23Z"/><path class="cls-1" d="M328.22,181.84a4.83,4.83,0,0,0-3.83-1.61,4.63,4.63,0,0,0-3.58,1.54,6,6,0,0,0-1.42,4.24,6.21,6.21,0,0,0,1.08,3.75,4.87,4.87,0,0,0,4.2,1.86,5.12,5.12,0,0,0,3-.83,4.69,4.69,0,0,0,1.75-2.4l-2.87-.49a2.25,2.25,0,0,1-.7,1.19,1.74,1.74,0,0,1-1.14.37,2.17,2.17,0,0,1-1.66-.71,2.92,2.92,0,0,1-.69-2h7.21A7,7,0,0,0,328.22,181.84ZM322.4,185a2.62,2.62,0,0,1,.6-1.86,2.08,2.08,0,0,1,3.06,0,2.76,2.76,0,0,1,.64,1.9Z"/><path class="cls-1" d="M341.1,181.45a3,3,0,0,0-1.2-.87,4.33,4.33,0,0,0-1.74-.35,4.37,4.37,0,0,0-3.59,1.85v-1.6h-2.68v10.89h2.88v-4.93a9.67,9.67,0,0,1,.22-2.5,2.07,2.07,0,0,1,.82-1.09,2.33,2.33,0,0,1,1.34-.41,1.64,1.64,0,0,1,1,.29,1.57,1.57,0,0,1,.6.8,8.25,8.25,0,0,1,.19,2.28v5.56h2.88V184.6a8.81,8.81,0,0,0-.16-1.94A3.27,3.27,0,0,0,341.1,181.45Z"/><polygon class="cls-1" points="353.97 184.75 361.52 184.75 361.52 182.21 353.97 182.21 353.97 178.88 362.08 178.88 362.08 176.34 350.94 176.34 350.94 191.37 362.37 191.37 362.37 188.84 353.97 188.84 353.97 184.75"/><path class="cls-1" d="M374.11,181.45a3,3,0,0,0-1.2-.87,4.26,4.26,0,0,0-1.74-.35,4.37,4.37,0,0,0-3.59,1.85v-1.6H364.9v10.89h2.89v-4.93a9.23,9.23,0,0,1,.22-2.5,2,2,0,0,1,.81-1.09,2.35,2.35,0,0,1,1.34-.41,1.64,1.64,0,0,1,1,.29,1.57,1.57,0,0,1,.6.8,8.25,8.25,0,0,1,.19,2.28v5.56h2.88V184.6a8.81,8.81,0,0,0-.16-1.94A3.12,3.12,0,0,0,374.11,181.45Z"/><path class="cls-1" d="M385.74,181.84a4.83,4.83,0,0,0-3.83-1.61,4.63,4.63,0,0,0-3.58,1.54,6,6,0,0,0-1.42,4.24,6.21,6.21,0,0,0,1.08,3.75,4.87,4.87,0,0,0,4.2,1.86,5.14,5.14,0,0,0,3-.83,4.69,4.69,0,0,0,1.75-2.4l-2.87-.49a2.25,2.25,0,0,1-.7,1.19,1.75,1.75,0,0,1-1.14.37,2.17,2.17,0,0,1-1.66-.71,3,3,0,0,1-.7-2h7.22A7.09,7.09,0,0,0,385.74,181.84ZM379.92,185a2.62,2.62,0,0,1,.6-1.86,2.08,2.08,0,0,1,3.06,0,2.76,2.76,0,0,1,.64,1.9Z"/><path class="cls-1" d="M393.22,180.58A4.76,4.76,0,0,0,392,182v-1.55h-2.68v10.89h2.88V188a17.12,17.12,0,0,1,.24-3.65,2.29,2.29,0,0,1,.66-1.21,1.61,1.61,0,0,1,1-.33,2.56,2.56,0,0,1,1.35.47l.89-2.51a3.68,3.68,0,0,0-1.89-.55A2.31,2.31,0,0,0,393.22,180.58Z"/><path class="cls-1" d="M404.88,182a4,4,0,0,0-3.33-1.78,4.25,4.25,0,0,0-3.27,1.45,6,6,0,0,0-1.32,4.18,6.28,6.28,0,0,0,1,3.65,4,4,0,0,0,3.48,1.86,3.91,3.91,0,0,0,3.26-1.76v1.59a4.36,4.36,0,0,1-.13,1.32,1.44,1.44,0,0,1-.58.73,3.41,3.41,0,0,1-1.69.33,2.19,2.19,0,0,1-1.29-.3,1.12,1.12,0,0,1-.38-.79l-3.29-.4c0,.13,0,.25,0,.35a2.94,2.94,0,0,0,1.16,2.4,6.27,6.27,0,0,0,3.92.95,7.93,7.93,0,0,0,2.43-.31,3.87,3.87,0,0,0,1.53-.85,3.55,3.55,0,0,0,.89-1.5,9.73,9.73,0,0,0,.32-2.88v-9.77h-2.7Zm-.86,6.21a2.27,2.27,0,0,1-1.78.82,2.1,2.1,0,0,1-1.66-.8,3.92,3.92,0,0,1-.67-2.54,3.78,3.78,0,0,1,.67-2.46,2.15,2.15,0,0,1,1.71-.8,2.19,2.19,0,0,1,1.76.82,3.78,3.78,0,0,1,.7,2.51A3.59,3.59,0,0,1,404,188.22Z"/><rect class="cls-1" x="410.43" y="176.34" width="2.88" height="2.67"/><rect class="cls-1" x="410.43" y="180.48" width="2.88" height="10.89"/><path class="cls-1" d="M424.25,181.84a4.82,4.82,0,0,0-3.83-1.61,4.64,4.64,0,0,0-3.58,1.54,6,6,0,0,0-1.42,4.24,6.21,6.21,0,0,0,1.08,3.75,4.87,4.87,0,0,0,4.21,1.86,5.16,5.16,0,0,0,3-.83,4.74,4.74,0,0,0,1.74-2.4l-2.87-.49a2.25,2.25,0,0,1-.7,1.19,1.71,1.71,0,0,1-1.13.37,2.18,2.18,0,0,1-1.67-.71,2.92,2.92,0,0,1-.69-2h7.22A7.09,7.09,0,0,0,424.25,181.84ZM418.43,185a2.62,2.62,0,0,1,.6-1.86,2.08,2.08,0,0,1,3.06,0,2.77,2.77,0,0,1,.65,1.9Z"/><path class="cls-1" d="M433,184.54a11,11,0,0,1-2.7-.81.63.63,0,0,1-.28-.52.7.7,0,0,1,.32-.59,3.2,3.2,0,0,1,1.64-.31,2.43,2.43,0,0,1,1.38.33,1.69,1.69,0,0,1,.67,1l2.71-.5a3.75,3.75,0,0,0-1.49-2.16,6.14,6.14,0,0,0-3.33-.73,5.22,5.22,0,0,0-3.46,1,3,3,0,0,0-1.12,2.38,2.81,2.81,0,0,0,1.29,2.45,15.66,15.66,0,0,0,4.42,1.4,2.53,2.53,0,0,1,1,.38.81.81,0,0,1,.2.55.91.91,0,0,1-.38.76,2.82,2.82,0,0,1-1.68.41,2.54,2.54,0,0,1-1.58-.43,2.14,2.14,0,0,1-.75-1.28l-2.89.44a4.12,4.12,0,0,0,1.7,2.45,6,6,0,0,0,3.52.91,5.52,5.52,0,0,0,3.7-1.08A3.28,3.28,0,0,0,437.1,188a2.67,2.67,0,0,0-.9-2.15A8.14,8.14,0,0,0,433,184.54Z"/><polygon class="cls-1" points="454.96 186.38 448.81 176.34 445.85 176.34 445.85 191.37 448.67 191.37 448.67 181.57 454.73 191.37 457.78 191.37 457.78 176.34 454.96 176.34 454.96 186.38"/><path class="cls-1" d="M465.91,180.23a6,6,0,0,0-2.9.71,4.88,4.88,0,0,0-2,2.05,5.92,5.92,0,0,0-.71,2.78A6.61,6.61,0,0,0,461,189a4.61,4.61,0,0,0,2.06,2,6.37,6.37,0,0,0,2.86.68,5.4,5.4,0,0,0,4-1.63,6,6,0,0,0,0-8.15A5.43,5.43,0,0,0,465.91,180.23Zm1.9,8.18a2.44,2.44,0,0,1-1.89.86,2.48,2.48,0,0,1-1.9-.86,4.39,4.39,0,0,1,0-5,2.48,2.48,0,0,1,1.9-.86,2.44,2.44,0,0,1,1.89.86,3.62,3.62,0,0,1,.76,2.47A3.66,3.66,0,0,1,467.81,188.41Z"/><path class="cls-1" d="M480.76,185.07a11.28,11.28,0,0,1-.22,2.94,2.05,2.05,0,0,1-.8,1,2.26,2.26,0,0,1-1.32.4,1.8,1.8,0,0,1-1.07-.3,1.57,1.57,0,0,1-.58-.82,14.37,14.37,0,0,1-.16-2.82v-5h-2.88v6.89a6,6,0,0,0,.39,2.41,2.84,2.84,0,0,0,1.26,1.35,4.05,4.05,0,0,0,2,.49,4.35,4.35,0,0,0,2-.51,4.14,4.14,0,0,0,1.56-1.37v1.63h2.68V180.48h-2.88Z"/><path class="cls-1" d="M491.5,186c-.11.31-.21.61-.3.92q-.06.22-.3.93l-.6-1.85-2.05-5.56h-3l4.39,10.89h2.59l4.33-10.89h-3Z"/><path class="cls-1" d="M506.29,181.84a4.83,4.83,0,0,0-3.83-1.61,4.63,4.63,0,0,0-3.58,1.54,6,6,0,0,0-1.42,4.24,6.21,6.21,0,0,0,1.08,3.75,4.87,4.87,0,0,0,4.2,1.86,5.12,5.12,0,0,0,3-.83,4.69,4.69,0,0,0,1.75-2.4l-2.87-.49a2.25,2.25,0,0,1-.7,1.19,1.74,1.74,0,0,1-1.14.37,2.17,2.17,0,0,1-1.66-.71,3,3,0,0,1-.7-2h7.22A7.09,7.09,0,0,0,506.29,181.84ZM500.47,185a2.62,2.62,0,0,1,.6-1.86,2.08,2.08,0,0,1,3.06,0,2.76,2.76,0,0,1,.64,1.9Z"/><rect class="cls-1" x="509.98" y="176.34" width="2.88" height="15.03"/><rect class="cls-1" x="515.82" y="176.34" width="2.88" height="15.03"/><path class="cls-1" d="M529.64,181.84a4.85,4.85,0,0,0-3.84-1.61,4.62,4.62,0,0,0-3.57,1.54,6,6,0,0,0-1.42,4.24,6.21,6.21,0,0,0,1.08,3.75,4.87,4.87,0,0,0,4.2,1.86,5.14,5.14,0,0,0,3-.83,4.69,4.69,0,0,0,1.75-2.4L528,187.9a2.25,2.25,0,0,1-.7,1.19,1.75,1.75,0,0,1-1.14.37,2.16,2.16,0,0,1-1.66-.71,2.92,2.92,0,0,1-.7-2H531A7.15,7.15,0,0,0,529.64,181.84ZM523.81,185a2.67,2.67,0,0,1,.61-1.86,2.08,2.08,0,0,1,3.06,0,2.76,2.76,0,0,1,.64,1.9Z"/><path class="cls-1" d="M538.37,184.54a11,11,0,0,1-2.69-.81.64.64,0,0,1-.29-.52.69.69,0,0,1,.33-.59,3.16,3.16,0,0,1,1.63-.31,2.48,2.48,0,0,1,1.39.33,1.73,1.73,0,0,1,.66,1l2.72-.5a3.76,3.76,0,0,0-1.5-2.16,6.07,6.07,0,0,0-3.32-.73,5.25,5.25,0,0,0-3.47,1,3,3,0,0,0-1.11,2.38A2.81,2.81,0,0,0,534,186a15.54,15.54,0,0,0,4.42,1.4,2.39,2.39,0,0,1,1,.38.77.77,0,0,1,.21.55.91.91,0,0,1-.38.76,2.83,2.83,0,0,1-1.69.41,2.51,2.51,0,0,1-1.57-.43,2.1,2.1,0,0,1-.75-1.28l-2.89.44a4.11,4.11,0,0,0,1.69,2.45,6,6,0,0,0,3.52.91,5.55,5.55,0,0,0,3.71-1.08,3.31,3.31,0,0,0,1.25-2.57,2.65,2.65,0,0,0-.91-2.15A8,8,0,0,0,538.37,184.54Z"/><path class="cls-1" d="M52.59,93H97.53v2.25H52.76c.07.76.17,1.51.28,2.25H97.53v2.25H53.44q.23,1.14.51,2.25H97.53v2.25H54.6c.24.76.5,1.51.77,2.25H97.53v2.25H56.29c.33.77.69,1.51,1.06,2.25H97.53v2.25h-39c.44.77.9,1.52,1.39,2.25H97.53v2.25h-36c.58.78,1.19,1.52,1.82,2.25H97.53v2.25H65.41c.76.78,1.56,1.53,2.37,2.25H97.53v2.25h-27q1.6,1.2,3.3,2.25h23.7v2.25H77.9a43.65,43.65,0,0,0,5.58,2.25h14v2.25a45,45,0,0,0,0-90c-.7,0-1.39,0-2.09.06l-.74,0-1.3.1-.92.09-1,.14c-.36,0-.71.09-1.06.15l-.51.09c-1,.16-1.94.36-2.9.59l-.14,0c-.52.12-1,.26-1.54.4l-.24.07c-.53.15-1,.31-1.57.48h0a45.59,45.59,0,0,0-7.64,3.32l0,0c-.67.37-1.33.76-2,1.16h0a45.38,45.38,0,0,0-10.48,9h0c-.63.74-1.24,1.48-1.82,2.25h0C61,64.45,60.46,65.2,60,66h0a45.13,45.13,0,0,0-4.59,9h0c-.27.75-.53,1.49-.77,2.25h0A44.72,44.72,0,0,0,53,84h0c-.11.75-.21,1.5-.28,2.25h0a44.55,44.55,0,0,0-.23,4.49Q52.53,91.85,52.59,93Z"/></g></g></g></svg>