<svg xmlns="http://www.w3.org/2000/svg" viewBox="0 0 543.5 195.79"><defs><style>.cls-1{fill:#066ac6;}.cls-2{fill:#5cc4e3;}.cls-3{fill:#4fa5d8;}</style></defs><g id="Layer_2" data-name="Layer 2"><g id="Simple_-_Light_Background" data-name="Simple - Light Background"><g id="Simple_-_Light_Background-2" data-name="Simple - Light Background"><path class="cls-1" d="M97.53,45.71v45h-45q0,1.14.06,2.25H97.53v2.25H52.76c.07.76.17,1.51.28,2.25H97.53v2.25H53.44q.23,1.14.51,2.25H97.53v2.25H54.6c.24.76.5,1.51.77,2.25H97.53v2.25H56.29c.33.77.69,1.51,1.06,2.25H97.53v2.25h-39c.44.77.9,1.52,1.39,2.25H97.53v2.25h-36c.58.78,1.19,1.52,1.82,2.25H97.53v2.25H65.41c.76.78,1.56,1.53,2.37,2.25H97.53v2.25h-27q1.6,1.2,3.3,2.25h23.7v2.25H77.9a43.65,43.65,0,0,0,5.58,2.25h14v2.25a45,45,0,0,0,0-90Z"/><path class="cls-2" d="M0,85.86s51.92,89.77,97.53,89.77C147,175.63,177.7,53,256.2,0c-77.5,74-96.3,187.46-155.33,187.46C43.85,187.46,0,85.86,0,85.86Z"/><path class="cls-3" d="M27.12,107.46s42.74,71.67,81.75,71.67c33.66,0,70.66-105.29,125-143.17-61.38,67.76-67.12,154-117.59,154C67.52,190,27.12,107.46,27.12,107.46Z"/><path class="cls-1" d="M46.2,119.46s35.5,65,69.5,65,54.5-88,107-129C169.2,116,164.2,193,120.2,193,77.7,193,46.2,119.46,46.2,119.46Z"/><path class="cls-1" d="M217.67,151.25V71.08h8.7v80.17Z"/><path class="cls-1" d="M241.84,151.25V71.08H271q8.79,0,13.37,2.16a15.9,15.9,0,0,1,7.31,7.63A26.71,26.71,0,0,1,294.39,93a22.79,22.79,0,0,1-4.53,14.38q-4.53,5.85-14,7.44a22.75,22.75,0,0,1,5.25,4,54.18,54.18,0,0,1,7.22,10.66l11.44,21.82H288.83l-8.7-16.68q-3.81-7.22-6.28-11a22.26,22.26,0,0,0-4.41-5.36,12.28,12.28,0,0,0-4-2.14,21.89,21.89,0,0,0-4.84-.38H250.54v35.6Zm8.7-44.78h18.7a23.4,23.4,0,0,0,9.32-1.51,10.49,10.49,0,0,0,5.12-4.81A15.22,15.22,0,0,0,285.42,93,13.22,13.22,0,0,0,282,83.61q-3.39-3.67-10.7-3.67h-20.8Z"/><path class="cls-1" d="M308.2,151.25V71.08h47.54v9.46H316.91V105.1h36.36v9.4H316.91v27.29h40.35v9.46Z"/><path class="cls-1" d="M366.32,125.5l8.21-.88a25.5,25.5,0,0,0,2.71,9.87,15.73,15.73,0,0,0,6.62,6.24A21.26,21.26,0,0,0,394,143.11a20.36,20.36,0,0,0,8.79-1.81,12.59,12.59,0,0,0,5.67-5,13.21,13.21,0,0,0,1.86-6.86,12,12,0,0,0-1.79-6.59,13.44,13.44,0,0,0-5.92-4.73,100.61,100.61,0,0,0-11.71-3.91q-9.06-2.66-12.69-5a19.44,19.44,0,0,1-7-7.46,21.36,21.36,0,0,1-2.31-10,23.73,23.73,0,0,1,2.83-11.35,18.58,18.58,0,0,1,8.25-8A26.47,26.47,0,0,1,392,69.72a27.77,27.77,0,0,1,12.9,2.87A19.83,19.83,0,0,1,413.45,81a28,28,0,0,1,3.23,12.63l-8.34.76q-.68-7.59-4.55-11.48t-11.46-3.88q-7.89,0-11.5,3.52a11.47,11.47,0,0,0-3.61,8.51,10.09,10.09,0,0,0,2.56,7.11q2.5,2.79,13.11,5.71T407.44,109a21.26,21.26,0,0,1,8.48,8.18,23.22,23.22,0,0,1,2.74,11.4,25.37,25.37,0,0,1-3,12.06,21.35,21.35,0,0,1-8.63,8.81,25.6,25.6,0,0,1-12.67,3.14q-8.93,0-15-3.17a22.58,22.58,0,0,1-9.47-9.54A31.52,31.52,0,0,1,366.32,125.5Z"/><path class="cls-1" d="M430.72,151.25V71.08h47.53v9.46H439.42V105.1h36.37v9.4H439.42v27.29h40.36v9.46Z"/><path class="cls-1" d="M491.71,151.25V71.08h8.92l34.53,63V71.08h8.34v80.17h-8.92l-34.53-63v63Z"/><path class="cls-1" d="M219.1,171.37v-15h3v15Z"/><path class="cls-1" d="M234.91,171.37H232v-5.56a8.84,8.84,0,0,0-.18-2.28,1.69,1.69,0,0,0-.6-.8,1.66,1.66,0,0,0-1-.29,2.36,2.36,0,0,0-1.35.41,2.11,2.11,0,0,0-.81,1.09,9.23,9.23,0,0,0-.22,2.5v4.93H225V160.48h2.67v1.6a4.37,4.37,0,0,1,3.59-1.85,4.26,4.26,0,0,1,1.74.35,3,3,0,0,1,1.2.87,3.12,3.12,0,0,1,.56,1.21,8.81,8.81,0,0,1,.16,1.94Z"/><path class="cls-1" d="M236.82,168.26l2.89-.44a2.1,2.1,0,0,0,.75,1.28,2.54,2.54,0,0,0,1.58.43,2.82,2.82,0,0,0,1.68-.41.91.91,0,0,0,.38-.76.77.77,0,0,0-.21-.55,2.39,2.39,0,0,0-1-.38,15.66,15.66,0,0,1-4.42-1.4,2.81,2.81,0,0,1-1.29-2.45,3,3,0,0,1,1.12-2.38,5.22,5.22,0,0,1,3.46-1,6.14,6.14,0,0,1,3.33.73,3.75,3.75,0,0,1,1.49,2.16l-2.71.5a1.69,1.69,0,0,0-.67-1,2.44,2.44,0,0,0-1.39-.33,3.19,3.19,0,0,0-1.63.31.7.7,0,0,0-.32.59.63.63,0,0,0,.28.52,11,11,0,0,0,2.69.81,8.13,8.13,0,0,1,3.22,1.28A2.67,2.67,0,0,1,247,168a3.31,3.31,0,0,1-1.25,2.57,5.52,5.52,0,0,1-3.7,1.08,6,6,0,0,1-3.52-.91A4.12,4.12,0,0,1,236.82,168.26Z"/><path class="cls-1" d="M254.51,160.48v2.3h-2v4.39a10.32,10.32,0,0,0,.06,1.55.57.57,0,0,0,.25.36.81.81,0,0,0,.49.15,3.9,3.9,0,0,0,1.16-.28l.24,2.24a5.85,5.85,0,0,1-2.27.43,3.55,3.55,0,0,1-1.41-.27,2.14,2.14,0,0,1-.92-.67,2.68,2.68,0,0,1-.4-1.12,14.52,14.52,0,0,1-.09-2v-4.74h-1.33v-2.3h1.33v-2.16l2.89-1.68v3.84Z"/><path class="cls-1" d="M256.51,159v-2.66h2.88V159Zm0,12.37V160.48h2.88v10.89Z"/><path class="cls-1" d="M267.34,160.48v2.3h-2v4.39a13.13,13.13,0,0,0,.05,1.55.63.63,0,0,0,.26.36.77.77,0,0,0,.49.15,3.86,3.86,0,0,0,1.15-.28l.25,2.24a5.87,5.87,0,0,1-2.28.43,3.53,3.53,0,0,1-1.4-.27,2.08,2.08,0,0,1-.92-.67,2.68,2.68,0,0,1-.4-1.12,14,14,0,0,1-.1-2v-4.74h-1.32v-2.3h1.32v-2.16l2.9-1.68v3.84Z"/><path class="cls-1" d="M276.5,171.37v-1.63a4.14,4.14,0,0,1-1.56,1.37,4.35,4.35,0,0,1-2.05.51,4.05,4.05,0,0,1-2-.49,2.84,2.84,0,0,1-1.26-1.35,6,6,0,0,1-.39-2.41v-6.89h2.88v5a14.37,14.37,0,0,0,.16,2.82,1.57,1.57,0,0,0,.58.82,1.8,1.8,0,0,0,1.07.3,2.26,2.26,0,0,0,1.32-.4,2.05,2.05,0,0,0,.8-1,11.28,11.28,0,0,0,.22-2.94v-4.59h2.88v10.89Z"/><path class="cls-1" d="M287.16,160.48v2.3h-2v4.39a13.13,13.13,0,0,0,.05,1.55.63.63,0,0,0,.26.36.79.79,0,0,0,.49.15,4,4,0,0,0,1.16-.28l.24,2.24a5.85,5.85,0,0,1-2.27.43,3.55,3.55,0,0,1-1.41-.27,2.08,2.08,0,0,1-.92-.67,2.68,2.68,0,0,1-.4-1.12,14.52,14.52,0,0,1-.09-2v-4.74H281v-2.3h1.33v-2.16l2.89-1.68v3.84Z"/><path class="cls-1" d="M304.75,171.37h-2.68v-1.6a4.3,4.3,0,0,1-1.57,1.39,4.13,4.13,0,0,1-1.83.46,4.17,4.17,0,0,1-3.22-1.52,7.41,7.41,0,0,1,0-8.43,4.23,4.23,0,0,1,3.29-1.44,4.09,4.09,0,0,1,3.16,1.52v-5.41h2.88Zm-7.69-5.68a5,5,0,0,0,.48,2.52,2.17,2.17,0,0,0,1.95,1.13,2.12,2.12,0,0,0,1.69-.85,3.9,3.9,0,0,0,.7-2.52,4.31,4.31,0,0,0-.68-2.71,2.14,2.14,0,0,0-1.73-.82,2.16,2.16,0,0,0-1.72.81A3.72,3.72,0,0,0,297.06,165.69Z"/><path class="cls-1" d="M313.89,167.9l2.88.49a4.75,4.75,0,0,1-1.75,2.4,5.16,5.16,0,0,1-3,.83,4.87,4.87,0,0,1-4.21-1.86,6.28,6.28,0,0,1-1.07-3.75,6,6,0,0,1,1.41-4.24,4.66,4.66,0,0,1,3.58-1.54,4.85,4.85,0,0,1,3.84,1.61,7.15,7.15,0,0,1,1.34,4.92H309.7a2.87,2.87,0,0,0,.7,2,2.16,2.16,0,0,0,1.66.71,1.75,1.75,0,0,0,1.14-.37A2.24,2.24,0,0,0,313.89,167.9Zm.17-2.91a2.77,2.77,0,0,0-.65-1.9,2.07,2.07,0,0,0-3.05,0,2.63,2.63,0,0,0-.61,1.86Z"/><path class="cls-1" d="M324.9,171.37v-15h6.39a10.91,10.91,0,0,1,3.5.4,3.46,3.46,0,0,1,1.75,1.44,4.31,4.31,0,0,1,.66,2.37,4,4,0,0,1-1,2.8,4.83,4.83,0,0,1-3,1.39,7,7,0,0,1,1.63,1.26,16.91,16.91,0,0,1,1.72,2.44l1.84,2.93h-3.63l-2.2-3.27a19,19,0,0,0-1.6-2.21,2.31,2.31,0,0,0-.91-.63,5.09,5.09,0,0,0-1.53-.17h-.61v6.28Zm3-8.67h2.24a11.64,11.64,0,0,0,2.73-.19,1.57,1.57,0,0,0,.85-.64,1.9,1.9,0,0,0,.31-1.12,1.8,1.8,0,0,0-.4-1.23,1.88,1.88,0,0,0-1.15-.59c-.24,0-1-.05-2.21-.05h-2.37Z"/><path class="cls-1" d="M346.35,167.9l2.87.49a4.75,4.75,0,0,1-1.75,2.4,5.14,5.14,0,0,1-3,.83,4.85,4.85,0,0,1-4.2-1.86A6.21,6.21,0,0,1,339.2,166a6,6,0,0,1,1.41-4.24,4.66,4.66,0,0,1,3.58-1.54,4.85,4.85,0,0,1,3.84,1.61,7.15,7.15,0,0,1,1.34,4.92h-7.22a2.87,2.87,0,0,0,.7,2,2.16,2.16,0,0,0,1.66.71,1.75,1.75,0,0,0,1.14-.37A2.25,2.25,0,0,0,346.35,167.9Zm.16-2.91a2.77,2.77,0,0,0-.65-1.9,2.07,2.07,0,0,0-3.05,0,2.67,2.67,0,0,0-.61,1.86Z"/><path class="cls-1" d="M361.21,163.7l-2.84.51a2,2,0,0,0-.65-1.28,1.93,1.93,0,0,0-1.31-.43,2.17,2.17,0,0,0-1.72.74,3.82,3.82,0,0,0-.64,2.49,4.39,4.39,0,0,0,.65,2.74,2.13,2.13,0,0,0,1.75.8,2,2,0,0,0,1.34-.47,2.82,2.82,0,0,0,.74-1.6l2.83.48a5.05,5.05,0,0,1-1.69,2.94,5.29,5.29,0,0,1-3.36,1,5,5,0,0,1-3.81-1.51,6.86,6.86,0,0,1,0-8.37,5.06,5.06,0,0,1,3.85-1.51,5.29,5.29,0,0,1,3.17.86A4.73,4.73,0,0,1,361.21,163.7Z"/><path class="cls-1" d="M366.27,156.34v5.52a4.27,4.27,0,0,1,3.33-1.63,4.35,4.35,0,0,1,1.8.37,2.92,2.92,0,0,1,1.2,1,3.38,3.38,0,0,1,.56,1.27,12.28,12.28,0,0,1,.14,2.16v6.39h-2.88v-5.75a8.64,8.64,0,0,0-.16-2.18,1.43,1.43,0,0,0-.58-.73,1.87,1.87,0,0,0-1-.27,2.39,2.39,0,0,0-1.28.35,2,2,0,0,0-.83,1.05,6.39,6.39,0,0,0-.26,2.07v5.46h-2.88v-15Z"/><path class="cls-1" d="M382.53,167.9l2.87.49a4.74,4.74,0,0,1-1.74,2.4,5.16,5.16,0,0,1-3,.83,4.87,4.87,0,0,1-4.21-1.86,6.21,6.21,0,0,1-1.07-3.75,6,6,0,0,1,1.41-4.24,4.64,4.64,0,0,1,3.58-1.54,4.82,4.82,0,0,1,3.83,1.61,7.09,7.09,0,0,1,1.35,4.92h-7.22a2.87,2.87,0,0,0,.7,2,2.14,2.14,0,0,0,1.66.71,1.75,1.75,0,0,0,1.14-.37A2.24,2.24,0,0,0,382.53,167.9Zm.17-2.91a2.77,2.77,0,0,0-.65-1.9,2.08,2.08,0,0,0-3.06,0,2.62,2.62,0,0,0-.6,1.86Z"/><path class="cls-1" d="M390.66,171.37h-2.88V160.48h2.68V162a4.76,4.76,0,0,1,1.24-1.45,2.27,2.27,0,0,1,1.24-.35,3.69,3.69,0,0,1,1.9.55l-.89,2.51a2.59,2.59,0,0,0-1.36-.47,1.6,1.6,0,0,0-1,.33,2.29,2.29,0,0,0-.66,1.21,16.24,16.24,0,0,0-.25,3.65Z"/><path class="cls-1" d="M405.57,163.7l-2.84.51a2,2,0,0,0-.65-1.28,2,2,0,0,0-1.32-.43,2.15,2.15,0,0,0-1.71.74,3.82,3.82,0,0,0-.64,2.49,4.39,4.39,0,0,0,.65,2.74,2.13,2.13,0,0,0,1.75.8,2,2,0,0,0,1.34-.47,2.82,2.82,0,0,0,.74-1.6l2.83.48a5.05,5.05,0,0,1-1.69,2.94,5.29,5.29,0,0,1-3.36,1,5,5,0,0,1-3.81-1.51,6.86,6.86,0,0,1,0-8.37,5.06,5.06,0,0,1,3.85-1.51,5.29,5.29,0,0,1,3.17.86A4.73,4.73,0,0,1,405.57,163.7Z"/><path class="cls-1" d="M410.63,156.34v5.52a4.27,4.27,0,0,1,3.33-1.63,4.39,4.39,0,0,1,1.8.37,2.92,2.92,0,0,1,1.2,1,3.21,3.21,0,0,1,.55,1.27,11.17,11.17,0,0,1,.15,2.16v6.39h-2.88v-5.75a8.64,8.64,0,0,0-.16-2.18,1.43,1.43,0,0,0-.58-.73,1.89,1.89,0,0,0-1-.27,2.39,2.39,0,0,0-1.28.35,2,2,0,0,0-.83,1.05,6.39,6.39,0,0,0-.26,2.07v5.46h-2.88v-15Z"/><path class="cls-1" d="M426.89,167.9l2.87.49a4.74,4.74,0,0,1-1.74,2.4,5.16,5.16,0,0,1-3,.83,4.87,4.87,0,0,1-4.21-1.86,6.21,6.21,0,0,1-1.08-3.75,6,6,0,0,1,1.42-4.24,4.64,4.64,0,0,1,3.58-1.54,4.82,4.82,0,0,1,3.83,1.61,7.09,7.09,0,0,1,1.35,4.92H422.7a2.87,2.87,0,0,0,.7,2,2.14,2.14,0,0,0,1.66.71,1.75,1.75,0,0,0,1.14-.37A2.24,2.24,0,0,0,426.89,167.9Zm.17-2.91a2.77,2.77,0,0,0-.65-1.9,2.08,2.08,0,0,0-3.06,0,2.62,2.62,0,0,0-.6,1.86Z"/><path class="cls-1" d="M444.18,167.9l2.87.49a4.69,4.69,0,0,1-1.75,2.4,5.14,5.14,0,0,1-3,.83,4.87,4.87,0,0,1-4.2-1.86A6.21,6.21,0,0,1,437,166a6,6,0,0,1,1.42-4.24,4.62,4.62,0,0,1,3.57-1.54,4.85,4.85,0,0,1,3.84,1.61,7.15,7.15,0,0,1,1.34,4.92H440a2.92,2.92,0,0,0,.7,2,2.16,2.16,0,0,0,1.66.71,1.75,1.75,0,0,0,1.14-.37A2.25,2.25,0,0,0,444.18,167.9Zm.16-2.91a2.76,2.76,0,0,0-.64-1.9,2,2,0,0,0-1.5-.65,2,2,0,0,0-1.56.69A2.67,2.67,0,0,0,440,165Z"/><path class="cls-1" d="M459.45,171.37h-2.88v-5.56a8.84,8.84,0,0,0-.18-2.28,1.57,1.57,0,0,0-.6-.8,1.66,1.66,0,0,0-1-.29,2.31,2.31,0,0,0-1.34.41,2.07,2.07,0,0,0-.82,1.09,9.23,9.23,0,0,0-.22,2.5v4.93h-2.88V160.48h2.68v1.6a4.43,4.43,0,0,1,5.33-1.5,3,3,0,0,1,1.19.87,3.29,3.29,0,0,1,.57,1.21,9.61,9.61,0,0,1,.15,1.94Z"/><path class="cls-1" d="M468,171.37v-15h11.15v2.54H471v3.33h7.55v2.54H471v4.09h8.4v2.53Z"/><path class="cls-1" d="M491.9,171.37H489v-5.56a8.84,8.84,0,0,0-.18-2.28,1.57,1.57,0,0,0-.6-.8,1.66,1.66,0,0,0-1-.29,2.31,2.31,0,0,0-1.34.41,2.07,2.07,0,0,0-.82,1.09,9.23,9.23,0,0,0-.22,2.5v4.93H482V160.48h2.68v1.6a4.43,4.43,0,0,1,5.33-1.5,3,3,0,0,1,1.19.87,3.29,3.29,0,0,1,.57,1.21,9.48,9.48,0,0,1,.16,1.94Z"/><path class="cls-1" d="M501.12,167.9l2.87.49a4.68,4.68,0,0,1-1.74,2.4,5.16,5.16,0,0,1-3,.83,4.87,4.87,0,0,1-4.21-1.86A6.28,6.28,0,0,1,494,166a6,6,0,0,1,1.41-4.24,4.66,4.66,0,0,1,3.58-1.54,4.85,4.85,0,0,1,3.84,1.61,7.15,7.15,0,0,1,1.34,4.92h-7.22a2.87,2.87,0,0,0,.7,2,2.14,2.14,0,0,0,1.66.71,1.75,1.75,0,0,0,1.14-.37A2.24,2.24,0,0,0,501.12,167.9Zm.17-2.91a2.77,2.77,0,0,0-.65-1.9,2.07,2.07,0,0,0-3.05,0A2.63,2.63,0,0,0,497,165Z"/><path class="cls-1" d="M509.26,171.37h-2.89V160.48h2.68V162a4.76,4.76,0,0,1,1.24-1.45,2.27,2.27,0,0,1,1.24-.35,3.69,3.69,0,0,1,1.9.55l-.89,2.51a2.59,2.59,0,0,0-1.36-.47,1.6,1.6,0,0,0-1,.33,2.29,2.29,0,0,0-.66,1.21,17.12,17.12,0,0,0-.24,3.65Z"/><path class="cls-1" d="M514.4,172.09l3.29.4a1.16,1.16,0,0,0,.38.79,2.25,2.25,0,0,0,1.3.3,3.43,3.43,0,0,0,1.69-.33,1.43,1.43,0,0,0,.57-.73,4.27,4.27,0,0,0,.14-1.32v-1.59a3.93,3.93,0,0,1-3.27,1.76,4,4,0,0,1-3.47-1.86,6.28,6.28,0,0,1-1-3.65,6,6,0,0,1,1.32-4.18,4.27,4.27,0,0,1,3.28-1.45A4,4,0,0,1,522,162v-1.53h2.7v9.77a9.73,9.73,0,0,1-.32,2.88,3.55,3.55,0,0,1-.89,1.5,4,4,0,0,1-1.54.85,7.87,7.87,0,0,1-2.42.31,6.29,6.29,0,0,1-3.93-.95,3,3,0,0,1-1.16-2.4C514.39,172.34,514.4,172.22,514.4,172.09ZM517,165.7a3.92,3.92,0,0,0,.67,2.54,2.09,2.09,0,0,0,1.65.8,2.29,2.29,0,0,0,1.79-.82,3.64,3.64,0,0,0,.73-2.45,3.84,3.84,0,0,0-.7-2.51,2.21,2.21,0,0,0-1.76-.82,2.14,2.14,0,0,0-1.71.8A3.78,3.78,0,0,0,517,165.7Z"/><path class="cls-1" d="M527.5,159v-2.66h2.88V159Zm0,12.37V160.48h2.88v10.89Z"/><path class="cls-1" d="M539.64,167.9l2.87.49a4.69,4.69,0,0,1-1.75,2.4,5.14,5.14,0,0,1-3,.83,4.87,4.87,0,0,1-4.2-1.86,6.21,6.21,0,0,1-1.08-3.75,6,6,0,0,1,1.42-4.24,4.62,4.62,0,0,1,3.57-1.54,4.85,4.85,0,0,1,3.84,1.61,7.09,7.09,0,0,1,1.34,4.92h-7.22a2.92,2.92,0,0,0,.7,2,2.16,2.16,0,0,0,1.66.71,1.75,1.75,0,0,0,1.14-.37A2.25,2.25,0,0,0,539.64,167.9Zm.16-2.91a2.76,2.76,0,0,0-.64-1.9,2.08,2.08,0,0,0-3.06,0,2.67,2.67,0,0,0-.61,1.86Z"/><path class="cls-1" d="M218.42,186.48l3-.29a3.61,3.61,0,0,0,1.08,2.19,3.29,3.29,0,0,0,2.2.69,3.35,3.35,0,0,0,2.21-.62,1.84,1.84,0,0,0,.74-1.45,1.38,1.38,0,0,0-.31-.91,2.54,2.54,0,0,0-1.09-.65c-.36-.12-1.17-.34-2.43-.65a8.33,8.33,0,0,1-3.43-1.49,3.92,3.92,0,0,1-1.38-3,3.8,3.8,0,0,1,.65-2.15,4.05,4.05,0,0,1,1.88-1.53,7.63,7.63,0,0,1,2.95-.52,6.32,6.32,0,0,1,4.26,1.24,4.37,4.37,0,0,1,1.51,3.31l-3,.14a2.6,2.6,0,0,0-.83-1.67,3.07,3.07,0,0,0-1.93-.51,3.49,3.49,0,0,0-2.07.55,1.09,1.09,0,0,0-.48.93,1.14,1.14,0,0,0,.45.91,8,8,0,0,0,2.79,1,15,15,0,0,1,3.28,1.08,4.23,4.23,0,0,1,1.66,1.53,4.72,4.72,0,0,1-.12,4.81,4.38,4.38,0,0,1-2,1.68,8.66,8.66,0,0,1-3.27.55,6.51,6.51,0,0,1-4.38-1.32A5.74,5.74,0,0,1,218.42,186.48Z"/><path class="cls-1" d="M232.51,185.77a5.92,5.92,0,0,1,.71-2.78,4.88,4.88,0,0,1,2-2.05,6,6,0,0,1,2.9-.71,5.43,5.43,0,0,1,4,1.61,5.55,5.55,0,0,1,1.58,4,5.62,5.62,0,0,1-1.59,4.1,5.42,5.42,0,0,1-4,1.63,6.29,6.29,0,0,1-2.85-.68,4.58,4.58,0,0,1-2.07-2A6.61,6.61,0,0,1,232.51,185.77Zm3,.15a3.59,3.59,0,0,0,.77,2.49,2.51,2.51,0,0,0,3.78,0,3.67,3.67,0,0,0,.77-2.5,3.62,3.62,0,0,0-.77-2.47,2.51,2.51,0,0,0-3.78,0A3.6,3.6,0,0,0,235.47,185.92Z"/><path class="cls-1" d="M246,191.37v-15h2.88v15Z"/><path class="cls-1" d="M254,183.8l-2.61-.47A4.07,4.07,0,0,1,252.9,181a5.6,5.6,0,0,1,3.2-.76,7,7,0,0,1,2.87.46,2.85,2.85,0,0,1,1.33,1.16,6.07,6.07,0,0,1,.38,2.58l0,3.36a11.91,11.91,0,0,0,.14,2.12,5.86,5.86,0,0,0,.52,1.46h-2.85a8.41,8.41,0,0,1-.28-.85l-.1-.34a5.3,5.3,0,0,1-1.58,1.08,4.52,4.52,0,0,1-1.8.36,3.71,3.71,0,0,1-2.65-.92,3,3,0,0,1-1-2.3,3.13,3.13,0,0,1,.44-1.65,3,3,0,0,1,1.24-1.11,9.86,9.86,0,0,1,2.29-.67,15.23,15.23,0,0,0,2.8-.71V184a1.51,1.51,0,0,0-.41-1.19,2.5,2.5,0,0,0-1.55-.35,2.09,2.09,0,0,0-1.2.3A2.18,2.18,0,0,0,254,183.8Zm3.86,2.34c-.37.12-1,.27-1.75.44a5.34,5.34,0,0,0-1.57.5,1.21,1.21,0,0,0-.57,1,1.41,1.41,0,0,0,.46,1.05,1.58,1.58,0,0,0,1.14.44,2.52,2.52,0,0,0,1.49-.52,1.78,1.78,0,0,0,.69-.95,6,6,0,0,0,.11-1.41Z"/><path class="cls-1" d="M263.52,179v-2.66h2.88V179Zm0,12.37V180.48h2.88v10.89Z"/><path class="cls-1" d="M272.11,191.37h-2.88V180.48h2.68V182a4.9,4.9,0,0,1,1.23-1.45,2.33,2.33,0,0,1,1.25-.35,3.69,3.69,0,0,1,1.9.55l-.9,2.51a2.53,2.53,0,0,0-1.35-.47,1.6,1.6,0,0,0-1,.33,2.29,2.29,0,0,0-.67,1.21,17.12,17.12,0,0,0-.24,3.65Z"/><path class="cls-1" d="M283.83,187.9l2.87.49a4.68,4.68,0,0,1-1.74,2.4,5.16,5.16,0,0,1-3,.83,4.87,4.87,0,0,1-4.21-1.86,6.28,6.28,0,0,1-1.07-3.75,6,6,0,0,1,1.41-4.24,4.66,4.66,0,0,1,3.58-1.54,4.85,4.85,0,0,1,3.84,1.61,7.15,7.15,0,0,1,1.34,4.92h-7.22a2.87,2.87,0,0,0,.7,2,2.16,2.16,0,0,0,1.66.71,1.75,1.75,0,0,0,1.14-.37A2.24,2.24,0,0,0,283.83,187.9ZM284,185a2.77,2.77,0,0,0-.65-1.9,2.07,2.07,0,0,0-3.05,0,2.63,2.63,0,0,0-.61,1.86Z"/><path class="cls-1" d="M301.69,187.9l2.87.49a4.69,4.69,0,0,1-1.75,2.4,5.12,5.12,0,0,1-3,.83,4.87,4.87,0,0,1-4.2-1.86,6.21,6.21,0,0,1-1.08-3.75,6,6,0,0,1,1.42-4.24,4.63,4.63,0,0,1,3.58-1.54,4.82,4.82,0,0,1,3.83,1.61,7,7,0,0,1,1.34,4.92H297.5a2.92,2.92,0,0,0,.69,2,2.17,2.17,0,0,0,1.66.71,1.72,1.72,0,0,0,1.14-.37A2.25,2.25,0,0,0,301.69,187.9Zm.16-2.91a2.76,2.76,0,0,0-.64-1.9,2.08,2.08,0,0,0-3.06,0,2.62,2.62,0,0,0-.6,1.86Z"/><path class="cls-1" d="M312.06,180.48v2.3h-2v4.39a13.13,13.13,0,0,0,.05,1.55.63.63,0,0,0,.26.36.79.79,0,0,0,.49.15,4,4,0,0,0,1.16-.28l.24,2.24a5.85,5.85,0,0,1-2.27.43,3.55,3.55,0,0,1-1.41-.27,2.08,2.08,0,0,1-.92-.67,2.68,2.68,0,0,1-.4-1.12,14.52,14.52,0,0,1-.09-2v-4.74h-1.33v-2.3h1.33v-2.16l2.89-1.68v3.84Z"/><path class="cls-1" d="M326.54,187.9l2.87.49a4.69,4.69,0,0,1-1.75,2.4,5.12,5.12,0,0,1-3,.83,4.87,4.87,0,0,1-4.2-1.86,6.21,6.21,0,0,1-1.08-3.75,6,6,0,0,1,1.42-4.24,4.63,4.63,0,0,1,3.58-1.54,4.83,4.83,0,0,1,3.83,1.61,7,7,0,0,1,1.34,4.92h-7.21a2.92,2.92,0,0,0,.69,2,2.17,2.17,0,0,0,1.66.71,1.74,1.74,0,0,0,1.14-.37A2.25,2.25,0,0,0,326.54,187.9Zm.16-2.91a2.76,2.76,0,0,0-.64-1.9,2.08,2.08,0,0,0-3.06,0,2.62,2.62,0,0,0-.6,1.86Z"/><path class="cls-1" d="M341.82,191.37h-2.88v-5.56a8.25,8.25,0,0,0-.19-2.28,1.57,1.57,0,0,0-.6-.8,1.64,1.64,0,0,0-1-.29,2.33,2.33,0,0,0-1.34.41,2.07,2.07,0,0,0-.82,1.09,9.67,9.67,0,0,0-.22,2.5v4.93h-2.88V180.48h2.68v1.6a4.37,4.37,0,0,1,3.59-1.85,4.33,4.33,0,0,1,1.74.35,3,3,0,0,1,1.2.87,3.27,3.27,0,0,1,.56,1.21,8.81,8.81,0,0,1,.16,1.94Z"/><path class="cls-1" d="M350.94,191.37v-15h11.14v2.54H354v3.33h7.55v2.54H354v4.09h8.4v2.53Z"/><path class="cls-1" d="M374.83,191.37H372v-5.56a8.25,8.25,0,0,0-.19-2.28,1.57,1.57,0,0,0-.6-.8,1.64,1.64,0,0,0-1-.29,2.35,2.35,0,0,0-1.34.41,2,2,0,0,0-.81,1.09,9.23,9.23,0,0,0-.22,2.5v4.93H364.9V180.48h2.68v1.6a4.37,4.37,0,0,1,3.59-1.85,4.26,4.26,0,0,1,1.74.35,3,3,0,0,1,1.2.87,3.12,3.12,0,0,1,.56,1.21,8.81,8.81,0,0,1,.16,1.94Z"/><path class="cls-1" d="M384.06,187.9l2.87.49a4.69,4.69,0,0,1-1.75,2.4,5.14,5.14,0,0,1-3,.83,4.87,4.87,0,0,1-4.2-1.86,6.21,6.21,0,0,1-1.08-3.75,6,6,0,0,1,1.42-4.24,4.63,4.63,0,0,1,3.58-1.54,4.83,4.83,0,0,1,3.83,1.61,7.09,7.09,0,0,1,1.34,4.92h-7.22a3,3,0,0,0,.7,2,2.17,2.17,0,0,0,1.66.71,1.75,1.75,0,0,0,1.14-.37A2.25,2.25,0,0,0,384.06,187.9Zm.16-2.91a2.76,2.76,0,0,0-.64-1.9,2.08,2.08,0,0,0-3.06,0,2.62,2.62,0,0,0-.6,1.86Z"/><path class="cls-1" d="M392.19,191.37h-2.88V180.48H392V182a4.76,4.76,0,0,1,1.23-1.45,2.31,2.31,0,0,1,1.25-.35,3.68,3.68,0,0,1,1.89.55l-.89,2.51a2.56,2.56,0,0,0-1.35-.47,1.61,1.61,0,0,0-1,.33,2.29,2.29,0,0,0-.66,1.21,17.12,17.12,0,0,0-.24,3.65Z"/><path class="cls-1" d="M397.34,192.09l3.29.4a1.12,1.12,0,0,0,.38.79,2.19,2.19,0,0,0,1.29.3,3.41,3.41,0,0,0,1.69-.33,1.44,1.44,0,0,0,.58-.73,4.36,4.36,0,0,0,.13-1.32v-1.59a3.91,3.91,0,0,1-3.26,1.76,4,4,0,0,1-3.48-1.86,6.28,6.28,0,0,1-1-3.65,6,6,0,0,1,1.32-4.18,4.25,4.25,0,0,1,3.27-1.45,4,4,0,0,1,3.33,1.78v-1.53h2.7v9.77a9.73,9.73,0,0,1-.32,2.88,3.55,3.55,0,0,1-.89,1.5,3.87,3.87,0,0,1-1.53.85,7.93,7.93,0,0,1-2.43.31,6.27,6.27,0,0,1-3.92-.95,2.94,2.94,0,0,1-1.16-2.4C397.33,192.34,397.33,192.22,397.34,192.09Zm2.57-6.39a3.92,3.92,0,0,0,.67,2.54,2.1,2.1,0,0,0,1.66.8,2.27,2.27,0,0,0,1.78-.82,3.59,3.59,0,0,0,.73-2.45,3.78,3.78,0,0,0-.7-2.51,2.19,2.19,0,0,0-1.76-.82,2.15,2.15,0,0,0-1.71.8A3.78,3.78,0,0,0,399.91,185.7Z"/><path class="cls-1" d="M410.43,179v-2.66h2.88V179Zm0,12.37V180.48h2.88v10.89Z"/><path class="cls-1" d="M422.57,187.9l2.87.49a4.74,4.74,0,0,1-1.74,2.4,5.16,5.16,0,0,1-3,.83,4.87,4.87,0,0,1-4.21-1.86,6.21,6.21,0,0,1-1.08-3.75,6,6,0,0,1,1.42-4.24,4.64,4.64,0,0,1,3.58-1.54,4.82,4.82,0,0,1,3.83,1.61,7.09,7.09,0,0,1,1.35,4.92h-7.22a2.92,2.92,0,0,0,.69,2,2.18,2.18,0,0,0,1.67.71,1.71,1.71,0,0,0,1.13-.37A2.25,2.25,0,0,0,422.57,187.9Zm.17-2.91a2.77,2.77,0,0,0-.65-1.9,2.08,2.08,0,0,0-3.06,0,2.62,2.62,0,0,0-.6,1.86Z"/><path class="cls-1" d="M426.93,188.26l2.89-.44a2.14,2.14,0,0,0,.75,1.28,2.54,2.54,0,0,0,1.58.43,2.82,2.82,0,0,0,1.68-.41.91.91,0,0,0,.38-.76.81.81,0,0,0-.2-.55,2.53,2.53,0,0,0-1-.38,15.66,15.66,0,0,1-4.42-1.4,2.81,2.81,0,0,1-1.29-2.45,3,3,0,0,1,1.12-2.38,5.22,5.22,0,0,1,3.46-1,6.14,6.14,0,0,1,3.33.73,3.75,3.75,0,0,1,1.49,2.16l-2.71.5a1.69,1.69,0,0,0-.67-1,2.43,2.43,0,0,0-1.38-.33,3.2,3.2,0,0,0-1.64.31.7.7,0,0,0-.32.59.63.63,0,0,0,.28.52,11,11,0,0,0,2.7.81,8.14,8.14,0,0,1,3.21,1.28,2.67,2.67,0,0,1,.9,2.15,3.28,3.28,0,0,1-1.25,2.57,5.52,5.52,0,0,1-3.7,1.08,6,6,0,0,1-3.52-.91A4.12,4.12,0,0,1,426.93,188.26Z"/><path class="cls-1" d="M445.85,191.37v-15h3l6.15,10v-10h2.82v15h-3l-6.06-9.8v9.8Z"/><path class="cls-1" d="M460.3,185.77A5.92,5.92,0,0,1,461,183a4.88,4.88,0,0,1,2-2.05,6,6,0,0,1,2.9-.71,5.43,5.43,0,0,1,4,1.61,6,6,0,0,1,0,8.15,5.4,5.4,0,0,1-4,1.63,6.37,6.37,0,0,1-2.86-.68,4.61,4.61,0,0,1-2.06-2A6.61,6.61,0,0,1,460.3,185.77Zm2.95.15a3.64,3.64,0,0,0,.77,2.49,2.48,2.48,0,0,0,1.9.86,2.44,2.44,0,0,0,1.89-.86,3.66,3.66,0,0,0,.76-2.5,3.62,3.62,0,0,0-.76-2.47,2.44,2.44,0,0,0-1.89-.86,2.48,2.48,0,0,0-1.9.86A3.65,3.65,0,0,0,463.25,185.92Z"/><path class="cls-1" d="M481,191.37v-1.63a4.14,4.14,0,0,1-1.56,1.37,4.35,4.35,0,0,1-2,.51,4.05,4.05,0,0,1-2-.49,2.84,2.84,0,0,1-1.26-1.35,6,6,0,0,1-.39-2.41v-6.89h2.89v5a14.73,14.73,0,0,0,.15,2.82,1.57,1.57,0,0,0,.58.82,1.8,1.8,0,0,0,1.07.3,2.26,2.26,0,0,0,1.32-.4,2.05,2.05,0,0,0,.8-1,11.28,11.28,0,0,0,.22-2.94v-4.59h2.88v10.89Z"/><path class="cls-1" d="M489.62,191.37l-4.39-10.89h3L490.3,186l.6,1.85q.24-.7.3-.93c.09-.31.19-.61.3-.92l2.07-5.56h3l-4.33,10.89Z"/><path class="cls-1" d="M504.61,187.9l2.87.49a4.69,4.69,0,0,1-1.75,2.4,5.12,5.12,0,0,1-3,.83,4.87,4.87,0,0,1-4.2-1.86,6.21,6.21,0,0,1-1.08-3.75,6,6,0,0,1,1.42-4.24,4.63,4.63,0,0,1,3.58-1.54,4.83,4.83,0,0,1,3.83,1.61,7.09,7.09,0,0,1,1.34,4.92h-7.22a3,3,0,0,0,.7,2,2.17,2.17,0,0,0,1.66.71,1.74,1.74,0,0,0,1.14-.37A2.25,2.25,0,0,0,504.61,187.9Zm.16-2.91a2.76,2.76,0,0,0-.64-1.9,2.08,2.08,0,0,0-3.06,0,2.62,2.62,0,0,0-.6,1.86Z"/><path class="cls-1" d="M510,191.37v-15h2.88v15Z"/><path class="cls-1" d="M515.82,191.37v-15h2.88v15Z"/><path class="cls-1" d="M528,187.9l2.87.49a4.69,4.69,0,0,1-1.75,2.4,5.14,5.14,0,0,1-3,.83,4.87,4.87,0,0,1-4.2-1.86,6.21,6.21,0,0,1-1.08-3.75,6,6,0,0,1,1.42-4.24,4.62,4.62,0,0,1,3.57-1.54,4.85,4.85,0,0,1,3.84,1.61,7.15,7.15,0,0,1,1.34,4.92h-7.22a2.92,2.92,0,0,0,.7,2,2.16,2.16,0,0,0,1.66.71,1.75,1.75,0,0,0,1.14-.37A2.25,2.25,0,0,0,528,187.9Zm.16-2.91a2.76,2.76,0,0,0-.64-1.9,2.08,2.08,0,0,0-3.06,0,2.67,2.67,0,0,0-.61,1.86Z"/><path class="cls-1" d="M532.32,188.26l2.89-.44a2.1,2.1,0,0,0,.75,1.28,2.51,2.51,0,0,0,1.57.43,2.83,2.83,0,0,0,1.69-.41.91.91,0,0,0,.38-.76.77.77,0,0,0-.21-.55,2.39,2.39,0,0,0-1-.38A15.54,15.54,0,0,1,534,186a2.81,2.81,0,0,1-1.29-2.45,3,3,0,0,1,1.11-2.38,5.25,5.25,0,0,1,3.47-1,6.07,6.07,0,0,1,3.32.73,3.76,3.76,0,0,1,1.5,2.16l-2.72.5a1.73,1.73,0,0,0-.66-1,2.48,2.48,0,0,0-1.39-.33,3.16,3.16,0,0,0-1.63.31.69.69,0,0,0-.33.59.64.64,0,0,0,.29.52,11,11,0,0,0,2.69.81,8,8,0,0,1,3.21,1.28,2.65,2.65,0,0,1,.91,2.15,3.31,3.31,0,0,1-1.25,2.57,5.55,5.55,0,0,1-3.71,1.08,6,6,0,0,1-3.52-.91A4.11,4.11,0,0,1,532.32,188.26Z"/><path id="Under_Ciel" data-name="Under Ciel" class="cls-3" d="M97.53,45.71a45,45,0,0,0-45,45h45Z"/></g></g></g></svg>