<?xml version="1.0" encoding="utf-8"?>
<!-- Generator: Adobe Illustrator 24.2.0, SVG Export Plug-In . SVG Version: 6.00 Build 0)  -->
<svg version="1.1" id="Capa_1" xmlns="http://www.w3.org/2000/svg" xmlns:xlink="http://www.w3.org/1999/xlink" x="0px" y="0px"
	 viewBox="0 0 477.9 477.9" style="enable-background:new 0 0 477.9 477.9;" xml:space="preserve">
<style type="text/css">
	.st0{fill:#3368C6;}
</style>
<g>
	<g>
		<path class="st0" d="M238.9,0C132.1,0,68.3,70.2,68.3,187.7C68.3,316,220.5,466.6,227,473c6.6,6.5,17.3,6.5,23.9,0
			c6.5-6.3,158.7-157,158.7-285.3C409.6,70.2,345.8,0,238.9,0z M238.9,436.2c-35.3-37.6-136.5-153.9-136.5-248.5
			c0-99,48.5-153.6,136.5-153.6s136.5,54.6,136.5,153.6C375.5,282.2,274.2,398.6,238.9,436.2z"/>
	</g>
</g>
<g>
	<g>
		<path class="st0" d="M238.9,68.3c-47.1,0-85.3,38.2-85.3,85.3s38.2,85.3,85.3,85.3s85.3-38.2,85.3-85.3
			C324.2,106.5,286,68.3,238.9,68.3z M238.9,204.8c-28.3,0-51.2-22.9-51.2-51.2s22.9-51.2,51.2-51.2s51.2,22.9,51.2,51.2
			S267.2,204.8,238.9,204.8z"/>
	</g>
</g>
</svg>
