<?xml version="1.0" encoding="utf-8"?>
<!-- Generator: Adobe Illustrator 24.2.0, SVG Export Plug-In . SVG Version: 6.00 Build 0)  -->
<svg version="1.1" id="Capa_1" xmlns="http://www.w3.org/2000/svg" xmlns:xlink="http://www.w3.org/1999/xlink" x="0px" y="0px"
	 viewBox="0 0 454.6 454.6" style="enable-background:new 0 0 454.6 454.6;" xml:space="preserve">
<style type="text/css">
	.st0{fill:#FFFFFF;}
</style>
<g>
	<g>
		<g>
			<path class="st0" d="M452.4,156.2l-65.8-46.5V41.8c-0.7-6.7-5.8-12.1-12.5-13.1H85.7c-6.7,0.9-11.9,6.3-12.5,13.1v67.4l-68.4,47
				c-2.7,2-4.4,5-4.7,8.4v248.2c0.9,6.8,6.2,12.2,13.1,13.1h433.6c5.7,0,7.8-6.8,7.8-13.1V164.6
				C454.5,161.5,455.1,158.3,452.4,156.2z M386.6,134.8l44.9,30.8l-44.9,34V134.8z M94,49.7h271.7v166.1L229.9,318.2L94,215.8
				L94,49.7L94,49.7z M73.1,134.3v65.8l-44.9-34.5L73.1,134.3z M20.9,187.1l146.3,110.8L20.9,396.6V187.1z M46,404.9l139-93.5
				l37.1,28.2c2.1,1.6,4.7,2.5,7.3,2.6c2.1,0,3.1-1,5.2-2.6l38.7-29.8l140.5,95.1H46z M433.6,392.9l-143.2-96.1l143.2-109.7V392.9z"
				/>
			<path class="st0" d="M146.3,117.6h47c5.8,0,10.4-4.7,10.4-10.4s-4.7-10.4-10.4-10.4h-47c-5.8,0-10.4,4.7-10.4,10.4
				S140.5,117.6,146.3,117.6z"/>
			<path class="st0" d="M146.3,164.6h167.2c5.8,0,10.4-4.7,10.4-10.4s-4.7-10.4-10.4-10.4H146.3c-5.8,0-10.4,4.7-10.4,10.4
				S140.5,164.6,146.3,164.6z"/>
			<path class="st0" d="M323.9,201.2c0-5.8-4.7-10.4-10.4-10.4H146.3c-5.8,0-10.4,4.7-10.4,10.4s4.7,10.4,10.4,10.4h167.2
				C319.2,211.6,323.9,206.9,323.9,201.2z"/>
		</g>
	</g>
</g>
</svg>
