<svg id="Capa_1" data-name="Capa 1" xmlns="http://www.w3.org/2000/svg" viewBox="0 0 268.83 215.92"><defs><style>.cls-1{fill:#3368c6;}</style></defs><path class="cls-1" d="M268.83,108l-37.4-37.4L172.08,11.21l-.14-.14A37.78,37.78,0,0,0,110.21,52a37.5,37.5,0,0,0,8.11,12.32l.18.19,5.69,5.68H37.78a37.78,37.78,0,0,0-.37,75.56h86.78l-5.53,5.52-.16.16a37.79,37.79,0,0,0,0,53.43,37.75,37.75,0,0,0,53.23.2l.21-.2,59.49-59.49L268.83,108m-47.17,15.12-6.26,6.26-59.49,59.49h0a15.12,15.12,0,0,1-21.38-21.38l0,0,44.35-44.35H37.78a15.11,15.11,0,1,1,0-30.22H178.91L134.53,48.47h0A15.11,15.11,0,1,1,155.91,27.1l0,0L215.4,86.59l6.26,6.26L236.77,108Z"/></svg>