<svg xmlns="http://www.w3.org/2000/svg" viewBox="0 0 260 260"><g id="Layer_2" data-name="Layer 2"><g id="Safari"><path d="M130,0A130,130,0,0,0,0,130c0,2.18.06,4.35.16,6.5H130V143H.65q.33,3.27.81,6.5H130V156H2.61c.44,2.19.93,4.35,1.49,6.5H130V169H6q1,3.28,2.24,6.5H130V182H10.85c1,2.2,2,4.36,3.07,6.5H130V195H17.44q1.9,3.31,4,6.5H130V208H26c1.67,2.23,3.44,4.38,5.25,6.5H130V221H37.2q3.3,3.38,6.86,6.5H130V234H52c3.07,2.31,6.26,4.47,9.53,6.5H130V247H73.29a128,128,0,0,0,16.12,6.5H130V260A130,130,0,0,0,130,0Z"/></g></g></svg>