<svg xmlns="http://www.w3.org/2000/svg" viewBox="0 0 436.16 142.81"><defs><style>.cls-1{fill:#404041;}.cls-2{fill:#296437;}.cls-3{fill:#b01f35;}</style></defs><g id="Layer_2" data-name="Layer 2"><g id="Layer_7" data-name="Layer 7"><path class="cls-1" d="M184.92,39.27a.49.49,0,0,1,.35.15l.84.9a13.93,13.93,0,0,1-2,1.77,12.42,12.42,0,0,1-2.37,1.34,13.78,13.78,0,0,1-2.83.86,17.82,17.82,0,0,1-3.39.3,14.47,14.47,0,0,1-5.65-1.07,12.57,12.57,0,0,1-4.41-3.07,13.8,13.8,0,0,1-2.86-4.79,18.15,18.15,0,0,1-1-6.24,17.31,17.31,0,0,1,1-6.16,14.09,14.09,0,0,1,2.94-4.79,13,13,0,0,1,4.52-3.11,15.14,15.14,0,0,1,5.83-1.1,13.86,13.86,0,0,1,9.67,3.61l-.65.94a.6.6,0,0,1-.53.25,1.67,1.67,0,0,1-.82-.46,10.27,10.27,0,0,0-1.57-1,12.78,12.78,0,0,0-2.5-1,12.26,12.26,0,0,0-3.6-.46A12.6,12.6,0,0,0,171,17a10.73,10.73,0,0,0-3.84,2.64,12.14,12.14,0,0,0-2.5,4.19,15.93,15.93,0,0,0-.91,5.56,16.16,16.16,0,0,0,.92,5.62,12.16,12.16,0,0,0,2.5,4.18,10.86,10.86,0,0,0,3.76,2.62,12,12,0,0,0,4.69.91,17.24,17.24,0,0,0,2.84-.21,11,11,0,0,0,2.29-.63,10.06,10.06,0,0,0,2-1,15,15,0,0,0,1.79-1.42,1.28,1.28,0,0,1,.21-.14A.5.5,0,0,1,184.92,39.27Z"/><path class="cls-1" d="M218.64,29.42a17.82,17.82,0,0,1-1,6.23,13.75,13.75,0,0,1-2.89,4.78,12.86,12.86,0,0,1-4.48,3.06,15.85,15.85,0,0,1-11.5,0,12.78,12.78,0,0,1-4.46-3.06,13.75,13.75,0,0,1-2.89-4.78,17.82,17.82,0,0,1-1-6.23,17.84,17.84,0,0,1,1-6.22,13.84,13.84,0,0,1,2.89-4.78,12.94,12.94,0,0,1,4.46-3.07,15.78,15.78,0,0,1,11.5,0,12.88,12.88,0,0,1,4.48,3.07,14,14,0,0,1,2.89,4.79A17.84,17.84,0,0,1,218.64,29.42Zm-2.22,0a17,17,0,0,0-.86-5.58,12.16,12.16,0,0,0-2.43-4.19A10.47,10.47,0,0,0,209.35,17a13.38,13.38,0,0,0-9.7,0,10.6,10.6,0,0,0-3.79,2.63,12,12,0,0,0-2.45,4.19,16.76,16.76,0,0,0-.87,5.58,16.67,16.67,0,0,0,.87,5.58,12,12,0,0,0,2.45,4.19,10.57,10.57,0,0,0,3.79,2.62,13.52,13.52,0,0,0,9.7,0,10.45,10.45,0,0,0,3.78-2.62A12.16,12.16,0,0,0,215.56,35,16.94,16.94,0,0,0,216.42,29.42Z"/><path class="cls-1" d="M255.72,14.6V44.26h-1.87V19c0-.36,0-.75.06-1.15L242.24,38.56a.93.93,0,0,1-.84.54h-.34a.93.93,0,0,1-.84-.54l-12-20.78a10.12,10.12,0,0,1,.07,1.2V44.26h-1.89V14.6h1.49a1.42,1.42,0,0,1,.46.06.72.72,0,0,1,.33.34l12,20.62a8,8,0,0,1,.55,1.26q.12-.33.27-.66a6,6,0,0,1,.32-.62L253.43,15a.7.7,0,0,1,.35-.34,1.45,1.45,0,0,1,.47-.06Z"/><path class="cls-1" d="M294.72,14.6V44.26h-1.86V19c0-.36,0-.75.06-1.15L281.24,38.56a.9.9,0,0,1-.84.54h-.33a.91.91,0,0,1-.84-.54l-12-20.78q.06.63.06,1.2V44.26h-1.88V14.6h1.48a1.49,1.49,0,0,1,.47.06.72.72,0,0,1,.33.34l12,20.62a8,8,0,0,1,.54,1.26c.09-.22.18-.44.28-.66s.2-.42.31-.62L292.44,15a.69.69,0,0,1,.34-.34,1.53,1.53,0,0,1,.47-.06Z"/><path class="cls-1" d="M306.58,44.26h-2.16V14.6h2.16Z"/><path class="cls-1" d="M330.68,18.2a.59.59,0,0,1-.54.36,1.23,1.23,0,0,1-.71-.39,9,9,0,0,0-1.16-.86,9.81,9.81,0,0,0-1.83-.87,8.22,8.22,0,0,0-2.72-.4,8,8,0,0,0-2.84.47,5.76,5.76,0,0,0-2.05,1.25,5.44,5.44,0,0,0-1.26,1.85,5.68,5.68,0,0,0-.43,2.2,4.43,4.43,0,0,0,.64,2.49A5.76,5.76,0,0,0,319.47,26a10.75,10.75,0,0,0,2.38,1.16c.88.32,1.8.63,2.73.94s1.85.64,2.74,1a10,10,0,0,1,2.38,1.4,6.25,6.25,0,0,1,1.68,2.06A6.53,6.53,0,0,1,332,35.6a9.48,9.48,0,0,1-.64,3.51A8.06,8.06,0,0,1,329.53,42a8.56,8.56,0,0,1-3,1.92,10.72,10.72,0,0,1-4,.7,11.38,11.38,0,0,1-5-1,11.93,11.93,0,0,1-3.72-2.84l.59-.93a.74.74,0,0,1,.59-.31.82.82,0,0,1,.48.25l.71.62c.28.24.62.51,1,.8a8.7,8.7,0,0,0,1.36.79,9.27,9.27,0,0,0,4.07.87,8.58,8.58,0,0,0,3.14-.53,6.84,6.84,0,0,0,2.34-1.46,6.1,6.1,0,0,0,1.46-2.19,7.37,7.37,0,0,0,.5-2.71,4.76,4.76,0,0,0-.64-2.59,5.38,5.38,0,0,0-1.69-1.7,10.63,10.63,0,0,0-2.37-1.14c-.89-.31-1.8-.61-2.74-.9s-1.85-.63-2.74-1a9.66,9.66,0,0,1-2.38-1.39,6.4,6.4,0,0,1-1.68-2.12,7,7,0,0,1-.64-3.18,7.64,7.64,0,0,1,.56-2.87,7.2,7.2,0,0,1,1.66-2.44A8.14,8.14,0,0,1,320,14.9a10,10,0,0,1,3.66-.64,11,11,0,0,1,4.14.74,10,10,0,0,1,3.35,2.24Z"/><path class="cls-1" d="M354.05,18.2a.6.6,0,0,1-.55.36,1.21,1.21,0,0,1-.7-.39,9,9,0,0,0-1.16-.86,9.62,9.62,0,0,0-1.84-.87,8.11,8.11,0,0,0-2.71-.4,8,8,0,0,0-2.84.47,5.76,5.76,0,0,0-2.05,1.25,5.17,5.17,0,0,0-1.26,1.85,5.68,5.68,0,0,0-.43,2.2,4.43,4.43,0,0,0,.64,2.49A5.72,5.72,0,0,0,342.83,26a11,11,0,0,0,2.38,1.16c.89.32,1.8.63,2.74.94s1.85.64,2.73,1a9.82,9.82,0,0,1,2.38,1.4,6.28,6.28,0,0,1,1.69,2.06,6.53,6.53,0,0,1,.64,3.05,9.48,9.48,0,0,1-.64,3.51A8.06,8.06,0,0,1,352.9,42a8.65,8.65,0,0,1-3,1.92,10.76,10.76,0,0,1-4,.7,11.42,11.42,0,0,1-5.06-1,11.9,11.9,0,0,1-3.71-2.84l.59-.93a.73.73,0,0,1,.59-.31.84.84,0,0,1,.48.25l.71.62c.28.24.62.51,1,.8a8.26,8.26,0,0,0,1.36.79,9.49,9.49,0,0,0,1.78.62,9.34,9.34,0,0,0,2.29.25,8.58,8.58,0,0,0,3.14-.53,6.94,6.94,0,0,0,2.34-1.46,6.24,6.24,0,0,0,1.46-2.19,7.37,7.37,0,0,0,.5-2.71,4.76,4.76,0,0,0-.64-2.59,5.48,5.48,0,0,0-1.69-1.7,10.71,10.71,0,0,0-2.38-1.14q-1.34-.46-2.73-.9c-.94-.3-1.85-.63-2.74-1a9.48,9.48,0,0,1-2.38-1.39,6.42,6.42,0,0,1-1.69-2.12,7.12,7.12,0,0,1-.63-3.18,7.45,7.45,0,0,1,.56-2.87,7.2,7.2,0,0,1,1.66-2.44,8,8,0,0,1,2.69-1.7,10,10,0,0,1,3.66-.64,11,11,0,0,1,4.14.74,9.82,9.82,0,0,1,3.34,2.24Z"/><path class="cls-1" d="M365.17,44.26H363V14.6h2.15Z"/><path class="cls-1" d="M401.23,29.42a18.05,18.05,0,0,1-1,6.23,13.77,13.77,0,0,1-2.9,4.78,12.72,12.72,0,0,1-4.47,3.06,15.85,15.85,0,0,1-11.5,0,12.78,12.78,0,0,1-4.46-3.06,13.77,13.77,0,0,1-2.9-4.78,18.05,18.05,0,0,1-1-6.23,18.08,18.08,0,0,1,1-6.22,13.87,13.87,0,0,1,2.9-4.78,12.94,12.94,0,0,1,4.46-3.07,15.78,15.78,0,0,1,11.5,0,12.75,12.75,0,0,1,4.47,3.07,14,14,0,0,1,2.9,4.79A18.07,18.07,0,0,1,401.23,29.42Zm-2.23,0a16.76,16.76,0,0,0-.86-5.58,11.86,11.86,0,0,0-2.43-4.19A10.44,10.44,0,0,0,391.94,17a13.41,13.41,0,0,0-9.71,0,10.56,10.56,0,0,0-3.78,2.63A11.89,11.89,0,0,0,376,23.84a16.76,16.76,0,0,0-.87,5.58A16.67,16.67,0,0,0,376,35a11.89,11.89,0,0,0,2.45,4.19,10.54,10.54,0,0,0,3.78,2.62,13.55,13.55,0,0,0,9.71,0,10.41,10.41,0,0,0,3.77-2.62A11.86,11.86,0,0,0,398.14,35,16.68,16.68,0,0,0,399,29.42Z"/><path class="cls-1" d="M431.89,14.6V44.26h-1a1,1,0,0,1-.45-.09,1.33,1.33,0,0,1-.35-.33L410.82,18.1c0,.42.06.82.06,1.19v25H409V14.6h1.07a1.12,1.12,0,0,1,.45.07,1,1,0,0,1,.34.33l19.22,25.67c0-.41-.06-.81-.06-1.19V14.6Z"/><path class="cls-1" d="M186.4,53.52V83.18h-1a1,1,0,0,1-.45-.09,1.07,1.07,0,0,1-.35-.33L165.34,57c0,.42.06.82.06,1.19v25h-1.89V53.52h1.07a1.06,1.06,0,0,1,.45.07,1,1,0,0,1,.35.33L184.6,79.6q-.06-.63-.06-1.2V53.52Z"/><path class="cls-1" d="M223.71,83.18h-1.66a.71.71,0,0,1-.48-.16,1,1,0,0,1-.29-.4L217.8,74H203.23l-3.48,8.62a.94.94,0,0,1-.3.39.72.72,0,0,1-.5.17h-1.63l12.13-29.66h2.12Zm-6.56-10.77-6-15a16.07,16.07,0,0,1-.61-1.76c-.08.33-.17.65-.27,1s-.2.58-.31.83l-6,15Z"/><path class="cls-1" d="M251,55.34H240.55V83.18h-2.16V55.34H227.91V53.52H251Z"/><path class="cls-1" d="M264.11,83.18H262V53.52h2.16Z"/><path class="cls-1" d="M305.2,68.34a18.15,18.15,0,0,1-1,6.24,14,14,0,0,1-2.9,4.78,12.72,12.72,0,0,1-4.47,3.06,15.85,15.85,0,0,1-11.5,0,12.78,12.78,0,0,1-4.46-3.06,14,14,0,0,1-2.9-4.78,19.54,19.54,0,0,1,0-12.46,13.82,13.82,0,0,1,2.9-4.77,12.83,12.83,0,0,1,4.46-3.08,15.78,15.78,0,0,1,11.5,0,12.75,12.75,0,0,1,4.47,3.07,14,14,0,0,1,2.9,4.79A18.08,18.08,0,0,1,305.2,68.34Zm-2.22,0a16.76,16.76,0,0,0-.86-5.58,11.86,11.86,0,0,0-2.43-4.19,10.56,10.56,0,0,0-3.77-2.63,13.41,13.41,0,0,0-9.71,0,10.69,10.69,0,0,0-3.78,2.63A11.89,11.89,0,0,0,280,62.76a18.36,18.36,0,0,0,0,11.17,11.94,11.94,0,0,0,2.45,4.18,10.54,10.54,0,0,0,3.78,2.62,13.55,13.55,0,0,0,9.71,0,10.41,10.41,0,0,0,3.77-2.62,11.9,11.9,0,0,0,2.43-4.18A16.78,16.78,0,0,0,303,68.34Z"/><path class="cls-1" d="M340.92,53.52V83.18h-1a1,1,0,0,1-.45-.09,1.18,1.18,0,0,1-.35-.33L319.85,57c0,.42.06.82.06,1.19v25H318V53.52h1.06a1.06,1.06,0,0,1,.45.07,1,1,0,0,1,.35.33L339.11,79.6q-.06-.63-.06-1.2V53.52Z"/><path class="cls-1" d="M378.22,83.18h-1.66a.71.71,0,0,1-.48-.16,1.09,1.09,0,0,1-.29-.4L372.31,74H357.74l-3.48,8.62A.91.91,0,0,1,354,83a.75.75,0,0,1-.51.17h-1.63L364,53.52h2.11Zm-6.56-10.77-6-15a16.07,16.07,0,0,1-.61-1.76c-.08.33-.17.65-.27,1s-.2.58-.31.83l-6,15Z"/><path class="cls-1" d="M405.34,81.36v1.82H389.13V53.52h2.16V81.36Z"/><path class="cls-1" d="M434.15,81.4l0,1.78H416.33V53.52h17.78V55.3H418.49v12h13V69h-13V81.4Z"/><path class="cls-2" d="M172.36,94.45a17.48,17.48,0,0,1,5.26.71,10.3,10.3,0,0,1,3.67,2,8,8,0,0,1,2.15,3.07,10.43,10.43,0,0,1,.7,3.89,11,11,0,0,1-.73,4,8.48,8.48,0,0,1-2.2,3.15,10.32,10.32,0,0,1-3.68,2.06,16.46,16.46,0,0,1-5.17.73h-4.21v10.67h-5.64V94.45Zm0,15.24a8.45,8.45,0,0,0,2.7-.39,5.17,5.17,0,0,0,1.92-1.11,4.47,4.47,0,0,0,1.14-1.76,6.76,6.76,0,0,0,.38-2.32,6.15,6.15,0,0,0-.38-2.2,4.38,4.38,0,0,0-1.13-1.67,5,5,0,0,0-1.91-1.06,8.81,8.81,0,0,0-2.72-.37h-4.21v10.88Z"/><path class="cls-2" d="M218.36,109.61a17,17,0,0,1-1.1,6.17,14.6,14.6,0,0,1-3.12,4.92,14,14,0,0,1-4.84,3.23,17.41,17.41,0,0,1-12.55,0,14.22,14.22,0,0,1-4.86-3.23,14.62,14.62,0,0,1-3.13-4.92,17.73,17.73,0,0,1,0-12.35,14.48,14.48,0,0,1,3.13-4.91,14.1,14.1,0,0,1,4.86-3.24A16.2,16.2,0,0,1,203,94.12a16.81,16.81,0,0,1,4.34.53,15.26,15.26,0,0,1,3.73,1.51,13.57,13.57,0,0,1,3,2.37,14.32,14.32,0,0,1,2.3,3.11,15.36,15.36,0,0,1,1.44,3.73A18.24,18.24,0,0,1,218.36,109.61Zm-5.77,0a13.83,13.83,0,0,0-.67-4.48,9.5,9.5,0,0,0-1.9-3.36,8.15,8.15,0,0,0-3-2.12,11.3,11.3,0,0,0-8,0,8.19,8.19,0,0,0-3,2.12,9.54,9.54,0,0,0-1.92,3.36,15.28,15.28,0,0,0,0,9,9.54,9.54,0,0,0,1.92,3.36,8.38,8.38,0,0,0,3,2.1,11.15,11.15,0,0,0,8,0,8.34,8.34,0,0,0,3-2.1,9.5,9.5,0,0,0,1.9-3.36A13.81,13.81,0,0,0,212.59,109.61Z"/><path class="cls-2" d="M264,94.45l-9.41,30.31h-5.09l-6.63-20.71a13.91,13.91,0,0,1-.5-1.84c-.08.35-.17.67-.25,1s-.18.6-.27.86l-6.69,20.71h-5.12l-9.39-30.31h4.72a2.1,2.1,0,0,1,1.23.35,1.74,1.74,0,0,1,.66.93l5.15,18.13c.12.45.22.94.33,1.46l.32,1.64c.12-.58.24-1.13.37-1.65s.28-1,.43-1.45l6-18.13a1.94,1.94,0,0,1,.66-.88,1.84,1.84,0,0,1,1.21-.4h1.65a1.9,1.9,0,0,1,1.2.36,2.12,2.12,0,0,1,.69.92l5.93,18.13a25.65,25.65,0,0,1,.8,3c.18-1.1.38-2.1.61-3l5.15-18.13a1.6,1.6,0,0,1,.64-.9,2.06,2.06,0,0,1,1.23-.38Z"/><path class="cls-2" d="M274.41,98.94v8.4H285v4.34H274.41v8.58h13.46v4.5H268.75V94.45h19.12v4.49Z"/><path class="cls-2" d="M317.52,124.76h-5.1a2.21,2.21,0,0,1-2.09-1.13l-6.38-9.7a2.15,2.15,0,0,0-.78-.78,2.82,2.82,0,0,0-1.27-.23h-2.41v11.84h-5.64V94.45h9.24a19.13,19.13,0,0,1,5.3.64A10.14,10.14,0,0,1,312,96.88a7,7,0,0,1,2.09,2.76,9.58,9.58,0,0,1,.22,6.42,8.28,8.28,0,0,1-1.3,2.48,8.73,8.73,0,0,1-2.1,1.95,10.44,10.44,0,0,1-2.84,1.32,5.7,5.7,0,0,1,1,.74,5.31,5.31,0,0,1,.84,1ZM303,108.87a8.63,8.63,0,0,0,2.78-.4,5.26,5.26,0,0,0,1.95-1.1,4.33,4.33,0,0,0,1.14-1.66,5.79,5.79,0,0,0,.38-2.12,4.3,4.3,0,0,0-1.52-3.54,7.26,7.26,0,0,0-4.65-1.24h-3.6v10.06Z"/><path class="cls-3" d="M320.82,109.94h10.85v4.32H320.82Z"/><path class="cls-2" d="M357.05,99.08h-9.14v25.68h-5.64V99.08h-9.14V94.45h23.92Z"/><path class="cls-2" d="M389.93,109.61a16.79,16.79,0,0,1-1.11,6.17,14.57,14.57,0,0,1-3.11,4.92,14,14,0,0,1-4.84,3.23,17.44,17.44,0,0,1-12.56,0,14.27,14.27,0,0,1-4.85-3.23,14.62,14.62,0,0,1-3.13-4.92,17.73,17.73,0,0,1,0-12.35,14.48,14.48,0,0,1,3.13-4.91,14.15,14.15,0,0,1,4.85-3.24,16.28,16.28,0,0,1,6.27-1.16,16.87,16.87,0,0,1,4.34.53,15.26,15.26,0,0,1,3.73,1.51,13.8,13.8,0,0,1,3.05,2.37,14.65,14.65,0,0,1,2.3,3.11,15.34,15.34,0,0,1,1.43,3.73A17.72,17.72,0,0,1,389.93,109.61Zm-5.77,0a13.83,13.83,0,0,0-.67-4.48,9.52,9.52,0,0,0-1.91-3.36,8.07,8.07,0,0,0-3-2.12,11.27,11.27,0,0,0-8,0,8.19,8.19,0,0,0-3,2.12,9.54,9.54,0,0,0-1.92,3.36,15.28,15.28,0,0,0,0,9,9.54,9.54,0,0,0,1.92,3.36,8.38,8.38,0,0,0,3,2.1,11.13,11.13,0,0,0,8,0,8.26,8.26,0,0,0,3-2.1,9.52,9.52,0,0,0,1.91-3.36A13.81,13.81,0,0,0,384.16,109.61Z"/><path class="cls-3" d="M394.9,109.94h10.86v4.32H394.9Z"/><path class="cls-2" d="M436.16,124.76h-5.61a1.43,1.43,0,0,1-.94-.29,2.49,2.49,0,0,1-.55-.67l-7-11.64a4.53,4.53,0,0,1-.39.91l-6.73,10.73a4,4,0,0,1-.58.66,1.21,1.21,0,0,1-.85.3h-5.26l10.06-15.59-9.66-14.72h5.62a1.68,1.68,0,0,1,.85.16,1.6,1.6,0,0,1,.49.51l6.89,11.11a8.42,8.42,0,0,1,.51-1l6.33-10a1.77,1.77,0,0,1,.5-.59,1.15,1.15,0,0,1,.69-.19h5.39l-9.75,14.49Z"/><path class="cls-2" d="M4.34,87.58c2.93-1,11.76,2,11.76,2s-5.38,7.61-8.31,8.57A5.58,5.58,0,0,1,4.34,87.58Z"/><path class="cls-2" d="M9.25,80.94l12.82,6.74-6.41,13,9.24,28.45L44.28,90.83s2.79-5.31,1-10.71-7.13-8-7.13-8L0,52.48Z"/><path class="cls-2" d="M33.32,16.06C35.13,18.55,35,27.87,35,27.87s-8.9-2.76-10.71-5.25a5.58,5.58,0,1,1,9-6.56Z"/><path class="cls-2" d="M41.15,18.68,38.7,33,24.37,30.87.16,48.46l42.41,6.59s5.92,1,10.5-2.32,5.45-9.27,5.45-9.27L65.36,1.09Z"/><path class="cls-2" d="M110.29,21.53c-1.81,2.49-10.71,5.25-10.71,5.25s-.12-9.32,1.69-11.81a5.58,5.58,0,0,1,9,6.56Z"/><path class="cls-2" d="M110.22,29.78,95.88,31.87,93.44,17.59,69.23,0l6.84,42.37s.86,5.94,5.45,9.27S92,54,92,54l42.41-6.59Z"/><path class="cls-2" d="M128.88,96.42c-2.93-1-8.31-8.57-8.31-8.57s8.83-3,11.75-2a5.58,5.58,0,0,1-3.44,10.61Z"/><path class="cls-2" d="M121,98.9l-6.42-13,12.83-6.74,9.25-28.46L98.48,70.31s-5.38,2.65-7.13,8,1,10.7,1,10.7l19.37,38.3Z"/><path class="cls-3" d="M63.4,137.24c0-3.08,5.57-10.55,5.57-10.55s5.58,7.47,5.58,10.55a5.58,5.58,0,0,1-11.15,0Z"/><path class="cls-3" d="M58.6,130.52,69,120.41l10.38,10.11h29.92L78.83,100.26S74.65,96,69,96s-9.85,4.3-9.85,4.3L28.68,130.52Z"/></g></g></svg>