<svg xmlns="http://www.w3.org/2000/svg" viewBox="0 0 601.7 412.39"><defs><style>.cls-1{fill:#dccf59;}.cls-2{fill:#231f20;}.cls-3{fill:#6dbd45;}.cls-4{fill:#80b5b5;}.cls-5{fill:#e48925;}</style></defs><g id="Layer_2" data-name="Layer 2"><g id="Just_Color" data-name="Just Color"><path class="cls-1" d="M153.27,261.28c1,1.5,2,3,2.95,4.59a42.28,42.28,0,0,1,5.63,28.86q-2.35,14.49-5.36,28.88c-.86,4.18,0,7.37,3.15,10.22,10.4,9.45,16.86,21.06,18.29,35.15a29.73,29.73,0,0,0,12.43,22c1.33,1,2.46,2.25,3.77,3.28a9.87,9.87,0,0,1,3.76,8c0,1.2,0,2.42.12,3.61.32,3.27,1.56,4.73,4.79,5.14,9.17,1.17,18.35,2.37,27.53.05a3.2,3.2,0,0,1,1.9-.09c4.06,1.8,7.7.71,11.3-1.35a18.76,18.76,0,0,1,2.93-.79c3.37-1.2,7-2,10-3.82a72.63,72.63,0,0,0,11-8c4-3.44,7.71-7.22,11.43-11,3.12-3.14,4.79-7.13,6.49-11.53-6.59,6.2-13,11.75-18.87,17.88-8,8.42-18.5,11.46-29.13,14.34a1,1,0,0,1-.55.08c-3.93-1.67-7.8-.44-11.79-.13-6.06.47-12.21-.13-18.32-.28-3.88-.1-4.72-.94-4.43-4.92a11.4,11.4,0,0,0-2.74-8.48,51.41,51.41,0,0,0-4.43-5c-8.21-7.57-12.76-16.88-14.82-27.87-2.19-11.67-6.25-22.67-15.83-30.74-2.37-2-2.84-4.87-2.15-7.91q2.33-10.28,4.6-20.56c1.87-8.47,2-15.74-.39-24.4-1.34-4.78-13.23-15.25-13.23-15.25"/><path class="cls-1" d="M321.09,145.36c-3.59-5.83-7.57-11.46-10.67-17.53-6.75-13.24-10.84-27.51-15.39-41.59-3.64-11.26-7-22.64-12.85-33a8.89,8.89,0,0,1-.82-4.25c0-12-9.11-18.51-20.19-14.29a22.56,22.56,0,0,1-15,.77c-7.3-2.29-14.48-5-21.63-7.74-6.33-2.43-12.56-1.93-18.7.34-3.71,1.37-4.91,3.76-4.23,7.07.93,4.51-.84,6.44-5.35,5.44-4.05-.9-8-2.13-12-3.37A4.74,4.74,0,0,1,182,35.29c-5-7.46-12.08-10.2-20.84-9.22a4.45,4.45,0,0,1-2.86-.62,52.51,52.51,0,0,1-4.4-3.94c5.38-4.06,5.37-4.29,1.25-9.83a3.89,3.89,0,0,1-.3-3c1.44-4.93.27-7.17-4.86-8.12-7.53-1.39-15,0-22.31,1.46A358.4,358.4,0,0,0,72.57,17.92c-.89.33-2.19.66-2.87.26-3.38-2-6.26-.84-8.53,1.55-3.75,3.95-7.6,8-10.59,12.46-9.27,14-18.07,28.25-27.22,42.31C18.57,81.87,13.6,89.07,6.87,95c-2.78,2.46-4.4,6.31-6.29,9.68-1.12,2-.46,4,.65,6,4.53,8.3,5.2,16.78.88,25.48-1,1.92-1.88,4.34-1.55,6.32a60.25,60.25,0,0,0,3.73,14.06c4.73,10.82,12,19.95,20.23,28.36A81.06,81.06,0,0,0,41.91,199h0c-5.77-6.23-12.4-15.09-17.65-20.72-7.63-8.19-14.26-17.08-17.69-28-1.63-5.16-1.77-10.17,1.55-14.86A12.46,12.46,0,0,0,9.74,132c2.08-6.83,3.72-13.61-.59-20.33a6.08,6.08,0,0,1-.28-4.23c1.09-4.46,4-7.83,7-11.13a103.64,103.64,0,0,0,9.66-11.42c3.55-5.18,6.54-10.76,9.68-16.22C42.17,56.58,48.88,44.41,56,32.5c2.1-3.51,5.21-6.47,8.1-9.43,1.35-1.39,3.4-2.25,5.31-.84,1.52,1.12,2.79.86,4.36.21C92.37,14.82,111.26,8.08,131,4.08c5.21-1.06,10.54-2.31,15.94-.87,3.56,1,4.91,3.14,3.42,6.43-1.07,2.38-.83,3.77,1.2,5.41,2.41,1.94,2.21,3.36-.23,5.39-1.09.9-2.26,1.7-3.38,2.54,1.5,1.11,3.07,1.8,3.91,3,1.53,2.19,3.42,2.37,5.79,2.2,7.95-.57,14.55,2,19.21,8.74.56.82,1.22,2,2,2.16,7.27,1.67,14.54,3.41,21.9,4.58,3.4.54,4.45-1,4.22-4.48-.32-4.77.78-6.71,5.31-8.08,7-2.1,13.85-2.28,20.22,2.1a35.2,35.2,0,0,0,4.1,2.33c8.27,4.22,16.55,6.25,25.84,2.62,8-3.11,16.39,2.17,17.51,10.78.7,5.42,2.69,10.16,4.58,15.16,4.67,12.35,8.64,25,12.82,37.5s8.74,25.24,17,35.95c2.72,3.52,6,6.61,9,9.89l.66-.58C321.77,146.35,321.4,145.87,321.09,145.36Z"/><path class="cls-2" d="M346.21,212l-6,30.93h-25.5L344,107.61h31.52L401.84,243h-25.7L370.51,212Zm21.89-20.48-4.41-28.32c-1.41-8.23-3.22-21.89-4.42-30.72h-.6c-1.41,9-3.42,22.89-4.82,30.72l-5,28.32Z"/><path class="cls-2" d="M443,107.61V243H416.7V107.61Z"/><path class="cls-2" d="M466.5,109.61c8-1.8,18.68-2.61,29.92-2.61,12.66,0,24.91,1.61,34.34,9.64,7.23,6,10.25,15.06,10.25,24.7,0,11.85-6.23,23.5-19.48,29.32v.81c15.66,4.41,23.89,17.27,23.89,32.33,0,11-3.61,19.88-10,26.51-8,8.83-21.69,13.65-44.38,13.65a192.71,192.71,0,0,1-24.5-1.4Zm26.31,53.62h5.62c9.44,0,16.67-8,16.67-18.87,0-10.05-4.62-17.68-15.26-17.68a21.51,21.51,0,0,0-7,.81Zm0,60.05a25.71,25.71,0,0,0,5.82.4c10.85,0,19.48-6.63,19.48-20.28s-9.24-20.69-19.68-20.69h-5.62Z"/><path class="cls-2" d="M572.73,244.57c-8,0-15.06-6.83-15.06-17.28,0-10.24,7.23-17.67,15.46-17.67,8.44,0,15.27,6.63,15.27,17.67,0,10.45-6.23,17.28-15.47,17.28Z"/><path class="cls-3" d="M60,253.5a23.29,23.29,0,0,0,9.9,2.54c9,0,13.33-6.1,15.11-14.86l1.53-7.36h-.26c-4.32,6.6-9,9-14,9-8.63,0-12.82-8-13.08-17.78-.38-19.55,11.18-45.2,34-45.2a39.05,39.05,0,0,1,17.65,3.81l-10,52.82c-2,11.05-5.34,19.3-10.67,24.51-5.08,5.08-12.19,7.37-21,7.37-4.83,0-10.92-1.27-13.34-2.8Zm33.77-60.7a6.35,6.35,0,0,0-3.3-.63c-9.27,0-15.36,17.77-15.49,28.31,0,4.57.38,9.78,4.83,9.78,4.95,0,8.5-8.51,9.52-13.59Z"/><path class="cls-3" d="M111,243l8-42.16c1.4-7,2.29-14.1,3.18-19.94h13.59c-.26,3.31-.51,6.61-1,10.42h.51c4.57-7.88,10.16-11.43,15.36-11.43a14,14,0,0,1,2.54.25l-3,16a14.07,14.07,0,0,0-2.54-.25c-6.86,0-13.34,8-15.37,18.41L126.9,243Z"/><path class="cls-3" d="M189.12,240.29a43.45,43.45,0,0,1-17.78,3.43c-15.36,0-21.2-10.16-21.2-23.36,0-18,10-40.51,29.84-40.51,11.3,0,16.25,8.51,16.38,17,0,16.89-13.59,23.24-30.86,22.73,0,1.78.13,5,1.52,7.24,1.4,2.54,4.2,4.45,8.51,4.45a27.38,27.38,0,0,0,12.57-3.05Zm-6.73-42.16c0-3.43-1.4-5.46-4.44-5.46-4.83,0-9.15,6.1-10.93,15,8.39.38,15.37-2.92,15.37-9.4Z"/><path class="cls-3" d="M237.88,240.29a43.45,43.45,0,0,1-17.78,3.43c-15.36,0-21.2-10.16-21.2-23.36,0-18,10-40.51,29.84-40.51,11.3,0,16.25,8.51,16.38,17,0,16.89-13.59,23.24-30.86,22.73,0,1.78.13,5,1.53,7.24,1.39,2.54,4.19,4.45,8.5,4.45a27.35,27.35,0,0,0,12.57-3.05Zm-6.73-42.16c0-3.43-1.4-5.46-4.44-5.46-4.83,0-9.15,6.1-10.92,15,8.38.38,15.36-2.92,15.36-9.4Z"/><path class="cls-3" d="M245.12,243l8-41.91c1.4-7.23,2.28-14.22,3.17-20.19h13.59l-.63,8h.25c4.32-5.71,10.16-9,16.76-9,8.89,0,12.06,6.22,12.06,13.59a69.08,69.08,0,0,1-1.39,11.8L289.82,243H273.94l7.24-38.6a27.6,27.6,0,0,0,.76-6.61c0-2.92-1.14-4.95-3.81-4.95-3.68,0-8.76,5.46-10.92,17.27L261,243Z"/><path class="cls-2" d="M122.63,142.62l-1.24,6.31H126l-.85,4.42h-4.57l-2.13,11.18a12,12,0,0,0-.2,2c0,1.49.74,2,1.89,2a10.35,10.35,0,0,0,1.68-.1l-.74,4.62a11.68,11.68,0,0,1-3.73.4c-3.72,0-5.56-2.09-5.56-5.32a20,20,0,0,1,.45-3.68l2.13-11.18H111.5l.8-4.42h2.88l.84-4.27Z"/><path class="cls-2" d="M124.17,173.23l6.51-34.38h6.21l-2.48,13.06.09.05a7.52,7.52,0,0,1,6.11-3.43c3,0,4.38,2.19,4.38,5.32a25.86,25.86,0,0,1-.55,4.77l-2.78,14.61h-6.21l2.78-14.61a23.51,23.51,0,0,0,.3-3.08c0-1.19-.45-1.94-1.44-1.94-1.44,0-3.33,2.09-4.08,5.77l-2.63,13.86Z"/><path class="cls-2" d="M162.43,172.18a17,17,0,0,1-7,1.35c-6,0-8.29-4-8.29-9.15,0-7,3.92-15.85,11.67-15.85,4.42,0,6.36,3.33,6.41,6.66,0,6.61-5.32,9.09-12.07,8.9a5.79,5.79,0,0,0,.59,2.83,3.58,3.58,0,0,0,3.33,1.74,10.67,10.67,0,0,0,4.92-1.2Zm-2.64-16.49c0-1.34-.54-2.14-1.73-2.14-1.89,0-3.58,2.39-4.28,5.87,3.28.14,6-1.15,6-3.68Z"/><path class="cls-4" d="M306.23,282.3h-6.37v-6.47h19.79v6.47h-6.41v29.58h-7Z"/><path class="cls-4" d="M322.49,274.87h7v13.58h.1a8.81,8.81,0,0,1,2.25-2.19,7.11,7.11,0,0,1,3.53-1c4.81,0,6.69,4.06,6.69,10.69v15.89h-7V296c0-2.56-.48-4.81-2.57-4.81-1.17,0-2.19.7-2.72,2.46a10.19,10.19,0,0,0-.27,2v16.26h-7Z"/><path class="cls-4" d="M352.87,301.29c.06,4.06,2.41,5.56,5.51,5.56a15.59,15.59,0,0,0,5-.86l.91,5a19.65,19.65,0,0,1-7.11,1.23c-7.17,0-11.07-4.71-11.07-12.89,0-8.77,4.6-14,10.48-14,5.62,0,8.88,4.44,8.88,12.35a25.59,25.59,0,0,1-.21,3.64Zm6.21-4.92c0-3.32-.86-5.94-2.95-5.94-2.3,0-3.2,3.32-3.26,5.94Z"/><path class="cls-4" d="M398.55,310.91a23,23,0,0,1-7.44,1.29c-4.17,0-7.32-1.18-9.68-3.58-3.1-3.05-4.76-8.35-4.65-14.55.16-13.11,7.6-18.56,15.35-18.56a13.91,13.91,0,0,1,5.83,1.07l-1.18,6a9.87,9.87,0,0,0-4.11-.8c-4.82,0-8.61,3.32-8.61,12.62,0,8.72,3.36,11.82,6.68,11.82a3,3,0,0,0,1.39-.21v-8.67h-3.26v-5.72h9.68Z"/><path class="cls-4" d="M403.15,293.59c0-2.57-.11-5.4-.21-7.87h6l.37,3.86h.22c1.12-2.79,3.26-4.28,5.13-4.28a9.68,9.68,0,0,1,1.5.1v7a11.26,11.26,0,0,0-1.5-.06,4.57,4.57,0,0,0-4.22,3.69,8.31,8.31,0,0,0-.32,2.62v13.27h-7Z"/><path class="cls-4" d="M424.55,301.29c.05,4.06,2.4,5.56,5.5,5.56a15.71,15.71,0,0,0,5-.86l.91,5a19.75,19.75,0,0,1-7.12,1.23c-7.16,0-11.07-4.71-11.07-12.89,0-8.77,4.6-14,10.49-14,5.61,0,8.87,4.44,8.87,12.35a24.13,24.13,0,0,1-.21,3.64Zm6.2-4.92c0-3.32-.86-5.94-2.94-5.94-2.3,0-3.21,3.32-3.26,5.94Z"/><path class="cls-4" d="M447,301.29c.05,4.06,2.4,5.56,5.51,5.56a15.64,15.64,0,0,0,5-.86l.91,5a19.69,19.69,0,0,1-7.11,1.23c-7.17,0-11.08-4.71-11.08-12.89,0-8.77,4.6-14,10.49-14,5.61,0,8.87,4.44,8.87,12.35a24.13,24.13,0,0,1-.21,3.64Zm6.2-4.92c0-3.32-.85-5.94-2.94-5.94-2.3,0-3.21,3.32-3.26,5.94Z"/><path class="cls-4" d="M463.49,293.59c0-2.84-.11-5.35-.22-7.87h6l.38,3h.11a7.46,7.46,0,0,1,6.31-3.42c5,0,6.95,3.95,6.95,9.78v16.8h-7V295.51c0-2.19-.53-4.33-2.56-4.33-1.18,0-2.14.8-2.62,2.35a6.73,6.73,0,0,0-.38,2.41v15.94h-7Z"/><path class="cls-4" d="M502.85,303.64l-1.6,8.24h-6.79l7.8-36.05h8.4l7,36.05h-6.85l-1.5-8.24Zm5.83-5.45-1.17-7.54c-.38-2.2-.86-5.83-1.18-8.19h-.16c-.38,2.41-.91,6.1-1.29,8.19l-1.33,7.54Z"/><path class="cls-4" d="M522,311.88V290.7h-3.53v-5H522v-1c0-3,.64-5.72,2.73-7.86a8.55,8.55,0,0,1,6.2-2.41,14.06,14.06,0,0,1,4.23.59l-.8,5.45a6.15,6.15,0,0,0-2.14-.32c-2.36,0-3.21,2.09-3.21,4.33v1.23h4.54v5H529v21.18Z"/><path class="cls-4" d="M536.07,293.59c0-2.57-.11-5.4-.22-7.87h6l.37,3.86h.22c1.12-2.79,3.26-4.28,5.13-4.28a9.79,9.79,0,0,1,1.5.1v7a11.26,11.26,0,0,0-1.5-.06A4.57,4.57,0,0,0,543.4,296a8.31,8.31,0,0,0-.32,2.62v13.27h-7Z"/><path class="cls-4" d="M555.11,282.62a3.52,3.52,0,0,1-3.48-3.79,3.59,3.59,0,1,1,7.17,0,3.55,3.55,0,0,1-3.64,3.79Zm-3.32,29.26V285.72h7v26.16Z"/><path class="cls-4" d="M578.22,311.4a11.15,11.15,0,0,1-4.44.8c-6.64,0-11-4.6-11-13.1,0-8.08,4.76-13.7,12-13.7a10.24,10.24,0,0,1,3.85.7l-.91,5.51a7.18,7.18,0,0,0-2.62-.48c-3.37,0-5.34,3.21-5.34,7.7,0,4.76,2,7.65,5.24,7.65a5.68,5.68,0,0,0,2.62-.54Z"/><path class="cls-4" d="M599.45,305.89a41.54,41.54,0,0,0,.38,6h-6.26l-.38-2.57H593a6.76,6.76,0,0,1-5.77,3c-4,0-6.9-3.32-6.9-7.92,0-6.9,6-9.68,12-9.73v-.59a3.32,3.32,0,0,0-3.69-3.59A9.88,9.88,0,0,0,583.3,292L582,287.28a17.81,17.81,0,0,1,8.18-2c8,0,9.25,5.56,9.25,10.91Zm-6.9-6.74c-2.3.05-5.56.85-5.56,4.49,0,2.57,1.44,3.53,2.51,3.53a2.93,2.93,0,0,0,2.89-2.25,3.91,3.91,0,0,0,.16-1.23Z"/><path class="cls-5" d="M256.22,319.45V355.5h-7V319.45Z"/><path class="cls-5" d="M261.83,337.2c0-2.83-.1-5.34-.21-7.86h6l.38,3h.1a7.48,7.48,0,0,1,6.31-3.42c5,0,7,3.95,7,9.78v16.8h-7V339.13c0-2.19-.53-4.33-2.57-4.33-1.17,0-2.14.8-2.62,2.35a7,7,0,0,0-.37,2.41V355.5h-7Z"/><path class="cls-5" d="M286.33,337.2c0-2.83-.11-5.34-.21-7.86h6l.37,3h.11a7.47,7.47,0,0,1,6.31-3.42c5,0,7,3.95,7,9.78v16.8h-7V339.13c0-2.19-.54-4.33-2.57-4.33-1.17,0-2.14.8-2.62,2.35a7,7,0,0,0-.37,2.41V355.5h-7Z"/><path class="cls-5" d="M319.92,355.92c-6.26,0-10-5-10-13.42,0-9.36,4.92-13.58,10.11-13.58,6.2,0,9.89,5.18,9.89,13.42,0,10.86-6,13.58-9.95,13.58Zm.16-5.34c2.3,0,2.89-4.39,2.89-8.19,0-3.63-.59-8.13-3-8.13-2.56,0-3.1,4.5-3.1,8.13,0,4.44.7,8.19,3.16,8.19Z"/><path class="cls-5" d="M338.64,329.34l2,11.72c.38,2.3.75,4.65,1.12,7.27h.11c.32-2.68.64-4.87,1-7.27l2-11.72h6.9l-7,26.16h-6.41l-7.17-26.16Z"/><path class="cls-5" d="M371.64,349.51a41.54,41.54,0,0,0,.38,6h-6.26l-.37-2.57h-.16a6.77,6.77,0,0,1-5.78,3c-4,0-6.9-3.31-6.9-7.91,0-6.9,6-9.68,12-9.74v-.58a3.32,3.32,0,0,0-3.69-3.59,10,10,0,0,0-5.35,1.55l-1.28-4.76a18,18,0,0,1,8.18-2c8,0,9.25,5.56,9.25,10.91Zm-6.9-6.74c-2.3.05-5.56.85-5.56,4.49,0,2.57,1.45,3.53,2.52,3.53a2.93,2.93,0,0,0,2.88-2.25,4,4,0,0,0,.16-1.23Z"/><path class="cls-5" d="M384.27,322.55v6.79h5.13v5h-5.13v11.92c0,3.05,1.28,3.8,2.62,3.8a10.33,10.33,0,0,0,1.87-.16l.05,5.46a17.13,17.13,0,0,1-4.27.48,7.29,7.29,0,0,1-5.09-1.66c-1.39-1.39-2.19-3.37-2.19-7.49V334.32h-3.1v-5h3.1v-4.6Z"/><path class="cls-5" d="M396,326.24a3.52,3.52,0,0,1-3.47-3.8,3.59,3.59,0,1,1,3.53,3.8Zm-3.31,29.26V329.34h7V355.5Z"/><path class="cls-5" d="M413.69,355.92c-6.26,0-10-5-10-13.42,0-9.36,4.93-13.58,10.11-13.58,6.21,0,9.9,5.18,9.9,13.42,0,10.86-6.05,13.58-9.95,13.58Zm.16-5.34c2.3,0,2.89-4.39,2.89-8.19,0-3.63-.59-8.13-3-8.13-2.57,0-3.1,4.5-3.1,8.13,0,4.44.69,8.19,3.15,8.19Z"/><path class="cls-5" d="M427.65,337.2c0-2.83-.11-5.34-.22-7.86h6.05l.37,3H434a7.47,7.47,0,0,1,6.31-3.42c5,0,7,3.95,7,9.78v16.8h-7V339.13c0-2.19-.54-4.33-2.57-4.33-1.18,0-2.14.8-2.62,2.35a7,7,0,0,0-.38,2.41V355.5h-7Z"/><path class="cls-5" d="M461.29,320a38.56,38.56,0,0,1,8-.69c3.37,0,6.63.43,9.15,2.57A8.79,8.79,0,0,1,476,336.24v.22a8.52,8.52,0,0,1,6.36,8.61,9.79,9.79,0,0,1-2.67,7.06c-2.14,2.35-5.78,3.63-11.82,3.63a52.05,52.05,0,0,1-6.53-.37Zm7,14.28h1.5c2.51,0,4.44-2.14,4.44-5,0-2.68-1.23-4.71-4.07-4.71a5.82,5.82,0,0,0-1.87.21Zm0,16a6.64,6.64,0,0,0,1.55.11c2.89,0,5.19-1.76,5.19-5.4s-2.46-5.51-5.24-5.51h-1.5Z"/><path class="cls-5" d="M495.58,355.92c-6.26,0-10-5-10-13.42,0-9.36,4.92-13.58,10.1-13.58,6.21,0,9.9,5.18,9.9,13.42,0,10.86-6,13.58-9.95,13.58Zm.16-5.34c2.3,0,2.89-4.39,2.89-8.19,0-3.63-.59-8.13-3-8.13-2.57,0-3.1,4.5-3.1,8.13,0,4.44.69,8.19,3.15,8.19Z"/><path class="cls-5" d="M518.63,355.92c-6.26,0-10-5-10-13.42,0-9.36,4.92-13.58,10.11-13.58,6.2,0,9.89,5.18,9.89,13.42,0,10.86-6,13.58-10,13.58Zm.16-5.34c2.3,0,2.89-4.39,2.89-8.19,0-3.63-.59-8.13-3-8.13s-3.1,4.5-3.1,8.13c0,4.44.7,8.19,3.16,8.19Z"/><path class="cls-5" d="M532.38,349.18a9.71,9.71,0,0,0,4.71,1.4c1.81,0,2.83-.81,2.83-2.3s-.75-2.2-3-3.59c-4.22-2.4-5.29-5.08-5.29-7.49,0-4.7,3.37-8.28,8.61-8.28a11.47,11.47,0,0,1,5.29,1.23l-1.23,5.13a7.21,7.21,0,0,0-3.63-1.07c-1.82,0-2.62,1-2.62,2.19s.58,1.87,3,3.32c3.85,2.19,5.3,4.92,5.3,7.86,0,5.35-3.85,8.24-9.25,8.24-2.2,0-4.76-.59-5.94-1.5Z"/><path class="cls-5" d="M558.16,322.55v6.79h5.13v5h-5.13v11.92c0,3.05,1.28,3.8,2.62,3.8a10.25,10.25,0,0,0,1.87-.16l.06,5.46a17.23,17.23,0,0,1-4.28.48,7.25,7.25,0,0,1-5.08-1.66c-1.39-1.39-2.2-3.37-2.2-7.49V334.32h-3.1v-5h3.1v-4.6Z"/><path class="cls-5" d="M572.12,344.91c0,4.06,2.41,5.56,5.51,5.56a15.59,15.59,0,0,0,5-.86l.91,5a19.65,19.65,0,0,1-7.11,1.23c-7.17,0-11.07-4.71-11.07-12.89,0-8.77,4.6-14,10.48-14,5.62,0,8.88,4.43,8.88,12.35a23.72,23.72,0,0,1-.22,3.64Zm6.2-4.92c0-3.32-.85-5.94-2.94-5.94-2.3,0-3.21,3.32-3.26,5.94Z"/><path class="cls-5" d="M588.65,337.2c0-2.56-.11-5.4-.22-7.86h6.05l.37,3.85h.22c1.12-2.78,3.26-4.27,5.13-4.27a9.79,9.79,0,0,1,1.5.1v7a13.5,13.5,0,0,0-1.5-.05,4.56,4.56,0,0,0-4.22,3.69,8.31,8.31,0,0,0-.32,2.62V355.5h-7Z"/></g></g></svg>