<?xml version="1.0" encoding="utf-8"?>
<!-- Generator: Adobe Illustrator 24.2.1, SVG Export Plug-In . SVG Version: 6.00 Build 0)  -->
<svg version="1.1" id="Layer_1" xmlns="http://www.w3.org/2000/svg" xmlns:xlink="http://www.w3.org/1999/xlink" x="0px" y="0px"
	 viewBox="0 0 598.2 296.8" style="enable-background:new 0 0 598.2 296.8;" xml:space="preserve">
<style type="text/css">
	.st0{fill:#0044FF;}
</style>
<path class="st0" d="M129.5,61.3H84.2v174.4h45.3V61.3z"/>
<path class="st0" d="M469,61.4v17c-12.3-12.9-31.3-19.6-49.7-19.6c-48.9,0-88.5,40.2-88.5,89.7s39.6,89.7,88.5,89.7
	c18.4,0,36.7-6.2,49.7-19.8v17.2h45V61.4H469z M421.5,198.3c-28.7,0-50.1-21.7-50.1-50s21.3-50.1,50-50.1s50,21.9,50,50.2
	S450.2,198.3,421.5,198.3z"/>
<path class="st0" d="M273.3,177.6c-8.9,13.6-23.7,22.5-40.5,22.5c-22.3,0-41.2-15.7-47.2-37.2h132.5c0.8-4.8,1.2-9.7,1.2-14.6
	c0-49.5-36.9-89.6-86.6-89.6c-28.8,0-55.8,13.7-72.7,37l32.2,23.3c8.8-13.6,23.7-22.5,40.5-22.5c19.1,0,35.7,11.5,43.8,28.4H146
	c-12.8,48,15.7,97.2,63.7,110c35.9,9.6,73.9-3.9,95.8-33.9L273.3,177.6z"/>
</svg>
