<?xml version="1.0" encoding="utf-8"?>
<!-- Generator: Adobe Illustrator 24.2.3, SVG Export Plug-In . SVG Version: 6.00 Build 0)  -->
<svg version="1.1" id="Capa_1" xmlns="http://www.w3.org/2000/svg" xmlns:xlink="http://www.w3.org/1999/xlink" x="0px" y="0px"
	 viewBox="0 0 512 512" style="enable-background:new 0 0 512 512;" xml:space="preserve">
<style type="text/css">
	.st0{fill:#3368C6;}
</style>
<g>
	<path class="st0" d="M256,43.9c5.5,0,10-4.5,10-10V10c0-5.5-4.5-10-10-10s-10,4.5-10,10v23.9C246,39.4,250.5,43.9,256,43.9z"/>
	<path class="st0" d="M361.4,149.3c0,5.5,4.5,10,10,10h24c5.5,0,10-4.5,10-10s-4.5-10-10-10h-24
		C365.8,139.3,361.4,143.7,361.4,149.3z"/>
	<path class="st0" d="M116.7,159.3h23.9c5.5,0,10-4.5,10-10s-4.5-10-10-10h-23.9c-5.5,0-10,4.5-10,10S111.1,159.3,116.7,159.3z"/>
	<path class="st0" d="M337.6,77.7c2.6,0,5.1-1,7.1-2.9l16.9-16.9c3.9-3.9,3.9-10.2,0-14.1c-3.9-3.9-10.2-3.9-14.1,0l-16.9,16.9
		c-3.9,3.9-3.9,10.2,0,14.1C332.5,76.7,335,77.7,337.6,77.7L337.6,77.7z"/>
	<path class="st0" d="M167.3,74.8c2,2,4.5,2.9,7.1,2.9c2.6,0,5.1-1,7.1-2.9c3.9-3.9,3.9-10.2,0-14.1l-16.9-16.9
		c-3.9-3.9-10.2-3.9-14.1,0c-3.9,3.9-3.9,10.2,0,14.1L167.3,74.8z"/>
	<path class="st0" d="M485.3,353.3L466,245.9c0-0.1,0-0.3-0.1-0.4l-9.6-53.4c-0.9-4.8-5-8.2-9.8-8.2H327.1c5.2-10.7,8-22.5,8-34.6
		c0-43.6-35.5-79.1-79.2-79.1c-43.6,0-79.1,35.5-79.1,79.1c0,12.1,2.8,23.9,8,34.6H65.5c-4.8,0-9,3.5-9.8,8.2L36.4,299.2
		c0,0.1,0,0.3-0.1,0.4l-9.6,53.7c-0.5,2.9,0.3,5.9,2.2,8.2s4.7,3.6,7.7,3.6h16v11.3c0,17.3,14,31.3,31.3,31.3h29.3
		c5.5,0,10-4.5,10-10s-4.5-10-10-10H83.8c-6.2,0-11.3-5.1-11.3-11.3V365h367v11.3c0,6.2-5.1,11.3-11.3,11.3H203c-5.5,0-10,4.5-10,10
		s4.5,10,10,10h19.4v40.9h-21.7c-17.5,0-31.8,14.2-31.8,31.7V492h-43.4c-5.5,0-10,4.5-10,10s4.5,10,10,10h260.9c5.5,0,10-4.5,10-10
		s-4.5-10-10-10h-43.4v-11.8c0-17.5-14.2-31.7-31.8-31.7h-21.7v-40.9h138.6c17.3,0,31.3-14,31.3-31.3V365h16c3,0,5.8-1.3,7.7-3.6
		S485.9,356.2,485.3,353.3L485.3,353.3z M242.4,407.6h27.3v40.9h-27.3V407.6z M311.3,468.5c6.5,0,11.8,5.3,11.8,11.7V492H188.9
		v-11.8c0-6.5,5.3-11.7,11.8-11.7H311.3z M347.3,291.3H266v-33.7h76.6L347.3,291.3z M335.2,203.9l4.7,33.7H266v-33.7H335.2z
		 M256,90.2c32.6,0,59.2,26.5,59.2,59.1c0,12.5-4,24.6-11.2,34.6h-95.9c-7.2-10-11.2-22.1-11.2-34.6
		C196.9,116.7,223.4,90.2,256,90.2z M137.1,345H48.5l6.1-33.7h87.3L137.1,345z M144.5,291.3H58.1l6.1-33.7h85L144.5,291.3z
		 M152,237.6H67.8l6.1-33.7h82.8L152,237.6z M246,345h-88.7l4.7-33.7h84L246,345z M246,291.3h-81.3l4.7-33.7H246V291.3z M246,237.6
		h-73.8l4.7-33.7H246V237.6z M266,345v-33.7h84l4.7,33.7H266z M355.4,203.9h82.8l6.1,33.7H360L355.4,203.9z M362.8,257.6h85
		l6.1,33.7h-86.4L362.8,257.6z M374.9,345l-4.7-33.7h87.3l6.1,33.7H374.9z"/>
	<path class="st0" d="M158.1,407.6c5.5,0,10-4.5,10-10s-4.5-10-10-10s-10,4.5-10,10S152.5,407.6,158.1,407.6L158.1,407.6z"/>
</g>
</svg>
